%TF.GenerationSoftware,KiCad,Pcbnew,(6.0.10)*%
%TF.CreationDate,2023-01-29T20:47:39-05:00*%
%TF.ProjectId,shortstack,73686f72-7473-4746-9163-6b2e6b696361,v1.0.0*%
%TF.SameCoordinates,Original*%
%TF.FileFunction,Drillmap*%
%TF.FilePolarity,Positive*%
%FSLAX45Y45*%
G04 Gerber Fmt 4.5, Leading zero omitted, Abs format (unit mm)*
G04 Created by KiCad (PCBNEW (6.0.10)) date 2023-01-29 20:47:39*
%MOMM*%
%LPD*%
G01*
G04 APERTURE LIST*
%ADD10C,0.150000*%
%ADD11C,0.200000*%
%ADD12C,0.030000*%
%ADD13C,0.130000*%
%ADD14C,0.410000*%
G04 APERTURE END LIST*
D10*
X9662500Y-887500D02*
G75*
G03*
X9762500Y-787500I0J100000D01*
G01*
X9762500Y6112500D02*
G75*
G03*
X9662500Y6212500I-100000J0D01*
G01*
X-2762500Y-787500D02*
G75*
G03*
X-2662500Y-887500I100000J0D01*
G01*
X-2662500Y6212500D02*
X9662500Y6212500D01*
X9762500Y6112500D02*
X9762500Y-787500D01*
X9662500Y-887500D02*
X-2662500Y-887500D01*
X-2762500Y-787500D02*
X-2762500Y6112500D01*
X-2662500Y6212500D02*
G75*
G03*
X-2762500Y6112500I0J-100000D01*
G01*
D11*
D12*
X-255000Y5249984D02*
X-225000Y5219984D01*
X-225000Y5249984D02*
X-255000Y5219984D01*
D11*
X-255000Y5424984D02*
X-255000Y5044984D01*
X-225000Y5424984D02*
X-225000Y5044984D01*
X-255000Y5044984D02*
G75*
G03*
X-225000Y5044984I15000J0D01*
G01*
X-225000Y5424984D02*
G75*
G03*
X-255000Y5424984I-15000J0D01*
G01*
D12*
X-255000Y5248750D02*
X-225000Y5218750D01*
X-225000Y5248750D02*
X-255000Y5218750D01*
D11*
X-255000Y5423750D02*
X-255000Y5043750D01*
X-225000Y5423750D02*
X-225000Y5043750D01*
X-255000Y5043750D02*
G75*
G03*
X-225000Y5043750I15000J0D01*
G01*
X-225000Y5423750D02*
G75*
G03*
X-255000Y5423750I-15000J0D01*
G01*
D12*
X-255000Y3474984D02*
X-225000Y3444984D01*
X-225000Y3474984D02*
X-255000Y3444984D01*
D11*
X-255000Y3649984D02*
X-255000Y3269984D01*
X-225000Y3649984D02*
X-225000Y3269984D01*
X-255000Y3269984D02*
G75*
G03*
X-225000Y3269984I15000J0D01*
G01*
X-225000Y3649984D02*
G75*
G03*
X-255000Y3649984I-15000J0D01*
G01*
D12*
X-255000Y3473750D02*
X-225000Y3443750D01*
X-225000Y3473750D02*
X-255000Y3443750D01*
D11*
X-255000Y3648750D02*
X-255000Y3268750D01*
X-225000Y3648750D02*
X-225000Y3268750D01*
X-255000Y3268750D02*
G75*
G03*
X-225000Y3268750I15000J0D01*
G01*
X-225000Y3648750D02*
G75*
G03*
X-255000Y3648750I-15000J0D01*
G01*
D12*
X-255000Y1699984D02*
X-225000Y1669984D01*
X-225000Y1699984D02*
X-255000Y1669984D01*
D11*
X-255000Y1874984D02*
X-255000Y1494984D01*
X-225000Y1874984D02*
X-225000Y1494984D01*
X-255000Y1494984D02*
G75*
G03*
X-225000Y1494984I15000J0D01*
G01*
X-225000Y1874984D02*
G75*
G03*
X-255000Y1874984I-15000J0D01*
G01*
D12*
X-255000Y1698750D02*
X-225000Y1668750D01*
X-225000Y1698750D02*
X-255000Y1668750D01*
D11*
X-255000Y1873750D02*
X-255000Y1493750D01*
X-225000Y1873750D02*
X-225000Y1493750D01*
X-255000Y1493750D02*
G75*
G03*
X-225000Y1493750I15000J0D01*
G01*
X-225000Y1873750D02*
G75*
G03*
X-255000Y1873750I-15000J0D01*
G01*
D12*
X-255000Y-75016D02*
X-225000Y-105016D01*
X-225000Y-75016D02*
X-255000Y-105016D01*
D11*
X-255000Y99984D02*
X-255000Y-280016D01*
X-225000Y99984D02*
X-225000Y-280016D01*
X-255000Y-280016D02*
G75*
G03*
X-225000Y-280016I15000J0D01*
G01*
X-225000Y99984D02*
G75*
G03*
X-255000Y99984I-15000J0D01*
G01*
D12*
X-255000Y-76250D02*
X-225000Y-106250D01*
X-225000Y-76250D02*
X-255000Y-106250D01*
D11*
X-255000Y98750D02*
X-255000Y-281250D01*
X-225000Y98750D02*
X-225000Y-281250D01*
X-255000Y-281250D02*
G75*
G03*
X-225000Y-281250I15000J0D01*
G01*
X-225000Y98750D02*
G75*
G03*
X-255000Y98750I-15000J0D01*
G01*
D12*
X-15000Y5439984D02*
X15000Y5409984D01*
X15000Y5439984D02*
X-15000Y5409984D01*
D11*
X-240000Y5409984D02*
X240000Y5409984D01*
X-240000Y5439984D02*
X240000Y5439984D01*
X240000Y5409984D02*
G75*
G03*
X240000Y5439984I0J15000D01*
G01*
X-240000Y5439984D02*
G75*
G03*
X-240000Y5409984I0J-15000D01*
G01*
D12*
X-15000Y5438750D02*
X15000Y5408750D01*
X15000Y5438750D02*
X-15000Y5408750D01*
D11*
X-240000Y5408750D02*
X240000Y5408750D01*
X-240000Y5438750D02*
X240000Y5438750D01*
X240000Y5408750D02*
G75*
G03*
X240000Y5438750I0J15000D01*
G01*
X-240000Y5438750D02*
G75*
G03*
X-240000Y5408750I0J-15000D01*
G01*
D12*
X-15000Y5059984D02*
X15000Y5029984D01*
X15000Y5059984D02*
X-15000Y5029984D01*
D11*
X-240000Y5029984D02*
X240000Y5029984D01*
X-240000Y5059984D02*
X240000Y5059984D01*
X240000Y5029984D02*
G75*
G03*
X240000Y5059984I0J15000D01*
G01*
X-240000Y5059984D02*
G75*
G03*
X-240000Y5029984I0J-15000D01*
G01*
D12*
X-15000Y5058750D02*
X15000Y5028750D01*
X15000Y5058750D02*
X-15000Y5028750D01*
D11*
X-240000Y5028750D02*
X240000Y5028750D01*
X-240000Y5058750D02*
X240000Y5058750D01*
X240000Y5028750D02*
G75*
G03*
X240000Y5058750I0J15000D01*
G01*
X-240000Y5058750D02*
G75*
G03*
X-240000Y5028750I0J-15000D01*
G01*
D12*
X-15000Y3664984D02*
X15000Y3634984D01*
X15000Y3664984D02*
X-15000Y3634984D01*
D11*
X-240000Y3634984D02*
X240000Y3634984D01*
X-240000Y3664984D02*
X240000Y3664984D01*
X240000Y3634984D02*
G75*
G03*
X240000Y3664984I0J15000D01*
G01*
X-240000Y3664984D02*
G75*
G03*
X-240000Y3634984I0J-15000D01*
G01*
D12*
X-15000Y3663750D02*
X15000Y3633750D01*
X15000Y3663750D02*
X-15000Y3633750D01*
D11*
X-240000Y3633750D02*
X240000Y3633750D01*
X-240000Y3663750D02*
X240000Y3663750D01*
X240000Y3633750D02*
G75*
G03*
X240000Y3663750I0J15000D01*
G01*
X-240000Y3663750D02*
G75*
G03*
X-240000Y3633750I0J-15000D01*
G01*
D12*
X-15000Y3284984D02*
X15000Y3254984D01*
X15000Y3284984D02*
X-15000Y3254984D01*
D11*
X-240000Y3254984D02*
X240000Y3254984D01*
X-240000Y3284984D02*
X240000Y3284984D01*
X240000Y3254984D02*
G75*
G03*
X240000Y3284984I0J15000D01*
G01*
X-240000Y3284984D02*
G75*
G03*
X-240000Y3254984I0J-15000D01*
G01*
D12*
X-15000Y3283750D02*
X15000Y3253750D01*
X15000Y3283750D02*
X-15000Y3253750D01*
D11*
X-240000Y3253750D02*
X240000Y3253750D01*
X-240000Y3283750D02*
X240000Y3283750D01*
X240000Y3253750D02*
G75*
G03*
X240000Y3283750I0J15000D01*
G01*
X-240000Y3283750D02*
G75*
G03*
X-240000Y3253750I0J-15000D01*
G01*
D12*
X-15000Y1889984D02*
X15000Y1859984D01*
X15000Y1889984D02*
X-15000Y1859984D01*
D11*
X-240000Y1859984D02*
X240000Y1859984D01*
X-240000Y1889984D02*
X240000Y1889984D01*
X240000Y1859984D02*
G75*
G03*
X240000Y1889984I0J15000D01*
G01*
X-240000Y1889984D02*
G75*
G03*
X-240000Y1859984I0J-15000D01*
G01*
D12*
X-15000Y1888750D02*
X15000Y1858750D01*
X15000Y1888750D02*
X-15000Y1858750D01*
D11*
X-240000Y1858750D02*
X240000Y1858750D01*
X-240000Y1888750D02*
X240000Y1888750D01*
X240000Y1858750D02*
G75*
G03*
X240000Y1888750I0J15000D01*
G01*
X-240000Y1888750D02*
G75*
G03*
X-240000Y1858750I0J-15000D01*
G01*
D12*
X-15000Y1509984D02*
X15000Y1479984D01*
X15000Y1509984D02*
X-15000Y1479984D01*
D11*
X-240000Y1479984D02*
X240000Y1479984D01*
X-240000Y1509984D02*
X240000Y1509984D01*
X240000Y1479984D02*
G75*
G03*
X240000Y1509984I0J15000D01*
G01*
X-240000Y1509984D02*
G75*
G03*
X-240000Y1479984I0J-15000D01*
G01*
D12*
X-15000Y1508750D02*
X15000Y1478750D01*
X15000Y1508750D02*
X-15000Y1478750D01*
D11*
X-240000Y1478750D02*
X240000Y1478750D01*
X-240000Y1508750D02*
X240000Y1508750D01*
X240000Y1478750D02*
G75*
G03*
X240000Y1508750I0J15000D01*
G01*
X-240000Y1508750D02*
G75*
G03*
X-240000Y1478750I0J-15000D01*
G01*
D12*
X-15000Y114984D02*
X15000Y84984D01*
X15000Y114984D02*
X-15000Y84984D01*
D11*
X-240000Y84984D02*
X240000Y84984D01*
X-240000Y114984D02*
X240000Y114984D01*
X240000Y84984D02*
G75*
G03*
X240000Y114984I0J15000D01*
G01*
X-240000Y114984D02*
G75*
G03*
X-240000Y84984I0J-15000D01*
G01*
D12*
X-15000Y113750D02*
X15000Y83750D01*
X15000Y113750D02*
X-15000Y83750D01*
D11*
X-240000Y83750D02*
X240000Y83750D01*
X-240000Y113750D02*
X240000Y113750D01*
X240000Y83750D02*
G75*
G03*
X240000Y113750I0J15000D01*
G01*
X-240000Y113750D02*
G75*
G03*
X-240000Y83750I0J-15000D01*
G01*
D12*
X-15000Y-265016D02*
X15000Y-295016D01*
X15000Y-265016D02*
X-15000Y-295016D01*
D11*
X-240000Y-295016D02*
X240000Y-295016D01*
X-240000Y-265016D02*
X240000Y-265016D01*
X240000Y-295016D02*
G75*
G03*
X240000Y-265016I0J15000D01*
G01*
X-240000Y-265016D02*
G75*
G03*
X-240000Y-295016I0J-15000D01*
G01*
D12*
X-15000Y-266250D02*
X15000Y-296250D01*
X15000Y-266250D02*
X-15000Y-296250D01*
D11*
X-240000Y-296250D02*
X240000Y-296250D01*
X-240000Y-266250D02*
X240000Y-266250D01*
X240000Y-296250D02*
G75*
G03*
X240000Y-266250I0J15000D01*
G01*
X-240000Y-266250D02*
G75*
G03*
X-240000Y-296250I0J-15000D01*
G01*
D12*
X225000Y5249984D02*
X255000Y5219984D01*
X255000Y5249984D02*
X225000Y5219984D01*
D11*
X225000Y5424984D02*
X225000Y5044984D01*
X255000Y5424984D02*
X255000Y5044984D01*
X225000Y5044984D02*
G75*
G03*
X255000Y5044984I15000J0D01*
G01*
X255000Y5424984D02*
G75*
G03*
X225000Y5424984I-15000J0D01*
G01*
D12*
X225000Y5248750D02*
X255000Y5218750D01*
X255000Y5248750D02*
X225000Y5218750D01*
D11*
X225000Y5423750D02*
X225000Y5043750D01*
X255000Y5423750D02*
X255000Y5043750D01*
X225000Y5043750D02*
G75*
G03*
X255000Y5043750I15000J0D01*
G01*
X255000Y5423750D02*
G75*
G03*
X225000Y5423750I-15000J0D01*
G01*
D12*
X225000Y3474984D02*
X255000Y3444984D01*
X255000Y3474984D02*
X225000Y3444984D01*
D11*
X225000Y3649984D02*
X225000Y3269984D01*
X255000Y3649984D02*
X255000Y3269984D01*
X225000Y3269984D02*
G75*
G03*
X255000Y3269984I15000J0D01*
G01*
X255000Y3649984D02*
G75*
G03*
X225000Y3649984I-15000J0D01*
G01*
D12*
X225000Y3473750D02*
X255000Y3443750D01*
X255000Y3473750D02*
X225000Y3443750D01*
D11*
X225000Y3648750D02*
X225000Y3268750D01*
X255000Y3648750D02*
X255000Y3268750D01*
X225000Y3268750D02*
G75*
G03*
X255000Y3268750I15000J0D01*
G01*
X255000Y3648750D02*
G75*
G03*
X225000Y3648750I-15000J0D01*
G01*
D12*
X225000Y1699984D02*
X255000Y1669984D01*
X255000Y1699984D02*
X225000Y1669984D01*
D11*
X225000Y1874984D02*
X225000Y1494984D01*
X255000Y1874984D02*
X255000Y1494984D01*
X225000Y1494984D02*
G75*
G03*
X255000Y1494984I15000J0D01*
G01*
X255000Y1874984D02*
G75*
G03*
X225000Y1874984I-15000J0D01*
G01*
D12*
X225000Y1698750D02*
X255000Y1668750D01*
X255000Y1698750D02*
X225000Y1668750D01*
D11*
X225000Y1873750D02*
X225000Y1493750D01*
X255000Y1873750D02*
X255000Y1493750D01*
X225000Y1493750D02*
G75*
G03*
X255000Y1493750I15000J0D01*
G01*
X255000Y1873750D02*
G75*
G03*
X225000Y1873750I-15000J0D01*
G01*
D12*
X225000Y-75016D02*
X255000Y-105016D01*
X255000Y-75016D02*
X225000Y-105016D01*
D11*
X225000Y99984D02*
X225000Y-280016D01*
X255000Y99984D02*
X255000Y-280016D01*
X225000Y-280016D02*
G75*
G03*
X255000Y-280016I15000J0D01*
G01*
X255000Y99984D02*
G75*
G03*
X225000Y99984I-15000J0D01*
G01*
D12*
X225000Y-76250D02*
X255000Y-106250D01*
X255000Y-76250D02*
X225000Y-106250D01*
D11*
X225000Y98750D02*
X225000Y-281250D01*
X255000Y98750D02*
X255000Y-281250D01*
X225000Y-281250D02*
G75*
G03*
X255000Y-281250I15000J0D01*
G01*
X255000Y98750D02*
G75*
G03*
X225000Y98750I-15000J0D01*
G01*
D12*
X1520000Y5249984D02*
X1550000Y5219984D01*
X1550000Y5249984D02*
X1520000Y5219984D01*
D11*
X1520000Y5424984D02*
X1520000Y5044984D01*
X1550000Y5424984D02*
X1550000Y5044984D01*
X1520000Y5044984D02*
G75*
G03*
X1550000Y5044984I15000J0D01*
G01*
X1550000Y5424984D02*
G75*
G03*
X1520000Y5424984I-15000J0D01*
G01*
D12*
X1520000Y5248750D02*
X1550000Y5218750D01*
X1550000Y5248750D02*
X1520000Y5218750D01*
D11*
X1520000Y5423750D02*
X1520000Y5043750D01*
X1550000Y5423750D02*
X1550000Y5043750D01*
X1520000Y5043750D02*
G75*
G03*
X1550000Y5043750I15000J0D01*
G01*
X1550000Y5423750D02*
G75*
G03*
X1520000Y5423750I-15000J0D01*
G01*
D12*
X1520000Y3474984D02*
X1550000Y3444984D01*
X1550000Y3474984D02*
X1520000Y3444984D01*
D11*
X1520000Y3649984D02*
X1520000Y3269984D01*
X1550000Y3649984D02*
X1550000Y3269984D01*
X1520000Y3269984D02*
G75*
G03*
X1550000Y3269984I15000J0D01*
G01*
X1550000Y3649984D02*
G75*
G03*
X1520000Y3649984I-15000J0D01*
G01*
D12*
X1520000Y3473750D02*
X1550000Y3443750D01*
X1550000Y3473750D02*
X1520000Y3443750D01*
D11*
X1520000Y3648750D02*
X1520000Y3268750D01*
X1550000Y3648750D02*
X1550000Y3268750D01*
X1520000Y3268750D02*
G75*
G03*
X1550000Y3268750I15000J0D01*
G01*
X1550000Y3648750D02*
G75*
G03*
X1520000Y3648750I-15000J0D01*
G01*
D12*
X1520000Y1699984D02*
X1550000Y1669984D01*
X1550000Y1699984D02*
X1520000Y1669984D01*
D11*
X1520000Y1874984D02*
X1520000Y1494984D01*
X1550000Y1874984D02*
X1550000Y1494984D01*
X1520000Y1494984D02*
G75*
G03*
X1550000Y1494984I15000J0D01*
G01*
X1550000Y1874984D02*
G75*
G03*
X1520000Y1874984I-15000J0D01*
G01*
D12*
X1520000Y1698750D02*
X1550000Y1668750D01*
X1550000Y1698750D02*
X1520000Y1668750D01*
D11*
X1520000Y1873750D02*
X1520000Y1493750D01*
X1550000Y1873750D02*
X1550000Y1493750D01*
X1520000Y1493750D02*
G75*
G03*
X1550000Y1493750I15000J0D01*
G01*
X1550000Y1873750D02*
G75*
G03*
X1520000Y1873750I-15000J0D01*
G01*
D12*
X1520000Y-75016D02*
X1550000Y-105016D01*
X1550000Y-75016D02*
X1520000Y-105016D01*
D11*
X1520000Y99984D02*
X1520000Y-280016D01*
X1550000Y99984D02*
X1550000Y-280016D01*
X1520000Y-280016D02*
G75*
G03*
X1550000Y-280016I15000J0D01*
G01*
X1550000Y99984D02*
G75*
G03*
X1520000Y99984I-15000J0D01*
G01*
D12*
X1520000Y-76250D02*
X1550000Y-106250D01*
X1550000Y-76250D02*
X1520000Y-106250D01*
D11*
X1520000Y98750D02*
X1520000Y-281250D01*
X1550000Y98750D02*
X1550000Y-281250D01*
X1520000Y-281250D02*
G75*
G03*
X1550000Y-281250I15000J0D01*
G01*
X1550000Y98750D02*
G75*
G03*
X1520000Y98750I-15000J0D01*
G01*
D12*
X1760000Y5439984D02*
X1790000Y5409984D01*
X1790000Y5439984D02*
X1760000Y5409984D01*
D11*
X1535000Y5409984D02*
X2015000Y5409984D01*
X1535000Y5439984D02*
X2015000Y5439984D01*
X2015000Y5409984D02*
G75*
G03*
X2015000Y5439984I0J15000D01*
G01*
X1535000Y5439984D02*
G75*
G03*
X1535000Y5409984I0J-15000D01*
G01*
D12*
X1760000Y5438750D02*
X1790000Y5408750D01*
X1790000Y5438750D02*
X1760000Y5408750D01*
D11*
X1535000Y5408750D02*
X2015000Y5408750D01*
X1535000Y5438750D02*
X2015000Y5438750D01*
X2015000Y5408750D02*
G75*
G03*
X2015000Y5438750I0J15000D01*
G01*
X1535000Y5438750D02*
G75*
G03*
X1535000Y5408750I0J-15000D01*
G01*
D12*
X1760000Y5059984D02*
X1790000Y5029984D01*
X1790000Y5059984D02*
X1760000Y5029984D01*
D11*
X1535000Y5029984D02*
X2015000Y5029984D01*
X1535000Y5059984D02*
X2015000Y5059984D01*
X2015000Y5029984D02*
G75*
G03*
X2015000Y5059984I0J15000D01*
G01*
X1535000Y5059984D02*
G75*
G03*
X1535000Y5029984I0J-15000D01*
G01*
D12*
X1760000Y5058750D02*
X1790000Y5028750D01*
X1790000Y5058750D02*
X1760000Y5028750D01*
D11*
X1535000Y5028750D02*
X2015000Y5028750D01*
X1535000Y5058750D02*
X2015000Y5058750D01*
X2015000Y5028750D02*
G75*
G03*
X2015000Y5058750I0J15000D01*
G01*
X1535000Y5058750D02*
G75*
G03*
X1535000Y5028750I0J-15000D01*
G01*
D12*
X1760000Y3664984D02*
X1790000Y3634984D01*
X1790000Y3664984D02*
X1760000Y3634984D01*
D11*
X1535000Y3634984D02*
X2015000Y3634984D01*
X1535000Y3664984D02*
X2015000Y3664984D01*
X2015000Y3634984D02*
G75*
G03*
X2015000Y3664984I0J15000D01*
G01*
X1535000Y3664984D02*
G75*
G03*
X1535000Y3634984I0J-15000D01*
G01*
D12*
X1760000Y3663750D02*
X1790000Y3633750D01*
X1790000Y3663750D02*
X1760000Y3633750D01*
D11*
X1535000Y3633750D02*
X2015000Y3633750D01*
X1535000Y3663750D02*
X2015000Y3663750D01*
X2015000Y3633750D02*
G75*
G03*
X2015000Y3663750I0J15000D01*
G01*
X1535000Y3663750D02*
G75*
G03*
X1535000Y3633750I0J-15000D01*
G01*
D12*
X1760000Y3284984D02*
X1790000Y3254984D01*
X1790000Y3284984D02*
X1760000Y3254984D01*
D11*
X1535000Y3254984D02*
X2015000Y3254984D01*
X1535000Y3284984D02*
X2015000Y3284984D01*
X2015000Y3254984D02*
G75*
G03*
X2015000Y3284984I0J15000D01*
G01*
X1535000Y3284984D02*
G75*
G03*
X1535000Y3254984I0J-15000D01*
G01*
D12*
X1760000Y3283750D02*
X1790000Y3253750D01*
X1790000Y3283750D02*
X1760000Y3253750D01*
D11*
X1535000Y3253750D02*
X2015000Y3253750D01*
X1535000Y3283750D02*
X2015000Y3283750D01*
X2015000Y3253750D02*
G75*
G03*
X2015000Y3283750I0J15000D01*
G01*
X1535000Y3283750D02*
G75*
G03*
X1535000Y3253750I0J-15000D01*
G01*
D12*
X1760000Y1889984D02*
X1790000Y1859984D01*
X1790000Y1889984D02*
X1760000Y1859984D01*
D11*
X1535000Y1859984D02*
X2015000Y1859984D01*
X1535000Y1889984D02*
X2015000Y1889984D01*
X2015000Y1859984D02*
G75*
G03*
X2015000Y1889984I0J15000D01*
G01*
X1535000Y1889984D02*
G75*
G03*
X1535000Y1859984I0J-15000D01*
G01*
D12*
X1760000Y1888750D02*
X1790000Y1858750D01*
X1790000Y1888750D02*
X1760000Y1858750D01*
D11*
X1535000Y1858750D02*
X2015000Y1858750D01*
X1535000Y1888750D02*
X2015000Y1888750D01*
X2015000Y1858750D02*
G75*
G03*
X2015000Y1888750I0J15000D01*
G01*
X1535000Y1888750D02*
G75*
G03*
X1535000Y1858750I0J-15000D01*
G01*
D12*
X1760000Y1509984D02*
X1790000Y1479984D01*
X1790000Y1509984D02*
X1760000Y1479984D01*
D11*
X1535000Y1479984D02*
X2015000Y1479984D01*
X1535000Y1509984D02*
X2015000Y1509984D01*
X2015000Y1479984D02*
G75*
G03*
X2015000Y1509984I0J15000D01*
G01*
X1535000Y1509984D02*
G75*
G03*
X1535000Y1479984I0J-15000D01*
G01*
D12*
X1760000Y1508750D02*
X1790000Y1478750D01*
X1790000Y1508750D02*
X1760000Y1478750D01*
D11*
X1535000Y1478750D02*
X2015000Y1478750D01*
X1535000Y1508750D02*
X2015000Y1508750D01*
X2015000Y1478750D02*
G75*
G03*
X2015000Y1508750I0J15000D01*
G01*
X1535000Y1508750D02*
G75*
G03*
X1535000Y1478750I0J-15000D01*
G01*
D12*
X1760000Y114984D02*
X1790000Y84984D01*
X1790000Y114984D02*
X1760000Y84984D01*
D11*
X1535000Y84984D02*
X2015000Y84984D01*
X1535000Y114984D02*
X2015000Y114984D01*
X2015000Y84984D02*
G75*
G03*
X2015000Y114984I0J15000D01*
G01*
X1535000Y114984D02*
G75*
G03*
X1535000Y84984I0J-15000D01*
G01*
D12*
X1760000Y113750D02*
X1790000Y83750D01*
X1790000Y113750D02*
X1760000Y83750D01*
D11*
X1535000Y83750D02*
X2015000Y83750D01*
X1535000Y113750D02*
X2015000Y113750D01*
X2015000Y83750D02*
G75*
G03*
X2015000Y113750I0J15000D01*
G01*
X1535000Y113750D02*
G75*
G03*
X1535000Y83750I0J-15000D01*
G01*
D12*
X1760000Y-265016D02*
X1790000Y-295016D01*
X1790000Y-265016D02*
X1760000Y-295016D01*
D11*
X1535000Y-295016D02*
X2015000Y-295016D01*
X1535000Y-265016D02*
X2015000Y-265016D01*
X2015000Y-295016D02*
G75*
G03*
X2015000Y-265016I0J15000D01*
G01*
X1535000Y-265016D02*
G75*
G03*
X1535000Y-295016I0J-15000D01*
G01*
D12*
X1760000Y-266250D02*
X1790000Y-296250D01*
X1790000Y-266250D02*
X1760000Y-296250D01*
D11*
X1535000Y-296250D02*
X2015000Y-296250D01*
X1535000Y-266250D02*
X2015000Y-266250D01*
X2015000Y-296250D02*
G75*
G03*
X2015000Y-266250I0J15000D01*
G01*
X1535000Y-266250D02*
G75*
G03*
X1535000Y-296250I0J-15000D01*
G01*
D12*
X2000000Y5249984D02*
X2030000Y5219984D01*
X2030000Y5249984D02*
X2000000Y5219984D01*
D11*
X2000000Y5424984D02*
X2000000Y5044984D01*
X2030000Y5424984D02*
X2030000Y5044984D01*
X2000000Y5044984D02*
G75*
G03*
X2030000Y5044984I15000J0D01*
G01*
X2030000Y5424984D02*
G75*
G03*
X2000000Y5424984I-15000J0D01*
G01*
D12*
X2000000Y5248750D02*
X2030000Y5218750D01*
X2030000Y5248750D02*
X2000000Y5218750D01*
D11*
X2000000Y5423750D02*
X2000000Y5043750D01*
X2030000Y5423750D02*
X2030000Y5043750D01*
X2000000Y5043750D02*
G75*
G03*
X2030000Y5043750I15000J0D01*
G01*
X2030000Y5423750D02*
G75*
G03*
X2000000Y5423750I-15000J0D01*
G01*
D12*
X2000000Y3474984D02*
X2030000Y3444984D01*
X2030000Y3474984D02*
X2000000Y3444984D01*
D11*
X2000000Y3649984D02*
X2000000Y3269984D01*
X2030000Y3649984D02*
X2030000Y3269984D01*
X2000000Y3269984D02*
G75*
G03*
X2030000Y3269984I15000J0D01*
G01*
X2030000Y3649984D02*
G75*
G03*
X2000000Y3649984I-15000J0D01*
G01*
D12*
X2000000Y3473750D02*
X2030000Y3443750D01*
X2030000Y3473750D02*
X2000000Y3443750D01*
D11*
X2000000Y3648750D02*
X2000000Y3268750D01*
X2030000Y3648750D02*
X2030000Y3268750D01*
X2000000Y3268750D02*
G75*
G03*
X2030000Y3268750I15000J0D01*
G01*
X2030000Y3648750D02*
G75*
G03*
X2000000Y3648750I-15000J0D01*
G01*
D12*
X2000000Y1699984D02*
X2030000Y1669984D01*
X2030000Y1699984D02*
X2000000Y1669984D01*
D11*
X2000000Y1874984D02*
X2000000Y1494984D01*
X2030000Y1874984D02*
X2030000Y1494984D01*
X2000000Y1494984D02*
G75*
G03*
X2030000Y1494984I15000J0D01*
G01*
X2030000Y1874984D02*
G75*
G03*
X2000000Y1874984I-15000J0D01*
G01*
D12*
X2000000Y1698750D02*
X2030000Y1668750D01*
X2030000Y1698750D02*
X2000000Y1668750D01*
D11*
X2000000Y1873750D02*
X2000000Y1493750D01*
X2030000Y1873750D02*
X2030000Y1493750D01*
X2000000Y1493750D02*
G75*
G03*
X2030000Y1493750I15000J0D01*
G01*
X2030000Y1873750D02*
G75*
G03*
X2000000Y1873750I-15000J0D01*
G01*
D12*
X2000000Y-75016D02*
X2030000Y-105016D01*
X2030000Y-75016D02*
X2000000Y-105016D01*
D11*
X2000000Y99984D02*
X2000000Y-280016D01*
X2030000Y99984D02*
X2030000Y-280016D01*
X2000000Y-280016D02*
G75*
G03*
X2030000Y-280016I15000J0D01*
G01*
X2030000Y99984D02*
G75*
G03*
X2000000Y99984I-15000J0D01*
G01*
D12*
X2000000Y-76250D02*
X2030000Y-106250D01*
X2030000Y-76250D02*
X2000000Y-106250D01*
D11*
X2000000Y98750D02*
X2000000Y-281250D01*
X2030000Y98750D02*
X2030000Y-281250D01*
X2000000Y-281250D02*
G75*
G03*
X2030000Y-281250I15000J0D01*
G01*
X2030000Y98750D02*
G75*
G03*
X2000000Y98750I-15000J0D01*
G01*
D12*
X3295000Y5249984D02*
X3325000Y5219984D01*
X3325000Y5249984D02*
X3295000Y5219984D01*
D11*
X3295000Y5424984D02*
X3295000Y5044984D01*
X3325000Y5424984D02*
X3325000Y5044984D01*
X3295000Y5044984D02*
G75*
G03*
X3325000Y5044984I15000J0D01*
G01*
X3325000Y5424984D02*
G75*
G03*
X3295000Y5424984I-15000J0D01*
G01*
D12*
X3295000Y5248750D02*
X3325000Y5218750D01*
X3325000Y5248750D02*
X3295000Y5218750D01*
D11*
X3295000Y5423750D02*
X3295000Y5043750D01*
X3325000Y5423750D02*
X3325000Y5043750D01*
X3295000Y5043750D02*
G75*
G03*
X3325000Y5043750I15000J0D01*
G01*
X3325000Y5423750D02*
G75*
G03*
X3295000Y5423750I-15000J0D01*
G01*
D12*
X3295000Y3474984D02*
X3325000Y3444984D01*
X3325000Y3474984D02*
X3295000Y3444984D01*
D11*
X3295000Y3649984D02*
X3295000Y3269984D01*
X3325000Y3649984D02*
X3325000Y3269984D01*
X3295000Y3269984D02*
G75*
G03*
X3325000Y3269984I15000J0D01*
G01*
X3325000Y3649984D02*
G75*
G03*
X3295000Y3649984I-15000J0D01*
G01*
D12*
X3295000Y3473750D02*
X3325000Y3443750D01*
X3325000Y3473750D02*
X3295000Y3443750D01*
D11*
X3295000Y3648750D02*
X3295000Y3268750D01*
X3325000Y3648750D02*
X3325000Y3268750D01*
X3295000Y3268750D02*
G75*
G03*
X3325000Y3268750I15000J0D01*
G01*
X3325000Y3648750D02*
G75*
G03*
X3295000Y3648750I-15000J0D01*
G01*
D12*
X3295000Y1699984D02*
X3325000Y1669984D01*
X3325000Y1699984D02*
X3295000Y1669984D01*
D11*
X3295000Y1874984D02*
X3295000Y1494984D01*
X3325000Y1874984D02*
X3325000Y1494984D01*
X3295000Y1494984D02*
G75*
G03*
X3325000Y1494984I15000J0D01*
G01*
X3325000Y1874984D02*
G75*
G03*
X3295000Y1874984I-15000J0D01*
G01*
D12*
X3295000Y1698750D02*
X3325000Y1668750D01*
X3325000Y1698750D02*
X3295000Y1668750D01*
D11*
X3295000Y1873750D02*
X3295000Y1493750D01*
X3325000Y1873750D02*
X3325000Y1493750D01*
X3295000Y1493750D02*
G75*
G03*
X3325000Y1493750I15000J0D01*
G01*
X3325000Y1873750D02*
G75*
G03*
X3295000Y1873750I-15000J0D01*
G01*
D12*
X3295000Y-75016D02*
X3325000Y-105016D01*
X3325000Y-75016D02*
X3295000Y-105016D01*
D11*
X3295000Y99984D02*
X3295000Y-280016D01*
X3325000Y99984D02*
X3325000Y-280016D01*
X3295000Y-280016D02*
G75*
G03*
X3325000Y-280016I15000J0D01*
G01*
X3325000Y99984D02*
G75*
G03*
X3295000Y99984I-15000J0D01*
G01*
D12*
X3295000Y-76250D02*
X3325000Y-106250D01*
X3325000Y-76250D02*
X3295000Y-106250D01*
D11*
X3295000Y98750D02*
X3295000Y-281250D01*
X3325000Y98750D02*
X3325000Y-281250D01*
X3295000Y-281250D02*
G75*
G03*
X3325000Y-281250I15000J0D01*
G01*
X3325000Y98750D02*
G75*
G03*
X3295000Y98750I-15000J0D01*
G01*
D12*
X3535000Y5439984D02*
X3565000Y5409984D01*
X3565000Y5439984D02*
X3535000Y5409984D01*
D11*
X3310000Y5409984D02*
X3790000Y5409984D01*
X3310000Y5439984D02*
X3790000Y5439984D01*
X3790000Y5409984D02*
G75*
G03*
X3790000Y5439984I0J15000D01*
G01*
X3310000Y5439984D02*
G75*
G03*
X3310000Y5409984I0J-15000D01*
G01*
D12*
X3535000Y5438750D02*
X3565000Y5408750D01*
X3565000Y5438750D02*
X3535000Y5408750D01*
D11*
X3310000Y5408750D02*
X3790000Y5408750D01*
X3310000Y5438750D02*
X3790000Y5438750D01*
X3790000Y5408750D02*
G75*
G03*
X3790000Y5438750I0J15000D01*
G01*
X3310000Y5438750D02*
G75*
G03*
X3310000Y5408750I0J-15000D01*
G01*
D12*
X3535000Y5059984D02*
X3565000Y5029984D01*
X3565000Y5059984D02*
X3535000Y5029984D01*
D11*
X3310000Y5029984D02*
X3790000Y5029984D01*
X3310000Y5059984D02*
X3790000Y5059984D01*
X3790000Y5029984D02*
G75*
G03*
X3790000Y5059984I0J15000D01*
G01*
X3310000Y5059984D02*
G75*
G03*
X3310000Y5029984I0J-15000D01*
G01*
D12*
X3535000Y5058750D02*
X3565000Y5028750D01*
X3565000Y5058750D02*
X3535000Y5028750D01*
D11*
X3310000Y5028750D02*
X3790000Y5028750D01*
X3310000Y5058750D02*
X3790000Y5058750D01*
X3790000Y5028750D02*
G75*
G03*
X3790000Y5058750I0J15000D01*
G01*
X3310000Y5058750D02*
G75*
G03*
X3310000Y5028750I0J-15000D01*
G01*
D12*
X3535000Y3664984D02*
X3565000Y3634984D01*
X3565000Y3664984D02*
X3535000Y3634984D01*
D11*
X3310000Y3634984D02*
X3790000Y3634984D01*
X3310000Y3664984D02*
X3790000Y3664984D01*
X3790000Y3634984D02*
G75*
G03*
X3790000Y3664984I0J15000D01*
G01*
X3310000Y3664984D02*
G75*
G03*
X3310000Y3634984I0J-15000D01*
G01*
D12*
X3535000Y3663750D02*
X3565000Y3633750D01*
X3565000Y3663750D02*
X3535000Y3633750D01*
D11*
X3310000Y3633750D02*
X3790000Y3633750D01*
X3310000Y3663750D02*
X3790000Y3663750D01*
X3790000Y3633750D02*
G75*
G03*
X3790000Y3663750I0J15000D01*
G01*
X3310000Y3663750D02*
G75*
G03*
X3310000Y3633750I0J-15000D01*
G01*
D12*
X3535000Y3284984D02*
X3565000Y3254984D01*
X3565000Y3284984D02*
X3535000Y3254984D01*
D11*
X3310000Y3254984D02*
X3790000Y3254984D01*
X3310000Y3284984D02*
X3790000Y3284984D01*
X3790000Y3254984D02*
G75*
G03*
X3790000Y3284984I0J15000D01*
G01*
X3310000Y3284984D02*
G75*
G03*
X3310000Y3254984I0J-15000D01*
G01*
D12*
X3535000Y3283750D02*
X3565000Y3253750D01*
X3565000Y3283750D02*
X3535000Y3253750D01*
D11*
X3310000Y3253750D02*
X3790000Y3253750D01*
X3310000Y3283750D02*
X3790000Y3283750D01*
X3790000Y3253750D02*
G75*
G03*
X3790000Y3283750I0J15000D01*
G01*
X3310000Y3283750D02*
G75*
G03*
X3310000Y3253750I0J-15000D01*
G01*
D12*
X3535000Y1889984D02*
X3565000Y1859984D01*
X3565000Y1889984D02*
X3535000Y1859984D01*
D11*
X3310000Y1859984D02*
X3790000Y1859984D01*
X3310000Y1889984D02*
X3790000Y1889984D01*
X3790000Y1859984D02*
G75*
G03*
X3790000Y1889984I0J15000D01*
G01*
X3310000Y1889984D02*
G75*
G03*
X3310000Y1859984I0J-15000D01*
G01*
D12*
X3535000Y1888750D02*
X3565000Y1858750D01*
X3565000Y1888750D02*
X3535000Y1858750D01*
D11*
X3310000Y1858750D02*
X3790000Y1858750D01*
X3310000Y1888750D02*
X3790000Y1888750D01*
X3790000Y1858750D02*
G75*
G03*
X3790000Y1888750I0J15000D01*
G01*
X3310000Y1888750D02*
G75*
G03*
X3310000Y1858750I0J-15000D01*
G01*
D12*
X3535000Y1509984D02*
X3565000Y1479984D01*
X3565000Y1509984D02*
X3535000Y1479984D01*
D11*
X3310000Y1479984D02*
X3790000Y1479984D01*
X3310000Y1509984D02*
X3790000Y1509984D01*
X3790000Y1479984D02*
G75*
G03*
X3790000Y1509984I0J15000D01*
G01*
X3310000Y1509984D02*
G75*
G03*
X3310000Y1479984I0J-15000D01*
G01*
D12*
X3535000Y1508750D02*
X3565000Y1478750D01*
X3565000Y1508750D02*
X3535000Y1478750D01*
D11*
X3310000Y1478750D02*
X3790000Y1478750D01*
X3310000Y1508750D02*
X3790000Y1508750D01*
X3790000Y1478750D02*
G75*
G03*
X3790000Y1508750I0J15000D01*
G01*
X3310000Y1508750D02*
G75*
G03*
X3310000Y1478750I0J-15000D01*
G01*
D12*
X3535000Y114984D02*
X3565000Y84984D01*
X3565000Y114984D02*
X3535000Y84984D01*
D11*
X3310000Y84984D02*
X3790000Y84984D01*
X3310000Y114984D02*
X3790000Y114984D01*
X3790000Y84984D02*
G75*
G03*
X3790000Y114984I0J15000D01*
G01*
X3310000Y114984D02*
G75*
G03*
X3310000Y84984I0J-15000D01*
G01*
D12*
X3535000Y113750D02*
X3565000Y83750D01*
X3565000Y113750D02*
X3535000Y83750D01*
D11*
X3310000Y83750D02*
X3790000Y83750D01*
X3310000Y113750D02*
X3790000Y113750D01*
X3790000Y83750D02*
G75*
G03*
X3790000Y113750I0J15000D01*
G01*
X3310000Y113750D02*
G75*
G03*
X3310000Y83750I0J-15000D01*
G01*
D12*
X3535000Y-265016D02*
X3565000Y-295016D01*
X3565000Y-265016D02*
X3535000Y-295016D01*
D11*
X3310000Y-295016D02*
X3790000Y-295016D01*
X3310000Y-265016D02*
X3790000Y-265016D01*
X3790000Y-295016D02*
G75*
G03*
X3790000Y-265016I0J15000D01*
G01*
X3310000Y-265016D02*
G75*
G03*
X3310000Y-295016I0J-15000D01*
G01*
D12*
X3535000Y-266250D02*
X3565000Y-296250D01*
X3565000Y-266250D02*
X3535000Y-296250D01*
D11*
X3310000Y-296250D02*
X3790000Y-296250D01*
X3310000Y-266250D02*
X3790000Y-266250D01*
X3790000Y-296250D02*
G75*
G03*
X3790000Y-266250I0J15000D01*
G01*
X3310000Y-266250D02*
G75*
G03*
X3310000Y-296250I0J-15000D01*
G01*
D12*
X3775000Y5249984D02*
X3805000Y5219984D01*
X3805000Y5249984D02*
X3775000Y5219984D01*
D11*
X3775000Y5424984D02*
X3775000Y5044984D01*
X3805000Y5424984D02*
X3805000Y5044984D01*
X3775000Y5044984D02*
G75*
G03*
X3805000Y5044984I15000J0D01*
G01*
X3805000Y5424984D02*
G75*
G03*
X3775000Y5424984I-15000J0D01*
G01*
D12*
X3775000Y5248750D02*
X3805000Y5218750D01*
X3805000Y5248750D02*
X3775000Y5218750D01*
D11*
X3775000Y5423750D02*
X3775000Y5043750D01*
X3805000Y5423750D02*
X3805000Y5043750D01*
X3775000Y5043750D02*
G75*
G03*
X3805000Y5043750I15000J0D01*
G01*
X3805000Y5423750D02*
G75*
G03*
X3775000Y5423750I-15000J0D01*
G01*
D12*
X3775000Y3474984D02*
X3805000Y3444984D01*
X3805000Y3474984D02*
X3775000Y3444984D01*
D11*
X3775000Y3649984D02*
X3775000Y3269984D01*
X3805000Y3649984D02*
X3805000Y3269984D01*
X3775000Y3269984D02*
G75*
G03*
X3805000Y3269984I15000J0D01*
G01*
X3805000Y3649984D02*
G75*
G03*
X3775000Y3649984I-15000J0D01*
G01*
D12*
X3775000Y3473750D02*
X3805000Y3443750D01*
X3805000Y3473750D02*
X3775000Y3443750D01*
D11*
X3775000Y3648750D02*
X3775000Y3268750D01*
X3805000Y3648750D02*
X3805000Y3268750D01*
X3775000Y3268750D02*
G75*
G03*
X3805000Y3268750I15000J0D01*
G01*
X3805000Y3648750D02*
G75*
G03*
X3775000Y3648750I-15000J0D01*
G01*
D12*
X3775000Y1699984D02*
X3805000Y1669984D01*
X3805000Y1699984D02*
X3775000Y1669984D01*
D11*
X3775000Y1874984D02*
X3775000Y1494984D01*
X3805000Y1874984D02*
X3805000Y1494984D01*
X3775000Y1494984D02*
G75*
G03*
X3805000Y1494984I15000J0D01*
G01*
X3805000Y1874984D02*
G75*
G03*
X3775000Y1874984I-15000J0D01*
G01*
D12*
X3775000Y1698750D02*
X3805000Y1668750D01*
X3805000Y1698750D02*
X3775000Y1668750D01*
D11*
X3775000Y1873750D02*
X3775000Y1493750D01*
X3805000Y1873750D02*
X3805000Y1493750D01*
X3775000Y1493750D02*
G75*
G03*
X3805000Y1493750I15000J0D01*
G01*
X3805000Y1873750D02*
G75*
G03*
X3775000Y1873750I-15000J0D01*
G01*
D12*
X3775000Y-75016D02*
X3805000Y-105016D01*
X3805000Y-75016D02*
X3775000Y-105016D01*
D11*
X3775000Y99984D02*
X3775000Y-280016D01*
X3805000Y99984D02*
X3805000Y-280016D01*
X3775000Y-280016D02*
G75*
G03*
X3805000Y-280016I15000J0D01*
G01*
X3805000Y99984D02*
G75*
G03*
X3775000Y99984I-15000J0D01*
G01*
D12*
X3775000Y-76250D02*
X3805000Y-106250D01*
X3805000Y-76250D02*
X3775000Y-106250D01*
D11*
X3775000Y98750D02*
X3775000Y-281250D01*
X3805000Y98750D02*
X3805000Y-281250D01*
X3775000Y-281250D02*
G75*
G03*
X3805000Y-281250I15000J0D01*
G01*
X3805000Y98750D02*
G75*
G03*
X3775000Y98750I-15000J0D01*
G01*
D12*
X5070000Y5249984D02*
X5100000Y5219984D01*
X5100000Y5249984D02*
X5070000Y5219984D01*
D11*
X5070000Y5424984D02*
X5070000Y5044984D01*
X5100000Y5424984D02*
X5100000Y5044984D01*
X5070000Y5044984D02*
G75*
G03*
X5100000Y5044984I15000J0D01*
G01*
X5100000Y5424984D02*
G75*
G03*
X5070000Y5424984I-15000J0D01*
G01*
D12*
X5070000Y5248750D02*
X5100000Y5218750D01*
X5100000Y5248750D02*
X5070000Y5218750D01*
D11*
X5070000Y5423750D02*
X5070000Y5043750D01*
X5100000Y5423750D02*
X5100000Y5043750D01*
X5070000Y5043750D02*
G75*
G03*
X5100000Y5043750I15000J0D01*
G01*
X5100000Y5423750D02*
G75*
G03*
X5070000Y5423750I-15000J0D01*
G01*
D12*
X5070000Y3474984D02*
X5100000Y3444984D01*
X5100000Y3474984D02*
X5070000Y3444984D01*
D11*
X5070000Y3649984D02*
X5070000Y3269984D01*
X5100000Y3649984D02*
X5100000Y3269984D01*
X5070000Y3269984D02*
G75*
G03*
X5100000Y3269984I15000J0D01*
G01*
X5100000Y3649984D02*
G75*
G03*
X5070000Y3649984I-15000J0D01*
G01*
D12*
X5070000Y3473750D02*
X5100000Y3443750D01*
X5100000Y3473750D02*
X5070000Y3443750D01*
D11*
X5070000Y3648750D02*
X5070000Y3268750D01*
X5100000Y3648750D02*
X5100000Y3268750D01*
X5070000Y3268750D02*
G75*
G03*
X5100000Y3268750I15000J0D01*
G01*
X5100000Y3648750D02*
G75*
G03*
X5070000Y3648750I-15000J0D01*
G01*
D12*
X5070000Y1699984D02*
X5100000Y1669984D01*
X5100000Y1699984D02*
X5070000Y1669984D01*
D11*
X5070000Y1874984D02*
X5070000Y1494984D01*
X5100000Y1874984D02*
X5100000Y1494984D01*
X5070000Y1494984D02*
G75*
G03*
X5100000Y1494984I15000J0D01*
G01*
X5100000Y1874984D02*
G75*
G03*
X5070000Y1874984I-15000J0D01*
G01*
D12*
X5070000Y1698750D02*
X5100000Y1668750D01*
X5100000Y1698750D02*
X5070000Y1668750D01*
D11*
X5070000Y1873750D02*
X5070000Y1493750D01*
X5100000Y1873750D02*
X5100000Y1493750D01*
X5070000Y1493750D02*
G75*
G03*
X5100000Y1493750I15000J0D01*
G01*
X5100000Y1873750D02*
G75*
G03*
X5070000Y1873750I-15000J0D01*
G01*
D12*
X5070000Y-75016D02*
X5100000Y-105016D01*
X5100000Y-75016D02*
X5070000Y-105016D01*
D11*
X5070000Y99984D02*
X5070000Y-280016D01*
X5100000Y99984D02*
X5100000Y-280016D01*
X5070000Y-280016D02*
G75*
G03*
X5100000Y-280016I15000J0D01*
G01*
X5100000Y99984D02*
G75*
G03*
X5070000Y99984I-15000J0D01*
G01*
D12*
X5070000Y-76250D02*
X5100000Y-106250D01*
X5100000Y-76250D02*
X5070000Y-106250D01*
D11*
X5070000Y98750D02*
X5070000Y-281250D01*
X5100000Y98750D02*
X5100000Y-281250D01*
X5070000Y-281250D02*
G75*
G03*
X5100000Y-281250I15000J0D01*
G01*
X5100000Y98750D02*
G75*
G03*
X5070000Y98750I-15000J0D01*
G01*
D12*
X5310000Y5439984D02*
X5340000Y5409984D01*
X5340000Y5439984D02*
X5310000Y5409984D01*
D11*
X5085000Y5409984D02*
X5565000Y5409984D01*
X5085000Y5439984D02*
X5565000Y5439984D01*
X5565000Y5409984D02*
G75*
G03*
X5565000Y5439984I0J15000D01*
G01*
X5085000Y5439984D02*
G75*
G03*
X5085000Y5409984I0J-15000D01*
G01*
D12*
X5310000Y5438750D02*
X5340000Y5408750D01*
X5340000Y5438750D02*
X5310000Y5408750D01*
D11*
X5085000Y5408750D02*
X5565000Y5408750D01*
X5085000Y5438750D02*
X5565000Y5438750D01*
X5565000Y5408750D02*
G75*
G03*
X5565000Y5438750I0J15000D01*
G01*
X5085000Y5438750D02*
G75*
G03*
X5085000Y5408750I0J-15000D01*
G01*
D12*
X5310000Y5059984D02*
X5340000Y5029984D01*
X5340000Y5059984D02*
X5310000Y5029984D01*
D11*
X5085000Y5029984D02*
X5565000Y5029984D01*
X5085000Y5059984D02*
X5565000Y5059984D01*
X5565000Y5029984D02*
G75*
G03*
X5565000Y5059984I0J15000D01*
G01*
X5085000Y5059984D02*
G75*
G03*
X5085000Y5029984I0J-15000D01*
G01*
D12*
X5310000Y5058750D02*
X5340000Y5028750D01*
X5340000Y5058750D02*
X5310000Y5028750D01*
D11*
X5085000Y5028750D02*
X5565000Y5028750D01*
X5085000Y5058750D02*
X5565000Y5058750D01*
X5565000Y5028750D02*
G75*
G03*
X5565000Y5058750I0J15000D01*
G01*
X5085000Y5058750D02*
G75*
G03*
X5085000Y5028750I0J-15000D01*
G01*
D12*
X5310000Y3664984D02*
X5340000Y3634984D01*
X5340000Y3664984D02*
X5310000Y3634984D01*
D11*
X5085000Y3634984D02*
X5565000Y3634984D01*
X5085000Y3664984D02*
X5565000Y3664984D01*
X5565000Y3634984D02*
G75*
G03*
X5565000Y3664984I0J15000D01*
G01*
X5085000Y3664984D02*
G75*
G03*
X5085000Y3634984I0J-15000D01*
G01*
D12*
X5310000Y3663750D02*
X5340000Y3633750D01*
X5340000Y3663750D02*
X5310000Y3633750D01*
D11*
X5085000Y3633750D02*
X5565000Y3633750D01*
X5085000Y3663750D02*
X5565000Y3663750D01*
X5565000Y3633750D02*
G75*
G03*
X5565000Y3663750I0J15000D01*
G01*
X5085000Y3663750D02*
G75*
G03*
X5085000Y3633750I0J-15000D01*
G01*
D12*
X5310000Y3284984D02*
X5340000Y3254984D01*
X5340000Y3284984D02*
X5310000Y3254984D01*
D11*
X5085000Y3254984D02*
X5565000Y3254984D01*
X5085000Y3284984D02*
X5565000Y3284984D01*
X5565000Y3254984D02*
G75*
G03*
X5565000Y3284984I0J15000D01*
G01*
X5085000Y3284984D02*
G75*
G03*
X5085000Y3254984I0J-15000D01*
G01*
D12*
X5310000Y3283750D02*
X5340000Y3253750D01*
X5340000Y3283750D02*
X5310000Y3253750D01*
D11*
X5085000Y3253750D02*
X5565000Y3253750D01*
X5085000Y3283750D02*
X5565000Y3283750D01*
X5565000Y3253750D02*
G75*
G03*
X5565000Y3283750I0J15000D01*
G01*
X5085000Y3283750D02*
G75*
G03*
X5085000Y3253750I0J-15000D01*
G01*
D12*
X5310000Y1889984D02*
X5340000Y1859984D01*
X5340000Y1889984D02*
X5310000Y1859984D01*
D11*
X5085000Y1859984D02*
X5565000Y1859984D01*
X5085000Y1889984D02*
X5565000Y1889984D01*
X5565000Y1859984D02*
G75*
G03*
X5565000Y1889984I0J15000D01*
G01*
X5085000Y1889984D02*
G75*
G03*
X5085000Y1859984I0J-15000D01*
G01*
D12*
X5310000Y1888750D02*
X5340000Y1858750D01*
X5340000Y1888750D02*
X5310000Y1858750D01*
D11*
X5085000Y1858750D02*
X5565000Y1858750D01*
X5085000Y1888750D02*
X5565000Y1888750D01*
X5565000Y1858750D02*
G75*
G03*
X5565000Y1888750I0J15000D01*
G01*
X5085000Y1888750D02*
G75*
G03*
X5085000Y1858750I0J-15000D01*
G01*
D12*
X5310000Y1509984D02*
X5340000Y1479984D01*
X5340000Y1509984D02*
X5310000Y1479984D01*
D11*
X5085000Y1479984D02*
X5565000Y1479984D01*
X5085000Y1509984D02*
X5565000Y1509984D01*
X5565000Y1479984D02*
G75*
G03*
X5565000Y1509984I0J15000D01*
G01*
X5085000Y1509984D02*
G75*
G03*
X5085000Y1479984I0J-15000D01*
G01*
D12*
X5310000Y1508750D02*
X5340000Y1478750D01*
X5340000Y1508750D02*
X5310000Y1478750D01*
D11*
X5085000Y1478750D02*
X5565000Y1478750D01*
X5085000Y1508750D02*
X5565000Y1508750D01*
X5565000Y1478750D02*
G75*
G03*
X5565000Y1508750I0J15000D01*
G01*
X5085000Y1508750D02*
G75*
G03*
X5085000Y1478750I0J-15000D01*
G01*
D12*
X5310000Y114984D02*
X5340000Y84984D01*
X5340000Y114984D02*
X5310000Y84984D01*
D11*
X5085000Y84984D02*
X5565000Y84984D01*
X5085000Y114984D02*
X5565000Y114984D01*
X5565000Y84984D02*
G75*
G03*
X5565000Y114984I0J15000D01*
G01*
X5085000Y114984D02*
G75*
G03*
X5085000Y84984I0J-15000D01*
G01*
D12*
X5310000Y113750D02*
X5340000Y83750D01*
X5340000Y113750D02*
X5310000Y83750D01*
D11*
X5085000Y83750D02*
X5565000Y83750D01*
X5085000Y113750D02*
X5565000Y113750D01*
X5565000Y83750D02*
G75*
G03*
X5565000Y113750I0J15000D01*
G01*
X5085000Y113750D02*
G75*
G03*
X5085000Y83750I0J-15000D01*
G01*
D12*
X5310000Y-265016D02*
X5340000Y-295016D01*
X5340000Y-265016D02*
X5310000Y-295016D01*
D11*
X5085000Y-295016D02*
X5565000Y-295016D01*
X5085000Y-265016D02*
X5565000Y-265016D01*
X5565000Y-295016D02*
G75*
G03*
X5565000Y-265016I0J15000D01*
G01*
X5085000Y-265016D02*
G75*
G03*
X5085000Y-295016I0J-15000D01*
G01*
D12*
X5310000Y-266250D02*
X5340000Y-296250D01*
X5340000Y-266250D02*
X5310000Y-296250D01*
D11*
X5085000Y-296250D02*
X5565000Y-296250D01*
X5085000Y-266250D02*
X5565000Y-266250D01*
X5565000Y-296250D02*
G75*
G03*
X5565000Y-266250I0J15000D01*
G01*
X5085000Y-266250D02*
G75*
G03*
X5085000Y-296250I0J-15000D01*
G01*
D12*
X5550000Y5249984D02*
X5580000Y5219984D01*
X5580000Y5249984D02*
X5550000Y5219984D01*
D11*
X5550000Y5424984D02*
X5550000Y5044984D01*
X5580000Y5424984D02*
X5580000Y5044984D01*
X5550000Y5044984D02*
G75*
G03*
X5580000Y5044984I15000J0D01*
G01*
X5580000Y5424984D02*
G75*
G03*
X5550000Y5424984I-15000J0D01*
G01*
D12*
X5550000Y5248750D02*
X5580000Y5218750D01*
X5580000Y5248750D02*
X5550000Y5218750D01*
D11*
X5550000Y5423750D02*
X5550000Y5043750D01*
X5580000Y5423750D02*
X5580000Y5043750D01*
X5550000Y5043750D02*
G75*
G03*
X5580000Y5043750I15000J0D01*
G01*
X5580000Y5423750D02*
G75*
G03*
X5550000Y5423750I-15000J0D01*
G01*
D12*
X5550000Y3474984D02*
X5580000Y3444984D01*
X5580000Y3474984D02*
X5550000Y3444984D01*
D11*
X5550000Y3649984D02*
X5550000Y3269984D01*
X5580000Y3649984D02*
X5580000Y3269984D01*
X5550000Y3269984D02*
G75*
G03*
X5580000Y3269984I15000J0D01*
G01*
X5580000Y3649984D02*
G75*
G03*
X5550000Y3649984I-15000J0D01*
G01*
D12*
X5550000Y3473750D02*
X5580000Y3443750D01*
X5580000Y3473750D02*
X5550000Y3443750D01*
D11*
X5550000Y3648750D02*
X5550000Y3268750D01*
X5580000Y3648750D02*
X5580000Y3268750D01*
X5550000Y3268750D02*
G75*
G03*
X5580000Y3268750I15000J0D01*
G01*
X5580000Y3648750D02*
G75*
G03*
X5550000Y3648750I-15000J0D01*
G01*
D12*
X5550000Y1699984D02*
X5580000Y1669984D01*
X5580000Y1699984D02*
X5550000Y1669984D01*
D11*
X5550000Y1874984D02*
X5550000Y1494984D01*
X5580000Y1874984D02*
X5580000Y1494984D01*
X5550000Y1494984D02*
G75*
G03*
X5580000Y1494984I15000J0D01*
G01*
X5580000Y1874984D02*
G75*
G03*
X5550000Y1874984I-15000J0D01*
G01*
D12*
X5550000Y1698750D02*
X5580000Y1668750D01*
X5580000Y1698750D02*
X5550000Y1668750D01*
D11*
X5550000Y1873750D02*
X5550000Y1493750D01*
X5580000Y1873750D02*
X5580000Y1493750D01*
X5550000Y1493750D02*
G75*
G03*
X5580000Y1493750I15000J0D01*
G01*
X5580000Y1873750D02*
G75*
G03*
X5550000Y1873750I-15000J0D01*
G01*
D12*
X5550000Y-75016D02*
X5580000Y-105016D01*
X5580000Y-75016D02*
X5550000Y-105016D01*
D11*
X5550000Y99984D02*
X5550000Y-280016D01*
X5580000Y99984D02*
X5580000Y-280016D01*
X5550000Y-280016D02*
G75*
G03*
X5580000Y-280016I15000J0D01*
G01*
X5580000Y99984D02*
G75*
G03*
X5550000Y99984I-15000J0D01*
G01*
D12*
X5550000Y-76250D02*
X5580000Y-106250D01*
X5580000Y-76250D02*
X5550000Y-106250D01*
D11*
X5550000Y98750D02*
X5550000Y-281250D01*
X5580000Y98750D02*
X5580000Y-281250D01*
X5550000Y-281250D02*
G75*
G03*
X5580000Y-281250I15000J0D01*
G01*
X5580000Y98750D02*
G75*
G03*
X5550000Y98750I-15000J0D01*
G01*
D12*
X6845000Y5249984D02*
X6875000Y5219984D01*
X6875000Y5249984D02*
X6845000Y5219984D01*
D11*
X6845000Y5424984D02*
X6845000Y5044984D01*
X6875000Y5424984D02*
X6875000Y5044984D01*
X6845000Y5044984D02*
G75*
G03*
X6875000Y5044984I15000J0D01*
G01*
X6875000Y5424984D02*
G75*
G03*
X6845000Y5424984I-15000J0D01*
G01*
D12*
X6845000Y5248750D02*
X6875000Y5218750D01*
X6875000Y5248750D02*
X6845000Y5218750D01*
D11*
X6845000Y5423750D02*
X6845000Y5043750D01*
X6875000Y5423750D02*
X6875000Y5043750D01*
X6845000Y5043750D02*
G75*
G03*
X6875000Y5043750I15000J0D01*
G01*
X6875000Y5423750D02*
G75*
G03*
X6845000Y5423750I-15000J0D01*
G01*
D12*
X6845000Y3474984D02*
X6875000Y3444984D01*
X6875000Y3474984D02*
X6845000Y3444984D01*
D11*
X6845000Y3649984D02*
X6845000Y3269984D01*
X6875000Y3649984D02*
X6875000Y3269984D01*
X6845000Y3269984D02*
G75*
G03*
X6875000Y3269984I15000J0D01*
G01*
X6875000Y3649984D02*
G75*
G03*
X6845000Y3649984I-15000J0D01*
G01*
D12*
X6845000Y3473750D02*
X6875000Y3443750D01*
X6875000Y3473750D02*
X6845000Y3443750D01*
D11*
X6845000Y3648750D02*
X6845000Y3268750D01*
X6875000Y3648750D02*
X6875000Y3268750D01*
X6845000Y3268750D02*
G75*
G03*
X6875000Y3268750I15000J0D01*
G01*
X6875000Y3648750D02*
G75*
G03*
X6845000Y3648750I-15000J0D01*
G01*
D12*
X6845000Y1699984D02*
X6875000Y1669984D01*
X6875000Y1699984D02*
X6845000Y1669984D01*
D11*
X6845000Y1874984D02*
X6845000Y1494984D01*
X6875000Y1874984D02*
X6875000Y1494984D01*
X6845000Y1494984D02*
G75*
G03*
X6875000Y1494984I15000J0D01*
G01*
X6875000Y1874984D02*
G75*
G03*
X6845000Y1874984I-15000J0D01*
G01*
D12*
X6845000Y1698750D02*
X6875000Y1668750D01*
X6875000Y1698750D02*
X6845000Y1668750D01*
D11*
X6845000Y1873750D02*
X6845000Y1493750D01*
X6875000Y1873750D02*
X6875000Y1493750D01*
X6845000Y1493750D02*
G75*
G03*
X6875000Y1493750I15000J0D01*
G01*
X6875000Y1873750D02*
G75*
G03*
X6845000Y1873750I-15000J0D01*
G01*
D12*
X6845000Y-75016D02*
X6875000Y-105016D01*
X6875000Y-75016D02*
X6845000Y-105016D01*
D11*
X6845000Y99984D02*
X6845000Y-280016D01*
X6875000Y99984D02*
X6875000Y-280016D01*
X6845000Y-280016D02*
G75*
G03*
X6875000Y-280016I15000J0D01*
G01*
X6875000Y99984D02*
G75*
G03*
X6845000Y99984I-15000J0D01*
G01*
D12*
X6845000Y-76250D02*
X6875000Y-106250D01*
X6875000Y-76250D02*
X6845000Y-106250D01*
D11*
X6845000Y98750D02*
X6845000Y-281250D01*
X6875000Y98750D02*
X6875000Y-281250D01*
X6845000Y-281250D02*
G75*
G03*
X6875000Y-281250I15000J0D01*
G01*
X6875000Y98750D02*
G75*
G03*
X6845000Y98750I-15000J0D01*
G01*
D12*
X7085000Y5439984D02*
X7115000Y5409984D01*
X7115000Y5439984D02*
X7085000Y5409984D01*
D11*
X6860000Y5409984D02*
X7340000Y5409984D01*
X6860000Y5439984D02*
X7340000Y5439984D01*
X7340000Y5409984D02*
G75*
G03*
X7340000Y5439984I0J15000D01*
G01*
X6860000Y5439984D02*
G75*
G03*
X6860000Y5409984I0J-15000D01*
G01*
D12*
X7085000Y5438750D02*
X7115000Y5408750D01*
X7115000Y5438750D02*
X7085000Y5408750D01*
D11*
X6860000Y5408750D02*
X7340000Y5408750D01*
X6860000Y5438750D02*
X7340000Y5438750D01*
X7340000Y5408750D02*
G75*
G03*
X7340000Y5438750I0J15000D01*
G01*
X6860000Y5438750D02*
G75*
G03*
X6860000Y5408750I0J-15000D01*
G01*
D12*
X7085000Y5059984D02*
X7115000Y5029984D01*
X7115000Y5059984D02*
X7085000Y5029984D01*
D11*
X6860000Y5029984D02*
X7340000Y5029984D01*
X6860000Y5059984D02*
X7340000Y5059984D01*
X7340000Y5029984D02*
G75*
G03*
X7340000Y5059984I0J15000D01*
G01*
X6860000Y5059984D02*
G75*
G03*
X6860000Y5029984I0J-15000D01*
G01*
D12*
X7085000Y5058750D02*
X7115000Y5028750D01*
X7115000Y5058750D02*
X7085000Y5028750D01*
D11*
X6860000Y5028750D02*
X7340000Y5028750D01*
X6860000Y5058750D02*
X7340000Y5058750D01*
X7340000Y5028750D02*
G75*
G03*
X7340000Y5058750I0J15000D01*
G01*
X6860000Y5058750D02*
G75*
G03*
X6860000Y5028750I0J-15000D01*
G01*
D12*
X7085000Y3664984D02*
X7115000Y3634984D01*
X7115000Y3664984D02*
X7085000Y3634984D01*
D11*
X6860000Y3634984D02*
X7340000Y3634984D01*
X6860000Y3664984D02*
X7340000Y3664984D01*
X7340000Y3634984D02*
G75*
G03*
X7340000Y3664984I0J15000D01*
G01*
X6860000Y3664984D02*
G75*
G03*
X6860000Y3634984I0J-15000D01*
G01*
D12*
X7085000Y3663750D02*
X7115000Y3633750D01*
X7115000Y3663750D02*
X7085000Y3633750D01*
D11*
X6860000Y3633750D02*
X7340000Y3633750D01*
X6860000Y3663750D02*
X7340000Y3663750D01*
X7340000Y3633750D02*
G75*
G03*
X7340000Y3663750I0J15000D01*
G01*
X6860000Y3663750D02*
G75*
G03*
X6860000Y3633750I0J-15000D01*
G01*
D12*
X7085000Y3284984D02*
X7115000Y3254984D01*
X7115000Y3284984D02*
X7085000Y3254984D01*
D11*
X6860000Y3254984D02*
X7340000Y3254984D01*
X6860000Y3284984D02*
X7340000Y3284984D01*
X7340000Y3254984D02*
G75*
G03*
X7340000Y3284984I0J15000D01*
G01*
X6860000Y3284984D02*
G75*
G03*
X6860000Y3254984I0J-15000D01*
G01*
D12*
X7085000Y3283750D02*
X7115000Y3253750D01*
X7115000Y3283750D02*
X7085000Y3253750D01*
D11*
X6860000Y3253750D02*
X7340000Y3253750D01*
X6860000Y3283750D02*
X7340000Y3283750D01*
X7340000Y3253750D02*
G75*
G03*
X7340000Y3283750I0J15000D01*
G01*
X6860000Y3283750D02*
G75*
G03*
X6860000Y3253750I0J-15000D01*
G01*
D12*
X7085000Y1889984D02*
X7115000Y1859984D01*
X7115000Y1889984D02*
X7085000Y1859984D01*
D11*
X6860000Y1859984D02*
X7340000Y1859984D01*
X6860000Y1889984D02*
X7340000Y1889984D01*
X7340000Y1859984D02*
G75*
G03*
X7340000Y1889984I0J15000D01*
G01*
X6860000Y1889984D02*
G75*
G03*
X6860000Y1859984I0J-15000D01*
G01*
D12*
X7085000Y1888750D02*
X7115000Y1858750D01*
X7115000Y1888750D02*
X7085000Y1858750D01*
D11*
X6860000Y1858750D02*
X7340000Y1858750D01*
X6860000Y1888750D02*
X7340000Y1888750D01*
X7340000Y1858750D02*
G75*
G03*
X7340000Y1888750I0J15000D01*
G01*
X6860000Y1888750D02*
G75*
G03*
X6860000Y1858750I0J-15000D01*
G01*
D12*
X7085000Y1509984D02*
X7115000Y1479984D01*
X7115000Y1509984D02*
X7085000Y1479984D01*
D11*
X6860000Y1479984D02*
X7340000Y1479984D01*
X6860000Y1509984D02*
X7340000Y1509984D01*
X7340000Y1479984D02*
G75*
G03*
X7340000Y1509984I0J15000D01*
G01*
X6860000Y1509984D02*
G75*
G03*
X6860000Y1479984I0J-15000D01*
G01*
D12*
X7085000Y1508750D02*
X7115000Y1478750D01*
X7115000Y1508750D02*
X7085000Y1478750D01*
D11*
X6860000Y1478750D02*
X7340000Y1478750D01*
X6860000Y1508750D02*
X7340000Y1508750D01*
X7340000Y1478750D02*
G75*
G03*
X7340000Y1508750I0J15000D01*
G01*
X6860000Y1508750D02*
G75*
G03*
X6860000Y1478750I0J-15000D01*
G01*
D12*
X7085000Y114984D02*
X7115000Y84984D01*
X7115000Y114984D02*
X7085000Y84984D01*
D11*
X6860000Y84984D02*
X7340000Y84984D01*
X6860000Y114984D02*
X7340000Y114984D01*
X7340000Y84984D02*
G75*
G03*
X7340000Y114984I0J15000D01*
G01*
X6860000Y114984D02*
G75*
G03*
X6860000Y84984I0J-15000D01*
G01*
D12*
X7085000Y113750D02*
X7115000Y83750D01*
X7115000Y113750D02*
X7085000Y83750D01*
D11*
X6860000Y83750D02*
X7340000Y83750D01*
X6860000Y113750D02*
X7340000Y113750D01*
X7340000Y83750D02*
G75*
G03*
X7340000Y113750I0J15000D01*
G01*
X6860000Y113750D02*
G75*
G03*
X6860000Y83750I0J-15000D01*
G01*
D12*
X7085000Y-265016D02*
X7115000Y-295016D01*
X7115000Y-265016D02*
X7085000Y-295016D01*
D11*
X6860000Y-295016D02*
X7340000Y-295016D01*
X6860000Y-265016D02*
X7340000Y-265016D01*
X7340000Y-295016D02*
G75*
G03*
X7340000Y-265016I0J15000D01*
G01*
X6860000Y-265016D02*
G75*
G03*
X6860000Y-295016I0J-15000D01*
G01*
D12*
X7085000Y-266250D02*
X7115000Y-296250D01*
X7115000Y-266250D02*
X7085000Y-296250D01*
D11*
X6860000Y-296250D02*
X7340000Y-296250D01*
X6860000Y-266250D02*
X7340000Y-266250D01*
X7340000Y-296250D02*
G75*
G03*
X7340000Y-266250I0J15000D01*
G01*
X6860000Y-266250D02*
G75*
G03*
X6860000Y-296250I0J-15000D01*
G01*
D12*
X7325000Y5249984D02*
X7355000Y5219984D01*
X7355000Y5249984D02*
X7325000Y5219984D01*
D11*
X7325000Y5424984D02*
X7325000Y5044984D01*
X7355000Y5424984D02*
X7355000Y5044984D01*
X7325000Y5044984D02*
G75*
G03*
X7355000Y5044984I15000J0D01*
G01*
X7355000Y5424984D02*
G75*
G03*
X7325000Y5424984I-15000J0D01*
G01*
D12*
X7325000Y5248750D02*
X7355000Y5218750D01*
X7355000Y5248750D02*
X7325000Y5218750D01*
D11*
X7325000Y5423750D02*
X7325000Y5043750D01*
X7355000Y5423750D02*
X7355000Y5043750D01*
X7325000Y5043750D02*
G75*
G03*
X7355000Y5043750I15000J0D01*
G01*
X7355000Y5423750D02*
G75*
G03*
X7325000Y5423750I-15000J0D01*
G01*
D12*
X7325000Y3474984D02*
X7355000Y3444984D01*
X7355000Y3474984D02*
X7325000Y3444984D01*
D11*
X7325000Y3649984D02*
X7325000Y3269984D01*
X7355000Y3649984D02*
X7355000Y3269984D01*
X7325000Y3269984D02*
G75*
G03*
X7355000Y3269984I15000J0D01*
G01*
X7355000Y3649984D02*
G75*
G03*
X7325000Y3649984I-15000J0D01*
G01*
D12*
X7325000Y3473750D02*
X7355000Y3443750D01*
X7355000Y3473750D02*
X7325000Y3443750D01*
D11*
X7325000Y3648750D02*
X7325000Y3268750D01*
X7355000Y3648750D02*
X7355000Y3268750D01*
X7325000Y3268750D02*
G75*
G03*
X7355000Y3268750I15000J0D01*
G01*
X7355000Y3648750D02*
G75*
G03*
X7325000Y3648750I-15000J0D01*
G01*
D12*
X7325000Y1699984D02*
X7355000Y1669984D01*
X7355000Y1699984D02*
X7325000Y1669984D01*
D11*
X7325000Y1874984D02*
X7325000Y1494984D01*
X7355000Y1874984D02*
X7355000Y1494984D01*
X7325000Y1494984D02*
G75*
G03*
X7355000Y1494984I15000J0D01*
G01*
X7355000Y1874984D02*
G75*
G03*
X7325000Y1874984I-15000J0D01*
G01*
D12*
X7325000Y1698750D02*
X7355000Y1668750D01*
X7355000Y1698750D02*
X7325000Y1668750D01*
D11*
X7325000Y1873750D02*
X7325000Y1493750D01*
X7355000Y1873750D02*
X7355000Y1493750D01*
X7325000Y1493750D02*
G75*
G03*
X7355000Y1493750I15000J0D01*
G01*
X7355000Y1873750D02*
G75*
G03*
X7325000Y1873750I-15000J0D01*
G01*
D12*
X7325000Y-75016D02*
X7355000Y-105016D01*
X7355000Y-75016D02*
X7325000Y-105016D01*
D11*
X7325000Y99984D02*
X7325000Y-280016D01*
X7355000Y99984D02*
X7355000Y-280016D01*
X7325000Y-280016D02*
G75*
G03*
X7355000Y-280016I15000J0D01*
G01*
X7355000Y99984D02*
G75*
G03*
X7325000Y99984I-15000J0D01*
G01*
D12*
X7325000Y-76250D02*
X7355000Y-106250D01*
X7355000Y-76250D02*
X7325000Y-106250D01*
D11*
X7325000Y98750D02*
X7325000Y-281250D01*
X7355000Y98750D02*
X7355000Y-281250D01*
X7325000Y-281250D02*
G75*
G03*
X7355000Y-281250I15000J0D01*
G01*
X7355000Y98750D02*
G75*
G03*
X7325000Y98750I-15000J0D01*
G01*
D12*
X8620000Y5249984D02*
X8650000Y5219984D01*
X8650000Y5249984D02*
X8620000Y5219984D01*
D11*
X8620000Y5424984D02*
X8620000Y5044984D01*
X8650000Y5424984D02*
X8650000Y5044984D01*
X8620000Y5044984D02*
G75*
G03*
X8650000Y5044984I15000J0D01*
G01*
X8650000Y5424984D02*
G75*
G03*
X8620000Y5424984I-15000J0D01*
G01*
D12*
X8620000Y5248750D02*
X8650000Y5218750D01*
X8650000Y5248750D02*
X8620000Y5218750D01*
D11*
X8620000Y5423750D02*
X8620000Y5043750D01*
X8650000Y5423750D02*
X8650000Y5043750D01*
X8620000Y5043750D02*
G75*
G03*
X8650000Y5043750I15000J0D01*
G01*
X8650000Y5423750D02*
G75*
G03*
X8620000Y5423750I-15000J0D01*
G01*
D12*
X8620000Y3474984D02*
X8650000Y3444984D01*
X8650000Y3474984D02*
X8620000Y3444984D01*
D11*
X8620000Y3649984D02*
X8620000Y3269984D01*
X8650000Y3649984D02*
X8650000Y3269984D01*
X8620000Y3269984D02*
G75*
G03*
X8650000Y3269984I15000J0D01*
G01*
X8650000Y3649984D02*
G75*
G03*
X8620000Y3649984I-15000J0D01*
G01*
D12*
X8620000Y3473750D02*
X8650000Y3443750D01*
X8650000Y3473750D02*
X8620000Y3443750D01*
D11*
X8620000Y3648750D02*
X8620000Y3268750D01*
X8650000Y3648750D02*
X8650000Y3268750D01*
X8620000Y3268750D02*
G75*
G03*
X8650000Y3268750I15000J0D01*
G01*
X8650000Y3648750D02*
G75*
G03*
X8620000Y3648750I-15000J0D01*
G01*
D12*
X8620000Y1699984D02*
X8650000Y1669984D01*
X8650000Y1699984D02*
X8620000Y1669984D01*
D11*
X8620000Y1874984D02*
X8620000Y1494984D01*
X8650000Y1874984D02*
X8650000Y1494984D01*
X8620000Y1494984D02*
G75*
G03*
X8650000Y1494984I15000J0D01*
G01*
X8650000Y1874984D02*
G75*
G03*
X8620000Y1874984I-15000J0D01*
G01*
D12*
X8620000Y1698750D02*
X8650000Y1668750D01*
X8650000Y1698750D02*
X8620000Y1668750D01*
D11*
X8620000Y1873750D02*
X8620000Y1493750D01*
X8650000Y1873750D02*
X8650000Y1493750D01*
X8620000Y1493750D02*
G75*
G03*
X8650000Y1493750I15000J0D01*
G01*
X8650000Y1873750D02*
G75*
G03*
X8620000Y1873750I-15000J0D01*
G01*
D12*
X8620000Y-75016D02*
X8650000Y-105016D01*
X8650000Y-75016D02*
X8620000Y-105016D01*
D11*
X8620000Y99984D02*
X8620000Y-280016D01*
X8650000Y99984D02*
X8650000Y-280016D01*
X8620000Y-280016D02*
G75*
G03*
X8650000Y-280016I15000J0D01*
G01*
X8650000Y99984D02*
G75*
G03*
X8620000Y99984I-15000J0D01*
G01*
D12*
X8620000Y-76250D02*
X8650000Y-106250D01*
X8650000Y-76250D02*
X8620000Y-106250D01*
D11*
X8620000Y98750D02*
X8620000Y-281250D01*
X8650000Y98750D02*
X8650000Y-281250D01*
X8620000Y-281250D02*
G75*
G03*
X8650000Y-281250I15000J0D01*
G01*
X8650000Y98750D02*
G75*
G03*
X8620000Y98750I-15000J0D01*
G01*
D12*
X8860000Y5439984D02*
X8890000Y5409984D01*
X8890000Y5439984D02*
X8860000Y5409984D01*
D11*
X8635000Y5409984D02*
X9115000Y5409984D01*
X8635000Y5439984D02*
X9115000Y5439984D01*
X9115000Y5409984D02*
G75*
G03*
X9115000Y5439984I0J15000D01*
G01*
X8635000Y5439984D02*
G75*
G03*
X8635000Y5409984I0J-15000D01*
G01*
D12*
X8860000Y5438750D02*
X8890000Y5408750D01*
X8890000Y5438750D02*
X8860000Y5408750D01*
D11*
X8635000Y5408750D02*
X9115000Y5408750D01*
X8635000Y5438750D02*
X9115000Y5438750D01*
X9115000Y5408750D02*
G75*
G03*
X9115000Y5438750I0J15000D01*
G01*
X8635000Y5438750D02*
G75*
G03*
X8635000Y5408750I0J-15000D01*
G01*
D12*
X8860000Y5059984D02*
X8890000Y5029984D01*
X8890000Y5059984D02*
X8860000Y5029984D01*
D11*
X8635000Y5029984D02*
X9115000Y5029984D01*
X8635000Y5059984D02*
X9115000Y5059984D01*
X9115000Y5029984D02*
G75*
G03*
X9115000Y5059984I0J15000D01*
G01*
X8635000Y5059984D02*
G75*
G03*
X8635000Y5029984I0J-15000D01*
G01*
D12*
X8860000Y5058750D02*
X8890000Y5028750D01*
X8890000Y5058750D02*
X8860000Y5028750D01*
D11*
X8635000Y5028750D02*
X9115000Y5028750D01*
X8635000Y5058750D02*
X9115000Y5058750D01*
X9115000Y5028750D02*
G75*
G03*
X9115000Y5058750I0J15000D01*
G01*
X8635000Y5058750D02*
G75*
G03*
X8635000Y5028750I0J-15000D01*
G01*
D12*
X8860000Y3664984D02*
X8890000Y3634984D01*
X8890000Y3664984D02*
X8860000Y3634984D01*
D11*
X8635000Y3634984D02*
X9115000Y3634984D01*
X8635000Y3664984D02*
X9115000Y3664984D01*
X9115000Y3634984D02*
G75*
G03*
X9115000Y3664984I0J15000D01*
G01*
X8635000Y3664984D02*
G75*
G03*
X8635000Y3634984I0J-15000D01*
G01*
D12*
X8860000Y3663750D02*
X8890000Y3633750D01*
X8890000Y3663750D02*
X8860000Y3633750D01*
D11*
X8635000Y3633750D02*
X9115000Y3633750D01*
X8635000Y3663750D02*
X9115000Y3663750D01*
X9115000Y3633750D02*
G75*
G03*
X9115000Y3663750I0J15000D01*
G01*
X8635000Y3663750D02*
G75*
G03*
X8635000Y3633750I0J-15000D01*
G01*
D12*
X8860000Y3284984D02*
X8890000Y3254984D01*
X8890000Y3284984D02*
X8860000Y3254984D01*
D11*
X8635000Y3254984D02*
X9115000Y3254984D01*
X8635000Y3284984D02*
X9115000Y3284984D01*
X9115000Y3254984D02*
G75*
G03*
X9115000Y3284984I0J15000D01*
G01*
X8635000Y3284984D02*
G75*
G03*
X8635000Y3254984I0J-15000D01*
G01*
D12*
X8860000Y3283750D02*
X8890000Y3253750D01*
X8890000Y3283750D02*
X8860000Y3253750D01*
D11*
X8635000Y3253750D02*
X9115000Y3253750D01*
X8635000Y3283750D02*
X9115000Y3283750D01*
X9115000Y3253750D02*
G75*
G03*
X9115000Y3283750I0J15000D01*
G01*
X8635000Y3283750D02*
G75*
G03*
X8635000Y3253750I0J-15000D01*
G01*
D12*
X8860000Y1889984D02*
X8890000Y1859984D01*
X8890000Y1889984D02*
X8860000Y1859984D01*
D11*
X8635000Y1859984D02*
X9115000Y1859984D01*
X8635000Y1889984D02*
X9115000Y1889984D01*
X9115000Y1859984D02*
G75*
G03*
X9115000Y1889984I0J15000D01*
G01*
X8635000Y1889984D02*
G75*
G03*
X8635000Y1859984I0J-15000D01*
G01*
D12*
X8860000Y1888750D02*
X8890000Y1858750D01*
X8890000Y1888750D02*
X8860000Y1858750D01*
D11*
X8635000Y1858750D02*
X9115000Y1858750D01*
X8635000Y1888750D02*
X9115000Y1888750D01*
X9115000Y1858750D02*
G75*
G03*
X9115000Y1888750I0J15000D01*
G01*
X8635000Y1888750D02*
G75*
G03*
X8635000Y1858750I0J-15000D01*
G01*
D12*
X8860000Y1509984D02*
X8890000Y1479984D01*
X8890000Y1509984D02*
X8860000Y1479984D01*
D11*
X8635000Y1479984D02*
X9115000Y1479984D01*
X8635000Y1509984D02*
X9115000Y1509984D01*
X9115000Y1479984D02*
G75*
G03*
X9115000Y1509984I0J15000D01*
G01*
X8635000Y1509984D02*
G75*
G03*
X8635000Y1479984I0J-15000D01*
G01*
D12*
X8860000Y1508750D02*
X8890000Y1478750D01*
X8890000Y1508750D02*
X8860000Y1478750D01*
D11*
X8635000Y1478750D02*
X9115000Y1478750D01*
X8635000Y1508750D02*
X9115000Y1508750D01*
X9115000Y1478750D02*
G75*
G03*
X9115000Y1508750I0J15000D01*
G01*
X8635000Y1508750D02*
G75*
G03*
X8635000Y1478750I0J-15000D01*
G01*
D12*
X8860000Y114984D02*
X8890000Y84984D01*
X8890000Y114984D02*
X8860000Y84984D01*
D11*
X8635000Y84984D02*
X9115000Y84984D01*
X8635000Y114984D02*
X9115000Y114984D01*
X9115000Y84984D02*
G75*
G03*
X9115000Y114984I0J15000D01*
G01*
X8635000Y114984D02*
G75*
G03*
X8635000Y84984I0J-15000D01*
G01*
D12*
X8860000Y113750D02*
X8890000Y83750D01*
X8890000Y113750D02*
X8860000Y83750D01*
D11*
X8635000Y83750D02*
X9115000Y83750D01*
X8635000Y113750D02*
X9115000Y113750D01*
X9115000Y83750D02*
G75*
G03*
X9115000Y113750I0J15000D01*
G01*
X8635000Y113750D02*
G75*
G03*
X8635000Y83750I0J-15000D01*
G01*
D12*
X8860000Y-265016D02*
X8890000Y-295016D01*
X8890000Y-265016D02*
X8860000Y-295016D01*
D11*
X8635000Y-295016D02*
X9115000Y-295016D01*
X8635000Y-265016D02*
X9115000Y-265016D01*
X9115000Y-295016D02*
G75*
G03*
X9115000Y-265016I0J15000D01*
G01*
X8635000Y-265016D02*
G75*
G03*
X8635000Y-295016I0J-15000D01*
G01*
D12*
X8860000Y-266250D02*
X8890000Y-296250D01*
X8890000Y-266250D02*
X8860000Y-296250D01*
D11*
X8635000Y-296250D02*
X9115000Y-296250D01*
X8635000Y-266250D02*
X9115000Y-266250D01*
X9115000Y-296250D02*
G75*
G03*
X9115000Y-266250I0J15000D01*
G01*
X8635000Y-266250D02*
G75*
G03*
X8635000Y-296250I0J-15000D01*
G01*
D12*
X9100000Y5249984D02*
X9130000Y5219984D01*
X9130000Y5249984D02*
X9100000Y5219984D01*
D11*
X9100000Y5424984D02*
X9100000Y5044984D01*
X9130000Y5424984D02*
X9130000Y5044984D01*
X9100000Y5044984D02*
G75*
G03*
X9130000Y5044984I15000J0D01*
G01*
X9130000Y5424984D02*
G75*
G03*
X9100000Y5424984I-15000J0D01*
G01*
D12*
X9100000Y5248750D02*
X9130000Y5218750D01*
X9130000Y5248750D02*
X9100000Y5218750D01*
D11*
X9100000Y5423750D02*
X9100000Y5043750D01*
X9130000Y5423750D02*
X9130000Y5043750D01*
X9100000Y5043750D02*
G75*
G03*
X9130000Y5043750I15000J0D01*
G01*
X9130000Y5423750D02*
G75*
G03*
X9100000Y5423750I-15000J0D01*
G01*
D12*
X9100000Y3474984D02*
X9130000Y3444984D01*
X9130000Y3474984D02*
X9100000Y3444984D01*
D11*
X9100000Y3649984D02*
X9100000Y3269984D01*
X9130000Y3649984D02*
X9130000Y3269984D01*
X9100000Y3269984D02*
G75*
G03*
X9130000Y3269984I15000J0D01*
G01*
X9130000Y3649984D02*
G75*
G03*
X9100000Y3649984I-15000J0D01*
G01*
D12*
X9100000Y3473750D02*
X9130000Y3443750D01*
X9130000Y3473750D02*
X9100000Y3443750D01*
D11*
X9100000Y3648750D02*
X9100000Y3268750D01*
X9130000Y3648750D02*
X9130000Y3268750D01*
X9100000Y3268750D02*
G75*
G03*
X9130000Y3268750I15000J0D01*
G01*
X9130000Y3648750D02*
G75*
G03*
X9100000Y3648750I-15000J0D01*
G01*
D12*
X9100000Y1699984D02*
X9130000Y1669984D01*
X9130000Y1699984D02*
X9100000Y1669984D01*
D11*
X9100000Y1874984D02*
X9100000Y1494984D01*
X9130000Y1874984D02*
X9130000Y1494984D01*
X9100000Y1494984D02*
G75*
G03*
X9130000Y1494984I15000J0D01*
G01*
X9130000Y1874984D02*
G75*
G03*
X9100000Y1874984I-15000J0D01*
G01*
D12*
X9100000Y1698750D02*
X9130000Y1668750D01*
X9130000Y1698750D02*
X9100000Y1668750D01*
D11*
X9100000Y1873750D02*
X9100000Y1493750D01*
X9130000Y1873750D02*
X9130000Y1493750D01*
X9100000Y1493750D02*
G75*
G03*
X9130000Y1493750I15000J0D01*
G01*
X9130000Y1873750D02*
G75*
G03*
X9100000Y1873750I-15000J0D01*
G01*
D12*
X9100000Y-75016D02*
X9130000Y-105016D01*
X9130000Y-75016D02*
X9100000Y-105016D01*
D11*
X9100000Y99984D02*
X9100000Y-280016D01*
X9130000Y99984D02*
X9130000Y-280016D01*
X9100000Y-280016D02*
G75*
G03*
X9130000Y-280016I15000J0D01*
G01*
X9130000Y99984D02*
G75*
G03*
X9100000Y99984I-15000J0D01*
G01*
D12*
X9100000Y-76250D02*
X9130000Y-106250D01*
X9130000Y-76250D02*
X9100000Y-106250D01*
D11*
X9100000Y98750D02*
X9100000Y-281250D01*
X9130000Y98750D02*
X9130000Y-281250D01*
X9100000Y-281250D02*
G75*
G03*
X9130000Y-281250I15000J0D01*
G01*
X9130000Y98750D02*
G75*
G03*
X9100000Y98750I-15000J0D01*
G01*
D13*
X-485001Y5873766D02*
G75*
G03*
X-485001Y5873766I-65000J0D01*
G01*
X-485001Y4098766D02*
G75*
G03*
X-485001Y4098766I-65000J0D01*
G01*
X-485001Y2323766D02*
G75*
G03*
X-485001Y2323766I-65000J0D01*
G01*
X-485001Y548766D02*
G75*
G03*
X-485001Y548766I-65000J0D01*
G01*
X-484999Y4775000D02*
G75*
G03*
X-484999Y4775000I-65000J0D01*
G01*
X-484999Y3000000D02*
G75*
G03*
X-484999Y3000000I-65000J0D01*
G01*
X-484999Y1225000D02*
G75*
G03*
X-484999Y1225000I-65000J0D01*
G01*
X-484999Y-550000D02*
G75*
G03*
X-484999Y-550000I-65000J0D01*
G01*
X614999Y4773766D02*
G75*
G03*
X614999Y4773766I-65000J0D01*
G01*
X614999Y2998766D02*
G75*
G03*
X614999Y2998766I-65000J0D01*
G01*
X614999Y1223766D02*
G75*
G03*
X614999Y1223766I-65000J0D01*
G01*
X614999Y-551234D02*
G75*
G03*
X614999Y-551234I-65000J0D01*
G01*
X615001Y5875000D02*
G75*
G03*
X615001Y5875000I-65000J0D01*
G01*
X615001Y4100000D02*
G75*
G03*
X615001Y4100000I-65000J0D01*
G01*
X615001Y2325000D02*
G75*
G03*
X615001Y2325000I-65000J0D01*
G01*
X615001Y550000D02*
G75*
G03*
X615001Y550000I-65000J0D01*
G01*
X1289999Y5873766D02*
G75*
G03*
X1289999Y5873766I-65000J0D01*
G01*
X1289999Y4098766D02*
G75*
G03*
X1289999Y4098766I-65000J0D01*
G01*
X1289999Y2323766D02*
G75*
G03*
X1289999Y2323766I-65000J0D01*
G01*
X1289999Y548766D02*
G75*
G03*
X1289999Y548766I-65000J0D01*
G01*
X1290001Y4775000D02*
G75*
G03*
X1290001Y4775000I-65000J0D01*
G01*
X1290001Y3000000D02*
G75*
G03*
X1290001Y3000000I-65000J0D01*
G01*
X1290001Y1225000D02*
G75*
G03*
X1290001Y1225000I-65000J0D01*
G01*
X1290001Y-550000D02*
G75*
G03*
X1290001Y-550000I-65000J0D01*
G01*
X2389999Y4773766D02*
G75*
G03*
X2389999Y4773766I-65000J0D01*
G01*
X2389999Y2998766D02*
G75*
G03*
X2389999Y2998766I-65000J0D01*
G01*
X2389999Y1223766D02*
G75*
G03*
X2389999Y1223766I-65000J0D01*
G01*
X2389999Y-551234D02*
G75*
G03*
X2389999Y-551234I-65000J0D01*
G01*
X2390001Y5875000D02*
G75*
G03*
X2390001Y5875000I-65000J0D01*
G01*
X2390001Y4100000D02*
G75*
G03*
X2390001Y4100000I-65000J0D01*
G01*
X2390001Y2325000D02*
G75*
G03*
X2390001Y2325000I-65000J0D01*
G01*
X2390001Y550000D02*
G75*
G03*
X2390001Y550000I-65000J0D01*
G01*
X3064999Y5873766D02*
G75*
G03*
X3064999Y5873766I-65000J0D01*
G01*
X3064999Y4098766D02*
G75*
G03*
X3064999Y4098766I-65000J0D01*
G01*
X3064999Y2323766D02*
G75*
G03*
X3064999Y2323766I-65000J0D01*
G01*
X3064999Y548766D02*
G75*
G03*
X3064999Y548766I-65000J0D01*
G01*
X3065001Y4775000D02*
G75*
G03*
X3065001Y4775000I-65000J0D01*
G01*
X3065001Y3000000D02*
G75*
G03*
X3065001Y3000000I-65000J0D01*
G01*
X3065001Y1225000D02*
G75*
G03*
X3065001Y1225000I-65000J0D01*
G01*
X3065001Y-550000D02*
G75*
G03*
X3065001Y-550000I-65000J0D01*
G01*
X4164999Y4773766D02*
G75*
G03*
X4164999Y4773766I-65000J0D01*
G01*
X4164999Y2998766D02*
G75*
G03*
X4164999Y2998766I-65000J0D01*
G01*
X4164999Y1223766D02*
G75*
G03*
X4164999Y1223766I-65000J0D01*
G01*
X4164999Y-551234D02*
G75*
G03*
X4164999Y-551234I-65000J0D01*
G01*
X4165001Y5875000D02*
G75*
G03*
X4165001Y5875000I-65000J0D01*
G01*
X4165001Y4100000D02*
G75*
G03*
X4165001Y4100000I-65000J0D01*
G01*
X4165001Y2325000D02*
G75*
G03*
X4165001Y2325000I-65000J0D01*
G01*
X4165001Y550000D02*
G75*
G03*
X4165001Y550000I-65000J0D01*
G01*
X4839999Y5873766D02*
G75*
G03*
X4839999Y5873766I-65000J0D01*
G01*
X4839999Y4098766D02*
G75*
G03*
X4839999Y4098766I-65000J0D01*
G01*
X4839999Y2323766D02*
G75*
G03*
X4839999Y2323766I-65000J0D01*
G01*
X4839999Y548766D02*
G75*
G03*
X4839999Y548766I-65000J0D01*
G01*
X4840001Y4775000D02*
G75*
G03*
X4840001Y4775000I-65000J0D01*
G01*
X4840001Y3000000D02*
G75*
G03*
X4840001Y3000000I-65000J0D01*
G01*
X4840001Y1225000D02*
G75*
G03*
X4840001Y1225000I-65000J0D01*
G01*
X4840001Y-550000D02*
G75*
G03*
X4840001Y-550000I-65000J0D01*
G01*
X5939999Y4773766D02*
G75*
G03*
X5939999Y4773766I-65000J0D01*
G01*
X5939999Y2998766D02*
G75*
G03*
X5939999Y2998766I-65000J0D01*
G01*
X5939999Y1223766D02*
G75*
G03*
X5939999Y1223766I-65000J0D01*
G01*
X5939999Y-551234D02*
G75*
G03*
X5939999Y-551234I-65000J0D01*
G01*
X5940001Y5875000D02*
G75*
G03*
X5940001Y5875000I-65000J0D01*
G01*
X5940001Y4100000D02*
G75*
G03*
X5940001Y4100000I-65000J0D01*
G01*
X5940001Y2325000D02*
G75*
G03*
X5940001Y2325000I-65000J0D01*
G01*
X5940001Y550000D02*
G75*
G03*
X5940001Y550000I-65000J0D01*
G01*
X6614999Y5873766D02*
G75*
G03*
X6614999Y5873766I-65000J0D01*
G01*
X6614999Y4098766D02*
G75*
G03*
X6614999Y4098766I-65000J0D01*
G01*
X6614999Y2323766D02*
G75*
G03*
X6614999Y2323766I-65000J0D01*
G01*
X6614999Y548766D02*
G75*
G03*
X6614999Y548766I-65000J0D01*
G01*
X6615001Y4775000D02*
G75*
G03*
X6615001Y4775000I-65000J0D01*
G01*
X6615001Y3000000D02*
G75*
G03*
X6615001Y3000000I-65000J0D01*
G01*
X6615001Y1225000D02*
G75*
G03*
X6615001Y1225000I-65000J0D01*
G01*
X6615001Y-550000D02*
G75*
G03*
X6615001Y-550000I-65000J0D01*
G01*
X7714999Y4773766D02*
G75*
G03*
X7714999Y4773766I-65000J0D01*
G01*
X7714999Y2998766D02*
G75*
G03*
X7714999Y2998766I-65000J0D01*
G01*
X7714999Y1223766D02*
G75*
G03*
X7714999Y1223766I-65000J0D01*
G01*
X7714999Y-551234D02*
G75*
G03*
X7714999Y-551234I-65000J0D01*
G01*
X7715001Y5875000D02*
G75*
G03*
X7715001Y5875000I-65000J0D01*
G01*
X7715001Y4100000D02*
G75*
G03*
X7715001Y4100000I-65000J0D01*
G01*
X7715001Y2325000D02*
G75*
G03*
X7715001Y2325000I-65000J0D01*
G01*
X7715001Y550000D02*
G75*
G03*
X7715001Y550000I-65000J0D01*
G01*
X8389999Y5873766D02*
G75*
G03*
X8389999Y5873766I-65000J0D01*
G01*
X8389999Y4098766D02*
G75*
G03*
X8389999Y4098766I-65000J0D01*
G01*
X8389999Y2323766D02*
G75*
G03*
X8389999Y2323766I-65000J0D01*
G01*
X8389999Y548766D02*
G75*
G03*
X8389999Y548766I-65000J0D01*
G01*
X8390001Y4775000D02*
G75*
G03*
X8390001Y4775000I-65000J0D01*
G01*
X8390001Y3000000D02*
G75*
G03*
X8390001Y3000000I-65000J0D01*
G01*
X8390001Y1225000D02*
G75*
G03*
X8390001Y1225000I-65000J0D01*
G01*
X8390001Y-550000D02*
G75*
G03*
X8390001Y-550000I-65000J0D01*
G01*
X9489999Y4773766D02*
G75*
G03*
X9489999Y4773766I-65000J0D01*
G01*
X9489999Y2998766D02*
G75*
G03*
X9489999Y2998766I-65000J0D01*
G01*
X9489999Y1223766D02*
G75*
G03*
X9489999Y1223766I-65000J0D01*
G01*
X9489999Y-551234D02*
G75*
G03*
X9489999Y-551234I-65000J0D01*
G01*
X9490001Y5875000D02*
G75*
G03*
X9490001Y5875000I-65000J0D01*
G01*
X9490001Y4100000D02*
G75*
G03*
X9490001Y4100000I-65000J0D01*
G01*
X9490001Y2325000D02*
G75*
G03*
X9490001Y2325000I-65000J0D01*
G01*
X9490001Y550000D02*
G75*
G03*
X9490001Y550000I-65000J0D01*
G01*
D10*
X-2601889Y2328027D02*
X-2601889Y2178027D01*
X-2676889Y2253027D02*
X-2526889Y2253027D01*
X-1901889Y2328027D02*
X-1901889Y2178027D01*
X-1976889Y2253027D02*
X-1826889Y2253027D01*
D11*
X-84289Y5164272D02*
X-84289Y5305695D01*
X-225711Y5305695D01*
X-225711Y5164272D01*
X-84289Y5164272D01*
X-255000Y5339984D02*
X-255000Y5129984D01*
X-55000Y5339984D02*
X-55000Y5129984D01*
X-255000Y5129984D02*
G75*
G03*
X-55000Y5129984I100000J0D01*
G01*
X-55000Y5339984D02*
G75*
G03*
X-255000Y5339984I-100000J0D01*
G01*
X-84289Y5163039D02*
X-84289Y5304461D01*
X-225711Y5304461D01*
X-225711Y5163039D01*
X-84289Y5163039D01*
X-255000Y5338750D02*
X-255000Y5128750D01*
X-55000Y5338750D02*
X-55000Y5128750D01*
X-255000Y5128750D02*
G75*
G03*
X-55000Y5128750I100000J0D01*
G01*
X-55000Y5338750D02*
G75*
G03*
X-255000Y5338750I-100000J0D01*
G01*
X-84289Y3389272D02*
X-84289Y3530695D01*
X-225711Y3530695D01*
X-225711Y3389272D01*
X-84289Y3389272D01*
X-255000Y3564984D02*
X-255000Y3354984D01*
X-55000Y3564984D02*
X-55000Y3354984D01*
X-255000Y3354984D02*
G75*
G03*
X-55000Y3354984I100000J0D01*
G01*
X-55000Y3564984D02*
G75*
G03*
X-255000Y3564984I-100000J0D01*
G01*
X-84289Y3388039D02*
X-84289Y3529461D01*
X-225711Y3529461D01*
X-225711Y3388039D01*
X-84289Y3388039D01*
X-255000Y3563750D02*
X-255000Y3353750D01*
X-55000Y3563750D02*
X-55000Y3353750D01*
X-255000Y3353750D02*
G75*
G03*
X-55000Y3353750I100000J0D01*
G01*
X-55000Y3563750D02*
G75*
G03*
X-255000Y3563750I-100000J0D01*
G01*
X-84289Y1614272D02*
X-84289Y1755695D01*
X-225711Y1755695D01*
X-225711Y1614272D01*
X-84289Y1614272D01*
X-255000Y1789984D02*
X-255000Y1579984D01*
X-55000Y1789984D02*
X-55000Y1579984D01*
X-255000Y1579984D02*
G75*
G03*
X-55000Y1579984I100000J0D01*
G01*
X-55000Y1789984D02*
G75*
G03*
X-255000Y1789984I-100000J0D01*
G01*
X-84289Y1613039D02*
X-84289Y1754461D01*
X-225711Y1754461D01*
X-225711Y1613039D01*
X-84289Y1613039D01*
X-255000Y1788750D02*
X-255000Y1578750D01*
X-55000Y1788750D02*
X-55000Y1578750D01*
X-255000Y1578750D02*
G75*
G03*
X-55000Y1578750I100000J0D01*
G01*
X-55000Y1788750D02*
G75*
G03*
X-255000Y1788750I-100000J0D01*
G01*
X-84289Y-160728D02*
X-84289Y-19305D01*
X-225711Y-19305D01*
X-225711Y-160728D01*
X-84289Y-160728D01*
X-255000Y14984D02*
X-255000Y-195016D01*
X-55000Y14984D02*
X-55000Y-195016D01*
X-255000Y-195016D02*
G75*
G03*
X-55000Y-195016I100000J0D01*
G01*
X-55000Y14984D02*
G75*
G03*
X-255000Y14984I-100000J0D01*
G01*
X-84289Y-161961D02*
X-84289Y-20539D01*
X-225711Y-20539D01*
X-225711Y-161961D01*
X-84289Y-161961D01*
X-255000Y13750D02*
X-255000Y-196250D01*
X-55000Y13750D02*
X-55000Y-196250D01*
X-255000Y-196250D02*
G75*
G03*
X-55000Y-196250I100000J0D01*
G01*
X-55000Y13750D02*
G75*
G03*
X-255000Y13750I-100000J0D01*
G01*
X225711Y5164272D02*
X225711Y5305695D01*
X84289Y5305695D01*
X84289Y5164272D01*
X225711Y5164272D01*
X55000Y5339984D02*
X55000Y5129984D01*
X255000Y5339984D02*
X255000Y5129984D01*
X55000Y5129984D02*
G75*
G03*
X255000Y5129984I100000J0D01*
G01*
X255000Y5339984D02*
G75*
G03*
X55000Y5339984I-100000J0D01*
G01*
X225711Y5163039D02*
X225711Y5304461D01*
X84289Y5304461D01*
X84289Y5163039D01*
X225711Y5163039D01*
X55000Y5338750D02*
X55000Y5128750D01*
X255000Y5338750D02*
X255000Y5128750D01*
X55000Y5128750D02*
G75*
G03*
X255000Y5128750I100000J0D01*
G01*
X255000Y5338750D02*
G75*
G03*
X55000Y5338750I-100000J0D01*
G01*
X225711Y3389272D02*
X225711Y3530695D01*
X84289Y3530695D01*
X84289Y3389272D01*
X225711Y3389272D01*
X55000Y3564984D02*
X55000Y3354984D01*
X255000Y3564984D02*
X255000Y3354984D01*
X55000Y3354984D02*
G75*
G03*
X255000Y3354984I100000J0D01*
G01*
X255000Y3564984D02*
G75*
G03*
X55000Y3564984I-100000J0D01*
G01*
X225711Y3388039D02*
X225711Y3529461D01*
X84289Y3529461D01*
X84289Y3388039D01*
X225711Y3388039D01*
X55000Y3563750D02*
X55000Y3353750D01*
X255000Y3563750D02*
X255000Y3353750D01*
X55000Y3353750D02*
G75*
G03*
X255000Y3353750I100000J0D01*
G01*
X255000Y3563750D02*
G75*
G03*
X55000Y3563750I-100000J0D01*
G01*
X225711Y1614272D02*
X225711Y1755695D01*
X84289Y1755695D01*
X84289Y1614272D01*
X225711Y1614272D01*
X55000Y1789984D02*
X55000Y1579984D01*
X255000Y1789984D02*
X255000Y1579984D01*
X55000Y1579984D02*
G75*
G03*
X255000Y1579984I100000J0D01*
G01*
X255000Y1789984D02*
G75*
G03*
X55000Y1789984I-100000J0D01*
G01*
X225711Y1613039D02*
X225711Y1754461D01*
X84289Y1754461D01*
X84289Y1613039D01*
X225711Y1613039D01*
X55000Y1788750D02*
X55000Y1578750D01*
X255000Y1788750D02*
X255000Y1578750D01*
X55000Y1578750D02*
G75*
G03*
X255000Y1578750I100000J0D01*
G01*
X255000Y1788750D02*
G75*
G03*
X55000Y1788750I-100000J0D01*
G01*
X225711Y-160728D02*
X225711Y-19305D01*
X84289Y-19305D01*
X84289Y-160728D01*
X225711Y-160728D01*
X55000Y14984D02*
X55000Y-195016D01*
X255000Y14984D02*
X255000Y-195016D01*
X55000Y-195016D02*
G75*
G03*
X255000Y-195016I100000J0D01*
G01*
X255000Y14984D02*
G75*
G03*
X55000Y14984I-100000J0D01*
G01*
X225711Y-161961D02*
X225711Y-20539D01*
X84289Y-20539D01*
X84289Y-161961D01*
X225711Y-161961D01*
X55000Y13750D02*
X55000Y-196250D01*
X255000Y13750D02*
X255000Y-196250D01*
X55000Y-196250D02*
G75*
G03*
X255000Y-196250I100000J0D01*
G01*
X255000Y13750D02*
G75*
G03*
X55000Y13750I-100000J0D01*
G01*
X1690711Y5164272D02*
X1690711Y5305695D01*
X1549289Y5305695D01*
X1549289Y5164272D01*
X1690711Y5164272D01*
X1520000Y5339984D02*
X1520000Y5129984D01*
X1720000Y5339984D02*
X1720000Y5129984D01*
X1520000Y5129984D02*
G75*
G03*
X1720000Y5129984I100000J0D01*
G01*
X1720000Y5339984D02*
G75*
G03*
X1520000Y5339984I-100000J0D01*
G01*
X1690711Y5163039D02*
X1690711Y5304461D01*
X1549289Y5304461D01*
X1549289Y5163039D01*
X1690711Y5163039D01*
X1520000Y5338750D02*
X1520000Y5128750D01*
X1720000Y5338750D02*
X1720000Y5128750D01*
X1520000Y5128750D02*
G75*
G03*
X1720000Y5128750I100000J0D01*
G01*
X1720000Y5338750D02*
G75*
G03*
X1520000Y5338750I-100000J0D01*
G01*
X1690711Y3389272D02*
X1690711Y3530695D01*
X1549289Y3530695D01*
X1549289Y3389272D01*
X1690711Y3389272D01*
X1520000Y3564984D02*
X1520000Y3354984D01*
X1720000Y3564984D02*
X1720000Y3354984D01*
X1520000Y3354984D02*
G75*
G03*
X1720000Y3354984I100000J0D01*
G01*
X1720000Y3564984D02*
G75*
G03*
X1520000Y3564984I-100000J0D01*
G01*
X1690711Y3388039D02*
X1690711Y3529461D01*
X1549289Y3529461D01*
X1549289Y3388039D01*
X1690711Y3388039D01*
X1520000Y3563750D02*
X1520000Y3353750D01*
X1720000Y3563750D02*
X1720000Y3353750D01*
X1520000Y3353750D02*
G75*
G03*
X1720000Y3353750I100000J0D01*
G01*
X1720000Y3563750D02*
G75*
G03*
X1520000Y3563750I-100000J0D01*
G01*
X1690711Y1614272D02*
X1690711Y1755695D01*
X1549289Y1755695D01*
X1549289Y1614272D01*
X1690711Y1614272D01*
X1520000Y1789984D02*
X1520000Y1579984D01*
X1720000Y1789984D02*
X1720000Y1579984D01*
X1520000Y1579984D02*
G75*
G03*
X1720000Y1579984I100000J0D01*
G01*
X1720000Y1789984D02*
G75*
G03*
X1520000Y1789984I-100000J0D01*
G01*
X1690711Y1613039D02*
X1690711Y1754461D01*
X1549289Y1754461D01*
X1549289Y1613039D01*
X1690711Y1613039D01*
X1520000Y1788750D02*
X1520000Y1578750D01*
X1720000Y1788750D02*
X1720000Y1578750D01*
X1520000Y1578750D02*
G75*
G03*
X1720000Y1578750I100000J0D01*
G01*
X1720000Y1788750D02*
G75*
G03*
X1520000Y1788750I-100000J0D01*
G01*
X1690711Y-160728D02*
X1690711Y-19305D01*
X1549289Y-19305D01*
X1549289Y-160728D01*
X1690711Y-160728D01*
X1520000Y14984D02*
X1520000Y-195016D01*
X1720000Y14984D02*
X1720000Y-195016D01*
X1520000Y-195016D02*
G75*
G03*
X1720000Y-195016I100000J0D01*
G01*
X1720000Y14984D02*
G75*
G03*
X1520000Y14984I-100000J0D01*
G01*
X1690711Y-161961D02*
X1690711Y-20539D01*
X1549289Y-20539D01*
X1549289Y-161961D01*
X1690711Y-161961D01*
X1520000Y13750D02*
X1520000Y-196250D01*
X1720000Y13750D02*
X1720000Y-196250D01*
X1520000Y-196250D02*
G75*
G03*
X1720000Y-196250I100000J0D01*
G01*
X1720000Y13750D02*
G75*
G03*
X1520000Y13750I-100000J0D01*
G01*
X2000711Y5164272D02*
X2000711Y5305695D01*
X1859289Y5305695D01*
X1859289Y5164272D01*
X2000711Y5164272D01*
X1830000Y5339984D02*
X1830000Y5129984D01*
X2030000Y5339984D02*
X2030000Y5129984D01*
X1830000Y5129984D02*
G75*
G03*
X2030000Y5129984I100000J0D01*
G01*
X2030000Y5339984D02*
G75*
G03*
X1830000Y5339984I-100000J0D01*
G01*
X2000711Y5163039D02*
X2000711Y5304461D01*
X1859289Y5304461D01*
X1859289Y5163039D01*
X2000711Y5163039D01*
X1830000Y5338750D02*
X1830000Y5128750D01*
X2030000Y5338750D02*
X2030000Y5128750D01*
X1830000Y5128750D02*
G75*
G03*
X2030000Y5128750I100000J0D01*
G01*
X2030000Y5338750D02*
G75*
G03*
X1830000Y5338750I-100000J0D01*
G01*
X2000711Y3389272D02*
X2000711Y3530695D01*
X1859289Y3530695D01*
X1859289Y3389272D01*
X2000711Y3389272D01*
X1830000Y3564984D02*
X1830000Y3354984D01*
X2030000Y3564984D02*
X2030000Y3354984D01*
X1830000Y3354984D02*
G75*
G03*
X2030000Y3354984I100000J0D01*
G01*
X2030000Y3564984D02*
G75*
G03*
X1830000Y3564984I-100000J0D01*
G01*
X2000711Y3388039D02*
X2000711Y3529461D01*
X1859289Y3529461D01*
X1859289Y3388039D01*
X2000711Y3388039D01*
X1830000Y3563750D02*
X1830000Y3353750D01*
X2030000Y3563750D02*
X2030000Y3353750D01*
X1830000Y3353750D02*
G75*
G03*
X2030000Y3353750I100000J0D01*
G01*
X2030000Y3563750D02*
G75*
G03*
X1830000Y3563750I-100000J0D01*
G01*
X2000711Y1614272D02*
X2000711Y1755695D01*
X1859289Y1755695D01*
X1859289Y1614272D01*
X2000711Y1614272D01*
X1830000Y1789984D02*
X1830000Y1579984D01*
X2030000Y1789984D02*
X2030000Y1579984D01*
X1830000Y1579984D02*
G75*
G03*
X2030000Y1579984I100000J0D01*
G01*
X2030000Y1789984D02*
G75*
G03*
X1830000Y1789984I-100000J0D01*
G01*
X2000711Y1613039D02*
X2000711Y1754461D01*
X1859289Y1754461D01*
X1859289Y1613039D01*
X2000711Y1613039D01*
X1830000Y1788750D02*
X1830000Y1578750D01*
X2030000Y1788750D02*
X2030000Y1578750D01*
X1830000Y1578750D02*
G75*
G03*
X2030000Y1578750I100000J0D01*
G01*
X2030000Y1788750D02*
G75*
G03*
X1830000Y1788750I-100000J0D01*
G01*
X2000711Y-160728D02*
X2000711Y-19305D01*
X1859289Y-19305D01*
X1859289Y-160728D01*
X2000711Y-160728D01*
X1830000Y14984D02*
X1830000Y-195016D01*
X2030000Y14984D02*
X2030000Y-195016D01*
X1830000Y-195016D02*
G75*
G03*
X2030000Y-195016I100000J0D01*
G01*
X2030000Y14984D02*
G75*
G03*
X1830000Y14984I-100000J0D01*
G01*
X2000711Y-161961D02*
X2000711Y-20539D01*
X1859289Y-20539D01*
X1859289Y-161961D01*
X2000711Y-161961D01*
X1830000Y13750D02*
X1830000Y-196250D01*
X2030000Y13750D02*
X2030000Y-196250D01*
X1830000Y-196250D02*
G75*
G03*
X2030000Y-196250I100000J0D01*
G01*
X2030000Y13750D02*
G75*
G03*
X1830000Y13750I-100000J0D01*
G01*
X3465711Y5164272D02*
X3465711Y5305695D01*
X3324289Y5305695D01*
X3324289Y5164272D01*
X3465711Y5164272D01*
X3295000Y5339984D02*
X3295000Y5129984D01*
X3495000Y5339984D02*
X3495000Y5129984D01*
X3295000Y5129984D02*
G75*
G03*
X3495000Y5129984I100000J0D01*
G01*
X3495000Y5339984D02*
G75*
G03*
X3295000Y5339984I-100000J0D01*
G01*
X3465711Y5163039D02*
X3465711Y5304461D01*
X3324289Y5304461D01*
X3324289Y5163039D01*
X3465711Y5163039D01*
X3295000Y5338750D02*
X3295000Y5128750D01*
X3495000Y5338750D02*
X3495000Y5128750D01*
X3295000Y5128750D02*
G75*
G03*
X3495000Y5128750I100000J0D01*
G01*
X3495000Y5338750D02*
G75*
G03*
X3295000Y5338750I-100000J0D01*
G01*
X3465711Y3389272D02*
X3465711Y3530695D01*
X3324289Y3530695D01*
X3324289Y3389272D01*
X3465711Y3389272D01*
X3295000Y3564984D02*
X3295000Y3354984D01*
X3495000Y3564984D02*
X3495000Y3354984D01*
X3295000Y3354984D02*
G75*
G03*
X3495000Y3354984I100000J0D01*
G01*
X3495000Y3564984D02*
G75*
G03*
X3295000Y3564984I-100000J0D01*
G01*
X3465711Y3388039D02*
X3465711Y3529461D01*
X3324289Y3529461D01*
X3324289Y3388039D01*
X3465711Y3388039D01*
X3295000Y3563750D02*
X3295000Y3353750D01*
X3495000Y3563750D02*
X3495000Y3353750D01*
X3295000Y3353750D02*
G75*
G03*
X3495000Y3353750I100000J0D01*
G01*
X3495000Y3563750D02*
G75*
G03*
X3295000Y3563750I-100000J0D01*
G01*
X3465711Y1614272D02*
X3465711Y1755695D01*
X3324289Y1755695D01*
X3324289Y1614272D01*
X3465711Y1614272D01*
X3295000Y1789984D02*
X3295000Y1579984D01*
X3495000Y1789984D02*
X3495000Y1579984D01*
X3295000Y1579984D02*
G75*
G03*
X3495000Y1579984I100000J0D01*
G01*
X3495000Y1789984D02*
G75*
G03*
X3295000Y1789984I-100000J0D01*
G01*
X3465711Y1613039D02*
X3465711Y1754461D01*
X3324289Y1754461D01*
X3324289Y1613039D01*
X3465711Y1613039D01*
X3295000Y1788750D02*
X3295000Y1578750D01*
X3495000Y1788750D02*
X3495000Y1578750D01*
X3295000Y1578750D02*
G75*
G03*
X3495000Y1578750I100000J0D01*
G01*
X3495000Y1788750D02*
G75*
G03*
X3295000Y1788750I-100000J0D01*
G01*
X3465711Y-160728D02*
X3465711Y-19305D01*
X3324289Y-19305D01*
X3324289Y-160728D01*
X3465711Y-160728D01*
X3295000Y14984D02*
X3295000Y-195016D01*
X3495000Y14984D02*
X3495000Y-195016D01*
X3295000Y-195016D02*
G75*
G03*
X3495000Y-195016I100000J0D01*
G01*
X3495000Y14984D02*
G75*
G03*
X3295000Y14984I-100000J0D01*
G01*
X3465711Y-161961D02*
X3465711Y-20539D01*
X3324289Y-20539D01*
X3324289Y-161961D01*
X3465711Y-161961D01*
X3295000Y13750D02*
X3295000Y-196250D01*
X3495000Y13750D02*
X3495000Y-196250D01*
X3295000Y-196250D02*
G75*
G03*
X3495000Y-196250I100000J0D01*
G01*
X3495000Y13750D02*
G75*
G03*
X3295000Y13750I-100000J0D01*
G01*
X3775711Y5164272D02*
X3775711Y5305695D01*
X3634289Y5305695D01*
X3634289Y5164272D01*
X3775711Y5164272D01*
X3605000Y5339984D02*
X3605000Y5129984D01*
X3805000Y5339984D02*
X3805000Y5129984D01*
X3605000Y5129984D02*
G75*
G03*
X3805000Y5129984I100000J0D01*
G01*
X3805000Y5339984D02*
G75*
G03*
X3605000Y5339984I-100000J0D01*
G01*
X3775711Y5163039D02*
X3775711Y5304461D01*
X3634289Y5304461D01*
X3634289Y5163039D01*
X3775711Y5163039D01*
X3605000Y5338750D02*
X3605000Y5128750D01*
X3805000Y5338750D02*
X3805000Y5128750D01*
X3605000Y5128750D02*
G75*
G03*
X3805000Y5128750I100000J0D01*
G01*
X3805000Y5338750D02*
G75*
G03*
X3605000Y5338750I-100000J0D01*
G01*
X3775711Y3389272D02*
X3775711Y3530695D01*
X3634289Y3530695D01*
X3634289Y3389272D01*
X3775711Y3389272D01*
X3605000Y3564984D02*
X3605000Y3354984D01*
X3805000Y3564984D02*
X3805000Y3354984D01*
X3605000Y3354984D02*
G75*
G03*
X3805000Y3354984I100000J0D01*
G01*
X3805000Y3564984D02*
G75*
G03*
X3605000Y3564984I-100000J0D01*
G01*
X3775711Y3388039D02*
X3775711Y3529461D01*
X3634289Y3529461D01*
X3634289Y3388039D01*
X3775711Y3388039D01*
X3605000Y3563750D02*
X3605000Y3353750D01*
X3805000Y3563750D02*
X3805000Y3353750D01*
X3605000Y3353750D02*
G75*
G03*
X3805000Y3353750I100000J0D01*
G01*
X3805000Y3563750D02*
G75*
G03*
X3605000Y3563750I-100000J0D01*
G01*
X3775711Y1614272D02*
X3775711Y1755695D01*
X3634289Y1755695D01*
X3634289Y1614272D01*
X3775711Y1614272D01*
X3605000Y1789984D02*
X3605000Y1579984D01*
X3805000Y1789984D02*
X3805000Y1579984D01*
X3605000Y1579984D02*
G75*
G03*
X3805000Y1579984I100000J0D01*
G01*
X3805000Y1789984D02*
G75*
G03*
X3605000Y1789984I-100000J0D01*
G01*
X3775711Y1613039D02*
X3775711Y1754461D01*
X3634289Y1754461D01*
X3634289Y1613039D01*
X3775711Y1613039D01*
X3605000Y1788750D02*
X3605000Y1578750D01*
X3805000Y1788750D02*
X3805000Y1578750D01*
X3605000Y1578750D02*
G75*
G03*
X3805000Y1578750I100000J0D01*
G01*
X3805000Y1788750D02*
G75*
G03*
X3605000Y1788750I-100000J0D01*
G01*
X3775711Y-160728D02*
X3775711Y-19305D01*
X3634289Y-19305D01*
X3634289Y-160728D01*
X3775711Y-160728D01*
X3605000Y14984D02*
X3605000Y-195016D01*
X3805000Y14984D02*
X3805000Y-195016D01*
X3605000Y-195016D02*
G75*
G03*
X3805000Y-195016I100000J0D01*
G01*
X3805000Y14984D02*
G75*
G03*
X3605000Y14984I-100000J0D01*
G01*
X3775711Y-161961D02*
X3775711Y-20539D01*
X3634289Y-20539D01*
X3634289Y-161961D01*
X3775711Y-161961D01*
X3605000Y13750D02*
X3605000Y-196250D01*
X3805000Y13750D02*
X3805000Y-196250D01*
X3605000Y-196250D02*
G75*
G03*
X3805000Y-196250I100000J0D01*
G01*
X3805000Y13750D02*
G75*
G03*
X3605000Y13750I-100000J0D01*
G01*
X5240711Y5164272D02*
X5240711Y5305695D01*
X5099289Y5305695D01*
X5099289Y5164272D01*
X5240711Y5164272D01*
X5070000Y5339984D02*
X5070000Y5129984D01*
X5270000Y5339984D02*
X5270000Y5129984D01*
X5070000Y5129984D02*
G75*
G03*
X5270000Y5129984I100000J0D01*
G01*
X5270000Y5339984D02*
G75*
G03*
X5070000Y5339984I-100000J0D01*
G01*
X5240711Y5163039D02*
X5240711Y5304461D01*
X5099289Y5304461D01*
X5099289Y5163039D01*
X5240711Y5163039D01*
X5070000Y5338750D02*
X5070000Y5128750D01*
X5270000Y5338750D02*
X5270000Y5128750D01*
X5070000Y5128750D02*
G75*
G03*
X5270000Y5128750I100000J0D01*
G01*
X5270000Y5338750D02*
G75*
G03*
X5070000Y5338750I-100000J0D01*
G01*
X5240711Y3389272D02*
X5240711Y3530695D01*
X5099289Y3530695D01*
X5099289Y3389272D01*
X5240711Y3389272D01*
X5070000Y3564984D02*
X5070000Y3354984D01*
X5270000Y3564984D02*
X5270000Y3354984D01*
X5070000Y3354984D02*
G75*
G03*
X5270000Y3354984I100000J0D01*
G01*
X5270000Y3564984D02*
G75*
G03*
X5070000Y3564984I-100000J0D01*
G01*
X5240711Y3388039D02*
X5240711Y3529461D01*
X5099289Y3529461D01*
X5099289Y3388039D01*
X5240711Y3388039D01*
X5070000Y3563750D02*
X5070000Y3353750D01*
X5270000Y3563750D02*
X5270000Y3353750D01*
X5070000Y3353750D02*
G75*
G03*
X5270000Y3353750I100000J0D01*
G01*
X5270000Y3563750D02*
G75*
G03*
X5070000Y3563750I-100000J0D01*
G01*
X5240711Y1614272D02*
X5240711Y1755695D01*
X5099289Y1755695D01*
X5099289Y1614272D01*
X5240711Y1614272D01*
X5070000Y1789984D02*
X5070000Y1579984D01*
X5270000Y1789984D02*
X5270000Y1579984D01*
X5070000Y1579984D02*
G75*
G03*
X5270000Y1579984I100000J0D01*
G01*
X5270000Y1789984D02*
G75*
G03*
X5070000Y1789984I-100000J0D01*
G01*
X5240711Y1613039D02*
X5240711Y1754461D01*
X5099289Y1754461D01*
X5099289Y1613039D01*
X5240711Y1613039D01*
X5070000Y1788750D02*
X5070000Y1578750D01*
X5270000Y1788750D02*
X5270000Y1578750D01*
X5070000Y1578750D02*
G75*
G03*
X5270000Y1578750I100000J0D01*
G01*
X5270000Y1788750D02*
G75*
G03*
X5070000Y1788750I-100000J0D01*
G01*
X5240711Y-160728D02*
X5240711Y-19305D01*
X5099289Y-19305D01*
X5099289Y-160728D01*
X5240711Y-160728D01*
X5070000Y14984D02*
X5070000Y-195016D01*
X5270000Y14984D02*
X5270000Y-195016D01*
X5070000Y-195016D02*
G75*
G03*
X5270000Y-195016I100000J0D01*
G01*
X5270000Y14984D02*
G75*
G03*
X5070000Y14984I-100000J0D01*
G01*
X5240711Y-161961D02*
X5240711Y-20539D01*
X5099289Y-20539D01*
X5099289Y-161961D01*
X5240711Y-161961D01*
X5070000Y13750D02*
X5070000Y-196250D01*
X5270000Y13750D02*
X5270000Y-196250D01*
X5070000Y-196250D02*
G75*
G03*
X5270000Y-196250I100000J0D01*
G01*
X5270000Y13750D02*
G75*
G03*
X5070000Y13750I-100000J0D01*
G01*
X5550711Y5164272D02*
X5550711Y5305695D01*
X5409289Y5305695D01*
X5409289Y5164272D01*
X5550711Y5164272D01*
X5380000Y5339984D02*
X5380000Y5129984D01*
X5580000Y5339984D02*
X5580000Y5129984D01*
X5380000Y5129984D02*
G75*
G03*
X5580000Y5129984I100000J0D01*
G01*
X5580000Y5339984D02*
G75*
G03*
X5380000Y5339984I-100000J0D01*
G01*
X5550711Y5163039D02*
X5550711Y5304461D01*
X5409289Y5304461D01*
X5409289Y5163039D01*
X5550711Y5163039D01*
X5380000Y5338750D02*
X5380000Y5128750D01*
X5580000Y5338750D02*
X5580000Y5128750D01*
X5380000Y5128750D02*
G75*
G03*
X5580000Y5128750I100000J0D01*
G01*
X5580000Y5338750D02*
G75*
G03*
X5380000Y5338750I-100000J0D01*
G01*
X5550711Y3389272D02*
X5550711Y3530695D01*
X5409289Y3530695D01*
X5409289Y3389272D01*
X5550711Y3389272D01*
X5380000Y3564984D02*
X5380000Y3354984D01*
X5580000Y3564984D02*
X5580000Y3354984D01*
X5380000Y3354984D02*
G75*
G03*
X5580000Y3354984I100000J0D01*
G01*
X5580000Y3564984D02*
G75*
G03*
X5380000Y3564984I-100000J0D01*
G01*
X5550711Y3388039D02*
X5550711Y3529461D01*
X5409289Y3529461D01*
X5409289Y3388039D01*
X5550711Y3388039D01*
X5380000Y3563750D02*
X5380000Y3353750D01*
X5580000Y3563750D02*
X5580000Y3353750D01*
X5380000Y3353750D02*
G75*
G03*
X5580000Y3353750I100000J0D01*
G01*
X5580000Y3563750D02*
G75*
G03*
X5380000Y3563750I-100000J0D01*
G01*
X5550711Y1614272D02*
X5550711Y1755695D01*
X5409289Y1755695D01*
X5409289Y1614272D01*
X5550711Y1614272D01*
X5380000Y1789984D02*
X5380000Y1579984D01*
X5580000Y1789984D02*
X5580000Y1579984D01*
X5380000Y1579984D02*
G75*
G03*
X5580000Y1579984I100000J0D01*
G01*
X5580000Y1789984D02*
G75*
G03*
X5380000Y1789984I-100000J0D01*
G01*
X5550711Y1613039D02*
X5550711Y1754461D01*
X5409289Y1754461D01*
X5409289Y1613039D01*
X5550711Y1613039D01*
X5380000Y1788750D02*
X5380000Y1578750D01*
X5580000Y1788750D02*
X5580000Y1578750D01*
X5380000Y1578750D02*
G75*
G03*
X5580000Y1578750I100000J0D01*
G01*
X5580000Y1788750D02*
G75*
G03*
X5380000Y1788750I-100000J0D01*
G01*
X5550711Y-160728D02*
X5550711Y-19305D01*
X5409289Y-19305D01*
X5409289Y-160728D01*
X5550711Y-160728D01*
X5380000Y14984D02*
X5380000Y-195016D01*
X5580000Y14984D02*
X5580000Y-195016D01*
X5380000Y-195016D02*
G75*
G03*
X5580000Y-195016I100000J0D01*
G01*
X5580000Y14984D02*
G75*
G03*
X5380000Y14984I-100000J0D01*
G01*
X5550711Y-161961D02*
X5550711Y-20539D01*
X5409289Y-20539D01*
X5409289Y-161961D01*
X5550711Y-161961D01*
X5380000Y13750D02*
X5380000Y-196250D01*
X5580000Y13750D02*
X5580000Y-196250D01*
X5380000Y-196250D02*
G75*
G03*
X5580000Y-196250I100000J0D01*
G01*
X5580000Y13750D02*
G75*
G03*
X5380000Y13750I-100000J0D01*
G01*
X7015711Y5164272D02*
X7015711Y5305695D01*
X6874289Y5305695D01*
X6874289Y5164272D01*
X7015711Y5164272D01*
X6845000Y5339984D02*
X6845000Y5129984D01*
X7045000Y5339984D02*
X7045000Y5129984D01*
X6845000Y5129984D02*
G75*
G03*
X7045000Y5129984I100000J0D01*
G01*
X7045000Y5339984D02*
G75*
G03*
X6845000Y5339984I-100000J0D01*
G01*
X7015711Y5163039D02*
X7015711Y5304461D01*
X6874289Y5304461D01*
X6874289Y5163039D01*
X7015711Y5163039D01*
X6845000Y5338750D02*
X6845000Y5128750D01*
X7045000Y5338750D02*
X7045000Y5128750D01*
X6845000Y5128750D02*
G75*
G03*
X7045000Y5128750I100000J0D01*
G01*
X7045000Y5338750D02*
G75*
G03*
X6845000Y5338750I-100000J0D01*
G01*
X7015711Y3389272D02*
X7015711Y3530695D01*
X6874289Y3530695D01*
X6874289Y3389272D01*
X7015711Y3389272D01*
X6845000Y3564984D02*
X6845000Y3354984D01*
X7045000Y3564984D02*
X7045000Y3354984D01*
X6845000Y3354984D02*
G75*
G03*
X7045000Y3354984I100000J0D01*
G01*
X7045000Y3564984D02*
G75*
G03*
X6845000Y3564984I-100000J0D01*
G01*
X7015711Y3388039D02*
X7015711Y3529461D01*
X6874289Y3529461D01*
X6874289Y3388039D01*
X7015711Y3388039D01*
X6845000Y3563750D02*
X6845000Y3353750D01*
X7045000Y3563750D02*
X7045000Y3353750D01*
X6845000Y3353750D02*
G75*
G03*
X7045000Y3353750I100000J0D01*
G01*
X7045000Y3563750D02*
G75*
G03*
X6845000Y3563750I-100000J0D01*
G01*
X7015711Y1614272D02*
X7015711Y1755695D01*
X6874289Y1755695D01*
X6874289Y1614272D01*
X7015711Y1614272D01*
X6845000Y1789984D02*
X6845000Y1579984D01*
X7045000Y1789984D02*
X7045000Y1579984D01*
X6845000Y1579984D02*
G75*
G03*
X7045000Y1579984I100000J0D01*
G01*
X7045000Y1789984D02*
G75*
G03*
X6845000Y1789984I-100000J0D01*
G01*
X7015711Y1613039D02*
X7015711Y1754461D01*
X6874289Y1754461D01*
X6874289Y1613039D01*
X7015711Y1613039D01*
X6845000Y1788750D02*
X6845000Y1578750D01*
X7045000Y1788750D02*
X7045000Y1578750D01*
X6845000Y1578750D02*
G75*
G03*
X7045000Y1578750I100000J0D01*
G01*
X7045000Y1788750D02*
G75*
G03*
X6845000Y1788750I-100000J0D01*
G01*
X7015711Y-160728D02*
X7015711Y-19305D01*
X6874289Y-19305D01*
X6874289Y-160728D01*
X7015711Y-160728D01*
X6845000Y14984D02*
X6845000Y-195016D01*
X7045000Y14984D02*
X7045000Y-195016D01*
X6845000Y-195016D02*
G75*
G03*
X7045000Y-195016I100000J0D01*
G01*
X7045000Y14984D02*
G75*
G03*
X6845000Y14984I-100000J0D01*
G01*
X7015711Y-161961D02*
X7015711Y-20539D01*
X6874289Y-20539D01*
X6874289Y-161961D01*
X7015711Y-161961D01*
X6845000Y13750D02*
X6845000Y-196250D01*
X7045000Y13750D02*
X7045000Y-196250D01*
X6845000Y-196250D02*
G75*
G03*
X7045000Y-196250I100000J0D01*
G01*
X7045000Y13750D02*
G75*
G03*
X6845000Y13750I-100000J0D01*
G01*
X7325711Y5164272D02*
X7325711Y5305695D01*
X7184289Y5305695D01*
X7184289Y5164272D01*
X7325711Y5164272D01*
X7155000Y5339984D02*
X7155000Y5129984D01*
X7355000Y5339984D02*
X7355000Y5129984D01*
X7155000Y5129984D02*
G75*
G03*
X7355000Y5129984I100000J0D01*
G01*
X7355000Y5339984D02*
G75*
G03*
X7155000Y5339984I-100000J0D01*
G01*
X7325711Y5163039D02*
X7325711Y5304461D01*
X7184289Y5304461D01*
X7184289Y5163039D01*
X7325711Y5163039D01*
X7155000Y5338750D02*
X7155000Y5128750D01*
X7355000Y5338750D02*
X7355000Y5128750D01*
X7155000Y5128750D02*
G75*
G03*
X7355000Y5128750I100000J0D01*
G01*
X7355000Y5338750D02*
G75*
G03*
X7155000Y5338750I-100000J0D01*
G01*
X7325711Y3389272D02*
X7325711Y3530695D01*
X7184289Y3530695D01*
X7184289Y3389272D01*
X7325711Y3389272D01*
X7155000Y3564984D02*
X7155000Y3354984D01*
X7355000Y3564984D02*
X7355000Y3354984D01*
X7155000Y3354984D02*
G75*
G03*
X7355000Y3354984I100000J0D01*
G01*
X7355000Y3564984D02*
G75*
G03*
X7155000Y3564984I-100000J0D01*
G01*
X7325711Y3388039D02*
X7325711Y3529461D01*
X7184289Y3529461D01*
X7184289Y3388039D01*
X7325711Y3388039D01*
X7155000Y3563750D02*
X7155000Y3353750D01*
X7355000Y3563750D02*
X7355000Y3353750D01*
X7155000Y3353750D02*
G75*
G03*
X7355000Y3353750I100000J0D01*
G01*
X7355000Y3563750D02*
G75*
G03*
X7155000Y3563750I-100000J0D01*
G01*
X7325711Y1614272D02*
X7325711Y1755695D01*
X7184289Y1755695D01*
X7184289Y1614272D01*
X7325711Y1614272D01*
X7155000Y1789984D02*
X7155000Y1579984D01*
X7355000Y1789984D02*
X7355000Y1579984D01*
X7155000Y1579984D02*
G75*
G03*
X7355000Y1579984I100000J0D01*
G01*
X7355000Y1789984D02*
G75*
G03*
X7155000Y1789984I-100000J0D01*
G01*
X7325711Y1613039D02*
X7325711Y1754461D01*
X7184289Y1754461D01*
X7184289Y1613039D01*
X7325711Y1613039D01*
X7155000Y1788750D02*
X7155000Y1578750D01*
X7355000Y1788750D02*
X7355000Y1578750D01*
X7155000Y1578750D02*
G75*
G03*
X7355000Y1578750I100000J0D01*
G01*
X7355000Y1788750D02*
G75*
G03*
X7155000Y1788750I-100000J0D01*
G01*
X7325711Y-160728D02*
X7325711Y-19305D01*
X7184289Y-19305D01*
X7184289Y-160728D01*
X7325711Y-160728D01*
X7155000Y14984D02*
X7155000Y-195016D01*
X7355000Y14984D02*
X7355000Y-195016D01*
X7155000Y-195016D02*
G75*
G03*
X7355000Y-195016I100000J0D01*
G01*
X7355000Y14984D02*
G75*
G03*
X7155000Y14984I-100000J0D01*
G01*
X7325711Y-161961D02*
X7325711Y-20539D01*
X7184289Y-20539D01*
X7184289Y-161961D01*
X7325711Y-161961D01*
X7155000Y13750D02*
X7155000Y-196250D01*
X7355000Y13750D02*
X7355000Y-196250D01*
X7155000Y-196250D02*
G75*
G03*
X7355000Y-196250I100000J0D01*
G01*
X7355000Y13750D02*
G75*
G03*
X7155000Y13750I-100000J0D01*
G01*
X8790711Y5164272D02*
X8790711Y5305695D01*
X8649289Y5305695D01*
X8649289Y5164272D01*
X8790711Y5164272D01*
X8620000Y5339984D02*
X8620000Y5129984D01*
X8820000Y5339984D02*
X8820000Y5129984D01*
X8620000Y5129984D02*
G75*
G03*
X8820000Y5129984I100000J0D01*
G01*
X8820000Y5339984D02*
G75*
G03*
X8620000Y5339984I-100000J0D01*
G01*
X8790711Y5163039D02*
X8790711Y5304461D01*
X8649289Y5304461D01*
X8649289Y5163039D01*
X8790711Y5163039D01*
X8620000Y5338750D02*
X8620000Y5128750D01*
X8820000Y5338750D02*
X8820000Y5128750D01*
X8620000Y5128750D02*
G75*
G03*
X8820000Y5128750I100000J0D01*
G01*
X8820000Y5338750D02*
G75*
G03*
X8620000Y5338750I-100000J0D01*
G01*
X8790711Y3389272D02*
X8790711Y3530695D01*
X8649289Y3530695D01*
X8649289Y3389272D01*
X8790711Y3389272D01*
X8620000Y3564984D02*
X8620000Y3354984D01*
X8820000Y3564984D02*
X8820000Y3354984D01*
X8620000Y3354984D02*
G75*
G03*
X8820000Y3354984I100000J0D01*
G01*
X8820000Y3564984D02*
G75*
G03*
X8620000Y3564984I-100000J0D01*
G01*
X8790711Y3388039D02*
X8790711Y3529461D01*
X8649289Y3529461D01*
X8649289Y3388039D01*
X8790711Y3388039D01*
X8620000Y3563750D02*
X8620000Y3353750D01*
X8820000Y3563750D02*
X8820000Y3353750D01*
X8620000Y3353750D02*
G75*
G03*
X8820000Y3353750I100000J0D01*
G01*
X8820000Y3563750D02*
G75*
G03*
X8620000Y3563750I-100000J0D01*
G01*
X8790711Y1614272D02*
X8790711Y1755695D01*
X8649289Y1755695D01*
X8649289Y1614272D01*
X8790711Y1614272D01*
X8620000Y1789984D02*
X8620000Y1579984D01*
X8820000Y1789984D02*
X8820000Y1579984D01*
X8620000Y1579984D02*
G75*
G03*
X8820000Y1579984I100000J0D01*
G01*
X8820000Y1789984D02*
G75*
G03*
X8620000Y1789984I-100000J0D01*
G01*
X8790711Y1613039D02*
X8790711Y1754461D01*
X8649289Y1754461D01*
X8649289Y1613039D01*
X8790711Y1613039D01*
X8620000Y1788750D02*
X8620000Y1578750D01*
X8820000Y1788750D02*
X8820000Y1578750D01*
X8620000Y1578750D02*
G75*
G03*
X8820000Y1578750I100000J0D01*
G01*
X8820000Y1788750D02*
G75*
G03*
X8620000Y1788750I-100000J0D01*
G01*
X8790711Y-160728D02*
X8790711Y-19305D01*
X8649289Y-19305D01*
X8649289Y-160728D01*
X8790711Y-160728D01*
X8620000Y14984D02*
X8620000Y-195016D01*
X8820000Y14984D02*
X8820000Y-195016D01*
X8620000Y-195016D02*
G75*
G03*
X8820000Y-195016I100000J0D01*
G01*
X8820000Y14984D02*
G75*
G03*
X8620000Y14984I-100000J0D01*
G01*
X8790711Y-161961D02*
X8790711Y-20539D01*
X8649289Y-20539D01*
X8649289Y-161961D01*
X8790711Y-161961D01*
X8620000Y13750D02*
X8620000Y-196250D01*
X8820000Y13750D02*
X8820000Y-196250D01*
X8620000Y-196250D02*
G75*
G03*
X8820000Y-196250I100000J0D01*
G01*
X8820000Y13750D02*
G75*
G03*
X8620000Y13750I-100000J0D01*
G01*
X9100711Y5164272D02*
X9100711Y5305695D01*
X8959289Y5305695D01*
X8959289Y5164272D01*
X9100711Y5164272D01*
X8930000Y5339984D02*
X8930000Y5129984D01*
X9130000Y5339984D02*
X9130000Y5129984D01*
X8930000Y5129984D02*
G75*
G03*
X9130000Y5129984I100000J0D01*
G01*
X9130000Y5339984D02*
G75*
G03*
X8930000Y5339984I-100000J0D01*
G01*
X9100711Y5163039D02*
X9100711Y5304461D01*
X8959289Y5304461D01*
X8959289Y5163039D01*
X9100711Y5163039D01*
X8930000Y5338750D02*
X8930000Y5128750D01*
X9130000Y5338750D02*
X9130000Y5128750D01*
X8930000Y5128750D02*
G75*
G03*
X9130000Y5128750I100000J0D01*
G01*
X9130000Y5338750D02*
G75*
G03*
X8930000Y5338750I-100000J0D01*
G01*
X9100711Y3389272D02*
X9100711Y3530695D01*
X8959289Y3530695D01*
X8959289Y3389272D01*
X9100711Y3389272D01*
X8930000Y3564984D02*
X8930000Y3354984D01*
X9130000Y3564984D02*
X9130000Y3354984D01*
X8930000Y3354984D02*
G75*
G03*
X9130000Y3354984I100000J0D01*
G01*
X9130000Y3564984D02*
G75*
G03*
X8930000Y3564984I-100000J0D01*
G01*
X9100711Y3388039D02*
X9100711Y3529461D01*
X8959289Y3529461D01*
X8959289Y3388039D01*
X9100711Y3388039D01*
X8930000Y3563750D02*
X8930000Y3353750D01*
X9130000Y3563750D02*
X9130000Y3353750D01*
X8930000Y3353750D02*
G75*
G03*
X9130000Y3353750I100000J0D01*
G01*
X9130000Y3563750D02*
G75*
G03*
X8930000Y3563750I-100000J0D01*
G01*
X9100711Y1614272D02*
X9100711Y1755695D01*
X8959289Y1755695D01*
X8959289Y1614272D01*
X9100711Y1614272D01*
X8930000Y1789984D02*
X8930000Y1579984D01*
X9130000Y1789984D02*
X9130000Y1579984D01*
X8930000Y1579984D02*
G75*
G03*
X9130000Y1579984I100000J0D01*
G01*
X9130000Y1789984D02*
G75*
G03*
X8930000Y1789984I-100000J0D01*
G01*
X9100711Y1613039D02*
X9100711Y1754461D01*
X8959289Y1754461D01*
X8959289Y1613039D01*
X9100711Y1613039D01*
X8930000Y1788750D02*
X8930000Y1578750D01*
X9130000Y1788750D02*
X9130000Y1578750D01*
X8930000Y1578750D02*
G75*
G03*
X9130000Y1578750I100000J0D01*
G01*
X9130000Y1788750D02*
G75*
G03*
X8930000Y1788750I-100000J0D01*
G01*
X9100711Y-160728D02*
X9100711Y-19305D01*
X8959289Y-19305D01*
X8959289Y-160728D01*
X9100711Y-160728D01*
X8930000Y14984D02*
X8930000Y-195016D01*
X9130000Y14984D02*
X9130000Y-195016D01*
X8930000Y-195016D02*
G75*
G03*
X9130000Y-195016I100000J0D01*
G01*
X9130000Y14984D02*
G75*
G03*
X8930000Y14984I-100000J0D01*
G01*
X9100711Y-161961D02*
X9100711Y-20539D01*
X8959289Y-20539D01*
X8959289Y-161961D01*
X9100711Y-161961D01*
X8930000Y13750D02*
X8930000Y-196250D01*
X9130000Y13750D02*
X9130000Y-196250D01*
X8930000Y-196250D02*
G75*
G03*
X9130000Y-196250I100000J0D01*
G01*
X9130000Y13750D02*
G75*
G03*
X8930000Y13750I-100000J0D01*
G01*
D14*
X0Y5029984D02*
X205000Y5234984D01*
X0Y5439984D01*
X-205000Y5234984D01*
X0Y5029984D01*
D11*
X-50000Y5029984D02*
X50000Y5029984D01*
X-50000Y5439984D02*
X50000Y5439984D01*
X50000Y5029984D02*
G75*
G03*
X50000Y5439984I0J205000D01*
G01*
X-50000Y5439984D02*
G75*
G03*
X-50000Y5029984I0J-205000D01*
G01*
D14*
X0Y5028750D02*
X205000Y5233750D01*
X0Y5438750D01*
X-205000Y5233750D01*
X0Y5028750D01*
D11*
X-50000Y5028750D02*
X50000Y5028750D01*
X-50000Y5438750D02*
X50000Y5438750D01*
X50000Y5028750D02*
G75*
G03*
X50000Y5438750I0J205000D01*
G01*
X-50000Y5438750D02*
G75*
G03*
X-50000Y5028750I0J-205000D01*
G01*
D14*
X0Y3254984D02*
X205000Y3459984D01*
X0Y3664984D01*
X-205000Y3459984D01*
X0Y3254984D01*
D11*
X-50000Y3254984D02*
X50000Y3254984D01*
X-50000Y3664984D02*
X50000Y3664984D01*
X50000Y3254984D02*
G75*
G03*
X50000Y3664984I0J205000D01*
G01*
X-50000Y3664984D02*
G75*
G03*
X-50000Y3254984I0J-205000D01*
G01*
D14*
X0Y3253750D02*
X205000Y3458750D01*
X0Y3663750D01*
X-205000Y3458750D01*
X0Y3253750D01*
D11*
X-50000Y3253750D02*
X50000Y3253750D01*
X-50000Y3663750D02*
X50000Y3663750D01*
X50000Y3253750D02*
G75*
G03*
X50000Y3663750I0J205000D01*
G01*
X-50000Y3663750D02*
G75*
G03*
X-50000Y3253750I0J-205000D01*
G01*
D14*
X0Y1479984D02*
X205000Y1684984D01*
X0Y1889984D01*
X-205000Y1684984D01*
X0Y1479984D01*
D11*
X-50000Y1479984D02*
X50000Y1479984D01*
X-50000Y1889984D02*
X50000Y1889984D01*
X50000Y1479984D02*
G75*
G03*
X50000Y1889984I0J205000D01*
G01*
X-50000Y1889984D02*
G75*
G03*
X-50000Y1479984I0J-205000D01*
G01*
D14*
X0Y1478750D02*
X205000Y1683750D01*
X0Y1888750D01*
X-205000Y1683750D01*
X0Y1478750D01*
D11*
X-50000Y1478750D02*
X50000Y1478750D01*
X-50000Y1888750D02*
X50000Y1888750D01*
X50000Y1478750D02*
G75*
G03*
X50000Y1888750I0J205000D01*
G01*
X-50000Y1888750D02*
G75*
G03*
X-50000Y1478750I0J-205000D01*
G01*
D14*
X0Y-295016D02*
X205000Y-90016D01*
X0Y114984D01*
X-205000Y-90016D01*
X0Y-295016D01*
D11*
X-50000Y-295016D02*
X50000Y-295016D01*
X-50000Y114984D02*
X50000Y114984D01*
X50000Y-295016D02*
G75*
G03*
X50000Y114984I0J205000D01*
G01*
X-50000Y114984D02*
G75*
G03*
X-50000Y-295016I0J-205000D01*
G01*
D14*
X0Y-296250D02*
X205000Y-91250D01*
X0Y113750D01*
X-205000Y-91250D01*
X0Y-296250D01*
D11*
X-50000Y-296250D02*
X50000Y-296250D01*
X-50000Y113750D02*
X50000Y113750D01*
X50000Y-296250D02*
G75*
G03*
X50000Y113750I0J205000D01*
G01*
X-50000Y113750D02*
G75*
G03*
X-50000Y-296250I0J-205000D01*
G01*
D14*
X1775000Y5029984D02*
X1980000Y5234984D01*
X1775000Y5439984D01*
X1570000Y5234984D01*
X1775000Y5029984D01*
D11*
X1725000Y5029984D02*
X1825000Y5029984D01*
X1725000Y5439984D02*
X1825000Y5439984D01*
X1825000Y5029984D02*
G75*
G03*
X1825000Y5439984I0J205000D01*
G01*
X1725000Y5439984D02*
G75*
G03*
X1725000Y5029984I0J-205000D01*
G01*
D14*
X1775000Y5028750D02*
X1980000Y5233750D01*
X1775000Y5438750D01*
X1570000Y5233750D01*
X1775000Y5028750D01*
D11*
X1725000Y5028750D02*
X1825000Y5028750D01*
X1725000Y5438750D02*
X1825000Y5438750D01*
X1825000Y5028750D02*
G75*
G03*
X1825000Y5438750I0J205000D01*
G01*
X1725000Y5438750D02*
G75*
G03*
X1725000Y5028750I0J-205000D01*
G01*
D14*
X1775000Y3254984D02*
X1980000Y3459984D01*
X1775000Y3664984D01*
X1570000Y3459984D01*
X1775000Y3254984D01*
D11*
X1725000Y3254984D02*
X1825000Y3254984D01*
X1725000Y3664984D02*
X1825000Y3664984D01*
X1825000Y3254984D02*
G75*
G03*
X1825000Y3664984I0J205000D01*
G01*
X1725000Y3664984D02*
G75*
G03*
X1725000Y3254984I0J-205000D01*
G01*
D14*
X1775000Y3253750D02*
X1980000Y3458750D01*
X1775000Y3663750D01*
X1570000Y3458750D01*
X1775000Y3253750D01*
D11*
X1725000Y3253750D02*
X1825000Y3253750D01*
X1725000Y3663750D02*
X1825000Y3663750D01*
X1825000Y3253750D02*
G75*
G03*
X1825000Y3663750I0J205000D01*
G01*
X1725000Y3663750D02*
G75*
G03*
X1725000Y3253750I0J-205000D01*
G01*
D14*
X1775000Y1479984D02*
X1980000Y1684984D01*
X1775000Y1889984D01*
X1570000Y1684984D01*
X1775000Y1479984D01*
D11*
X1725000Y1479984D02*
X1825000Y1479984D01*
X1725000Y1889984D02*
X1825000Y1889984D01*
X1825000Y1479984D02*
G75*
G03*
X1825000Y1889984I0J205000D01*
G01*
X1725000Y1889984D02*
G75*
G03*
X1725000Y1479984I0J-205000D01*
G01*
D14*
X1775000Y1478750D02*
X1980000Y1683750D01*
X1775000Y1888750D01*
X1570000Y1683750D01*
X1775000Y1478750D01*
D11*
X1725000Y1478750D02*
X1825000Y1478750D01*
X1725000Y1888750D02*
X1825000Y1888750D01*
X1825000Y1478750D02*
G75*
G03*
X1825000Y1888750I0J205000D01*
G01*
X1725000Y1888750D02*
G75*
G03*
X1725000Y1478750I0J-205000D01*
G01*
D14*
X1775000Y-295016D02*
X1980000Y-90016D01*
X1775000Y114984D01*
X1570000Y-90016D01*
X1775000Y-295016D01*
D11*
X1725000Y-295016D02*
X1825000Y-295016D01*
X1725000Y114984D02*
X1825000Y114984D01*
X1825000Y-295016D02*
G75*
G03*
X1825000Y114984I0J205000D01*
G01*
X1725000Y114984D02*
G75*
G03*
X1725000Y-295016I0J-205000D01*
G01*
D14*
X1775000Y-296250D02*
X1980000Y-91250D01*
X1775000Y113750D01*
X1570000Y-91250D01*
X1775000Y-296250D01*
D11*
X1725000Y-296250D02*
X1825000Y-296250D01*
X1725000Y113750D02*
X1825000Y113750D01*
X1825000Y-296250D02*
G75*
G03*
X1825000Y113750I0J205000D01*
G01*
X1725000Y113750D02*
G75*
G03*
X1725000Y-296250I0J-205000D01*
G01*
D14*
X3550000Y5029984D02*
X3755000Y5234984D01*
X3550000Y5439984D01*
X3345000Y5234984D01*
X3550000Y5029984D01*
D11*
X3500000Y5029984D02*
X3600000Y5029984D01*
X3500000Y5439984D02*
X3600000Y5439984D01*
X3600000Y5029984D02*
G75*
G03*
X3600000Y5439984I0J205000D01*
G01*
X3500000Y5439984D02*
G75*
G03*
X3500000Y5029984I0J-205000D01*
G01*
D14*
X3550000Y5028750D02*
X3755000Y5233750D01*
X3550000Y5438750D01*
X3345000Y5233750D01*
X3550000Y5028750D01*
D11*
X3500000Y5028750D02*
X3600000Y5028750D01*
X3500000Y5438750D02*
X3600000Y5438750D01*
X3600000Y5028750D02*
G75*
G03*
X3600000Y5438750I0J205000D01*
G01*
X3500000Y5438750D02*
G75*
G03*
X3500000Y5028750I0J-205000D01*
G01*
D14*
X3550000Y3254984D02*
X3755000Y3459984D01*
X3550000Y3664984D01*
X3345000Y3459984D01*
X3550000Y3254984D01*
D11*
X3500000Y3254984D02*
X3600000Y3254984D01*
X3500000Y3664984D02*
X3600000Y3664984D01*
X3600000Y3254984D02*
G75*
G03*
X3600000Y3664984I0J205000D01*
G01*
X3500000Y3664984D02*
G75*
G03*
X3500000Y3254984I0J-205000D01*
G01*
D14*
X3550000Y3253750D02*
X3755000Y3458750D01*
X3550000Y3663750D01*
X3345000Y3458750D01*
X3550000Y3253750D01*
D11*
X3500000Y3253750D02*
X3600000Y3253750D01*
X3500000Y3663750D02*
X3600000Y3663750D01*
X3600000Y3253750D02*
G75*
G03*
X3600000Y3663750I0J205000D01*
G01*
X3500000Y3663750D02*
G75*
G03*
X3500000Y3253750I0J-205000D01*
G01*
D14*
X3550000Y1479984D02*
X3755000Y1684984D01*
X3550000Y1889984D01*
X3345000Y1684984D01*
X3550000Y1479984D01*
D11*
X3500000Y1479984D02*
X3600000Y1479984D01*
X3500000Y1889984D02*
X3600000Y1889984D01*
X3600000Y1479984D02*
G75*
G03*
X3600000Y1889984I0J205000D01*
G01*
X3500000Y1889984D02*
G75*
G03*
X3500000Y1479984I0J-205000D01*
G01*
D14*
X3550000Y1478750D02*
X3755000Y1683750D01*
X3550000Y1888750D01*
X3345000Y1683750D01*
X3550000Y1478750D01*
D11*
X3500000Y1478750D02*
X3600000Y1478750D01*
X3500000Y1888750D02*
X3600000Y1888750D01*
X3600000Y1478750D02*
G75*
G03*
X3600000Y1888750I0J205000D01*
G01*
X3500000Y1888750D02*
G75*
G03*
X3500000Y1478750I0J-205000D01*
G01*
D14*
X3550000Y-295016D02*
X3755000Y-90016D01*
X3550000Y114984D01*
X3345000Y-90016D01*
X3550000Y-295016D01*
D11*
X3500000Y-295016D02*
X3600000Y-295016D01*
X3500000Y114984D02*
X3600000Y114984D01*
X3600000Y-295016D02*
G75*
G03*
X3600000Y114984I0J205000D01*
G01*
X3500000Y114984D02*
G75*
G03*
X3500000Y-295016I0J-205000D01*
G01*
D14*
X3550000Y-296250D02*
X3755000Y-91250D01*
X3550000Y113750D01*
X3345000Y-91250D01*
X3550000Y-296250D01*
D11*
X3500000Y-296250D02*
X3600000Y-296250D01*
X3500000Y113750D02*
X3600000Y113750D01*
X3600000Y-296250D02*
G75*
G03*
X3600000Y113750I0J205000D01*
G01*
X3500000Y113750D02*
G75*
G03*
X3500000Y-296250I0J-205000D01*
G01*
D14*
X5325000Y5029984D02*
X5530000Y5234984D01*
X5325000Y5439984D01*
X5120000Y5234984D01*
X5325000Y5029984D01*
D11*
X5275000Y5029984D02*
X5375000Y5029984D01*
X5275000Y5439984D02*
X5375000Y5439984D01*
X5375000Y5029984D02*
G75*
G03*
X5375000Y5439984I0J205000D01*
G01*
X5275000Y5439984D02*
G75*
G03*
X5275000Y5029984I0J-205000D01*
G01*
D14*
X5325000Y5028750D02*
X5530000Y5233750D01*
X5325000Y5438750D01*
X5120000Y5233750D01*
X5325000Y5028750D01*
D11*
X5275000Y5028750D02*
X5375000Y5028750D01*
X5275000Y5438750D02*
X5375000Y5438750D01*
X5375000Y5028750D02*
G75*
G03*
X5375000Y5438750I0J205000D01*
G01*
X5275000Y5438750D02*
G75*
G03*
X5275000Y5028750I0J-205000D01*
G01*
D14*
X5325000Y3254984D02*
X5530000Y3459984D01*
X5325000Y3664984D01*
X5120000Y3459984D01*
X5325000Y3254984D01*
D11*
X5275000Y3254984D02*
X5375000Y3254984D01*
X5275000Y3664984D02*
X5375000Y3664984D01*
X5375000Y3254984D02*
G75*
G03*
X5375000Y3664984I0J205000D01*
G01*
X5275000Y3664984D02*
G75*
G03*
X5275000Y3254984I0J-205000D01*
G01*
D14*
X5325000Y3253750D02*
X5530000Y3458750D01*
X5325000Y3663750D01*
X5120000Y3458750D01*
X5325000Y3253750D01*
D11*
X5275000Y3253750D02*
X5375000Y3253750D01*
X5275000Y3663750D02*
X5375000Y3663750D01*
X5375000Y3253750D02*
G75*
G03*
X5375000Y3663750I0J205000D01*
G01*
X5275000Y3663750D02*
G75*
G03*
X5275000Y3253750I0J-205000D01*
G01*
D14*
X5325000Y1479984D02*
X5530000Y1684984D01*
X5325000Y1889984D01*
X5120000Y1684984D01*
X5325000Y1479984D01*
D11*
X5275000Y1479984D02*
X5375000Y1479984D01*
X5275000Y1889984D02*
X5375000Y1889984D01*
X5375000Y1479984D02*
G75*
G03*
X5375000Y1889984I0J205000D01*
G01*
X5275000Y1889984D02*
G75*
G03*
X5275000Y1479984I0J-205000D01*
G01*
D14*
X5325000Y1478750D02*
X5530000Y1683750D01*
X5325000Y1888750D01*
X5120000Y1683750D01*
X5325000Y1478750D01*
D11*
X5275000Y1478750D02*
X5375000Y1478750D01*
X5275000Y1888750D02*
X5375000Y1888750D01*
X5375000Y1478750D02*
G75*
G03*
X5375000Y1888750I0J205000D01*
G01*
X5275000Y1888750D02*
G75*
G03*
X5275000Y1478750I0J-205000D01*
G01*
D14*
X5325000Y-295016D02*
X5530000Y-90016D01*
X5325000Y114984D01*
X5120000Y-90016D01*
X5325000Y-295016D01*
D11*
X5275000Y-295016D02*
X5375000Y-295016D01*
X5275000Y114984D02*
X5375000Y114984D01*
X5375000Y-295016D02*
G75*
G03*
X5375000Y114984I0J205000D01*
G01*
X5275000Y114984D02*
G75*
G03*
X5275000Y-295016I0J-205000D01*
G01*
D14*
X5325000Y-296250D02*
X5530000Y-91250D01*
X5325000Y113750D01*
X5120000Y-91250D01*
X5325000Y-296250D01*
D11*
X5275000Y-296250D02*
X5375000Y-296250D01*
X5275000Y113750D02*
X5375000Y113750D01*
X5375000Y-296250D02*
G75*
G03*
X5375000Y113750I0J205000D01*
G01*
X5275000Y113750D02*
G75*
G03*
X5275000Y-296250I0J-205000D01*
G01*
D14*
X7100000Y5029984D02*
X7305000Y5234984D01*
X7100000Y5439984D01*
X6895000Y5234984D01*
X7100000Y5029984D01*
D11*
X7050000Y5029984D02*
X7150000Y5029984D01*
X7050000Y5439984D02*
X7150000Y5439984D01*
X7150000Y5029984D02*
G75*
G03*
X7150000Y5439984I0J205000D01*
G01*
X7050000Y5439984D02*
G75*
G03*
X7050000Y5029984I0J-205000D01*
G01*
D14*
X7100000Y5028750D02*
X7305000Y5233750D01*
X7100000Y5438750D01*
X6895000Y5233750D01*
X7100000Y5028750D01*
D11*
X7050000Y5028750D02*
X7150000Y5028750D01*
X7050000Y5438750D02*
X7150000Y5438750D01*
X7150000Y5028750D02*
G75*
G03*
X7150000Y5438750I0J205000D01*
G01*
X7050000Y5438750D02*
G75*
G03*
X7050000Y5028750I0J-205000D01*
G01*
D14*
X7100000Y3254984D02*
X7305000Y3459984D01*
X7100000Y3664984D01*
X6895000Y3459984D01*
X7100000Y3254984D01*
D11*
X7050000Y3254984D02*
X7150000Y3254984D01*
X7050000Y3664984D02*
X7150000Y3664984D01*
X7150000Y3254984D02*
G75*
G03*
X7150000Y3664984I0J205000D01*
G01*
X7050000Y3664984D02*
G75*
G03*
X7050000Y3254984I0J-205000D01*
G01*
D14*
X7100000Y3253750D02*
X7305000Y3458750D01*
X7100000Y3663750D01*
X6895000Y3458750D01*
X7100000Y3253750D01*
D11*
X7050000Y3253750D02*
X7150000Y3253750D01*
X7050000Y3663750D02*
X7150000Y3663750D01*
X7150000Y3253750D02*
G75*
G03*
X7150000Y3663750I0J205000D01*
G01*
X7050000Y3663750D02*
G75*
G03*
X7050000Y3253750I0J-205000D01*
G01*
D14*
X7100000Y1479984D02*
X7305000Y1684984D01*
X7100000Y1889984D01*
X6895000Y1684984D01*
X7100000Y1479984D01*
D11*
X7050000Y1479984D02*
X7150000Y1479984D01*
X7050000Y1889984D02*
X7150000Y1889984D01*
X7150000Y1479984D02*
G75*
G03*
X7150000Y1889984I0J205000D01*
G01*
X7050000Y1889984D02*
G75*
G03*
X7050000Y1479984I0J-205000D01*
G01*
D14*
X7100000Y1478750D02*
X7305000Y1683750D01*
X7100000Y1888750D01*
X6895000Y1683750D01*
X7100000Y1478750D01*
D11*
X7050000Y1478750D02*
X7150000Y1478750D01*
X7050000Y1888750D02*
X7150000Y1888750D01*
X7150000Y1478750D02*
G75*
G03*
X7150000Y1888750I0J205000D01*
G01*
X7050000Y1888750D02*
G75*
G03*
X7050000Y1478750I0J-205000D01*
G01*
D14*
X7100000Y-295016D02*
X7305000Y-90016D01*
X7100000Y114984D01*
X6895000Y-90016D01*
X7100000Y-295016D01*
D11*
X7050000Y-295016D02*
X7150000Y-295016D01*
X7050000Y114984D02*
X7150000Y114984D01*
X7150000Y-295016D02*
G75*
G03*
X7150000Y114984I0J205000D01*
G01*
X7050000Y114984D02*
G75*
G03*
X7050000Y-295016I0J-205000D01*
G01*
D14*
X7100000Y-296250D02*
X7305000Y-91250D01*
X7100000Y113750D01*
X6895000Y-91250D01*
X7100000Y-296250D01*
D11*
X7050000Y-296250D02*
X7150000Y-296250D01*
X7050000Y113750D02*
X7150000Y113750D01*
X7150000Y-296250D02*
G75*
G03*
X7150000Y113750I0J205000D01*
G01*
X7050000Y113750D02*
G75*
G03*
X7050000Y-296250I0J-205000D01*
G01*
D14*
X8875000Y5029984D02*
X9080000Y5234984D01*
X8875000Y5439984D01*
X8670000Y5234984D01*
X8875000Y5029984D01*
D11*
X8825000Y5029984D02*
X8925000Y5029984D01*
X8825000Y5439984D02*
X8925000Y5439984D01*
X8925000Y5029984D02*
G75*
G03*
X8925000Y5439984I0J205000D01*
G01*
X8825000Y5439984D02*
G75*
G03*
X8825000Y5029984I0J-205000D01*
G01*
D14*
X8875000Y5028750D02*
X9080000Y5233750D01*
X8875000Y5438750D01*
X8670000Y5233750D01*
X8875000Y5028750D01*
D11*
X8825000Y5028750D02*
X8925000Y5028750D01*
X8825000Y5438750D02*
X8925000Y5438750D01*
X8925000Y5028750D02*
G75*
G03*
X8925000Y5438750I0J205000D01*
G01*
X8825000Y5438750D02*
G75*
G03*
X8825000Y5028750I0J-205000D01*
G01*
D14*
X8875000Y3254984D02*
X9080000Y3459984D01*
X8875000Y3664984D01*
X8670000Y3459984D01*
X8875000Y3254984D01*
D11*
X8825000Y3254984D02*
X8925000Y3254984D01*
X8825000Y3664984D02*
X8925000Y3664984D01*
X8925000Y3254984D02*
G75*
G03*
X8925000Y3664984I0J205000D01*
G01*
X8825000Y3664984D02*
G75*
G03*
X8825000Y3254984I0J-205000D01*
G01*
D14*
X8875000Y3253750D02*
X9080000Y3458750D01*
X8875000Y3663750D01*
X8670000Y3458750D01*
X8875000Y3253750D01*
D11*
X8825000Y3253750D02*
X8925000Y3253750D01*
X8825000Y3663750D02*
X8925000Y3663750D01*
X8925000Y3253750D02*
G75*
G03*
X8925000Y3663750I0J205000D01*
G01*
X8825000Y3663750D02*
G75*
G03*
X8825000Y3253750I0J-205000D01*
G01*
D14*
X8875000Y1479984D02*
X9080000Y1684984D01*
X8875000Y1889984D01*
X8670000Y1684984D01*
X8875000Y1479984D01*
D11*
X8825000Y1479984D02*
X8925000Y1479984D01*
X8825000Y1889984D02*
X8925000Y1889984D01*
X8925000Y1479984D02*
G75*
G03*
X8925000Y1889984I0J205000D01*
G01*
X8825000Y1889984D02*
G75*
G03*
X8825000Y1479984I0J-205000D01*
G01*
D14*
X8875000Y1478750D02*
X9080000Y1683750D01*
X8875000Y1888750D01*
X8670000Y1683750D01*
X8875000Y1478750D01*
D11*
X8825000Y1478750D02*
X8925000Y1478750D01*
X8825000Y1888750D02*
X8925000Y1888750D01*
X8925000Y1478750D02*
G75*
G03*
X8925000Y1888750I0J205000D01*
G01*
X8825000Y1888750D02*
G75*
G03*
X8825000Y1478750I0J-205000D01*
G01*
D14*
X8875000Y-295016D02*
X9080000Y-90016D01*
X8875000Y114984D01*
X8670000Y-90016D01*
X8875000Y-295016D01*
D11*
X8825000Y-295016D02*
X8925000Y-295016D01*
X8825000Y114984D02*
X8925000Y114984D01*
X8925000Y-295016D02*
G75*
G03*
X8925000Y114984I0J205000D01*
G01*
X8825000Y114984D02*
G75*
G03*
X8825000Y-295016I0J-205000D01*
G01*
D14*
X8875000Y-296250D02*
X9080000Y-91250D01*
X8875000Y113750D01*
X8670000Y-91250D01*
X8875000Y-296250D01*
D11*
X8825000Y-296250D02*
X8925000Y-296250D01*
X8825000Y113750D02*
X8925000Y113750D01*
X8925000Y-296250D02*
G75*
G03*
X8925000Y113750I0J205000D01*
G01*
X8825000Y113750D02*
G75*
G03*
X8825000Y-296250I0J-205000D01*
G01*
X-2512381Y-1205476D02*
X-2512381Y-1005476D01*
X-2464762Y-1005476D01*
X-2436190Y-1015000D01*
X-2417143Y-1034048D01*
X-2407619Y-1053095D01*
X-2398095Y-1091190D01*
X-2398095Y-1119762D01*
X-2407619Y-1157857D01*
X-2417143Y-1176905D01*
X-2436190Y-1195952D01*
X-2464762Y-1205476D01*
X-2512381Y-1205476D01*
X-2312381Y-1205476D02*
X-2312381Y-1072143D01*
X-2312381Y-1110238D02*
X-2302857Y-1091190D01*
X-2293333Y-1081667D01*
X-2274286Y-1072143D01*
X-2255238Y-1072143D01*
X-2188571Y-1205476D02*
X-2188571Y-1072143D01*
X-2188571Y-1005476D02*
X-2198095Y-1015000D01*
X-2188571Y-1024524D01*
X-2179048Y-1015000D01*
X-2188571Y-1005476D01*
X-2188571Y-1024524D01*
X-2064762Y-1205476D02*
X-2083809Y-1195952D01*
X-2093333Y-1176905D01*
X-2093333Y-1005476D01*
X-1960000Y-1205476D02*
X-1979048Y-1195952D01*
X-1988571Y-1176905D01*
X-1988571Y-1005476D01*
X-1731428Y-1205476D02*
X-1731428Y-1005476D01*
X-1664762Y-1148333D01*
X-1598095Y-1005476D01*
X-1598095Y-1205476D01*
X-1417143Y-1205476D02*
X-1417143Y-1100714D01*
X-1426667Y-1081667D01*
X-1445714Y-1072143D01*
X-1483809Y-1072143D01*
X-1502857Y-1081667D01*
X-1417143Y-1195952D02*
X-1436190Y-1205476D01*
X-1483809Y-1205476D01*
X-1502857Y-1195952D01*
X-1512381Y-1176905D01*
X-1512381Y-1157857D01*
X-1502857Y-1138810D01*
X-1483809Y-1129286D01*
X-1436190Y-1129286D01*
X-1417143Y-1119762D01*
X-1321905Y-1072143D02*
X-1321905Y-1272143D01*
X-1321905Y-1081667D02*
X-1302857Y-1072143D01*
X-1264762Y-1072143D01*
X-1245714Y-1081667D01*
X-1236190Y-1091190D01*
X-1226667Y-1110238D01*
X-1226667Y-1167381D01*
X-1236190Y-1186429D01*
X-1245714Y-1195952D01*
X-1264762Y-1205476D01*
X-1302857Y-1205476D01*
X-1321905Y-1195952D01*
X-1140952Y-1186429D02*
X-1131429Y-1195952D01*
X-1140952Y-1205476D01*
X-1150476Y-1195952D01*
X-1140952Y-1186429D01*
X-1140952Y-1205476D01*
X-1140952Y-1081667D02*
X-1131429Y-1091190D01*
X-1140952Y-1100714D01*
X-1150476Y-1091190D01*
X-1140952Y-1081667D01*
X-1140952Y-1100714D01*
D12*
X-2800000Y-1520000D02*
X-2770000Y-1550000D01*
X-2770000Y-1520000D02*
X-2800000Y-1550000D01*
D11*
X-2474286Y-1425476D02*
X-2455238Y-1425476D01*
X-2436190Y-1435000D01*
X-2426667Y-1444524D01*
X-2417143Y-1463571D01*
X-2407619Y-1501667D01*
X-2407619Y-1549286D01*
X-2417143Y-1587381D01*
X-2426667Y-1606428D01*
X-2436190Y-1615952D01*
X-2455238Y-1625476D01*
X-2474286Y-1625476D01*
X-2493333Y-1615952D01*
X-2502857Y-1606428D01*
X-2512381Y-1587381D01*
X-2521905Y-1549286D01*
X-2521905Y-1501667D01*
X-2512381Y-1463571D01*
X-2502857Y-1444524D01*
X-2493333Y-1435000D01*
X-2474286Y-1425476D01*
X-2321905Y-1606428D02*
X-2312381Y-1615952D01*
X-2321905Y-1625476D01*
X-2331429Y-1615952D01*
X-2321905Y-1606428D01*
X-2321905Y-1625476D01*
X-2245714Y-1425476D02*
X-2121905Y-1425476D01*
X-2188571Y-1501667D01*
X-2160000Y-1501667D01*
X-2140952Y-1511190D01*
X-2131429Y-1520714D01*
X-2121905Y-1539762D01*
X-2121905Y-1587381D01*
X-2131429Y-1606428D01*
X-2140952Y-1615952D01*
X-2160000Y-1625476D01*
X-2217143Y-1625476D01*
X-2236190Y-1615952D01*
X-2245714Y-1606428D01*
X-1998095Y-1425476D02*
X-1979048Y-1425476D01*
X-1960000Y-1435000D01*
X-1950476Y-1444524D01*
X-1940952Y-1463571D01*
X-1931428Y-1501667D01*
X-1931428Y-1549286D01*
X-1940952Y-1587381D01*
X-1950476Y-1606428D01*
X-1960000Y-1615952D01*
X-1979048Y-1625476D01*
X-1998095Y-1625476D01*
X-2017143Y-1615952D01*
X-2026667Y-1606428D01*
X-2036190Y-1587381D01*
X-2045714Y-1549286D01*
X-2045714Y-1501667D01*
X-2036190Y-1463571D01*
X-2026667Y-1444524D01*
X-2017143Y-1435000D01*
X-1998095Y-1425476D01*
X-1807619Y-1425476D02*
X-1788571Y-1425476D01*
X-1769524Y-1435000D01*
X-1760000Y-1444524D01*
X-1750476Y-1463571D01*
X-1740952Y-1501667D01*
X-1740952Y-1549286D01*
X-1750476Y-1587381D01*
X-1760000Y-1606428D01*
X-1769524Y-1615952D01*
X-1788571Y-1625476D01*
X-1807619Y-1625476D01*
X-1826667Y-1615952D01*
X-1836190Y-1606428D01*
X-1845714Y-1587381D01*
X-1855238Y-1549286D01*
X-1855238Y-1501667D01*
X-1845714Y-1463571D01*
X-1836190Y-1444524D01*
X-1826667Y-1435000D01*
X-1807619Y-1425476D01*
X-1655238Y-1625476D02*
X-1655238Y-1492143D01*
X-1655238Y-1511190D02*
X-1645714Y-1501667D01*
X-1626667Y-1492143D01*
X-1598095Y-1492143D01*
X-1579048Y-1501667D01*
X-1569524Y-1520714D01*
X-1569524Y-1625476D01*
X-1569524Y-1520714D02*
X-1560000Y-1501667D01*
X-1540952Y-1492143D01*
X-1512381Y-1492143D01*
X-1493333Y-1501667D01*
X-1483809Y-1520714D01*
X-1483809Y-1625476D01*
X-1388571Y-1625476D02*
X-1388571Y-1492143D01*
X-1388571Y-1511190D02*
X-1379048Y-1501667D01*
X-1360000Y-1492143D01*
X-1331429Y-1492143D01*
X-1312381Y-1501667D01*
X-1302857Y-1520714D01*
X-1302857Y-1625476D01*
X-1302857Y-1520714D02*
X-1293333Y-1501667D01*
X-1274286Y-1492143D01*
X-1245714Y-1492143D01*
X-1226667Y-1501667D01*
X-1217143Y-1520714D01*
X-1217143Y-1625476D01*
X-826667Y-1415952D02*
X-998095Y-1673095D01*
X-569524Y-1425476D02*
X-550476Y-1425476D01*
X-531429Y-1435000D01*
X-521905Y-1444524D01*
X-512381Y-1463571D01*
X-502857Y-1501667D01*
X-502857Y-1549286D01*
X-512381Y-1587381D01*
X-521905Y-1606428D01*
X-531429Y-1615952D01*
X-550476Y-1625476D01*
X-569524Y-1625476D01*
X-588571Y-1615952D01*
X-598095Y-1606428D01*
X-607619Y-1587381D01*
X-617143Y-1549286D01*
X-617143Y-1501667D01*
X-607619Y-1463571D01*
X-598095Y-1444524D01*
X-588571Y-1435000D01*
X-569524Y-1425476D01*
X-417143Y-1606428D02*
X-407619Y-1615952D01*
X-417143Y-1625476D01*
X-426667Y-1615952D01*
X-417143Y-1606428D01*
X-417143Y-1625476D01*
X-283810Y-1425476D02*
X-264762Y-1425476D01*
X-245714Y-1435000D01*
X-236190Y-1444524D01*
X-226667Y-1463571D01*
X-217143Y-1501667D01*
X-217143Y-1549286D01*
X-226667Y-1587381D01*
X-236190Y-1606428D01*
X-245714Y-1615952D01*
X-264762Y-1625476D01*
X-283810Y-1625476D01*
X-302857Y-1615952D01*
X-312381Y-1606428D01*
X-321905Y-1587381D01*
X-331429Y-1549286D01*
X-331429Y-1501667D01*
X-321905Y-1463571D01*
X-312381Y-1444524D01*
X-302857Y-1435000D01*
X-283810Y-1425476D01*
X-26667Y-1625476D02*
X-140952Y-1625476D01*
X-83810Y-1625476D02*
X-83810Y-1425476D01*
X-102857Y-1454048D01*
X-121905Y-1473095D01*
X-140952Y-1482619D01*
X163810Y-1625476D02*
X49524Y-1625476D01*
X106667Y-1625476D02*
X106667Y-1425476D01*
X87619Y-1454048D01*
X68571Y-1473095D01*
X49524Y-1482619D01*
X278095Y-1511190D02*
X259048Y-1501667D01*
X249524Y-1492143D01*
X240000Y-1473095D01*
X240000Y-1463571D01*
X249524Y-1444524D01*
X259048Y-1435000D01*
X278095Y-1425476D01*
X316190Y-1425476D01*
X335238Y-1435000D01*
X344762Y-1444524D01*
X354286Y-1463571D01*
X354286Y-1473095D01*
X344762Y-1492143D01*
X335238Y-1501667D01*
X316190Y-1511190D01*
X278095Y-1511190D01*
X259048Y-1520714D01*
X249524Y-1530238D01*
X240000Y-1549286D01*
X240000Y-1587381D01*
X249524Y-1606428D01*
X259048Y-1615952D01*
X278095Y-1625476D01*
X316190Y-1625476D01*
X335238Y-1615952D01*
X344762Y-1606428D01*
X354286Y-1587381D01*
X354286Y-1549286D01*
X344762Y-1530238D01*
X335238Y-1520714D01*
X316190Y-1511190D01*
X430476Y-1425476D02*
X430476Y-1463571D01*
X506667Y-1425476D02*
X506667Y-1463571D01*
X801905Y-1701667D02*
X792381Y-1692143D01*
X773333Y-1663571D01*
X763809Y-1644524D01*
X754286Y-1615952D01*
X744762Y-1568333D01*
X744762Y-1530238D01*
X754286Y-1482619D01*
X763809Y-1454048D01*
X773333Y-1435000D01*
X792381Y-1406428D01*
X801905Y-1396905D01*
X916190Y-1425476D02*
X935238Y-1425476D01*
X954286Y-1435000D01*
X963809Y-1444524D01*
X973333Y-1463571D01*
X982857Y-1501667D01*
X982857Y-1549286D01*
X973333Y-1587381D01*
X963809Y-1606428D01*
X954286Y-1615952D01*
X935238Y-1625476D01*
X916190Y-1625476D01*
X897143Y-1615952D01*
X887619Y-1606428D01*
X878095Y-1587381D01*
X868571Y-1549286D01*
X868571Y-1501667D01*
X878095Y-1463571D01*
X887619Y-1444524D01*
X897143Y-1435000D01*
X916190Y-1425476D01*
X1220952Y-1625476D02*
X1220952Y-1425476D01*
X1306667Y-1625476D02*
X1306667Y-1520714D01*
X1297143Y-1501667D01*
X1278095Y-1492143D01*
X1249524Y-1492143D01*
X1230476Y-1501667D01*
X1220952Y-1511190D01*
X1430476Y-1625476D02*
X1411428Y-1615952D01*
X1401905Y-1606428D01*
X1392381Y-1587381D01*
X1392381Y-1530238D01*
X1401905Y-1511190D01*
X1411428Y-1501667D01*
X1430476Y-1492143D01*
X1459048Y-1492143D01*
X1478095Y-1501667D01*
X1487619Y-1511190D01*
X1497143Y-1530238D01*
X1497143Y-1587381D01*
X1487619Y-1606428D01*
X1478095Y-1615952D01*
X1459048Y-1625476D01*
X1430476Y-1625476D01*
X1611428Y-1625476D02*
X1592381Y-1615952D01*
X1582857Y-1596905D01*
X1582857Y-1425476D01*
X1763809Y-1615952D02*
X1744762Y-1625476D01*
X1706667Y-1625476D01*
X1687619Y-1615952D01*
X1678095Y-1596905D01*
X1678095Y-1520714D01*
X1687619Y-1501667D01*
X1706667Y-1492143D01*
X1744762Y-1492143D01*
X1763809Y-1501667D01*
X1773333Y-1520714D01*
X1773333Y-1539762D01*
X1678095Y-1558809D01*
X1849524Y-1615952D02*
X1868571Y-1625476D01*
X1906667Y-1625476D01*
X1925714Y-1615952D01*
X1935238Y-1596905D01*
X1935238Y-1587381D01*
X1925714Y-1568333D01*
X1906667Y-1558809D01*
X1878095Y-1558809D01*
X1859048Y-1549286D01*
X1849524Y-1530238D01*
X1849524Y-1520714D01*
X1859048Y-1501667D01*
X1878095Y-1492143D01*
X1906667Y-1492143D01*
X1925714Y-1501667D01*
X2173333Y-1549286D02*
X2325714Y-1549286D01*
X2249524Y-1625476D02*
X2249524Y-1473095D01*
X2678095Y-1625476D02*
X2563810Y-1625476D01*
X2620952Y-1625476D02*
X2620952Y-1425476D01*
X2601905Y-1454048D01*
X2582857Y-1473095D01*
X2563810Y-1482619D01*
X2773333Y-1625476D02*
X2811428Y-1625476D01*
X2830476Y-1615952D01*
X2840000Y-1606428D01*
X2859048Y-1577857D01*
X2868571Y-1539762D01*
X2868571Y-1463571D01*
X2859048Y-1444524D01*
X2849524Y-1435000D01*
X2830476Y-1425476D01*
X2792381Y-1425476D01*
X2773333Y-1435000D01*
X2763810Y-1444524D01*
X2754286Y-1463571D01*
X2754286Y-1511190D01*
X2763810Y-1530238D01*
X2773333Y-1539762D01*
X2792381Y-1549286D01*
X2830476Y-1549286D01*
X2849524Y-1539762D01*
X2859048Y-1530238D01*
X2868571Y-1511190D01*
X2944762Y-1444524D02*
X2954286Y-1435000D01*
X2973333Y-1425476D01*
X3020952Y-1425476D01*
X3040000Y-1435000D01*
X3049524Y-1444524D01*
X3059048Y-1463571D01*
X3059048Y-1482619D01*
X3049524Y-1511190D01*
X2935238Y-1625476D01*
X3059048Y-1625476D01*
X3287619Y-1615952D02*
X3306667Y-1625476D01*
X3344762Y-1625476D01*
X3363809Y-1615952D01*
X3373333Y-1596905D01*
X3373333Y-1587381D01*
X3363809Y-1568333D01*
X3344762Y-1558809D01*
X3316190Y-1558809D01*
X3297143Y-1549286D01*
X3287619Y-1530238D01*
X3287619Y-1520714D01*
X3297143Y-1501667D01*
X3316190Y-1492143D01*
X3344762Y-1492143D01*
X3363809Y-1501667D01*
X3487619Y-1625476D02*
X3468571Y-1615952D01*
X3459048Y-1596905D01*
X3459048Y-1425476D01*
X3592381Y-1625476D02*
X3573333Y-1615952D01*
X3563809Y-1606428D01*
X3554286Y-1587381D01*
X3554286Y-1530238D01*
X3563809Y-1511190D01*
X3573333Y-1501667D01*
X3592381Y-1492143D01*
X3620952Y-1492143D01*
X3640000Y-1501667D01*
X3649524Y-1511190D01*
X3659048Y-1530238D01*
X3659048Y-1587381D01*
X3649524Y-1606428D01*
X3640000Y-1615952D01*
X3620952Y-1625476D01*
X3592381Y-1625476D01*
X3716190Y-1492143D02*
X3792381Y-1492143D01*
X3744762Y-1425476D02*
X3744762Y-1596905D01*
X3754286Y-1615952D01*
X3773333Y-1625476D01*
X3792381Y-1625476D01*
X3849524Y-1615952D02*
X3868571Y-1625476D01*
X3906667Y-1625476D01*
X3925714Y-1615952D01*
X3935238Y-1596905D01*
X3935238Y-1587381D01*
X3925714Y-1568333D01*
X3906667Y-1558809D01*
X3878095Y-1558809D01*
X3859048Y-1549286D01*
X3849524Y-1530238D01*
X3849524Y-1520714D01*
X3859048Y-1501667D01*
X3878095Y-1492143D01*
X3906667Y-1492143D01*
X3925714Y-1501667D01*
X4001905Y-1701667D02*
X4011428Y-1692143D01*
X4030476Y-1663571D01*
X4040000Y-1644524D01*
X4049524Y-1615952D01*
X4059048Y-1568333D01*
X4059048Y-1530238D01*
X4049524Y-1482619D01*
X4040000Y-1454048D01*
X4030476Y-1435000D01*
X4011428Y-1406428D01*
X4001905Y-1396905D01*
X4363810Y-1701667D02*
X4354286Y-1692143D01*
X4335238Y-1663571D01*
X4325714Y-1644524D01*
X4316190Y-1615952D01*
X4306667Y-1568333D01*
X4306667Y-1530238D01*
X4316190Y-1482619D01*
X4325714Y-1454048D01*
X4335238Y-1435000D01*
X4354286Y-1406428D01*
X4363810Y-1396905D01*
X4440000Y-1492143D02*
X4440000Y-1625476D01*
X4440000Y-1511190D02*
X4449524Y-1501667D01*
X4468571Y-1492143D01*
X4497143Y-1492143D01*
X4516190Y-1501667D01*
X4525714Y-1520714D01*
X4525714Y-1625476D01*
X4649524Y-1625476D02*
X4630476Y-1615952D01*
X4620952Y-1606428D01*
X4611429Y-1587381D01*
X4611429Y-1530238D01*
X4620952Y-1511190D01*
X4630476Y-1501667D01*
X4649524Y-1492143D01*
X4678095Y-1492143D01*
X4697143Y-1501667D01*
X4706667Y-1511190D01*
X4716190Y-1530238D01*
X4716190Y-1587381D01*
X4706667Y-1606428D01*
X4697143Y-1615952D01*
X4678095Y-1625476D01*
X4649524Y-1625476D01*
X4773333Y-1492143D02*
X4849524Y-1492143D01*
X4801905Y-1425476D02*
X4801905Y-1596905D01*
X4811429Y-1615952D01*
X4830476Y-1625476D01*
X4849524Y-1625476D01*
X5068571Y-1492143D02*
X5068571Y-1692143D01*
X5068571Y-1501667D02*
X5087619Y-1492143D01*
X5125714Y-1492143D01*
X5144762Y-1501667D01*
X5154286Y-1511190D01*
X5163810Y-1530238D01*
X5163810Y-1587381D01*
X5154286Y-1606428D01*
X5144762Y-1615952D01*
X5125714Y-1625476D01*
X5087619Y-1625476D01*
X5068571Y-1615952D01*
X5278095Y-1625476D02*
X5259048Y-1615952D01*
X5249524Y-1596905D01*
X5249524Y-1425476D01*
X5440000Y-1625476D02*
X5440000Y-1520714D01*
X5430476Y-1501667D01*
X5411429Y-1492143D01*
X5373333Y-1492143D01*
X5354286Y-1501667D01*
X5440000Y-1615952D02*
X5420952Y-1625476D01*
X5373333Y-1625476D01*
X5354286Y-1615952D01*
X5344762Y-1596905D01*
X5344762Y-1577857D01*
X5354286Y-1558809D01*
X5373333Y-1549286D01*
X5420952Y-1549286D01*
X5440000Y-1539762D01*
X5506667Y-1492143D02*
X5582857Y-1492143D01*
X5535238Y-1425476D02*
X5535238Y-1596905D01*
X5544762Y-1615952D01*
X5563810Y-1625476D01*
X5582857Y-1625476D01*
X5725714Y-1615952D02*
X5706667Y-1625476D01*
X5668571Y-1625476D01*
X5649524Y-1615952D01*
X5640000Y-1596905D01*
X5640000Y-1520714D01*
X5649524Y-1501667D01*
X5668571Y-1492143D01*
X5706667Y-1492143D01*
X5725714Y-1501667D01*
X5735238Y-1520714D01*
X5735238Y-1539762D01*
X5640000Y-1558809D01*
X5906667Y-1625476D02*
X5906667Y-1425476D01*
X5906667Y-1615952D02*
X5887619Y-1625476D01*
X5849524Y-1625476D01*
X5830476Y-1615952D01*
X5820952Y-1606428D01*
X5811428Y-1587381D01*
X5811428Y-1530238D01*
X5820952Y-1511190D01*
X5830476Y-1501667D01*
X5849524Y-1492143D01*
X5887619Y-1492143D01*
X5906667Y-1501667D01*
X5982857Y-1701667D02*
X5992381Y-1692143D01*
X6011428Y-1663571D01*
X6020952Y-1644524D01*
X6030476Y-1615952D01*
X6040000Y-1568333D01*
X6040000Y-1530238D01*
X6030476Y-1482619D01*
X6020952Y-1454048D01*
X6011428Y-1435000D01*
X5992381Y-1406428D01*
X5982857Y-1396905D01*
D13*
X-2770000Y-1799000D02*
G75*
G03*
X-2770000Y-1799000I-65000J0D01*
G01*
D11*
X-2407619Y-1889476D02*
X-2521905Y-1889476D01*
X-2464762Y-1889476D02*
X-2464762Y-1689476D01*
X-2483810Y-1718048D01*
X-2502857Y-1737095D01*
X-2521905Y-1746619D01*
X-2321905Y-1870428D02*
X-2312381Y-1879952D01*
X-2321905Y-1889476D01*
X-2331429Y-1879952D01*
X-2321905Y-1870428D01*
X-2321905Y-1889476D01*
X-2245714Y-1689476D02*
X-2121905Y-1689476D01*
X-2188571Y-1765667D01*
X-2160000Y-1765667D01*
X-2140952Y-1775190D01*
X-2131429Y-1784714D01*
X-2121905Y-1803762D01*
X-2121905Y-1851381D01*
X-2131429Y-1870428D01*
X-2140952Y-1879952D01*
X-2160000Y-1889476D01*
X-2217143Y-1889476D01*
X-2236190Y-1879952D01*
X-2245714Y-1870428D01*
X-1998095Y-1689476D02*
X-1979048Y-1689476D01*
X-1960000Y-1699000D01*
X-1950476Y-1708524D01*
X-1940952Y-1727571D01*
X-1931428Y-1765667D01*
X-1931428Y-1813286D01*
X-1940952Y-1851381D01*
X-1950476Y-1870428D01*
X-1960000Y-1879952D01*
X-1979048Y-1889476D01*
X-1998095Y-1889476D01*
X-2017143Y-1879952D01*
X-2026667Y-1870428D01*
X-2036190Y-1851381D01*
X-2045714Y-1813286D01*
X-2045714Y-1765667D01*
X-2036190Y-1727571D01*
X-2026667Y-1708524D01*
X-2017143Y-1699000D01*
X-1998095Y-1689476D01*
X-1807619Y-1689476D02*
X-1788571Y-1689476D01*
X-1769524Y-1699000D01*
X-1760000Y-1708524D01*
X-1750476Y-1727571D01*
X-1740952Y-1765667D01*
X-1740952Y-1813286D01*
X-1750476Y-1851381D01*
X-1760000Y-1870428D01*
X-1769524Y-1879952D01*
X-1788571Y-1889476D01*
X-1807619Y-1889476D01*
X-1826667Y-1879952D01*
X-1836190Y-1870428D01*
X-1845714Y-1851381D01*
X-1855238Y-1813286D01*
X-1855238Y-1765667D01*
X-1845714Y-1727571D01*
X-1836190Y-1708524D01*
X-1826667Y-1699000D01*
X-1807619Y-1689476D01*
X-1655238Y-1889476D02*
X-1655238Y-1756143D01*
X-1655238Y-1775190D02*
X-1645714Y-1765667D01*
X-1626667Y-1756143D01*
X-1598095Y-1756143D01*
X-1579048Y-1765667D01*
X-1569524Y-1784714D01*
X-1569524Y-1889476D01*
X-1569524Y-1784714D02*
X-1560000Y-1765667D01*
X-1540952Y-1756143D01*
X-1512381Y-1756143D01*
X-1493333Y-1765667D01*
X-1483809Y-1784714D01*
X-1483809Y-1889476D01*
X-1388571Y-1889476D02*
X-1388571Y-1756143D01*
X-1388571Y-1775190D02*
X-1379048Y-1765667D01*
X-1360000Y-1756143D01*
X-1331429Y-1756143D01*
X-1312381Y-1765667D01*
X-1302857Y-1784714D01*
X-1302857Y-1889476D01*
X-1302857Y-1784714D02*
X-1293333Y-1765667D01*
X-1274286Y-1756143D01*
X-1245714Y-1756143D01*
X-1226667Y-1765667D01*
X-1217143Y-1784714D01*
X-1217143Y-1889476D01*
X-826667Y-1679952D02*
X-998095Y-1937095D01*
X-569524Y-1689476D02*
X-550476Y-1689476D01*
X-531429Y-1699000D01*
X-521905Y-1708524D01*
X-512381Y-1727571D01*
X-502857Y-1765667D01*
X-502857Y-1813286D01*
X-512381Y-1851381D01*
X-521905Y-1870428D01*
X-531429Y-1879952D01*
X-550476Y-1889476D01*
X-569524Y-1889476D01*
X-588571Y-1879952D01*
X-598095Y-1870428D01*
X-607619Y-1851381D01*
X-617143Y-1813286D01*
X-617143Y-1765667D01*
X-607619Y-1727571D01*
X-598095Y-1708524D01*
X-588571Y-1699000D01*
X-569524Y-1689476D01*
X-417143Y-1870428D02*
X-407619Y-1879952D01*
X-417143Y-1889476D01*
X-426667Y-1879952D01*
X-417143Y-1870428D01*
X-417143Y-1889476D01*
X-283810Y-1689476D02*
X-264762Y-1689476D01*
X-245714Y-1699000D01*
X-236190Y-1708524D01*
X-226667Y-1727571D01*
X-217143Y-1765667D01*
X-217143Y-1813286D01*
X-226667Y-1851381D01*
X-236190Y-1870428D01*
X-245714Y-1879952D01*
X-264762Y-1889476D01*
X-283810Y-1889476D01*
X-302857Y-1879952D01*
X-312381Y-1870428D01*
X-321905Y-1851381D01*
X-331429Y-1813286D01*
X-331429Y-1765667D01*
X-321905Y-1727571D01*
X-312381Y-1708524D01*
X-302857Y-1699000D01*
X-283810Y-1689476D01*
X-36190Y-1689476D02*
X-131429Y-1689476D01*
X-140952Y-1784714D01*
X-131429Y-1775190D01*
X-112381Y-1765667D01*
X-64762Y-1765667D01*
X-45714Y-1775190D01*
X-36190Y-1784714D01*
X-26667Y-1803762D01*
X-26667Y-1851381D01*
X-36190Y-1870428D01*
X-45714Y-1879952D01*
X-64762Y-1889476D01*
X-112381Y-1889476D01*
X-131429Y-1879952D01*
X-140952Y-1870428D01*
X163810Y-1889476D02*
X49524Y-1889476D01*
X106667Y-1889476D02*
X106667Y-1689476D01*
X87619Y-1718048D01*
X68571Y-1737095D01*
X49524Y-1746619D01*
X240000Y-1708524D02*
X249524Y-1699000D01*
X268571Y-1689476D01*
X316190Y-1689476D01*
X335238Y-1699000D01*
X344762Y-1708524D01*
X354286Y-1727571D01*
X354286Y-1746619D01*
X344762Y-1775190D01*
X230476Y-1889476D01*
X354286Y-1889476D01*
X430476Y-1689476D02*
X430476Y-1727571D01*
X506667Y-1689476D02*
X506667Y-1727571D01*
X801905Y-1965667D02*
X792381Y-1956143D01*
X773333Y-1927571D01*
X763809Y-1908524D01*
X754286Y-1879952D01*
X744762Y-1832333D01*
X744762Y-1794238D01*
X754286Y-1746619D01*
X763809Y-1718048D01*
X773333Y-1699000D01*
X792381Y-1670428D01*
X801905Y-1660905D01*
X887619Y-1889476D02*
X925714Y-1889476D01*
X944762Y-1879952D01*
X954286Y-1870428D01*
X973333Y-1841857D01*
X982857Y-1803762D01*
X982857Y-1727571D01*
X973333Y-1708524D01*
X963809Y-1699000D01*
X944762Y-1689476D01*
X906667Y-1689476D01*
X887619Y-1699000D01*
X878095Y-1708524D01*
X868571Y-1727571D01*
X868571Y-1775190D01*
X878095Y-1794238D01*
X887619Y-1803762D01*
X906667Y-1813286D01*
X944762Y-1813286D01*
X963809Y-1803762D01*
X973333Y-1794238D01*
X982857Y-1775190D01*
X1154286Y-1689476D02*
X1116190Y-1689476D01*
X1097143Y-1699000D01*
X1087619Y-1708524D01*
X1068571Y-1737095D01*
X1059048Y-1775190D01*
X1059048Y-1851381D01*
X1068571Y-1870428D01*
X1078095Y-1879952D01*
X1097143Y-1889476D01*
X1135238Y-1889476D01*
X1154286Y-1879952D01*
X1163810Y-1870428D01*
X1173333Y-1851381D01*
X1173333Y-1803762D01*
X1163810Y-1784714D01*
X1154286Y-1775190D01*
X1135238Y-1765667D01*
X1097143Y-1765667D01*
X1078095Y-1775190D01*
X1068571Y-1784714D01*
X1059048Y-1803762D01*
X1411428Y-1889476D02*
X1411428Y-1689476D01*
X1497143Y-1889476D02*
X1497143Y-1784714D01*
X1487619Y-1765667D01*
X1468571Y-1756143D01*
X1440000Y-1756143D01*
X1420952Y-1765667D01*
X1411428Y-1775190D01*
X1620952Y-1889476D02*
X1601905Y-1879952D01*
X1592381Y-1870428D01*
X1582857Y-1851381D01*
X1582857Y-1794238D01*
X1592381Y-1775190D01*
X1601905Y-1765667D01*
X1620952Y-1756143D01*
X1649524Y-1756143D01*
X1668571Y-1765667D01*
X1678095Y-1775190D01*
X1687619Y-1794238D01*
X1687619Y-1851381D01*
X1678095Y-1870428D01*
X1668571Y-1879952D01*
X1649524Y-1889476D01*
X1620952Y-1889476D01*
X1801905Y-1889476D02*
X1782857Y-1879952D01*
X1773333Y-1860905D01*
X1773333Y-1689476D01*
X1954286Y-1879952D02*
X1935238Y-1889476D01*
X1897143Y-1889476D01*
X1878095Y-1879952D01*
X1868571Y-1860905D01*
X1868571Y-1784714D01*
X1878095Y-1765667D01*
X1897143Y-1756143D01*
X1935238Y-1756143D01*
X1954286Y-1765667D01*
X1963809Y-1784714D01*
X1963809Y-1803762D01*
X1868571Y-1822809D01*
X2040000Y-1879952D02*
X2059048Y-1889476D01*
X2097143Y-1889476D01*
X2116190Y-1879952D01*
X2125714Y-1860905D01*
X2125714Y-1851381D01*
X2116190Y-1832333D01*
X2097143Y-1822809D01*
X2068571Y-1822809D01*
X2049524Y-1813286D01*
X2040000Y-1794238D01*
X2040000Y-1784714D01*
X2049524Y-1765667D01*
X2068571Y-1756143D01*
X2097143Y-1756143D01*
X2116190Y-1765667D01*
X2192381Y-1965667D02*
X2201905Y-1956143D01*
X2220952Y-1927571D01*
X2230476Y-1908524D01*
X2240000Y-1879952D01*
X2249524Y-1832333D01*
X2249524Y-1794238D01*
X2240000Y-1746619D01*
X2230476Y-1718048D01*
X2220952Y-1699000D01*
X2201905Y-1670428D01*
X2192381Y-1660905D01*
X2554286Y-1965667D02*
X2544762Y-1956143D01*
X2525714Y-1927571D01*
X2516190Y-1908524D01*
X2506667Y-1879952D01*
X2497143Y-1832333D01*
X2497143Y-1794238D01*
X2506667Y-1746619D01*
X2516190Y-1718048D01*
X2525714Y-1699000D01*
X2544762Y-1670428D01*
X2554286Y-1660905D01*
X2630476Y-1756143D02*
X2630476Y-1889476D01*
X2630476Y-1775190D02*
X2640000Y-1765667D01*
X2659048Y-1756143D01*
X2687619Y-1756143D01*
X2706667Y-1765667D01*
X2716190Y-1784714D01*
X2716190Y-1889476D01*
X2840000Y-1889476D02*
X2820952Y-1879952D01*
X2811428Y-1870428D01*
X2801905Y-1851381D01*
X2801905Y-1794238D01*
X2811428Y-1775190D01*
X2820952Y-1765667D01*
X2840000Y-1756143D01*
X2868571Y-1756143D01*
X2887619Y-1765667D01*
X2897143Y-1775190D01*
X2906667Y-1794238D01*
X2906667Y-1851381D01*
X2897143Y-1870428D01*
X2887619Y-1879952D01*
X2868571Y-1889476D01*
X2840000Y-1889476D01*
X2963809Y-1756143D02*
X3040000Y-1756143D01*
X2992381Y-1689476D02*
X2992381Y-1860905D01*
X3001905Y-1879952D01*
X3020952Y-1889476D01*
X3040000Y-1889476D01*
X3259048Y-1756143D02*
X3259048Y-1956143D01*
X3259048Y-1765667D02*
X3278095Y-1756143D01*
X3316190Y-1756143D01*
X3335238Y-1765667D01*
X3344762Y-1775190D01*
X3354286Y-1794238D01*
X3354286Y-1851381D01*
X3344762Y-1870428D01*
X3335238Y-1879952D01*
X3316190Y-1889476D01*
X3278095Y-1889476D01*
X3259048Y-1879952D01*
X3468571Y-1889476D02*
X3449524Y-1879952D01*
X3440000Y-1860905D01*
X3440000Y-1689476D01*
X3630476Y-1889476D02*
X3630476Y-1784714D01*
X3620952Y-1765667D01*
X3601905Y-1756143D01*
X3563809Y-1756143D01*
X3544762Y-1765667D01*
X3630476Y-1879952D02*
X3611428Y-1889476D01*
X3563809Y-1889476D01*
X3544762Y-1879952D01*
X3535238Y-1860905D01*
X3535238Y-1841857D01*
X3544762Y-1822809D01*
X3563809Y-1813286D01*
X3611428Y-1813286D01*
X3630476Y-1803762D01*
X3697143Y-1756143D02*
X3773333Y-1756143D01*
X3725714Y-1689476D02*
X3725714Y-1860905D01*
X3735238Y-1879952D01*
X3754286Y-1889476D01*
X3773333Y-1889476D01*
X3916190Y-1879952D02*
X3897143Y-1889476D01*
X3859048Y-1889476D01*
X3840000Y-1879952D01*
X3830476Y-1860905D01*
X3830476Y-1784714D01*
X3840000Y-1765667D01*
X3859048Y-1756143D01*
X3897143Y-1756143D01*
X3916190Y-1765667D01*
X3925714Y-1784714D01*
X3925714Y-1803762D01*
X3830476Y-1822809D01*
X4097143Y-1889476D02*
X4097143Y-1689476D01*
X4097143Y-1879952D02*
X4078095Y-1889476D01*
X4040000Y-1889476D01*
X4020952Y-1879952D01*
X4011428Y-1870428D01*
X4001905Y-1851381D01*
X4001905Y-1794238D01*
X4011428Y-1775190D01*
X4020952Y-1765667D01*
X4040000Y-1756143D01*
X4078095Y-1756143D01*
X4097143Y-1765667D01*
X4173333Y-1965667D02*
X4182857Y-1956143D01*
X4201905Y-1927571D01*
X4211429Y-1908524D01*
X4220952Y-1879952D01*
X4230476Y-1832333D01*
X4230476Y-1794238D01*
X4220952Y-1746619D01*
X4211429Y-1718048D01*
X4201905Y-1699000D01*
X4182857Y-1670428D01*
X4173333Y-1660905D01*
D10*
X-2845000Y-1988000D02*
X-2845000Y-2138000D01*
X-2920000Y-2063000D02*
X-2770000Y-2063000D01*
D11*
X-2407619Y-2153476D02*
X-2521905Y-2153476D01*
X-2464762Y-2153476D02*
X-2464762Y-1953476D01*
X-2483810Y-1982048D01*
X-2502857Y-2001095D01*
X-2521905Y-2010619D01*
X-2321905Y-2134429D02*
X-2312381Y-2143952D01*
X-2321905Y-2153476D01*
X-2331429Y-2143952D01*
X-2321905Y-2134429D01*
X-2321905Y-2153476D01*
X-2131429Y-1953476D02*
X-2226667Y-1953476D01*
X-2236190Y-2048714D01*
X-2226667Y-2039190D01*
X-2207619Y-2029667D01*
X-2160000Y-2029667D01*
X-2140952Y-2039190D01*
X-2131429Y-2048714D01*
X-2121905Y-2067762D01*
X-2121905Y-2115381D01*
X-2131429Y-2134429D01*
X-2140952Y-2143952D01*
X-2160000Y-2153476D01*
X-2207619Y-2153476D01*
X-2226667Y-2143952D01*
X-2236190Y-2134429D01*
X-1998095Y-1953476D02*
X-1979048Y-1953476D01*
X-1960000Y-1963000D01*
X-1950476Y-1972524D01*
X-1940952Y-1991571D01*
X-1931428Y-2029667D01*
X-1931428Y-2077286D01*
X-1940952Y-2115381D01*
X-1950476Y-2134429D01*
X-1960000Y-2143952D01*
X-1979048Y-2153476D01*
X-1998095Y-2153476D01*
X-2017143Y-2143952D01*
X-2026667Y-2134429D01*
X-2036190Y-2115381D01*
X-2045714Y-2077286D01*
X-2045714Y-2029667D01*
X-2036190Y-1991571D01*
X-2026667Y-1972524D01*
X-2017143Y-1963000D01*
X-1998095Y-1953476D01*
X-1807619Y-1953476D02*
X-1788571Y-1953476D01*
X-1769524Y-1963000D01*
X-1760000Y-1972524D01*
X-1750476Y-1991571D01*
X-1740952Y-2029667D01*
X-1740952Y-2077286D01*
X-1750476Y-2115381D01*
X-1760000Y-2134429D01*
X-1769524Y-2143952D01*
X-1788571Y-2153476D01*
X-1807619Y-2153476D01*
X-1826667Y-2143952D01*
X-1836190Y-2134429D01*
X-1845714Y-2115381D01*
X-1855238Y-2077286D01*
X-1855238Y-2029667D01*
X-1845714Y-1991571D01*
X-1836190Y-1972524D01*
X-1826667Y-1963000D01*
X-1807619Y-1953476D01*
X-1655238Y-2153476D02*
X-1655238Y-2020143D01*
X-1655238Y-2039190D02*
X-1645714Y-2029667D01*
X-1626667Y-2020143D01*
X-1598095Y-2020143D01*
X-1579048Y-2029667D01*
X-1569524Y-2048714D01*
X-1569524Y-2153476D01*
X-1569524Y-2048714D02*
X-1560000Y-2029667D01*
X-1540952Y-2020143D01*
X-1512381Y-2020143D01*
X-1493333Y-2029667D01*
X-1483809Y-2048714D01*
X-1483809Y-2153476D01*
X-1388571Y-2153476D02*
X-1388571Y-2020143D01*
X-1388571Y-2039190D02*
X-1379048Y-2029667D01*
X-1360000Y-2020143D01*
X-1331429Y-2020143D01*
X-1312381Y-2029667D01*
X-1302857Y-2048714D01*
X-1302857Y-2153476D01*
X-1302857Y-2048714D02*
X-1293333Y-2029667D01*
X-1274286Y-2020143D01*
X-1245714Y-2020143D01*
X-1226667Y-2029667D01*
X-1217143Y-2048714D01*
X-1217143Y-2153476D01*
X-826667Y-1943952D02*
X-998095Y-2201095D01*
X-569524Y-1953476D02*
X-550476Y-1953476D01*
X-531429Y-1963000D01*
X-521905Y-1972524D01*
X-512381Y-1991571D01*
X-502857Y-2029667D01*
X-502857Y-2077286D01*
X-512381Y-2115381D01*
X-521905Y-2134429D01*
X-531429Y-2143952D01*
X-550476Y-2153476D01*
X-569524Y-2153476D01*
X-588571Y-2143952D01*
X-598095Y-2134429D01*
X-607619Y-2115381D01*
X-617143Y-2077286D01*
X-617143Y-2029667D01*
X-607619Y-1991571D01*
X-598095Y-1972524D01*
X-588571Y-1963000D01*
X-569524Y-1953476D01*
X-417143Y-2134429D02*
X-407619Y-2143952D01*
X-417143Y-2153476D01*
X-426667Y-2143952D01*
X-417143Y-2134429D01*
X-417143Y-2153476D01*
X-283810Y-1953476D02*
X-264762Y-1953476D01*
X-245714Y-1963000D01*
X-236190Y-1972524D01*
X-226667Y-1991571D01*
X-217143Y-2029667D01*
X-217143Y-2077286D01*
X-226667Y-2115381D01*
X-236190Y-2134429D01*
X-245714Y-2143952D01*
X-264762Y-2153476D01*
X-283810Y-2153476D01*
X-302857Y-2143952D01*
X-312381Y-2134429D01*
X-321905Y-2115381D01*
X-331429Y-2077286D01*
X-331429Y-2029667D01*
X-321905Y-1991571D01*
X-312381Y-1972524D01*
X-302857Y-1963000D01*
X-283810Y-1953476D01*
X-36190Y-1953476D02*
X-131429Y-1953476D01*
X-140952Y-2048714D01*
X-131429Y-2039190D01*
X-112381Y-2029667D01*
X-64762Y-2029667D01*
X-45714Y-2039190D01*
X-36190Y-2048714D01*
X-26667Y-2067762D01*
X-26667Y-2115381D01*
X-36190Y-2134429D01*
X-45714Y-2143952D01*
X-64762Y-2153476D01*
X-112381Y-2153476D01*
X-131429Y-2143952D01*
X-140952Y-2134429D01*
X68571Y-2153476D02*
X106667Y-2153476D01*
X125714Y-2143952D01*
X135238Y-2134429D01*
X154286Y-2105857D01*
X163810Y-2067762D01*
X163810Y-1991571D01*
X154286Y-1972524D01*
X144762Y-1963000D01*
X125714Y-1953476D01*
X87619Y-1953476D01*
X68571Y-1963000D01*
X59048Y-1972524D01*
X49524Y-1991571D01*
X49524Y-2039190D01*
X59048Y-2058238D01*
X68571Y-2067762D01*
X87619Y-2077286D01*
X125714Y-2077286D01*
X144762Y-2067762D01*
X154286Y-2058238D01*
X163810Y-2039190D01*
X354286Y-2153476D02*
X240000Y-2153476D01*
X297143Y-2153476D02*
X297143Y-1953476D01*
X278095Y-1982048D01*
X259048Y-2001095D01*
X240000Y-2010619D01*
X430476Y-1953476D02*
X430476Y-1991571D01*
X506667Y-1953476D02*
X506667Y-1991571D01*
X801905Y-2229667D02*
X792381Y-2220143D01*
X773333Y-2191571D01*
X763809Y-2172524D01*
X754286Y-2143952D01*
X744762Y-2096333D01*
X744762Y-2058238D01*
X754286Y-2010619D01*
X763809Y-1982048D01*
X773333Y-1963000D01*
X792381Y-1934428D01*
X801905Y-1924905D01*
X868571Y-1972524D02*
X878095Y-1963000D01*
X897143Y-1953476D01*
X944762Y-1953476D01*
X963809Y-1963000D01*
X973333Y-1972524D01*
X982857Y-1991571D01*
X982857Y-2010619D01*
X973333Y-2039190D01*
X859048Y-2153476D01*
X982857Y-2153476D01*
X1220952Y-2153476D02*
X1220952Y-1953476D01*
X1306667Y-2153476D02*
X1306667Y-2048714D01*
X1297143Y-2029667D01*
X1278095Y-2020143D01*
X1249524Y-2020143D01*
X1230476Y-2029667D01*
X1220952Y-2039190D01*
X1430476Y-2153476D02*
X1411428Y-2143952D01*
X1401905Y-2134429D01*
X1392381Y-2115381D01*
X1392381Y-2058238D01*
X1401905Y-2039190D01*
X1411428Y-2029667D01*
X1430476Y-2020143D01*
X1459048Y-2020143D01*
X1478095Y-2029667D01*
X1487619Y-2039190D01*
X1497143Y-2058238D01*
X1497143Y-2115381D01*
X1487619Y-2134429D01*
X1478095Y-2143952D01*
X1459048Y-2153476D01*
X1430476Y-2153476D01*
X1611428Y-2153476D02*
X1592381Y-2143952D01*
X1582857Y-2124905D01*
X1582857Y-1953476D01*
X1763809Y-2143952D02*
X1744762Y-2153476D01*
X1706667Y-2153476D01*
X1687619Y-2143952D01*
X1678095Y-2124905D01*
X1678095Y-2048714D01*
X1687619Y-2029667D01*
X1706667Y-2020143D01*
X1744762Y-2020143D01*
X1763809Y-2029667D01*
X1773333Y-2048714D01*
X1773333Y-2067762D01*
X1678095Y-2086809D01*
X1849524Y-2143952D02*
X1868571Y-2153476D01*
X1906667Y-2153476D01*
X1925714Y-2143952D01*
X1935238Y-2124905D01*
X1935238Y-2115381D01*
X1925714Y-2096333D01*
X1906667Y-2086809D01*
X1878095Y-2086809D01*
X1859048Y-2077286D01*
X1849524Y-2058238D01*
X1849524Y-2048714D01*
X1859048Y-2029667D01*
X1878095Y-2020143D01*
X1906667Y-2020143D01*
X1925714Y-2029667D01*
X2001905Y-2229667D02*
X2011428Y-2220143D01*
X2030476Y-2191571D01*
X2040000Y-2172524D01*
X2049524Y-2143952D01*
X2059048Y-2096333D01*
X2059048Y-2058238D01*
X2049524Y-2010619D01*
X2040000Y-1982048D01*
X2030476Y-1963000D01*
X2011428Y-1934428D01*
X2001905Y-1924905D01*
X2363810Y-2229667D02*
X2354286Y-2220143D01*
X2335238Y-2191571D01*
X2325714Y-2172524D01*
X2316190Y-2143952D01*
X2306667Y-2096333D01*
X2306667Y-2058238D01*
X2316190Y-2010619D01*
X2325714Y-1982048D01*
X2335238Y-1963000D01*
X2354286Y-1934428D01*
X2363810Y-1924905D01*
X2440000Y-2020143D02*
X2440000Y-2153476D01*
X2440000Y-2039190D02*
X2449524Y-2029667D01*
X2468571Y-2020143D01*
X2497143Y-2020143D01*
X2516190Y-2029667D01*
X2525714Y-2048714D01*
X2525714Y-2153476D01*
X2649524Y-2153476D02*
X2630476Y-2143952D01*
X2620952Y-2134429D01*
X2611429Y-2115381D01*
X2611429Y-2058238D01*
X2620952Y-2039190D01*
X2630476Y-2029667D01*
X2649524Y-2020143D01*
X2678095Y-2020143D01*
X2697143Y-2029667D01*
X2706667Y-2039190D01*
X2716190Y-2058238D01*
X2716190Y-2115381D01*
X2706667Y-2134429D01*
X2697143Y-2143952D01*
X2678095Y-2153476D01*
X2649524Y-2153476D01*
X2773333Y-2020143D02*
X2849524Y-2020143D01*
X2801905Y-1953476D02*
X2801905Y-2124905D01*
X2811428Y-2143952D01*
X2830476Y-2153476D01*
X2849524Y-2153476D01*
X3068571Y-2020143D02*
X3068571Y-2220143D01*
X3068571Y-2029667D02*
X3087619Y-2020143D01*
X3125714Y-2020143D01*
X3144762Y-2029667D01*
X3154286Y-2039190D01*
X3163809Y-2058238D01*
X3163809Y-2115381D01*
X3154286Y-2134429D01*
X3144762Y-2143952D01*
X3125714Y-2153476D01*
X3087619Y-2153476D01*
X3068571Y-2143952D01*
X3278095Y-2153476D02*
X3259048Y-2143952D01*
X3249524Y-2124905D01*
X3249524Y-1953476D01*
X3440000Y-2153476D02*
X3440000Y-2048714D01*
X3430476Y-2029667D01*
X3411428Y-2020143D01*
X3373333Y-2020143D01*
X3354286Y-2029667D01*
X3440000Y-2143952D02*
X3420952Y-2153476D01*
X3373333Y-2153476D01*
X3354286Y-2143952D01*
X3344762Y-2124905D01*
X3344762Y-2105857D01*
X3354286Y-2086809D01*
X3373333Y-2077286D01*
X3420952Y-2077286D01*
X3440000Y-2067762D01*
X3506667Y-2020143D02*
X3582857Y-2020143D01*
X3535238Y-1953476D02*
X3535238Y-2124905D01*
X3544762Y-2143952D01*
X3563809Y-2153476D01*
X3582857Y-2153476D01*
X3725714Y-2143952D02*
X3706667Y-2153476D01*
X3668571Y-2153476D01*
X3649524Y-2143952D01*
X3640000Y-2124905D01*
X3640000Y-2048714D01*
X3649524Y-2029667D01*
X3668571Y-2020143D01*
X3706667Y-2020143D01*
X3725714Y-2029667D01*
X3735238Y-2048714D01*
X3735238Y-2067762D01*
X3640000Y-2086809D01*
X3906667Y-2153476D02*
X3906667Y-1953476D01*
X3906667Y-2143952D02*
X3887619Y-2153476D01*
X3849524Y-2153476D01*
X3830476Y-2143952D01*
X3820952Y-2134429D01*
X3811428Y-2115381D01*
X3811428Y-2058238D01*
X3820952Y-2039190D01*
X3830476Y-2029667D01*
X3849524Y-2020143D01*
X3887619Y-2020143D01*
X3906667Y-2029667D01*
X3982857Y-2229667D02*
X3992381Y-2220143D01*
X4011428Y-2191571D01*
X4020952Y-2172524D01*
X4030476Y-2143952D01*
X4040000Y-2096333D01*
X4040000Y-2058238D01*
X4030476Y-2010619D01*
X4020952Y-1982048D01*
X4011428Y-1963000D01*
X3992381Y-1934428D01*
X3982857Y-1924905D01*
X-2799289Y-2403711D02*
X-2799289Y-2262289D01*
X-2940711Y-2262289D01*
X-2940711Y-2403711D01*
X-2799289Y-2403711D01*
X-2521905Y-2242524D02*
X-2512381Y-2233000D01*
X-2493333Y-2223476D01*
X-2445714Y-2223476D01*
X-2426667Y-2233000D01*
X-2417143Y-2242524D01*
X-2407619Y-2261571D01*
X-2407619Y-2280619D01*
X-2417143Y-2309190D01*
X-2531429Y-2423476D01*
X-2407619Y-2423476D01*
X-2321905Y-2404429D02*
X-2312381Y-2413952D01*
X-2321905Y-2423476D01*
X-2331429Y-2413952D01*
X-2321905Y-2404429D01*
X-2321905Y-2423476D01*
X-2188571Y-2223476D02*
X-2169524Y-2223476D01*
X-2150476Y-2233000D01*
X-2140952Y-2242524D01*
X-2131429Y-2261571D01*
X-2121905Y-2299667D01*
X-2121905Y-2347286D01*
X-2131429Y-2385381D01*
X-2140952Y-2404429D01*
X-2150476Y-2413952D01*
X-2169524Y-2423476D01*
X-2188571Y-2423476D01*
X-2207619Y-2413952D01*
X-2217143Y-2404429D01*
X-2226667Y-2385381D01*
X-2236190Y-2347286D01*
X-2236190Y-2299667D01*
X-2226667Y-2261571D01*
X-2217143Y-2242524D01*
X-2207619Y-2233000D01*
X-2188571Y-2223476D01*
X-1998095Y-2223476D02*
X-1979048Y-2223476D01*
X-1960000Y-2233000D01*
X-1950476Y-2242524D01*
X-1940952Y-2261571D01*
X-1931428Y-2299667D01*
X-1931428Y-2347286D01*
X-1940952Y-2385381D01*
X-1950476Y-2404429D01*
X-1960000Y-2413952D01*
X-1979048Y-2423476D01*
X-1998095Y-2423476D01*
X-2017143Y-2413952D01*
X-2026667Y-2404429D01*
X-2036190Y-2385381D01*
X-2045714Y-2347286D01*
X-2045714Y-2299667D01*
X-2036190Y-2261571D01*
X-2026667Y-2242524D01*
X-2017143Y-2233000D01*
X-1998095Y-2223476D01*
X-1807619Y-2223476D02*
X-1788571Y-2223476D01*
X-1769524Y-2233000D01*
X-1760000Y-2242524D01*
X-1750476Y-2261571D01*
X-1740952Y-2299667D01*
X-1740952Y-2347286D01*
X-1750476Y-2385381D01*
X-1760000Y-2404429D01*
X-1769524Y-2413952D01*
X-1788571Y-2423476D01*
X-1807619Y-2423476D01*
X-1826667Y-2413952D01*
X-1836190Y-2404429D01*
X-1845714Y-2385381D01*
X-1855238Y-2347286D01*
X-1855238Y-2299667D01*
X-1845714Y-2261571D01*
X-1836190Y-2242524D01*
X-1826667Y-2233000D01*
X-1807619Y-2223476D01*
X-1655238Y-2423476D02*
X-1655238Y-2290143D01*
X-1655238Y-2309190D02*
X-1645714Y-2299667D01*
X-1626667Y-2290143D01*
X-1598095Y-2290143D01*
X-1579048Y-2299667D01*
X-1569524Y-2318714D01*
X-1569524Y-2423476D01*
X-1569524Y-2318714D02*
X-1560000Y-2299667D01*
X-1540952Y-2290143D01*
X-1512381Y-2290143D01*
X-1493333Y-2299667D01*
X-1483809Y-2318714D01*
X-1483809Y-2423476D01*
X-1388571Y-2423476D02*
X-1388571Y-2290143D01*
X-1388571Y-2309190D02*
X-1379048Y-2299667D01*
X-1360000Y-2290143D01*
X-1331429Y-2290143D01*
X-1312381Y-2299667D01*
X-1302857Y-2318714D01*
X-1302857Y-2423476D01*
X-1302857Y-2318714D02*
X-1293333Y-2299667D01*
X-1274286Y-2290143D01*
X-1245714Y-2290143D01*
X-1226667Y-2299667D01*
X-1217143Y-2318714D01*
X-1217143Y-2423476D01*
X-826667Y-2213952D02*
X-998095Y-2471095D01*
X-569524Y-2223476D02*
X-550476Y-2223476D01*
X-531429Y-2233000D01*
X-521905Y-2242524D01*
X-512381Y-2261571D01*
X-502857Y-2299667D01*
X-502857Y-2347286D01*
X-512381Y-2385381D01*
X-521905Y-2404429D01*
X-531429Y-2413952D01*
X-550476Y-2423476D01*
X-569524Y-2423476D01*
X-588571Y-2413952D01*
X-598095Y-2404429D01*
X-607619Y-2385381D01*
X-617143Y-2347286D01*
X-617143Y-2299667D01*
X-607619Y-2261571D01*
X-598095Y-2242524D01*
X-588571Y-2233000D01*
X-569524Y-2223476D01*
X-417143Y-2404429D02*
X-407619Y-2413952D01*
X-417143Y-2423476D01*
X-426667Y-2413952D01*
X-417143Y-2404429D01*
X-417143Y-2423476D01*
X-283810Y-2223476D02*
X-264762Y-2223476D01*
X-245714Y-2233000D01*
X-236190Y-2242524D01*
X-226667Y-2261571D01*
X-217143Y-2299667D01*
X-217143Y-2347286D01*
X-226667Y-2385381D01*
X-236190Y-2404429D01*
X-245714Y-2413952D01*
X-264762Y-2423476D01*
X-283810Y-2423476D01*
X-302857Y-2413952D01*
X-312381Y-2404429D01*
X-321905Y-2385381D01*
X-331429Y-2347286D01*
X-331429Y-2299667D01*
X-321905Y-2261571D01*
X-312381Y-2242524D01*
X-302857Y-2233000D01*
X-283810Y-2223476D01*
X-150476Y-2223476D02*
X-17143Y-2223476D01*
X-102857Y-2423476D01*
X87619Y-2309190D02*
X68571Y-2299667D01*
X59048Y-2290143D01*
X49524Y-2271095D01*
X49524Y-2261571D01*
X59048Y-2242524D01*
X68571Y-2233000D01*
X87619Y-2223476D01*
X125714Y-2223476D01*
X144762Y-2233000D01*
X154286Y-2242524D01*
X163810Y-2261571D01*
X163810Y-2271095D01*
X154286Y-2290143D01*
X144762Y-2299667D01*
X125714Y-2309190D01*
X87619Y-2309190D01*
X68571Y-2318714D01*
X59048Y-2328238D01*
X49524Y-2347286D01*
X49524Y-2385381D01*
X59048Y-2404429D01*
X68571Y-2413952D01*
X87619Y-2423476D01*
X125714Y-2423476D01*
X144762Y-2413952D01*
X154286Y-2404429D01*
X163810Y-2385381D01*
X163810Y-2347286D01*
X154286Y-2328238D01*
X144762Y-2318714D01*
X125714Y-2309190D01*
X230476Y-2223476D02*
X363809Y-2223476D01*
X278095Y-2423476D01*
X430476Y-2223476D02*
X430476Y-2261571D01*
X506667Y-2223476D02*
X506667Y-2261571D01*
X801905Y-2499667D02*
X792381Y-2490143D01*
X773333Y-2461571D01*
X763809Y-2442524D01*
X754286Y-2413952D01*
X744762Y-2366333D01*
X744762Y-2328238D01*
X754286Y-2280619D01*
X763809Y-2252048D01*
X773333Y-2233000D01*
X792381Y-2204429D01*
X801905Y-2194905D01*
X916190Y-2223476D02*
X935238Y-2223476D01*
X954286Y-2233000D01*
X963809Y-2242524D01*
X973333Y-2261571D01*
X982857Y-2299667D01*
X982857Y-2347286D01*
X973333Y-2385381D01*
X963809Y-2404429D01*
X954286Y-2413952D01*
X935238Y-2423476D01*
X916190Y-2423476D01*
X897143Y-2413952D01*
X887619Y-2404429D01*
X878095Y-2385381D01*
X868571Y-2347286D01*
X868571Y-2299667D01*
X878095Y-2261571D01*
X887619Y-2242524D01*
X897143Y-2233000D01*
X916190Y-2223476D01*
X1220952Y-2423476D02*
X1220952Y-2223476D01*
X1306667Y-2423476D02*
X1306667Y-2318714D01*
X1297143Y-2299667D01*
X1278095Y-2290143D01*
X1249524Y-2290143D01*
X1230476Y-2299667D01*
X1220952Y-2309190D01*
X1430476Y-2423476D02*
X1411428Y-2413952D01*
X1401905Y-2404429D01*
X1392381Y-2385381D01*
X1392381Y-2328238D01*
X1401905Y-2309190D01*
X1411428Y-2299667D01*
X1430476Y-2290143D01*
X1459048Y-2290143D01*
X1478095Y-2299667D01*
X1487619Y-2309190D01*
X1497143Y-2328238D01*
X1497143Y-2385381D01*
X1487619Y-2404429D01*
X1478095Y-2413952D01*
X1459048Y-2423476D01*
X1430476Y-2423476D01*
X1611428Y-2423476D02*
X1592381Y-2413952D01*
X1582857Y-2394905D01*
X1582857Y-2223476D01*
X1763809Y-2413952D02*
X1744762Y-2423476D01*
X1706667Y-2423476D01*
X1687619Y-2413952D01*
X1678095Y-2394905D01*
X1678095Y-2318714D01*
X1687619Y-2299667D01*
X1706667Y-2290143D01*
X1744762Y-2290143D01*
X1763809Y-2299667D01*
X1773333Y-2318714D01*
X1773333Y-2337762D01*
X1678095Y-2356810D01*
X1849524Y-2413952D02*
X1868571Y-2423476D01*
X1906667Y-2423476D01*
X1925714Y-2413952D01*
X1935238Y-2394905D01*
X1935238Y-2385381D01*
X1925714Y-2366333D01*
X1906667Y-2356810D01*
X1878095Y-2356810D01*
X1859048Y-2347286D01*
X1849524Y-2328238D01*
X1849524Y-2318714D01*
X1859048Y-2299667D01*
X1878095Y-2290143D01*
X1906667Y-2290143D01*
X1925714Y-2299667D01*
X2173333Y-2347286D02*
X2325714Y-2347286D01*
X2249524Y-2423476D02*
X2249524Y-2271095D01*
X2582857Y-2423476D02*
X2620952Y-2423476D01*
X2640000Y-2413952D01*
X2649524Y-2404429D01*
X2668571Y-2375857D01*
X2678095Y-2337762D01*
X2678095Y-2261571D01*
X2668571Y-2242524D01*
X2659048Y-2233000D01*
X2640000Y-2223476D01*
X2601905Y-2223476D01*
X2582857Y-2233000D01*
X2573333Y-2242524D01*
X2563810Y-2261571D01*
X2563810Y-2309190D01*
X2573333Y-2328238D01*
X2582857Y-2337762D01*
X2601905Y-2347286D01*
X2640000Y-2347286D01*
X2659048Y-2337762D01*
X2668571Y-2328238D01*
X2678095Y-2309190D01*
X2849524Y-2223476D02*
X2811428Y-2223476D01*
X2792381Y-2233000D01*
X2782857Y-2242524D01*
X2763810Y-2271095D01*
X2754286Y-2309190D01*
X2754286Y-2385381D01*
X2763810Y-2404429D01*
X2773333Y-2413952D01*
X2792381Y-2423476D01*
X2830476Y-2423476D01*
X2849524Y-2413952D01*
X2859048Y-2404429D01*
X2868571Y-2385381D01*
X2868571Y-2337762D01*
X2859048Y-2318714D01*
X2849524Y-2309190D01*
X2830476Y-2299667D01*
X2792381Y-2299667D01*
X2773333Y-2309190D01*
X2763810Y-2318714D01*
X2754286Y-2337762D01*
X3097143Y-2413952D02*
X3116190Y-2423476D01*
X3154286Y-2423476D01*
X3173333Y-2413952D01*
X3182857Y-2394905D01*
X3182857Y-2385381D01*
X3173333Y-2366333D01*
X3154286Y-2356810D01*
X3125714Y-2356810D01*
X3106667Y-2347286D01*
X3097143Y-2328238D01*
X3097143Y-2318714D01*
X3106667Y-2299667D01*
X3125714Y-2290143D01*
X3154286Y-2290143D01*
X3173333Y-2299667D01*
X3297143Y-2423476D02*
X3278095Y-2413952D01*
X3268571Y-2394905D01*
X3268571Y-2223476D01*
X3401905Y-2423476D02*
X3382857Y-2413952D01*
X3373333Y-2404429D01*
X3363809Y-2385381D01*
X3363809Y-2328238D01*
X3373333Y-2309190D01*
X3382857Y-2299667D01*
X3401905Y-2290143D01*
X3430476Y-2290143D01*
X3449524Y-2299667D01*
X3459048Y-2309190D01*
X3468571Y-2328238D01*
X3468571Y-2385381D01*
X3459048Y-2404429D01*
X3449524Y-2413952D01*
X3430476Y-2423476D01*
X3401905Y-2423476D01*
X3525714Y-2290143D02*
X3601905Y-2290143D01*
X3554286Y-2223476D02*
X3554286Y-2394905D01*
X3563809Y-2413952D01*
X3582857Y-2423476D01*
X3601905Y-2423476D01*
X3659048Y-2413952D02*
X3678095Y-2423476D01*
X3716190Y-2423476D01*
X3735238Y-2413952D01*
X3744762Y-2394905D01*
X3744762Y-2385381D01*
X3735238Y-2366333D01*
X3716190Y-2356810D01*
X3687619Y-2356810D01*
X3668571Y-2347286D01*
X3659048Y-2328238D01*
X3659048Y-2318714D01*
X3668571Y-2299667D01*
X3687619Y-2290143D01*
X3716190Y-2290143D01*
X3735238Y-2299667D01*
X3811428Y-2499667D02*
X3820952Y-2490143D01*
X3840000Y-2461571D01*
X3849524Y-2442524D01*
X3859048Y-2413952D01*
X3868571Y-2366333D01*
X3868571Y-2328238D01*
X3859048Y-2280619D01*
X3849524Y-2252048D01*
X3840000Y-2233000D01*
X3820952Y-2204429D01*
X3811428Y-2194905D01*
X4173333Y-2499667D02*
X4163809Y-2490143D01*
X4144762Y-2461571D01*
X4135238Y-2442524D01*
X4125714Y-2413952D01*
X4116190Y-2366333D01*
X4116190Y-2328238D01*
X4125714Y-2280619D01*
X4135238Y-2252048D01*
X4144762Y-2233000D01*
X4163809Y-2204429D01*
X4173333Y-2194905D01*
X4249524Y-2290143D02*
X4249524Y-2423476D01*
X4249524Y-2309190D02*
X4259048Y-2299667D01*
X4278095Y-2290143D01*
X4306667Y-2290143D01*
X4325714Y-2299667D01*
X4335238Y-2318714D01*
X4335238Y-2423476D01*
X4459048Y-2423476D02*
X4440000Y-2413952D01*
X4430476Y-2404429D01*
X4420952Y-2385381D01*
X4420952Y-2328238D01*
X4430476Y-2309190D01*
X4440000Y-2299667D01*
X4459048Y-2290143D01*
X4487619Y-2290143D01*
X4506667Y-2299667D01*
X4516190Y-2309190D01*
X4525714Y-2328238D01*
X4525714Y-2385381D01*
X4516190Y-2404429D01*
X4506667Y-2413952D01*
X4487619Y-2423476D01*
X4459048Y-2423476D01*
X4582857Y-2290143D02*
X4659048Y-2290143D01*
X4611429Y-2223476D02*
X4611429Y-2394905D01*
X4620952Y-2413952D01*
X4640000Y-2423476D01*
X4659048Y-2423476D01*
X4878095Y-2290143D02*
X4878095Y-2490143D01*
X4878095Y-2299667D02*
X4897143Y-2290143D01*
X4935238Y-2290143D01*
X4954286Y-2299667D01*
X4963810Y-2309190D01*
X4973333Y-2328238D01*
X4973333Y-2385381D01*
X4963810Y-2404429D01*
X4954286Y-2413952D01*
X4935238Y-2423476D01*
X4897143Y-2423476D01*
X4878095Y-2413952D01*
X5087619Y-2423476D02*
X5068571Y-2413952D01*
X5059048Y-2394905D01*
X5059048Y-2223476D01*
X5249524Y-2423476D02*
X5249524Y-2318714D01*
X5240000Y-2299667D01*
X5220952Y-2290143D01*
X5182857Y-2290143D01*
X5163810Y-2299667D01*
X5249524Y-2413952D02*
X5230476Y-2423476D01*
X5182857Y-2423476D01*
X5163810Y-2413952D01*
X5154286Y-2394905D01*
X5154286Y-2375857D01*
X5163810Y-2356810D01*
X5182857Y-2347286D01*
X5230476Y-2347286D01*
X5249524Y-2337762D01*
X5316190Y-2290143D02*
X5392381Y-2290143D01*
X5344762Y-2223476D02*
X5344762Y-2394905D01*
X5354286Y-2413952D01*
X5373333Y-2423476D01*
X5392381Y-2423476D01*
X5535238Y-2413952D02*
X5516190Y-2423476D01*
X5478095Y-2423476D01*
X5459048Y-2413952D01*
X5449524Y-2394905D01*
X5449524Y-2318714D01*
X5459048Y-2299667D01*
X5478095Y-2290143D01*
X5516190Y-2290143D01*
X5535238Y-2299667D01*
X5544762Y-2318714D01*
X5544762Y-2337762D01*
X5449524Y-2356810D01*
X5716190Y-2423476D02*
X5716190Y-2223476D01*
X5716190Y-2413952D02*
X5697143Y-2423476D01*
X5659048Y-2423476D01*
X5640000Y-2413952D01*
X5630476Y-2404429D01*
X5620952Y-2385381D01*
X5620952Y-2328238D01*
X5630476Y-2309190D01*
X5640000Y-2299667D01*
X5659048Y-2290143D01*
X5697143Y-2290143D01*
X5716190Y-2299667D01*
X5792381Y-2499667D02*
X5801905Y-2490143D01*
X5820952Y-2461571D01*
X5830476Y-2442524D01*
X5840000Y-2413952D01*
X5849524Y-2366333D01*
X5849524Y-2328238D01*
X5840000Y-2280619D01*
X5830476Y-2252048D01*
X5820952Y-2233000D01*
X5801905Y-2204429D01*
X5792381Y-2194905D01*
X-2870000Y-2753000D02*
X-2770000Y-2653000D01*
X-2870000Y-2553000D01*
X-2970000Y-2653000D01*
X-2870000Y-2753000D01*
X-2426667Y-2610143D02*
X-2426667Y-2743476D01*
X-2474286Y-2533952D02*
X-2521905Y-2676810D01*
X-2398095Y-2676810D01*
X-2321905Y-2724429D02*
X-2312381Y-2733952D01*
X-2321905Y-2743476D01*
X-2331429Y-2733952D01*
X-2321905Y-2724429D01*
X-2321905Y-2743476D01*
X-2121905Y-2743476D02*
X-2236190Y-2743476D01*
X-2179048Y-2743476D02*
X-2179048Y-2543476D01*
X-2198095Y-2572048D01*
X-2217143Y-2591095D01*
X-2236190Y-2600619D01*
X-1998095Y-2543476D02*
X-1979048Y-2543476D01*
X-1960000Y-2553000D01*
X-1950476Y-2562524D01*
X-1940952Y-2581571D01*
X-1931428Y-2619667D01*
X-1931428Y-2667286D01*
X-1940952Y-2705381D01*
X-1950476Y-2724429D01*
X-1960000Y-2733952D01*
X-1979048Y-2743476D01*
X-1998095Y-2743476D01*
X-2017143Y-2733952D01*
X-2026667Y-2724429D01*
X-2036190Y-2705381D01*
X-2045714Y-2667286D01*
X-2045714Y-2619667D01*
X-2036190Y-2581571D01*
X-2026667Y-2562524D01*
X-2017143Y-2553000D01*
X-1998095Y-2543476D01*
X-1807619Y-2543476D02*
X-1788571Y-2543476D01*
X-1769524Y-2553000D01*
X-1760000Y-2562524D01*
X-1750476Y-2581571D01*
X-1740952Y-2619667D01*
X-1740952Y-2667286D01*
X-1750476Y-2705381D01*
X-1760000Y-2724429D01*
X-1769524Y-2733952D01*
X-1788571Y-2743476D01*
X-1807619Y-2743476D01*
X-1826667Y-2733952D01*
X-1836190Y-2724429D01*
X-1845714Y-2705381D01*
X-1855238Y-2667286D01*
X-1855238Y-2619667D01*
X-1845714Y-2581571D01*
X-1836190Y-2562524D01*
X-1826667Y-2553000D01*
X-1807619Y-2543476D01*
X-1655238Y-2743476D02*
X-1655238Y-2610143D01*
X-1655238Y-2629190D02*
X-1645714Y-2619667D01*
X-1626667Y-2610143D01*
X-1598095Y-2610143D01*
X-1579048Y-2619667D01*
X-1569524Y-2638714D01*
X-1569524Y-2743476D01*
X-1569524Y-2638714D02*
X-1560000Y-2619667D01*
X-1540952Y-2610143D01*
X-1512381Y-2610143D01*
X-1493333Y-2619667D01*
X-1483809Y-2638714D01*
X-1483809Y-2743476D01*
X-1388571Y-2743476D02*
X-1388571Y-2610143D01*
X-1388571Y-2629190D02*
X-1379048Y-2619667D01*
X-1360000Y-2610143D01*
X-1331429Y-2610143D01*
X-1312381Y-2619667D01*
X-1302857Y-2638714D01*
X-1302857Y-2743476D01*
X-1302857Y-2638714D02*
X-1293333Y-2619667D01*
X-1274286Y-2610143D01*
X-1245714Y-2610143D01*
X-1226667Y-2619667D01*
X-1217143Y-2638714D01*
X-1217143Y-2743476D01*
X-826667Y-2533952D02*
X-998095Y-2791095D01*
X-569524Y-2543476D02*
X-550476Y-2543476D01*
X-531429Y-2553000D01*
X-521905Y-2562524D01*
X-512381Y-2581571D01*
X-502857Y-2619667D01*
X-502857Y-2667286D01*
X-512381Y-2705381D01*
X-521905Y-2724429D01*
X-531429Y-2733952D01*
X-550476Y-2743476D01*
X-569524Y-2743476D01*
X-588571Y-2733952D01*
X-598095Y-2724429D01*
X-607619Y-2705381D01*
X-617143Y-2667286D01*
X-617143Y-2619667D01*
X-607619Y-2581571D01*
X-598095Y-2562524D01*
X-588571Y-2553000D01*
X-569524Y-2543476D01*
X-417143Y-2724429D02*
X-407619Y-2733952D01*
X-417143Y-2743476D01*
X-426667Y-2733952D01*
X-417143Y-2724429D01*
X-417143Y-2743476D01*
X-217143Y-2743476D02*
X-331429Y-2743476D01*
X-274286Y-2743476D02*
X-274286Y-2543476D01*
X-293333Y-2572048D01*
X-312381Y-2591095D01*
X-331429Y-2600619D01*
X-45714Y-2543476D02*
X-83810Y-2543476D01*
X-102857Y-2553000D01*
X-112381Y-2562524D01*
X-131429Y-2591095D01*
X-140952Y-2629190D01*
X-140952Y-2705381D01*
X-131429Y-2724429D01*
X-121905Y-2733952D01*
X-102857Y-2743476D01*
X-64762Y-2743476D01*
X-45714Y-2733952D01*
X-36190Y-2724429D01*
X-26667Y-2705381D01*
X-26667Y-2657762D01*
X-36190Y-2638714D01*
X-45714Y-2629190D01*
X-64762Y-2619667D01*
X-102857Y-2619667D01*
X-121905Y-2629190D01*
X-131429Y-2638714D01*
X-140952Y-2657762D01*
X163810Y-2743476D02*
X49524Y-2743476D01*
X106667Y-2743476D02*
X106667Y-2543476D01*
X87619Y-2572048D01*
X68571Y-2591095D01*
X49524Y-2600619D01*
X335238Y-2610143D02*
X335238Y-2743476D01*
X287619Y-2533952D02*
X240000Y-2676810D01*
X363809Y-2676810D01*
X430476Y-2543476D02*
X430476Y-2581571D01*
X506667Y-2543476D02*
X506667Y-2581571D01*
X801905Y-2819667D02*
X792381Y-2810143D01*
X773333Y-2781571D01*
X763809Y-2762524D01*
X754286Y-2733952D01*
X744762Y-2686333D01*
X744762Y-2648238D01*
X754286Y-2600619D01*
X763809Y-2572048D01*
X773333Y-2553000D01*
X792381Y-2524429D01*
X801905Y-2514905D01*
X916190Y-2543476D02*
X935238Y-2543476D01*
X954286Y-2553000D01*
X963809Y-2562524D01*
X973333Y-2581571D01*
X982857Y-2619667D01*
X982857Y-2667286D01*
X973333Y-2705381D01*
X963809Y-2724429D01*
X954286Y-2733952D01*
X935238Y-2743476D01*
X916190Y-2743476D01*
X897143Y-2733952D01*
X887619Y-2724429D01*
X878095Y-2705381D01*
X868571Y-2667286D01*
X868571Y-2619667D01*
X878095Y-2581571D01*
X887619Y-2562524D01*
X897143Y-2553000D01*
X916190Y-2543476D01*
X1220952Y-2743476D02*
X1220952Y-2543476D01*
X1306667Y-2743476D02*
X1306667Y-2638714D01*
X1297143Y-2619667D01*
X1278095Y-2610143D01*
X1249524Y-2610143D01*
X1230476Y-2619667D01*
X1220952Y-2629190D01*
X1430476Y-2743476D02*
X1411428Y-2733952D01*
X1401905Y-2724429D01*
X1392381Y-2705381D01*
X1392381Y-2648238D01*
X1401905Y-2629190D01*
X1411428Y-2619667D01*
X1430476Y-2610143D01*
X1459048Y-2610143D01*
X1478095Y-2619667D01*
X1487619Y-2629190D01*
X1497143Y-2648238D01*
X1497143Y-2705381D01*
X1487619Y-2724429D01*
X1478095Y-2733952D01*
X1459048Y-2743476D01*
X1430476Y-2743476D01*
X1611428Y-2743476D02*
X1592381Y-2733952D01*
X1582857Y-2714905D01*
X1582857Y-2543476D01*
X1763809Y-2733952D02*
X1744762Y-2743476D01*
X1706667Y-2743476D01*
X1687619Y-2733952D01*
X1678095Y-2714905D01*
X1678095Y-2638714D01*
X1687619Y-2619667D01*
X1706667Y-2610143D01*
X1744762Y-2610143D01*
X1763809Y-2619667D01*
X1773333Y-2638714D01*
X1773333Y-2657762D01*
X1678095Y-2676810D01*
X1849524Y-2733952D02*
X1868571Y-2743476D01*
X1906667Y-2743476D01*
X1925714Y-2733952D01*
X1935238Y-2714905D01*
X1935238Y-2705381D01*
X1925714Y-2686333D01*
X1906667Y-2676810D01*
X1878095Y-2676810D01*
X1859048Y-2667286D01*
X1849524Y-2648238D01*
X1849524Y-2638714D01*
X1859048Y-2619667D01*
X1878095Y-2610143D01*
X1906667Y-2610143D01*
X1925714Y-2619667D01*
X2173333Y-2667286D02*
X2325714Y-2667286D01*
X2249524Y-2743476D02*
X2249524Y-2591095D01*
X2659048Y-2610143D02*
X2659048Y-2743476D01*
X2611429Y-2533952D02*
X2563810Y-2676810D01*
X2687619Y-2676810D01*
X2792381Y-2629190D02*
X2773333Y-2619667D01*
X2763810Y-2610143D01*
X2754286Y-2591095D01*
X2754286Y-2581571D01*
X2763810Y-2562524D01*
X2773333Y-2553000D01*
X2792381Y-2543476D01*
X2830476Y-2543476D01*
X2849524Y-2553000D01*
X2859048Y-2562524D01*
X2868571Y-2581571D01*
X2868571Y-2591095D01*
X2859048Y-2610143D01*
X2849524Y-2619667D01*
X2830476Y-2629190D01*
X2792381Y-2629190D01*
X2773333Y-2638714D01*
X2763810Y-2648238D01*
X2754286Y-2667286D01*
X2754286Y-2705381D01*
X2763810Y-2724429D01*
X2773333Y-2733952D01*
X2792381Y-2743476D01*
X2830476Y-2743476D01*
X2849524Y-2733952D01*
X2859048Y-2724429D01*
X2868571Y-2705381D01*
X2868571Y-2667286D01*
X2859048Y-2648238D01*
X2849524Y-2638714D01*
X2830476Y-2629190D01*
X3097143Y-2733952D02*
X3116190Y-2743476D01*
X3154286Y-2743476D01*
X3173333Y-2733952D01*
X3182857Y-2714905D01*
X3182857Y-2705381D01*
X3173333Y-2686333D01*
X3154286Y-2676810D01*
X3125714Y-2676810D01*
X3106667Y-2667286D01*
X3097143Y-2648238D01*
X3097143Y-2638714D01*
X3106667Y-2619667D01*
X3125714Y-2610143D01*
X3154286Y-2610143D01*
X3173333Y-2619667D01*
X3297143Y-2743476D02*
X3278095Y-2733952D01*
X3268571Y-2714905D01*
X3268571Y-2543476D01*
X3401905Y-2743476D02*
X3382857Y-2733952D01*
X3373333Y-2724429D01*
X3363809Y-2705381D01*
X3363809Y-2648238D01*
X3373333Y-2629190D01*
X3382857Y-2619667D01*
X3401905Y-2610143D01*
X3430476Y-2610143D01*
X3449524Y-2619667D01*
X3459048Y-2629190D01*
X3468571Y-2648238D01*
X3468571Y-2705381D01*
X3459048Y-2724429D01*
X3449524Y-2733952D01*
X3430476Y-2743476D01*
X3401905Y-2743476D01*
X3525714Y-2610143D02*
X3601905Y-2610143D01*
X3554286Y-2543476D02*
X3554286Y-2714905D01*
X3563809Y-2733952D01*
X3582857Y-2743476D01*
X3601905Y-2743476D01*
X3659048Y-2733952D02*
X3678095Y-2743476D01*
X3716190Y-2743476D01*
X3735238Y-2733952D01*
X3744762Y-2714905D01*
X3744762Y-2705381D01*
X3735238Y-2686333D01*
X3716190Y-2676810D01*
X3687619Y-2676810D01*
X3668571Y-2667286D01*
X3659048Y-2648238D01*
X3659048Y-2638714D01*
X3668571Y-2619667D01*
X3687619Y-2610143D01*
X3716190Y-2610143D01*
X3735238Y-2619667D01*
X3811428Y-2819667D02*
X3820952Y-2810143D01*
X3840000Y-2781571D01*
X3849524Y-2762524D01*
X3859048Y-2733952D01*
X3868571Y-2686333D01*
X3868571Y-2648238D01*
X3859048Y-2600619D01*
X3849524Y-2572048D01*
X3840000Y-2553000D01*
X3820952Y-2524429D01*
X3811428Y-2514905D01*
X4173333Y-2819667D02*
X4163809Y-2810143D01*
X4144762Y-2781571D01*
X4135238Y-2762524D01*
X4125714Y-2733952D01*
X4116190Y-2686333D01*
X4116190Y-2648238D01*
X4125714Y-2600619D01*
X4135238Y-2572048D01*
X4144762Y-2553000D01*
X4163809Y-2524429D01*
X4173333Y-2514905D01*
X4249524Y-2610143D02*
X4249524Y-2743476D01*
X4249524Y-2629190D02*
X4259048Y-2619667D01*
X4278095Y-2610143D01*
X4306667Y-2610143D01*
X4325714Y-2619667D01*
X4335238Y-2638714D01*
X4335238Y-2743476D01*
X4459048Y-2743476D02*
X4440000Y-2733952D01*
X4430476Y-2724429D01*
X4420952Y-2705381D01*
X4420952Y-2648238D01*
X4430476Y-2629190D01*
X4440000Y-2619667D01*
X4459048Y-2610143D01*
X4487619Y-2610143D01*
X4506667Y-2619667D01*
X4516190Y-2629190D01*
X4525714Y-2648238D01*
X4525714Y-2705381D01*
X4516190Y-2724429D01*
X4506667Y-2733952D01*
X4487619Y-2743476D01*
X4459048Y-2743476D01*
X4582857Y-2610143D02*
X4659048Y-2610143D01*
X4611429Y-2543476D02*
X4611429Y-2714905D01*
X4620952Y-2733952D01*
X4640000Y-2743476D01*
X4659048Y-2743476D01*
X4878095Y-2610143D02*
X4878095Y-2810143D01*
X4878095Y-2619667D02*
X4897143Y-2610143D01*
X4935238Y-2610143D01*
X4954286Y-2619667D01*
X4963810Y-2629190D01*
X4973333Y-2648238D01*
X4973333Y-2705381D01*
X4963810Y-2724429D01*
X4954286Y-2733952D01*
X4935238Y-2743476D01*
X4897143Y-2743476D01*
X4878095Y-2733952D01*
X5087619Y-2743476D02*
X5068571Y-2733952D01*
X5059048Y-2714905D01*
X5059048Y-2543476D01*
X5249524Y-2743476D02*
X5249524Y-2638714D01*
X5240000Y-2619667D01*
X5220952Y-2610143D01*
X5182857Y-2610143D01*
X5163810Y-2619667D01*
X5249524Y-2733952D02*
X5230476Y-2743476D01*
X5182857Y-2743476D01*
X5163810Y-2733952D01*
X5154286Y-2714905D01*
X5154286Y-2695857D01*
X5163810Y-2676810D01*
X5182857Y-2667286D01*
X5230476Y-2667286D01*
X5249524Y-2657762D01*
X5316190Y-2610143D02*
X5392381Y-2610143D01*
X5344762Y-2543476D02*
X5344762Y-2714905D01*
X5354286Y-2733952D01*
X5373333Y-2743476D01*
X5392381Y-2743476D01*
X5535238Y-2733952D02*
X5516190Y-2743476D01*
X5478095Y-2743476D01*
X5459048Y-2733952D01*
X5449524Y-2714905D01*
X5449524Y-2638714D01*
X5459048Y-2619667D01*
X5478095Y-2610143D01*
X5516190Y-2610143D01*
X5535238Y-2619667D01*
X5544762Y-2638714D01*
X5544762Y-2657762D01*
X5449524Y-2676810D01*
X5716190Y-2743476D02*
X5716190Y-2543476D01*
X5716190Y-2733952D02*
X5697143Y-2743476D01*
X5659048Y-2743476D01*
X5640000Y-2733952D01*
X5630476Y-2724429D01*
X5620952Y-2705381D01*
X5620952Y-2648238D01*
X5630476Y-2629190D01*
X5640000Y-2619667D01*
X5659048Y-2610143D01*
X5697143Y-2610143D01*
X5716190Y-2619667D01*
X5792381Y-2819667D02*
X5801905Y-2810143D01*
X5820952Y-2781571D01*
X5830476Y-2762524D01*
X5840000Y-2733952D01*
X5849524Y-2686333D01*
X5849524Y-2648238D01*
X5840000Y-2600619D01*
X5830476Y-2572048D01*
X5820952Y-2553000D01*
X5801905Y-2524429D01*
X5792381Y-2514905D01*
M02*
