M48
; DRILL file {KiCad (6.0.10)} date Sun Jan 29 20:47:38 2023
; FORMAT={-:-/ absolute / inch / decimal}
; #@! TF.CreationDate,2023-01-29T20:47:38-05:00
; #@! TF.GenerationSoftware,Kicad,Pcbnew,(6.0.10)
; #@! TF.FileFunction,NonPlated,1,2,NPTH
FMAT,2
INCH
; #@! TA.AperFunction,NonPlated,NPTH,ComponentDrill
T1C0.0118
; #@! TA.AperFunction,NonPlated,NPTH,ComponentDrill
T2C0.0512
; #@! TA.AperFunction,NonPlated,NPTH,ComponentDrill
T3C0.0591
; #@! TA.AperFunction,NonPlated,NPTH,ComponentDrill
T4C0.0787
; #@! TA.AperFunction,NonPlated,NPTH,ComponentDrill
T5C0.1614
%
G90
G05
T2
X-0.2165Y2.3125
X-0.2165Y1.6137
X-0.2165Y0.9149
X-0.2165Y0.216
X-0.2165Y1.8799
X-0.2165Y1.1811
X-0.2165Y0.4823
X-0.2165Y-0.2165
X0.2165Y1.8794
X0.2165Y1.1806
X0.2165Y0.4818
X0.2165Y-0.217
X0.2165Y2.313
X0.2165Y1.6142
X0.2165Y0.9154
X0.2165Y0.2165
X0.4823Y2.3125
X0.4823Y1.6137
X0.4823Y0.9149
X0.4823Y0.216
X0.4823Y1.8799
X0.4823Y1.1811
X0.4823Y0.4823
X0.4823Y-0.2165
X0.9154Y1.8794
X0.9154Y1.1806
X0.9154Y0.4818
X0.9154Y-0.217
X0.9154Y2.313
X0.9154Y1.6142
X0.9154Y0.9154
X0.9154Y0.2165
X1.1811Y2.3125
X1.1811Y1.6137
X1.1811Y0.9149
X1.1811Y0.216
X1.1811Y1.8799
X1.1811Y1.1811
X1.1811Y0.4823
X1.1811Y-0.2165
X1.6142Y1.8794
X1.6142Y1.1806
X1.6142Y0.4818
X1.6142Y-0.217
X1.6142Y2.313
X1.6142Y1.6142
X1.6142Y0.9154
X1.6142Y0.2165
X1.8799Y2.3125
X1.8799Y1.6137
X1.8799Y0.9149
X1.8799Y0.216
X1.8799Y1.8799
X1.8799Y1.1811
X1.8799Y0.4823
X1.8799Y-0.2165
X2.313Y1.8794
X2.313Y1.1806
X2.313Y0.4818
X2.313Y-0.217
X2.313Y2.313
X2.313Y1.6142
X2.313Y0.9154
X2.313Y0.2165
X2.5787Y2.3125
X2.5787Y1.6137
X2.5787Y0.9149
X2.5787Y0.216
X2.5787Y1.8799
X2.5787Y1.1811
X2.5787Y0.4823
X2.5787Y-0.2165
X3.0118Y1.8794
X3.0118Y1.1806
X3.0118Y0.4818
X3.0118Y-0.217
X3.0118Y2.313
X3.0118Y1.6142
X3.0118Y0.9154
X3.0118Y0.2165
X3.2776Y2.3125
X3.2776Y1.6137
X3.2776Y0.9149
X3.2776Y0.216
X3.2776Y1.8799
X3.2776Y1.1811
X3.2776Y0.4823
X3.2776Y-0.2165
X3.7106Y1.8794
X3.7106Y1.1806
X3.7106Y0.4818
X3.7106Y-0.217
X3.7106Y2.313
X3.7106Y1.6142
X3.7106Y0.9154
X3.7106Y0.2165
T3
X-1.0244Y0.887
X-0.7488Y0.887
T1
G00X-0.0945Y2.1358
M15
G01X-0.0945Y1.9862
M16
G05
G00X-0.0945Y2.1353
M15
G01X-0.0945Y1.9857
M16
G05
G00X-0.0945Y1.437
M15
G01X-0.0945Y1.2874
M16
G05
G00X-0.0945Y1.4365
M15
G01X-0.0945Y1.2869
M16
G05
G00X-0.0945Y0.7382
M15
G01X-0.0945Y0.5886
M16
G05
G00X-0.0945Y0.7377
M15
G01X-0.0945Y0.5881
M16
G05
G00X-0.0945Y0.0394
M15
G01X-0.0945Y-0.1102
M16
G05
G00X-0.0945Y0.0389
M15
G01X-0.0945Y-0.1107
M16
G05
G00X-0.0945Y2.1358
M15
G01X0.0945Y2.1358
M16
G05
G00X-0.0945Y2.1353
M15
G01X0.0945Y2.1353
M16
G05
G00X-0.0945Y1.9862
M15
G01X0.0945Y1.9862
M16
G05
G00X-0.0945Y1.9857
M15
G01X0.0945Y1.9857
M16
G05
G00X-0.0945Y1.437
M15
G01X0.0945Y1.437
M16
G05
G00X-0.0945Y1.4365
M15
G01X0.0945Y1.4365
M16
G05
G00X-0.0945Y1.2874
M15
G01X0.0945Y1.2874
M16
G05
G00X-0.0945Y1.2869
M15
G01X0.0945Y1.2869
M16
G05
G00X-0.0945Y0.7382
M15
G01X0.0945Y0.7382
M16
G05
G00X-0.0945Y0.7377
M15
G01X0.0945Y0.7377
M16
G05
G00X-0.0945Y0.5886
M15
G01X0.0945Y0.5886
M16
G05
G00X-0.0945Y0.5881
M15
G01X0.0945Y0.5881
M16
G05
G00X-0.0945Y0.0394
M15
G01X0.0945Y0.0394
M16
G05
G00X-0.0945Y0.0389
M15
G01X0.0945Y0.0389
M16
G05
G00X-0.0945Y-0.1102
M15
G01X0.0945Y-0.1102
M16
G05
G00X-0.0945Y-0.1107
M15
G01X0.0945Y-0.1107
M16
G05
G00X0.0945Y2.1358
M15
G01X0.0945Y1.9862
M16
G05
G00X0.0945Y2.1353
M15
G01X0.0945Y1.9857
M16
G05
G00X0.0945Y1.437
M15
G01X0.0945Y1.2874
M16
G05
G00X0.0945Y1.4365
M15
G01X0.0945Y1.2869
M16
G05
G00X0.0945Y0.7382
M15
G01X0.0945Y0.5886
M16
G05
G00X0.0945Y0.7377
M15
G01X0.0945Y0.5881
M16
G05
G00X0.0945Y0.0394
M15
G01X0.0945Y-0.1102
M16
G05
G00X0.0945Y0.0389
M15
G01X0.0945Y-0.1107
M16
G05
G00X0.6043Y2.1358
M15
G01X0.6043Y1.9862
M16
G05
G00X0.6043Y2.1353
M15
G01X0.6043Y1.9857
M16
G05
G00X0.6043Y1.437
M15
G01X0.6043Y1.2874
M16
G05
G00X0.6043Y1.4365
M15
G01X0.6043Y1.2869
M16
G05
G00X0.6043Y0.7382
M15
G01X0.6043Y0.5886
M16
G05
G00X0.6043Y0.7377
M15
G01X0.6043Y0.5881
M16
G05
G00X0.6043Y0.0394
M15
G01X0.6043Y-0.1102
M16
G05
G00X0.6043Y0.0389
M15
G01X0.6043Y-0.1107
M16
G05
G00X0.6043Y2.1358
M15
G01X0.7933Y2.1358
M16
G05
G00X0.6043Y2.1353
M15
G01X0.7933Y2.1353
M16
G05
G00X0.6043Y1.9862
M15
G01X0.7933Y1.9862
M16
G05
G00X0.6043Y1.9857
M15
G01X0.7933Y1.9857
M16
G05
G00X0.6043Y1.437
M15
G01X0.7933Y1.437
M16
G05
G00X0.6043Y1.4365
M15
G01X0.7933Y1.4365
M16
G05
G00X0.6043Y1.2874
M15
G01X0.7933Y1.2874
M16
G05
G00X0.6043Y1.2869
M15
G01X0.7933Y1.2869
M16
G05
G00X0.6043Y0.7382
M15
G01X0.7933Y0.7382
M16
G05
G00X0.6043Y0.7377
M15
G01X0.7933Y0.7377
M16
G05
G00X0.6043Y0.5886
M15
G01X0.7933Y0.5886
M16
G05
G00X0.6043Y0.5881
M15
G01X0.7933Y0.5881
M16
G05
G00X0.6043Y0.0394
M15
G01X0.7933Y0.0394
M16
G05
G00X0.6043Y0.0389
M15
G01X0.7933Y0.0389
M16
G05
G00X0.6043Y-0.1102
M15
G01X0.7933Y-0.1102
M16
G05
G00X0.6043Y-0.1107
M15
G01X0.7933Y-0.1107
M16
G05
G00X0.7933Y2.1358
M15
G01X0.7933Y1.9862
M16
G05
G00X0.7933Y2.1353
M15
G01X0.7933Y1.9857
M16
G05
G00X0.7933Y1.437
M15
G01X0.7933Y1.2874
M16
G05
G00X0.7933Y1.4365
M15
G01X0.7933Y1.2869
M16
G05
G00X0.7933Y0.7382
M15
G01X0.7933Y0.5886
M16
G05
G00X0.7933Y0.7377
M15
G01X0.7933Y0.5881
M16
G05
G00X0.7933Y0.0394
M15
G01X0.7933Y-0.1102
M16
G05
G00X0.7933Y0.0389
M15
G01X0.7933Y-0.1107
M16
G05
G00X1.3031Y2.1358
M15
G01X1.3031Y1.9862
M16
G05
G00X1.3031Y2.1353
M15
G01X1.3031Y1.9857
M16
G05
G00X1.3031Y1.437
M15
G01X1.3031Y1.2874
M16
G05
G00X1.3031Y1.4365
M15
G01X1.3031Y1.2869
M16
G05
G00X1.3031Y0.7382
M15
G01X1.3031Y0.5886
M16
G05
G00X1.3031Y0.7377
M15
G01X1.3031Y0.5881
M16
G05
G00X1.3031Y0.0394
M15
G01X1.3031Y-0.1102
M16
G05
G00X1.3031Y0.0389
M15
G01X1.3031Y-0.1107
M16
G05
G00X1.3031Y2.1358
M15
G01X1.4921Y2.1358
M16
G05
G00X1.3031Y2.1353
M15
G01X1.4921Y2.1353
M16
G05
G00X1.3031Y1.9862
M15
G01X1.4921Y1.9862
M16
G05
G00X1.3031Y1.9857
M15
G01X1.4921Y1.9857
M16
G05
G00X1.3031Y1.437
M15
G01X1.4921Y1.437
M16
G05
G00X1.3031Y1.4365
M15
G01X1.4921Y1.4365
M16
G05
G00X1.3031Y1.2874
M15
G01X1.4921Y1.2874
M16
G05
G00X1.3031Y1.2869
M15
G01X1.4921Y1.2869
M16
G05
G00X1.3031Y0.7382
M15
G01X1.4921Y0.7382
M16
G05
G00X1.3031Y0.7377
M15
G01X1.4921Y0.7377
M16
G05
G00X1.3031Y0.5886
M15
G01X1.4921Y0.5886
M16
G05
G00X1.3031Y0.5881
M15
G01X1.4921Y0.5881
M16
G05
G00X1.3031Y0.0394
M15
G01X1.4921Y0.0394
M16
G05
G00X1.3031Y0.0389
M15
G01X1.4921Y0.0389
M16
G05
G00X1.3031Y-0.1102
M15
G01X1.4921Y-0.1102
M16
G05
G00X1.3031Y-0.1107
M15
G01X1.4921Y-0.1107
M16
G05
G00X1.4921Y2.1358
M15
G01X1.4921Y1.9862
M16
G05
G00X1.4921Y2.1353
M15
G01X1.4921Y1.9857
M16
G05
G00X1.4921Y1.437
M15
G01X1.4921Y1.2874
M16
G05
G00X1.4921Y1.4365
M15
G01X1.4921Y1.2869
M16
G05
G00X1.4921Y0.7382
M15
G01X1.4921Y0.5886
M16
G05
G00X1.4921Y0.7377
M15
G01X1.4921Y0.5881
M16
G05
G00X1.4921Y0.0394
M15
G01X1.4921Y-0.1102
M16
G05
G00X1.4921Y0.0389
M15
G01X1.4921Y-0.1107
M16
G05
G00X2.002Y2.1358
M15
G01X2.002Y1.9862
M16
G05
G00X2.002Y2.1353
M15
G01X2.002Y1.9857
M16
G05
G00X2.002Y1.437
M15
G01X2.002Y1.2874
M16
G05
G00X2.002Y1.4365
M15
G01X2.002Y1.2869
M16
G05
G00X2.002Y0.7382
M15
G01X2.002Y0.5886
M16
G05
G00X2.002Y0.7377
M15
G01X2.002Y0.5881
M16
G05
G00X2.002Y0.0394
M15
G01X2.002Y-0.1102
M16
G05
G00X2.002Y0.0389
M15
G01X2.002Y-0.1107
M16
G05
G00X2.002Y2.1358
M15
G01X2.1909Y2.1358
M16
G05
G00X2.002Y2.1353
M15
G01X2.1909Y2.1353
M16
G05
G00X2.002Y1.9862
M15
G01X2.1909Y1.9862
M16
G05
G00X2.002Y1.9857
M15
G01X2.1909Y1.9857
M16
G05
G00X2.002Y1.437
M15
G01X2.1909Y1.437
M16
G05
G00X2.002Y1.4365
M15
G01X2.1909Y1.4365
M16
G05
G00X2.002Y1.2874
M15
G01X2.1909Y1.2874
M16
G05
G00X2.002Y1.2869
M15
G01X2.1909Y1.2869
M16
G05
G00X2.002Y0.7382
M15
G01X2.1909Y0.7382
M16
G05
G00X2.002Y0.7377
M15
G01X2.1909Y0.7377
M16
G05
G00X2.002Y0.5886
M15
G01X2.1909Y0.5886
M16
G05
G00X2.002Y0.5881
M15
G01X2.1909Y0.5881
M16
G05
G00X2.002Y0.0394
M15
G01X2.1909Y0.0394
M16
G05
G00X2.002Y0.0389
M15
G01X2.1909Y0.0389
M16
G05
G00X2.002Y-0.1102
M15
G01X2.1909Y-0.1102
M16
G05
G00X2.002Y-0.1107
M15
G01X2.1909Y-0.1107
M16
G05
G00X2.1909Y2.1358
M15
G01X2.1909Y1.9862
M16
G05
G00X2.1909Y2.1353
M15
G01X2.1909Y1.9857
M16
G05
G00X2.1909Y1.437
M15
G01X2.1909Y1.2874
M16
G05
G00X2.1909Y1.4365
M15
G01X2.1909Y1.2869
M16
G05
G00X2.1909Y0.7382
M15
G01X2.1909Y0.5886
M16
G05
G00X2.1909Y0.7377
M15
G01X2.1909Y0.5881
M16
G05
G00X2.1909Y0.0394
M15
G01X2.1909Y-0.1102
M16
G05
G00X2.1909Y0.0389
M15
G01X2.1909Y-0.1107
M16
G05
G00X2.7008Y2.1358
M15
G01X2.7008Y1.9862
M16
G05
G00X2.7008Y2.1353
M15
G01X2.7008Y1.9857
M16
G05
G00X2.7008Y1.437
M15
G01X2.7008Y1.2874
M16
G05
G00X2.7008Y1.4365
M15
G01X2.7008Y1.2869
M16
G05
G00X2.7008Y0.7382
M15
G01X2.7008Y0.5886
M16
G05
G00X2.7008Y0.7377
M15
G01X2.7008Y0.5881
M16
G05
G00X2.7008Y0.0394
M15
G01X2.7008Y-0.1102
M16
G05
G00X2.7008Y0.0389
M15
G01X2.7008Y-0.1107
M16
G05
G00X2.7008Y2.1358
M15
G01X2.8898Y2.1358
M16
G05
G00X2.7008Y2.1353
M15
G01X2.8898Y2.1353
M16
G05
G00X2.7008Y1.9862
M15
G01X2.8898Y1.9862
M16
G05
G00X2.7008Y1.9857
M15
G01X2.8898Y1.9857
M16
G05
G00X2.7008Y1.437
M15
G01X2.8898Y1.437
M16
G05
G00X2.7008Y1.4365
M15
G01X2.8898Y1.4365
M16
G05
G00X2.7008Y1.2874
M15
G01X2.8898Y1.2874
M16
G05
G00X2.7008Y1.2869
M15
G01X2.8898Y1.2869
M16
G05
G00X2.7008Y0.7382
M15
G01X2.8898Y0.7382
M16
G05
G00X2.7008Y0.7377
M15
G01X2.8898Y0.7377
M16
G05
G00X2.7008Y0.5886
M15
G01X2.8898Y0.5886
M16
G05
G00X2.7008Y0.5881
M15
G01X2.8898Y0.5881
M16
G05
G00X2.7008Y0.0394
M15
G01X2.8898Y0.0394
M16
G05
G00X2.7008Y0.0389
M15
G01X2.8898Y0.0389
M16
G05
G00X2.7008Y-0.1102
M15
G01X2.8898Y-0.1102
M16
G05
G00X2.7008Y-0.1107
M15
G01X2.8898Y-0.1107
M16
G05
G00X2.8898Y2.1358
M15
G01X2.8898Y1.9862
M16
G05
G00X2.8898Y2.1353
M15
G01X2.8898Y1.9857
M16
G05
G00X2.8898Y1.437
M15
G01X2.8898Y1.2874
M16
G05
G00X2.8898Y1.4365
M15
G01X2.8898Y1.2869
M16
G05
G00X2.8898Y0.7382
M15
G01X2.8898Y0.5886
M16
G05
G00X2.8898Y0.7377
M15
G01X2.8898Y0.5881
M16
G05
G00X2.8898Y0.0394
M15
G01X2.8898Y-0.1102
M16
G05
G00X2.8898Y0.0389
M15
G01X2.8898Y-0.1107
M16
G05
G00X3.3996Y2.1358
M15
G01X3.3996Y1.9862
M16
G05
G00X3.3996Y2.1353
M15
G01X3.3996Y1.9857
M16
G05
G00X3.3996Y1.437
M15
G01X3.3996Y1.2874
M16
G05
G00X3.3996Y1.4365
M15
G01X3.3996Y1.2869
M16
G05
G00X3.3996Y0.7382
M15
G01X3.3996Y0.5886
M16
G05
G00X3.3996Y0.7377
M15
G01X3.3996Y0.5881
M16
G05
G00X3.3996Y0.0394
M15
G01X3.3996Y-0.1102
M16
G05
G00X3.3996Y0.0389
M15
G01X3.3996Y-0.1107
M16
G05
G00X3.3996Y2.1358
M15
G01X3.5886Y2.1358
M16
G05
G00X3.3996Y2.1353
M15
G01X3.5886Y2.1353
M16
G05
G00X3.3996Y1.9862
M15
G01X3.5886Y1.9862
M16
G05
G00X3.3996Y1.9857
M15
G01X3.5886Y1.9857
M16
G05
G00X3.3996Y1.437
M15
G01X3.5886Y1.437
M16
G05
G00X3.3996Y1.4365
M15
G01X3.5886Y1.4365
M16
G05
G00X3.3996Y1.2874
M15
G01X3.5886Y1.2874
M16
G05
G00X3.3996Y1.2869
M15
G01X3.5886Y1.2869
M16
G05
G00X3.3996Y0.7382
M15
G01X3.5886Y0.7382
M16
G05
G00X3.3996Y0.7377
M15
G01X3.5886Y0.7377
M16
G05
G00X3.3996Y0.5886
M15
G01X3.5886Y0.5886
M16
G05
G00X3.3996Y0.5881
M15
G01X3.5886Y0.5881
M16
G05
G00X3.3996Y0.0394
M15
G01X3.5886Y0.0394
M16
G05
G00X3.3996Y0.0389
M15
G01X3.5886Y0.0389
M16
G05
G00X3.3996Y-0.1102
M15
G01X3.5886Y-0.1102
M16
G05
G00X3.3996Y-0.1107
M15
G01X3.5886Y-0.1107
M16
G05
G00X3.5886Y2.1358
M15
G01X3.5886Y1.9862
M16
G05
G00X3.5886Y2.1353
M15
G01X3.5886Y1.9857
M16
G05
G00X3.5886Y1.437
M15
G01X3.5886Y1.2874
M16
G05
G00X3.5886Y1.4365
M15
G01X3.5886Y1.2869
M16
G05
G00X3.5886Y0.7382
M15
G01X3.5886Y0.5886
M16
G05
G00X3.5886Y0.7377
M15
G01X3.5886Y0.5881
M16
G05
G00X3.5886Y0.0394
M15
G01X3.5886Y-0.1102
M16
G05
G00X3.5886Y0.0389
M15
G01X3.5886Y-0.1107
M16
G05
T4
G00X-0.061Y2.1024
M15
G01X-0.061Y2.0197
M16
G05
G00X-0.061Y2.1019
M15
G01X-0.061Y2.0192
M16
G05
G00X-0.061Y1.4035
M15
G01X-0.061Y1.3209
M16
G05
G00X-0.061Y1.4031
M15
G01X-0.061Y1.3204
M16
G05
G00X-0.061Y0.7047
M15
G01X-0.061Y0.622
M16
G05
G00X-0.061Y0.7042
M15
G01X-0.061Y0.6216
M16
G05
G00X-0.061Y0.0059
M15
G01X-0.061Y-0.0768
M16
G05
G00X-0.061Y0.0054
M15
G01X-0.061Y-0.0773
M16
G05
G00X0.061Y2.1024
M15
G01X0.061Y2.0197
M16
G05
G00X0.061Y2.1019
M15
G01X0.061Y2.0192
M16
G05
G00X0.061Y1.4035
M15
G01X0.061Y1.3209
M16
G05
G00X0.061Y1.4031
M15
G01X0.061Y1.3204
M16
G05
G00X0.061Y0.7047
M15
G01X0.061Y0.622
M16
G05
G00X0.061Y0.7042
M15
G01X0.061Y0.6216
M16
G05
G00X0.061Y0.0059
M15
G01X0.061Y-0.0768
M16
G05
G00X0.061Y0.0054
M15
G01X0.061Y-0.0773
M16
G05
G00X0.6378Y2.1024
M15
G01X0.6378Y2.0197
M16
G05
G00X0.6378Y2.1019
M15
G01X0.6378Y2.0192
M16
G05
G00X0.6378Y1.4035
M15
G01X0.6378Y1.3209
M16
G05
G00X0.6378Y1.4031
M15
G01X0.6378Y1.3204
M16
G05
G00X0.6378Y0.7047
M15
G01X0.6378Y0.622
M16
G05
G00X0.6378Y0.7042
M15
G01X0.6378Y0.6216
M16
G05
G00X0.6378Y0.0059
M15
G01X0.6378Y-0.0768
M16
G05
G00X0.6378Y0.0054
M15
G01X0.6378Y-0.0773
M16
G05
G00X0.7598Y2.1024
M15
G01X0.7598Y2.0197
M16
G05
G00X0.7598Y2.1019
M15
G01X0.7598Y2.0192
M16
G05
G00X0.7598Y1.4035
M15
G01X0.7598Y1.3209
M16
G05
G00X0.7598Y1.4031
M15
G01X0.7598Y1.3204
M16
G05
G00X0.7598Y0.7047
M15
G01X0.7598Y0.622
M16
G05
G00X0.7598Y0.7042
M15
G01X0.7598Y0.6216
M16
G05
G00X0.7598Y0.0059
M15
G01X0.7598Y-0.0768
M16
G05
G00X0.7598Y0.0054
M15
G01X0.7598Y-0.0773
M16
G05
G00X1.3366Y2.1024
M15
G01X1.3366Y2.0197
M16
G05
G00X1.3366Y2.1019
M15
G01X1.3366Y2.0192
M16
G05
G00X1.3366Y1.4035
M15
G01X1.3366Y1.3209
M16
G05
G00X1.3366Y1.4031
M15
G01X1.3366Y1.3204
M16
G05
G00X1.3366Y0.7047
M15
G01X1.3366Y0.622
M16
G05
G00X1.3366Y0.7042
M15
G01X1.3366Y0.6216
M16
G05
G00X1.3366Y0.0059
M15
G01X1.3366Y-0.0768
M16
G05
G00X1.3366Y0.0054
M15
G01X1.3366Y-0.0773
M16
G05
G00X1.4587Y2.1024
M15
G01X1.4587Y2.0197
M16
G05
G00X1.4587Y2.1019
M15
G01X1.4587Y2.0192
M16
G05
G00X1.4587Y1.4035
M15
G01X1.4587Y1.3209
M16
G05
G00X1.4587Y1.4031
M15
G01X1.4587Y1.3204
M16
G05
G00X1.4587Y0.7047
M15
G01X1.4587Y0.622
M16
G05
G00X1.4587Y0.7042
M15
G01X1.4587Y0.6216
M16
G05
G00X1.4587Y0.0059
M15
G01X1.4587Y-0.0768
M16
G05
G00X1.4587Y0.0054
M15
G01X1.4587Y-0.0773
M16
G05
G00X2.0354Y2.1024
M15
G01X2.0354Y2.0197
M16
G05
G00X2.0354Y2.1019
M15
G01X2.0354Y2.0192
M16
G05
G00X2.0354Y1.4035
M15
G01X2.0354Y1.3209
M16
G05
G00X2.0354Y1.4031
M15
G01X2.0354Y1.3204
M16
G05
G00X2.0354Y0.7047
M15
G01X2.0354Y0.622
M16
G05
G00X2.0354Y0.7042
M15
G01X2.0354Y0.6216
M16
G05
G00X2.0354Y0.0059
M15
G01X2.0354Y-0.0768
M16
G05
G00X2.0354Y0.0054
M15
G01X2.0354Y-0.0773
M16
G05
G00X2.1575Y2.1024
M15
G01X2.1575Y2.0197
M16
G05
G00X2.1575Y2.1019
M15
G01X2.1575Y2.0192
M16
G05
G00X2.1575Y1.4035
M15
G01X2.1575Y1.3209
M16
G05
G00X2.1575Y1.4031
M15
G01X2.1575Y1.3204
M16
G05
G00X2.1575Y0.7047
M15
G01X2.1575Y0.622
M16
G05
G00X2.1575Y0.7042
M15
G01X2.1575Y0.6216
M16
G05
G00X2.1575Y0.0059
M15
G01X2.1575Y-0.0768
M16
G05
G00X2.1575Y0.0054
M15
G01X2.1575Y-0.0773
M16
G05
G00X2.7343Y2.1024
M15
G01X2.7343Y2.0197
M16
G05
G00X2.7343Y2.1019
M15
G01X2.7343Y2.0192
M16
G05
G00X2.7343Y1.4035
M15
G01X2.7343Y1.3209
M16
G05
G00X2.7343Y1.4031
M15
G01X2.7343Y1.3204
M16
G05
G00X2.7343Y0.7047
M15
G01X2.7343Y0.622
M16
G05
G00X2.7343Y0.7042
M15
G01X2.7343Y0.6216
M16
G05
G00X2.7343Y0.0059
M15
G01X2.7343Y-0.0768
M16
G05
G00X2.7343Y0.0054
M15
G01X2.7343Y-0.0773
M16
G05
G00X2.8563Y2.1024
M15
G01X2.8563Y2.0197
M16
G05
G00X2.8563Y2.1019
M15
G01X2.8563Y2.0192
M16
G05
G00X2.8563Y1.4035
M15
G01X2.8563Y1.3209
M16
G05
G00X2.8563Y1.4031
M15
G01X2.8563Y1.3204
M16
G05
G00X2.8563Y0.7047
M15
G01X2.8563Y0.622
M16
G05
G00X2.8563Y0.7042
M15
G01X2.8563Y0.6216
M16
G05
G00X2.8563Y0.0059
M15
G01X2.8563Y-0.0768
M16
G05
G00X2.8563Y0.0054
M15
G01X2.8563Y-0.0773
M16
G05
G00X3.4331Y2.1024
M15
G01X3.4331Y2.0197
M16
G05
G00X3.4331Y2.1019
M15
G01X3.4331Y2.0192
M16
G05
G00X3.4331Y1.4035
M15
G01X3.4331Y1.3209
M16
G05
G00X3.4331Y1.4031
M15
G01X3.4331Y1.3204
M16
G05
G00X3.4331Y0.7047
M15
G01X3.4331Y0.622
M16
G05
G00X3.4331Y0.7042
M15
G01X3.4331Y0.6216
M16
G05
G00X3.4331Y0.0059
M15
G01X3.4331Y-0.0768
M16
G05
G00X3.4331Y0.0054
M15
G01X3.4331Y-0.0773
M16
G05
G00X3.5551Y2.1024
M15
G01X3.5551Y2.0197
M16
G05
G00X3.5551Y2.1019
M15
G01X3.5551Y2.0192
M16
G05
G00X3.5551Y1.4035
M15
G01X3.5551Y1.3209
M16
G05
G00X3.5551Y1.4031
M15
G01X3.5551Y1.3204
M16
G05
G00X3.5551Y0.7047
M15
G01X3.5551Y0.622
M16
G05
G00X3.5551Y0.7042
M15
G01X3.5551Y0.6216
M16
G05
G00X3.5551Y0.0059
M15
G01X3.5551Y-0.0768
M16
G05
G00X3.5551Y0.0054
M15
G01X3.5551Y-0.0773
M16
G05
T5
G00X-0.0197Y2.061
M15
G01X0.0197Y2.061
M16
G05
G00X-0.0197Y2.0605
M15
G01X0.0197Y2.0605
M16
G05
G00X-0.0197Y1.3622
M15
G01X0.0197Y1.3622
M16
G05
G00X-0.0197Y1.3617
M15
G01X0.0197Y1.3617
M16
G05
G00X-0.0197Y0.6634
M15
G01X0.0197Y0.6634
M16
G05
G00X-0.0197Y0.6629
M15
G01X0.0197Y0.6629
M16
G05
G00X-0.0197Y-0.0354
M15
G01X0.0197Y-0.0354
M16
G05
G00X-0.0197Y-0.0359
M15
G01X0.0197Y-0.0359
M16
G05
G00X0.6791Y2.061
M15
G01X0.7185Y2.061
M16
G05
G00X0.6791Y2.0605
M15
G01X0.7185Y2.0605
M16
G05
G00X0.6791Y1.3622
M15
G01X0.7185Y1.3622
M16
G05
G00X0.6791Y1.3617
M15
G01X0.7185Y1.3617
M16
G05
G00X0.6791Y0.6634
M15
G01X0.7185Y0.6634
M16
G05
G00X0.6791Y0.6629
M15
G01X0.7185Y0.6629
M16
G05
G00X0.6791Y-0.0354
M15
G01X0.7185Y-0.0354
M16
G05
G00X0.6791Y-0.0359
M15
G01X0.7185Y-0.0359
M16
G05
G00X1.378Y2.061
M15
G01X1.4173Y2.061
M16
G05
G00X1.378Y2.0605
M15
G01X1.4173Y2.0605
M16
G05
G00X1.378Y1.3622
M15
G01X1.4173Y1.3622
M16
G05
G00X1.378Y1.3617
M15
G01X1.4173Y1.3617
M16
G05
G00X1.378Y0.6634
M15
G01X1.4173Y0.6634
M16
G05
G00X1.378Y0.6629
M15
G01X1.4173Y0.6629
M16
G05
G00X1.378Y-0.0354
M15
G01X1.4173Y-0.0354
M16
G05
G00X1.378Y-0.0359
M15
G01X1.4173Y-0.0359
M16
G05
G00X2.0768Y2.061
M15
G01X2.1161Y2.061
M16
G05
G00X2.0768Y2.0605
M15
G01X2.1161Y2.0605
M16
G05
G00X2.0768Y1.3622
M15
G01X2.1161Y1.3622
M16
G05
G00X2.0768Y1.3617
M15
G01X2.1161Y1.3617
M16
G05
G00X2.0768Y0.6634
M15
G01X2.1161Y0.6634
M16
G05
G00X2.0768Y0.6629
M15
G01X2.1161Y0.6629
M16
G05
G00X2.0768Y-0.0354
M15
G01X2.1161Y-0.0354
M16
G05
G00X2.0768Y-0.0359
M15
G01X2.1161Y-0.0359
M16
G05
G00X2.7756Y2.061
M15
G01X2.815Y2.061
M16
G05
G00X2.7756Y2.0605
M15
G01X2.815Y2.0605
M16
G05
G00X2.7756Y1.3622
M15
G01X2.815Y1.3622
M16
G05
G00X2.7756Y1.3617
M15
G01X2.815Y1.3617
M16
G05
G00X2.7756Y0.6634
M15
G01X2.815Y0.6634
M16
G05
G00X2.7756Y0.6629
M15
G01X2.815Y0.6629
M16
G05
G00X2.7756Y-0.0354
M15
G01X2.815Y-0.0354
M16
G05
G00X2.7756Y-0.0359
M15
G01X2.815Y-0.0359
M16
G05
G00X3.4744Y2.061
M15
G01X3.5138Y2.061
M16
G05
G00X3.4744Y2.0605
M15
G01X3.5138Y2.0605
M16
G05
G00X3.4744Y1.3622
M15
G01X3.5138Y1.3622
M16
G05
G00X3.4744Y1.3617
M15
G01X3.5138Y1.3617
M16
G05
G00X3.4744Y0.6634
M15
G01X3.5138Y0.6634
M16
G05
G00X3.4744Y0.6629
M15
G01X3.5138Y0.6629
M16
G05
G00X3.4744Y-0.0354
M15
G01X3.5138Y-0.0354
M16
G05
G00X3.4744Y-0.0359
M15
G01X3.5138Y-0.0359
M16
G05
T0
M30
