M48
; DRILL file {KiCad (6.0.10)} date Sun Jan 29 20:47:38 2023
; FORMAT={-:-/ absolute / inch / decimal}
; #@! TF.CreationDate,2023-01-29T20:47:38-05:00
; #@! TF.GenerationSoftware,Kicad,Pcbnew,(6.0.10)
; #@! TF.FileFunction,Plated,1,2,PTH
FMAT,2
INCH
; #@! TA.AperFunction,Plated,PTH,ViaDrill
T1C0.0118
; #@! TA.AperFunction,Plated,PTH,ComponentDrill
T2C0.0118
; #@! TA.AperFunction,Plated,PTH,ComponentDrill
T3C0.0157
; #@! TA.AperFunction,Plated,PTH,ComponentDrill
T4C0.0354
; #@! TA.AperFunction,Plated,PTH,ComponentDrill
T5C0.0433
%
G90
G05
T1
X-1.0477Y2.3554
X-0.3414Y1.6703
X-0.3414Y1.2645
X-0.3412Y1.4636
X-0.3409Y1.365
X-0.3403Y1.5653
X-0.3167Y1.8096
X-0.3163Y1.7807
X-0.306Y1.1698
X-0.3056Y-0.1727
X-0.2982Y1.7586
X-0.2791Y1.7372
X-0.2685Y0.5294
X-0.2684Y1.2847
X-0.2613Y1.4846
X-0.2584Y1.7174
X-0.2565Y1.9223
X-0.2049Y1.382
X-0.2044Y1.2379
X-0.1772Y1.8302
X0.5285Y1.8089
X1.2273Y1.7882
X1.9261Y1.7653
X2.6249Y1.7445
X3.3237Y1.7225
T2
X-0.0827Y1.9094
X-0.0827Y1.2106
X-0.0827Y0.5118
X-0.0827Y-0.187
X0.0827Y1.9094
X0.0827Y1.2106
X0.0827Y0.5118
X0.0827Y-0.187
X0.6161Y1.9094
X0.6161Y1.2106
X0.6161Y0.5118
X0.6161Y-0.187
X0.7815Y1.9094
X0.7815Y1.2106
X0.7815Y0.5118
X0.7815Y-0.187
X1.315Y1.9094
X1.315Y1.2106
X1.315Y0.5118
X1.315Y-0.187
X1.4803Y1.9094
X1.4803Y1.2106
X1.4803Y0.5118
X1.4803Y-0.187
X2.0138Y1.9094
X2.0138Y1.2106
X2.0138Y0.5118
X2.0138Y-0.187
X2.1791Y1.9094
X2.1791Y1.2106
X2.1791Y0.5118
X2.1791Y-0.187
X2.7126Y1.9094
X2.7126Y1.2106
X2.7126Y0.5118
X2.7126Y-0.187
X2.878Y1.9094
X2.878Y1.2106
X2.878Y0.5118
X2.878Y-0.187
X3.4114Y1.9094
X3.4114Y1.2106
X3.4114Y0.5118
X3.4114Y-0.187
X3.5768Y1.9094
X3.5768Y1.2106
X3.5768Y0.5118
X3.5768Y-0.187
T3
X-0.73Y2.3143
X-0.73Y2.2143
X-0.73Y2.1143
X-0.73Y2.0143
X-0.73Y1.9143
X-0.73Y1.8143
X-0.73Y1.7143
X-0.73Y1.6143
X-0.73Y1.5143
X-0.73Y1.4143
X-0.73Y1.3143
X-0.73Y1.2143
X-0.67Y2.3143
X-0.67Y2.2143
X-0.67Y2.1143
X-0.67Y2.0143
X-0.67Y1.9143
X-0.67Y1.8143
X-0.67Y1.7143
X-0.67Y1.6143
X-0.67Y1.5143
X-0.67Y1.4143
X-0.67Y1.3143
X-0.67Y1.2143
T5
X-1.0Y2.3143
X-1.0Y2.3143
X-1.0Y2.2143
X-1.0Y2.1143
X-1.0Y2.0143
X-1.0Y1.9143
X-1.0Y1.8143
X-1.0Y1.7143
X-1.0Y1.6143
X-1.0Y1.5143
X-1.0Y1.4143
X-1.0Y1.3143
X-1.0Y1.2143
X-0.4Y2.3143
X-0.4Y2.3143
X-0.4Y2.2143
X-0.4Y2.1143
X-0.4Y2.0143
X-0.4Y1.9143
X-0.4Y1.8143
X-0.4Y1.7143
X-0.4Y1.6143
X-0.4Y1.5143
X-0.4Y1.4143
X-0.4Y1.3143
X-0.4Y1.2143
X-0.1339Y2.2101
X-0.1339Y2.0172
X-0.1339Y1.5113
X-0.1339Y1.3184
X-0.1339Y0.8125
X-0.1339Y0.6196
X-0.1339Y0.1137
X-0.1339Y-0.0792
X0.1339Y2.2106
X0.1339Y2.0177
X0.1339Y1.5118
X0.1339Y1.3189
X0.1339Y0.813
X0.1339Y0.6201
X0.1339Y0.1142
X0.1339Y-0.0787
X0.565Y2.2101
X0.565Y2.0172
X0.565Y1.5113
X0.565Y1.3184
X0.565Y0.8125
X0.565Y0.6196
X0.565Y0.1137
X0.565Y-0.0792
X0.8327Y2.2106
X0.8327Y2.0177
X0.8327Y1.5118
X0.8327Y1.3189
X0.8327Y0.813
X0.8327Y0.6201
X0.8327Y0.1142
X0.8327Y-0.0787
X1.2638Y2.2101
X1.2638Y2.0172
X1.2638Y1.5113
X1.2638Y1.3184
X1.2638Y0.8125
X1.2638Y0.6196
X1.2638Y0.1137
X1.2638Y-0.0792
X1.5315Y2.2106
X1.5315Y2.0177
X1.5315Y1.5118
X1.5315Y1.3189
X1.5315Y0.813
X1.5315Y0.6201
X1.5315Y0.1142
X1.5315Y-0.0787
X1.9626Y2.2101
X1.9626Y2.0172
X1.9626Y1.5113
X1.9626Y1.3184
X1.9626Y0.8125
X1.9626Y0.6196
X1.9626Y0.1137
X1.9626Y-0.0792
X2.2303Y2.2106
X2.2303Y2.0177
X2.2303Y1.5118
X2.2303Y1.3189
X2.2303Y0.813
X2.2303Y0.6201
X2.2303Y0.1142
X2.2303Y-0.0787
X2.6614Y2.2101
X2.6614Y2.0172
X2.6614Y1.5113
X2.6614Y1.3184
X2.6614Y0.8125
X2.6614Y0.6196
X2.6614Y0.1137
X2.6614Y-0.0792
X2.9291Y2.2106
X2.9291Y2.0177
X2.9291Y1.5118
X2.9291Y1.3189
X2.9291Y0.813
X2.9291Y0.6201
X2.9291Y0.1142
X2.9291Y-0.0787
X3.3602Y2.2101
X3.3602Y2.0172
X3.3602Y1.5113
X3.3602Y1.3184
X3.3602Y0.8125
X3.3602Y0.6196
X3.3602Y0.1137
X3.3602Y-0.0792
X3.628Y2.2106
X3.628Y2.0177
X3.628Y1.5118
X3.628Y1.3189
X3.628Y0.813
X3.628Y0.6201
X3.628Y0.1142
X3.628Y-0.0787
T4
G00X-0.9732Y0.9776
M15
G01X-0.9496Y0.9776
M16
G05
G00X-0.9732Y0.7965
M15
G01X-0.9496Y0.7965
M16
G05
G00X-0.8551Y0.9776
M15
G01X-0.8315Y0.9776
M16
G05
G00X-0.8551Y0.7965
M15
G01X-0.8315Y0.7965
M16
G05
G00X-0.6976Y0.9776
M15
G01X-0.674Y0.9776
M16
G05
G00X-0.6976Y0.7965
M15
G01X-0.674Y0.7965
M16
G05
G00X-0.6543Y0.9776
M15
G01X-0.6307Y0.9776
M16
G05
G00X-0.6543Y0.7965
M15
G01X-0.6307Y0.7965
M16
G05
T0
M30
