%TF.GenerationSoftware,KiCad,Pcbnew,(6.0.10)*%
%TF.CreationDate,2023-01-29T20:47:48-05:00*%
%TF.ProjectId,shortstack,73686f72-7473-4746-9163-6b2e6b696361,v1.0.0*%
%TF.SameCoordinates,Original*%
%TF.FileFunction,Soldermask,Bot*%
%TF.FilePolarity,Negative*%
%FSLAX46Y46*%
G04 Gerber Fmt 4.6, Leading zero omitted, Abs format (unit mm)*
G04 Created by KiCad (PCBNEW (6.0.10)) date 2023-01-29 20:47:48*
%MOMM*%
%LPD*%
G01*
G04 APERTURE LIST*
G04 Aperture macros list*
%AMRoundRect*
0 Rectangle with rounded corners*
0 $1 Rounding radius*
0 $2 $3 $4 $5 $6 $7 $8 $9 X,Y pos of 4 corners*
0 Add a 4 corners polygon primitive as box body*
4,1,4,$2,$3,$4,$5,$6,$7,$8,$9,$2,$3,0*
0 Add four circle primitives for the rounded corners*
1,1,$1+$1,$2,$3*
1,1,$1+$1,$4,$5*
1,1,$1+$1,$6,$7*
1,1,$1+$1,$8,$9*
0 Add four rect primitives between the rounded corners*
20,1,$1+$1,$2,$3,$4,$5,0*
20,1,$1+$1,$4,$5,$6,$7,0*
20,1,$1+$1,$6,$7,$8,$9,0*
20,1,$1+$1,$8,$9,$2,$3,0*%
%AMFreePoly0*
4,1,14,0.635355,0.435355,0.650000,0.400000,0.650000,0.200000,0.635355,0.164645,0.035355,-0.435355,0.000000,-0.450000,-0.035355,-0.435355,-0.635355,0.164645,-0.650000,0.200000,-0.650000,0.400000,-0.635355,0.435355,-0.600000,0.450000,0.600000,0.450000,0.635355,0.435355,0.635355,0.435355,$1*%
%AMFreePoly1*
4,1,16,0.635355,1.035355,0.650000,1.000000,0.650000,-0.250000,0.635355,-0.285355,0.600000,-0.300000,-0.600000,-0.300000,-0.635355,-0.285355,-0.650000,-0.250000,-0.650000,1.000000,-0.635355,1.035355,-0.600000,1.050000,-0.564645,1.035355,0.000000,0.470710,0.564645,1.035355,0.600000,1.050000,0.635355,1.035355,0.635355,1.035355,$1*%
G04 Aperture macros list end*
%ADD10C,0.250000*%
%ADD11C,0.100000*%
%ADD12O,5.200000X0.400000*%
%ADD13O,2.100000X4.200000*%
%ADD14O,0.400000X4.200000*%
%ADD15C,1.400000*%
%ADD16O,5.200000X4.200000*%
%ADD17C,1.700000*%
%ADD18C,1.500000*%
%ADD19C,1.600000*%
%ADD20O,2.300000X1.700000*%
%ADD21FreePoly0,90.000000*%
%ADD22FreePoly0,270.000000*%
%ADD23RoundRect,0.050000X-0.800000X0.800000X-0.800000X-0.800000X0.800000X-0.800000X0.800000X0.800000X0*%
%ADD24FreePoly1,90.000000*%
%ADD25FreePoly1,270.000000*%
%ADD26C,0.700000*%
%ADD27RoundRect,0.050000X-0.450000X-0.600000X0.450000X-0.600000X0.450000X0.600000X-0.450000X0.600000X0*%
G04 APERTURE END LIST*
D10*
%TO.C,U1*%
X-18416965Y35924420D02*
G75*
G03*
X-18416965Y35924420I-125000J0D01*
G01*
X-18416965Y33384420D02*
G75*
G03*
X-18416965Y33384420I-125000J0D01*
G01*
X-16892965Y58784420D02*
G75*
G03*
X-16892965Y58784420I-125000J0D01*
G01*
X-18416965Y38464420D02*
G75*
G03*
X-18416965Y38464420I-125000J0D01*
G01*
X-16892965Y53704420D02*
G75*
G03*
X-16892965Y53704420I-125000J0D01*
G01*
X-18416965Y53704420D02*
G75*
G03*
X-18416965Y53704420I-125000J0D01*
G01*
X-16892965Y38464420D02*
G75*
G03*
X-16892965Y38464420I-125000J0D01*
G01*
X-16892965Y46084420D02*
G75*
G03*
X-16892965Y46084420I-125000J0D01*
G01*
X-16892965Y51164420D02*
G75*
G03*
X-16892965Y51164420I-125000J0D01*
G01*
X-18416965Y46084420D02*
G75*
G03*
X-18416965Y46084420I-125000J0D01*
G01*
X-16892965Y48624420D02*
G75*
G03*
X-16892965Y48624420I-125000J0D01*
G01*
X-18416965Y43544420D02*
G75*
G03*
X-18416965Y43544420I-125000J0D01*
G01*
X-18416965Y48624420D02*
G75*
G03*
X-18416965Y48624420I-125000J0D01*
G01*
X-18416965Y51164420D02*
G75*
G03*
X-18416965Y51164420I-125000J0D01*
G01*
X-16892965Y56244420D02*
G75*
G03*
X-16892965Y56244420I-125000J0D01*
G01*
X-18416965Y58784420D02*
G75*
G03*
X-18416965Y58784420I-125000J0D01*
G01*
X-16892965Y33384420D02*
G75*
G03*
X-16892965Y33384420I-125000J0D01*
G01*
X-18416965Y41004420D02*
G75*
G03*
X-18416965Y41004420I-125000J0D01*
G01*
X-16892965Y41004420D02*
G75*
G03*
X-16892965Y41004420I-125000J0D01*
G01*
X-18416965Y56244420D02*
G75*
G03*
X-18416965Y56244420I-125000J0D01*
G01*
X-16892965Y35924420D02*
G75*
G03*
X-16892965Y35924420I-125000J0D01*
G01*
X-18416965Y30844420D02*
G75*
G03*
X-18416965Y30844420I-125000J0D01*
G01*
X-16892965Y43544420D02*
G75*
G03*
X-16892965Y43544420I-125000J0D01*
G01*
X-16892965Y30844420D02*
G75*
G03*
X-16892965Y30844420I-125000J0D01*
G01*
G36*
X-11683965Y45576420D02*
G01*
X-12699965Y45576420D01*
X-12699965Y46592420D01*
X-11683965Y46592420D01*
X-11683965Y45576420D01*
G37*
D11*
X-11683965Y45576420D02*
X-12699965Y45576420D01*
X-12699965Y46592420D01*
X-11683965Y46592420D01*
X-11683965Y45576420D01*
G36*
X-22859965Y30336420D02*
G01*
X-23875965Y30336420D01*
X-23875965Y31352420D01*
X-22859965Y31352420D01*
X-22859965Y30336420D01*
G37*
X-22859965Y30336420D02*
X-23875965Y30336420D01*
X-23875965Y31352420D01*
X-22859965Y31352420D01*
X-22859965Y30336420D01*
G36*
X-22859965Y40496420D02*
G01*
X-23875965Y40496420D01*
X-23875965Y41512420D01*
X-22859965Y41512420D01*
X-22859965Y40496420D01*
G37*
X-22859965Y40496420D02*
X-23875965Y40496420D01*
X-23875965Y41512420D01*
X-22859965Y41512420D01*
X-22859965Y40496420D01*
G36*
X-22859965Y48116420D02*
G01*
X-23875965Y48116420D01*
X-23875965Y49132420D01*
X-22859965Y49132420D01*
X-22859965Y48116420D01*
G37*
X-22859965Y48116420D02*
X-23875965Y48116420D01*
X-23875965Y49132420D01*
X-22859965Y49132420D01*
X-22859965Y48116420D01*
G36*
X-11683965Y35416420D02*
G01*
X-12699965Y35416420D01*
X-12699965Y36432420D01*
X-11683965Y36432420D01*
X-11683965Y35416420D01*
G37*
X-11683965Y35416420D02*
X-12699965Y35416420D01*
X-12699965Y36432420D01*
X-11683965Y36432420D01*
X-11683965Y35416420D01*
G36*
X-11683965Y50656420D02*
G01*
X-12699965Y50656420D01*
X-12699965Y51672420D01*
X-11683965Y51672420D01*
X-11683965Y50656420D01*
G37*
X-11683965Y50656420D02*
X-12699965Y50656420D01*
X-12699965Y51672420D01*
X-11683965Y51672420D01*
X-11683965Y50656420D01*
G36*
X-11683965Y43036420D02*
G01*
X-12699965Y43036420D01*
X-12699965Y44052420D01*
X-11683965Y44052420D01*
X-11683965Y43036420D01*
G37*
X-11683965Y43036420D02*
X-12699965Y43036420D01*
X-12699965Y44052420D01*
X-11683965Y44052420D01*
X-11683965Y43036420D01*
G36*
X-11683965Y37956420D02*
G01*
X-12699965Y37956420D01*
X-12699965Y38972420D01*
X-11683965Y38972420D01*
X-11683965Y37956420D01*
G37*
X-11683965Y37956420D02*
X-12699965Y37956420D01*
X-12699965Y38972420D01*
X-11683965Y38972420D01*
X-11683965Y37956420D01*
G36*
X-11683965Y48116420D02*
G01*
X-12699965Y48116420D01*
X-12699965Y49132420D01*
X-11683965Y49132420D01*
X-11683965Y48116420D01*
G37*
X-11683965Y48116420D02*
X-12699965Y48116420D01*
X-12699965Y49132420D01*
X-11683965Y49132420D01*
X-11683965Y48116420D01*
G36*
X-22859965Y32876420D02*
G01*
X-23875965Y32876420D01*
X-23875965Y33892420D01*
X-22859965Y33892420D01*
X-22859965Y32876420D01*
G37*
X-22859965Y32876420D02*
X-23875965Y32876420D01*
X-23875965Y33892420D01*
X-22859965Y33892420D01*
X-22859965Y32876420D01*
G36*
X-11683965Y53196420D02*
G01*
X-12699965Y53196420D01*
X-12699965Y54212420D01*
X-11683965Y54212420D01*
X-11683965Y53196420D01*
G37*
X-11683965Y53196420D02*
X-12699965Y53196420D01*
X-12699965Y54212420D01*
X-11683965Y54212420D01*
X-11683965Y53196420D01*
G36*
X-11683965Y55736420D02*
G01*
X-12699965Y55736420D01*
X-12699965Y56752420D01*
X-11683965Y56752420D01*
X-11683965Y55736420D01*
G37*
X-11683965Y55736420D02*
X-12699965Y55736420D01*
X-12699965Y56752420D01*
X-11683965Y56752420D01*
X-11683965Y55736420D01*
G36*
X-11683965Y30336420D02*
G01*
X-12699965Y30336420D01*
X-12699965Y31352420D01*
X-11683965Y31352420D01*
X-11683965Y30336420D01*
G37*
X-11683965Y30336420D02*
X-12699965Y30336420D01*
X-12699965Y31352420D01*
X-11683965Y31352420D01*
X-11683965Y30336420D01*
G36*
X-22859965Y53196420D02*
G01*
X-23875965Y53196420D01*
X-23875965Y54212420D01*
X-22859965Y54212420D01*
X-22859965Y53196420D01*
G37*
X-22859965Y53196420D02*
X-23875965Y53196420D01*
X-23875965Y54212420D01*
X-22859965Y54212420D01*
X-22859965Y53196420D01*
G36*
X-22859965Y37956420D02*
G01*
X-23875965Y37956420D01*
X-23875965Y38972420D01*
X-22859965Y38972420D01*
X-22859965Y37956420D01*
G37*
X-22859965Y37956420D02*
X-23875965Y37956420D01*
X-23875965Y38972420D01*
X-22859965Y38972420D01*
X-22859965Y37956420D01*
G36*
X-22859965Y50656420D02*
G01*
X-23875965Y50656420D01*
X-23875965Y51672420D01*
X-22859965Y51672420D01*
X-22859965Y50656420D01*
G37*
X-22859965Y50656420D02*
X-23875965Y50656420D01*
X-23875965Y51672420D01*
X-22859965Y51672420D01*
X-22859965Y50656420D01*
G36*
X-22859965Y45576420D02*
G01*
X-23875965Y45576420D01*
X-23875965Y46592420D01*
X-22859965Y46592420D01*
X-22859965Y45576420D01*
G37*
X-22859965Y45576420D02*
X-23875965Y45576420D01*
X-23875965Y46592420D01*
X-22859965Y46592420D01*
X-22859965Y45576420D01*
G36*
X-11683965Y40496420D02*
G01*
X-12699965Y40496420D01*
X-12699965Y41512420D01*
X-11683965Y41512420D01*
X-11683965Y40496420D01*
G37*
X-11683965Y40496420D02*
X-12699965Y40496420D01*
X-12699965Y41512420D01*
X-11683965Y41512420D01*
X-11683965Y40496420D01*
G36*
X-22859965Y43036420D02*
G01*
X-23875965Y43036420D01*
X-23875965Y44052420D01*
X-22859965Y44052420D01*
X-22859965Y43036420D01*
G37*
X-22859965Y43036420D02*
X-23875965Y43036420D01*
X-23875965Y44052420D01*
X-22859965Y44052420D01*
X-22859965Y43036420D01*
G36*
X-22859965Y58276420D02*
G01*
X-23875965Y58276420D01*
X-23875965Y59292420D01*
X-22859965Y59292420D01*
X-22859965Y58276420D01*
G37*
X-22859965Y58276420D02*
X-23875965Y58276420D01*
X-23875965Y59292420D01*
X-22859965Y59292420D01*
X-22859965Y58276420D01*
G36*
X-22859965Y35416420D02*
G01*
X-23875965Y35416420D01*
X-23875965Y36432420D01*
X-22859965Y36432420D01*
X-22859965Y35416420D01*
G37*
X-22859965Y35416420D02*
X-23875965Y35416420D01*
X-23875965Y36432420D01*
X-22859965Y36432420D01*
X-22859965Y35416420D01*
G36*
X-11683965Y58276420D02*
G01*
X-12699965Y58276420D01*
X-12699965Y59292420D01*
X-11683965Y59292420D01*
X-11683965Y58276420D01*
G37*
X-11683965Y58276420D02*
X-12699965Y58276420D01*
X-12699965Y59292420D01*
X-11683965Y59292420D01*
X-11683965Y58276420D01*
G36*
X-11683965Y32876420D02*
G01*
X-12699965Y32876420D01*
X-12699965Y33892420D01*
X-11683965Y33892420D01*
X-11683965Y32876420D01*
G37*
X-11683965Y32876420D02*
X-12699965Y32876420D01*
X-12699965Y33892420D01*
X-11683965Y33892420D01*
X-11683965Y32876420D01*
G36*
X-22859965Y55736420D02*
G01*
X-23875965Y55736420D01*
X-23875965Y56752420D01*
X-22859965Y56752420D01*
X-22859965Y55736420D01*
G37*
X-22859965Y55736420D02*
X-23875965Y55736420D01*
X-23875965Y56752420D01*
X-22859965Y56752420D01*
X-22859965Y55736420D01*
%TD*%
D12*
%TO.C,SW9*%
X35500000Y999836D03*
D13*
X37050000Y-900164D03*
D14*
X37900000Y-900164D03*
X37900000Y-912500D03*
D12*
X35500000Y-2800164D03*
D14*
X33100000Y-912500D03*
D12*
X35500000Y-2812500D03*
D15*
X29999992Y5487664D03*
D13*
X37050000Y-912500D03*
D15*
X41000008Y5500000D03*
D16*
X35500000Y-900164D03*
D15*
X30000008Y-5500000D03*
D12*
X35500000Y987500D03*
D16*
X35500000Y-912500D03*
D13*
X33950000Y-900164D03*
D14*
X33100000Y-900164D03*
D13*
X33950000Y-912500D03*
D15*
X40999992Y-5512336D03*
D17*
X32099992Y2887664D03*
D18*
X32099992Y-2012336D03*
%TD*%
D14*
%TO.C,SW17*%
X68600000Y-912500D03*
D12*
X71000000Y987500D03*
D13*
X69450000Y-912500D03*
D15*
X65500008Y-5500000D03*
X76499992Y-5512336D03*
X76500008Y5500000D03*
D13*
X69450000Y-900164D03*
D14*
X73400000Y-912500D03*
D12*
X71000000Y-2800164D03*
X71000000Y999836D03*
D15*
X65499992Y5487664D03*
D16*
X71000000Y-900164D03*
D14*
X73400000Y-900164D03*
D13*
X72550000Y-900164D03*
D16*
X71000000Y-912500D03*
D12*
X71000000Y-2812500D03*
D13*
X72550000Y-912500D03*
D14*
X68600000Y-900164D03*
D17*
X67599992Y2887664D03*
D18*
X67599992Y-2012336D03*
%TD*%
D14*
%TO.C,SW24*%
X91150000Y52349836D03*
D13*
X90300000Y52337500D03*
D15*
X83250008Y47750000D03*
D12*
X88750000Y50437500D03*
D13*
X87200000Y52349836D03*
D16*
X88750000Y52337500D03*
D15*
X94250008Y58750000D03*
D12*
X88750000Y54237500D03*
D14*
X86350000Y52349836D03*
X91150000Y52337500D03*
D12*
X88750000Y54249836D03*
D16*
X88750000Y52349836D03*
D13*
X87200000Y52337500D03*
D15*
X83249992Y58737664D03*
X94249992Y47737664D03*
D14*
X86350000Y52337500D03*
D13*
X90300000Y52349836D03*
D12*
X88750000Y50449836D03*
D17*
X85349992Y56137664D03*
D18*
X85349992Y51237664D03*
%TD*%
D13*
%TO.C,SW3*%
X-1550000Y34587500D03*
D15*
X-5499992Y30000000D03*
X-5500008Y40987664D03*
D13*
X1550000Y34599836D03*
D14*
X2400000Y34587500D03*
D12*
X0Y36499836D03*
X0Y36487500D03*
D14*
X-2400000Y34599836D03*
D16*
X0Y34587500D03*
D12*
X0Y32699836D03*
D15*
X5500008Y41000000D03*
D13*
X-1550000Y34599836D03*
D16*
X0Y34599836D03*
D12*
X0Y32687500D03*
D15*
X5499992Y29987664D03*
D13*
X1550000Y34587500D03*
D14*
X2400000Y34599836D03*
X-2400000Y34587500D03*
D17*
X-3400008Y38387664D03*
D18*
X-3400008Y33487664D03*
%TD*%
D13*
%TO.C,SW4*%
X1550000Y52337500D03*
D15*
X-5499992Y47750000D03*
X5500008Y58750000D03*
D16*
X0Y52337500D03*
D12*
X0Y50449836D03*
D16*
X0Y52349836D03*
D12*
X0Y50437500D03*
X0Y54237500D03*
D13*
X1550000Y52349836D03*
D14*
X2400000Y52349836D03*
D15*
X5499992Y47737664D03*
D12*
X0Y54249836D03*
D13*
X-1550000Y52337500D03*
D14*
X-2400000Y52349836D03*
X-2400000Y52337500D03*
X2400000Y52337500D03*
D15*
X-5500008Y58737664D03*
D13*
X-1550000Y52349836D03*
D17*
X-3400008Y56137664D03*
D18*
X-3400008Y51237664D03*
%TD*%
D12*
%TO.C,SW21*%
X88750000Y999836D03*
D15*
X83249992Y5487664D03*
X83250008Y-5500000D03*
D13*
X90300000Y-912500D03*
D14*
X91150000Y-900164D03*
D15*
X94249992Y-5512336D03*
D16*
X88750000Y-912500D03*
D13*
X87200000Y-900164D03*
D12*
X88750000Y-2812500D03*
D16*
X88750000Y-900164D03*
D15*
X94250008Y5500000D03*
D12*
X88750000Y987500D03*
D13*
X90300000Y-900164D03*
X87200000Y-912500D03*
D14*
X91150000Y-912500D03*
X86350000Y-912500D03*
D12*
X88750000Y-2800164D03*
D14*
X86350000Y-900164D03*
D17*
X85349992Y2887664D03*
D18*
X85349992Y-2012336D03*
%TD*%
D14*
%TO.C,SW6*%
X20150000Y16837500D03*
D16*
X17750000Y16849836D03*
D12*
X17750000Y14937500D03*
D15*
X12249992Y23237664D03*
D14*
X20150000Y16849836D03*
D16*
X17750000Y16837500D03*
D15*
X23249992Y12237664D03*
D14*
X15350000Y16837500D03*
X15350000Y16849836D03*
D13*
X19300000Y16837500D03*
D12*
X17750000Y14949836D03*
D15*
X12250008Y12250000D03*
D12*
X17750000Y18749836D03*
X17750000Y18737500D03*
D15*
X23250008Y23250000D03*
D13*
X16200000Y16837500D03*
X19300000Y16849836D03*
X16200000Y16849836D03*
D17*
X14349992Y20637664D03*
D18*
X14349992Y15737664D03*
%TD*%
D19*
%TO.C,J1*%
X-19018891Y22530274D03*
X-26018891Y22530274D03*
D20*
X-16318891Y20230274D03*
X-16318891Y24830274D03*
X-17418891Y24830274D03*
X-17418891Y20230274D03*
X-21418891Y24830274D03*
X-21418891Y20230274D03*
X-24418891Y24830274D03*
X-24418891Y20230274D03*
%TD*%
D12*
%TO.C,SW16*%
X53250000Y54237500D03*
X53250000Y54249836D03*
D14*
X50850000Y52337500D03*
D13*
X51700000Y52349836D03*
D16*
X53250000Y52349836D03*
D12*
X53250000Y50449836D03*
D15*
X47749992Y58737664D03*
D13*
X54800000Y52337500D03*
D16*
X53250000Y52337500D03*
D13*
X54800000Y52349836D03*
D14*
X55650000Y52349836D03*
D15*
X47750008Y47750000D03*
D14*
X50850000Y52349836D03*
D13*
X51700000Y52337500D03*
D15*
X58750008Y58750000D03*
D12*
X53250000Y50437500D03*
D14*
X55650000Y52337500D03*
D15*
X58749992Y47737664D03*
D17*
X49849992Y56137664D03*
D18*
X49849992Y51237664D03*
%TD*%
D15*
%TO.C,SW19*%
X65499992Y40987664D03*
D12*
X71000000Y36499836D03*
D16*
X71000000Y34599836D03*
D15*
X65500008Y30000000D03*
D14*
X73400000Y34587500D03*
X73400000Y34599836D03*
D15*
X76500008Y41000000D03*
D13*
X72550000Y34587500D03*
D14*
X68600000Y34599836D03*
D15*
X76499992Y29987664D03*
D12*
X71000000Y36487500D03*
D16*
X71000000Y34587500D03*
D14*
X68600000Y34587500D03*
D12*
X71000000Y32699836D03*
D13*
X69450000Y34587500D03*
X72550000Y34599836D03*
X69450000Y34599836D03*
D12*
X71000000Y32687500D03*
D17*
X67599992Y38387664D03*
D18*
X67599992Y33487664D03*
%TD*%
D14*
%TO.C,SW20*%
X68600000Y52349836D03*
D12*
X71000000Y50449836D03*
D15*
X65500008Y47750000D03*
D12*
X71000000Y54249836D03*
D14*
X73400000Y52337500D03*
D13*
X69450000Y52337500D03*
D12*
X71000000Y50437500D03*
D15*
X76500008Y58750000D03*
X76499992Y47737664D03*
D13*
X72550000Y52349836D03*
D12*
X71000000Y54237500D03*
D16*
X71000000Y52349836D03*
D14*
X68600000Y52337500D03*
D15*
X65499992Y58737664D03*
D13*
X72550000Y52337500D03*
D16*
X71000000Y52337500D03*
D13*
X69450000Y52349836D03*
D14*
X73400000Y52349836D03*
D17*
X67599992Y56137664D03*
D18*
X67599992Y51237664D03*
%TD*%
D16*
%TO.C,SW11*%
X35500000Y34599836D03*
D12*
X35500000Y32687500D03*
X35500000Y36499836D03*
D13*
X37050000Y34587500D03*
D12*
X35500000Y32699836D03*
D14*
X33100000Y34587500D03*
D13*
X33950000Y34587500D03*
X37050000Y34599836D03*
D15*
X29999992Y40987664D03*
X30000008Y30000000D03*
D14*
X33100000Y34599836D03*
D15*
X41000008Y41000000D03*
D14*
X37900000Y34599836D03*
D12*
X35500000Y36487500D03*
D15*
X40999992Y29987664D03*
D13*
X33950000Y34599836D03*
D14*
X37900000Y34587500D03*
D16*
X35500000Y34587500D03*
D17*
X32099992Y38387664D03*
D18*
X32099992Y33487664D03*
%TD*%
D12*
%TO.C,SW18*%
X71000000Y18737500D03*
D13*
X72550000Y16849836D03*
D12*
X71000000Y18749836D03*
D14*
X73400000Y16837500D03*
X68600000Y16849836D03*
D13*
X69450000Y16837500D03*
D14*
X68600000Y16837500D03*
D16*
X71000000Y16837500D03*
D12*
X71000000Y14949836D03*
D13*
X72550000Y16837500D03*
D16*
X71000000Y16849836D03*
D15*
X76500008Y23250000D03*
X76499992Y12237664D03*
D14*
X73400000Y16849836D03*
D15*
X65499992Y23237664D03*
X65500008Y12250000D03*
D13*
X69450000Y16849836D03*
D12*
X71000000Y14937500D03*
D17*
X67599992Y20637664D03*
D18*
X67599992Y15737664D03*
%TD*%
D21*
%TO.C,U1*%
X-23621965Y43544420D03*
D17*
X-10159965Y53704420D03*
D22*
X-11937965Y46084420D03*
X-11937965Y30844420D03*
X-11937965Y56244420D03*
X-11937965Y53704420D03*
D21*
X-23621965Y35924420D03*
D17*
X-25399965Y53704420D03*
X-25399965Y30844420D03*
X-10159965Y58784420D03*
D21*
X-23621965Y41004420D03*
D17*
X-25399965Y51164420D03*
X-25399965Y43544420D03*
D22*
X-11937965Y35924420D03*
D17*
X-10159965Y48624420D03*
X-10159965Y56244420D03*
X-25399965Y46084420D03*
D21*
X-23621965Y46084420D03*
D22*
X-11937965Y33384420D03*
D21*
X-23621965Y33384420D03*
X-23621965Y56244420D03*
X-23621965Y30844420D03*
X-23621965Y51164420D03*
D17*
X-10159965Y30844420D03*
X-25399965Y38464420D03*
D21*
X-23621965Y58784420D03*
X-23621965Y53704420D03*
D23*
X-10159965Y58784420D03*
D17*
X-10159965Y43544420D03*
X-25399965Y56244420D03*
D22*
X-11937965Y48624420D03*
X-11937965Y38464420D03*
X-11937965Y43544420D03*
D17*
X-10159965Y35924420D03*
D22*
X-11937965Y41004420D03*
D17*
X-25399965Y33384420D03*
X-10159965Y51164420D03*
X-25399965Y48624420D03*
X-25399965Y35924420D03*
X-10159965Y33384420D03*
D22*
X-11937965Y58784420D03*
D21*
X-23621965Y38464420D03*
D17*
X-25399965Y41004420D03*
X-10159965Y41004420D03*
X-10159965Y38464420D03*
X-10159965Y46084420D03*
D22*
X-11937965Y51164420D03*
D21*
X-23621965Y48624420D03*
D17*
X-25399965Y58784420D03*
D24*
X-22605965Y58784420D03*
X-22605965Y56244420D03*
X-22605965Y53704420D03*
X-22605965Y51164420D03*
X-22605965Y48624420D03*
X-22605965Y46084420D03*
X-22605965Y43544420D03*
X-22605965Y41004420D03*
X-22605965Y38464420D03*
X-22605965Y35924420D03*
X-22605965Y33384420D03*
X-22605965Y30844420D03*
D25*
X-12953965Y30844420D03*
X-12953965Y33384420D03*
X-12953965Y35924420D03*
X-12953965Y38464420D03*
X-12953965Y41004420D03*
X-12953965Y43544420D03*
X-12953965Y46084420D03*
X-12953965Y48624420D03*
X-12953965Y51164420D03*
X-12953965Y53704420D03*
X-12953965Y56244420D03*
X-12953965Y58784420D03*
%TD*%
D15*
%TO.C,SW14*%
X47750008Y12250000D03*
D16*
X53250000Y16837500D03*
D14*
X55650000Y16837500D03*
D15*
X58750008Y23250000D03*
X47749992Y23237664D03*
D12*
X53250000Y18749836D03*
D14*
X55650000Y16849836D03*
D13*
X51700000Y16849836D03*
D12*
X53250000Y18737500D03*
D14*
X50850000Y16837500D03*
X50850000Y16849836D03*
D16*
X53250000Y16849836D03*
D12*
X53250000Y14949836D03*
D13*
X51700000Y16837500D03*
X54800000Y16849836D03*
X54800000Y16837500D03*
D12*
X53250000Y14937500D03*
D15*
X58749992Y12237664D03*
D17*
X49849992Y20637664D03*
D18*
X49849992Y15737664D03*
%TD*%
D14*
%TO.C,SW10*%
X33100000Y16837500D03*
D12*
X35500000Y18737500D03*
D15*
X41000008Y23250000D03*
X29999992Y23237664D03*
X30000008Y12250000D03*
D13*
X37050000Y16849836D03*
X33950000Y16837500D03*
D14*
X37900000Y16837500D03*
D13*
X33950000Y16849836D03*
D15*
X40999992Y12237664D03*
D14*
X33100000Y16849836D03*
D12*
X35500000Y18749836D03*
D16*
X35500000Y16849836D03*
D13*
X37050000Y16837500D03*
D12*
X35500000Y14949836D03*
X35500000Y14937500D03*
D16*
X35500000Y16837500D03*
D14*
X37900000Y16849836D03*
D17*
X32099992Y20637664D03*
D18*
X32099992Y15737664D03*
%TD*%
D14*
%TO.C,SW22*%
X86350000Y16849836D03*
D12*
X88750000Y18749836D03*
D15*
X94249992Y12237664D03*
D16*
X88750000Y16837500D03*
D15*
X94250008Y23250000D03*
D14*
X91150000Y16837500D03*
D15*
X83249992Y23237664D03*
D13*
X87200000Y16849836D03*
D14*
X86350000Y16837500D03*
D13*
X87200000Y16837500D03*
D12*
X88750000Y14937500D03*
D15*
X83250008Y12250000D03*
D12*
X88750000Y18737500D03*
D14*
X91150000Y16849836D03*
D13*
X90300000Y16849836D03*
D16*
X88750000Y16849836D03*
D12*
X88750000Y14949836D03*
D13*
X90300000Y16837500D03*
D17*
X85349992Y20637664D03*
D18*
X85349992Y15737664D03*
%TD*%
D13*
%TO.C,SW13*%
X51700000Y-900164D03*
D15*
X58749992Y-5512336D03*
D14*
X50850000Y-900164D03*
D12*
X53250000Y-2800164D03*
D15*
X47749992Y5487664D03*
D14*
X55650000Y-912500D03*
X50850000Y-912500D03*
D15*
X58750008Y5500000D03*
D12*
X53250000Y-2812500D03*
D15*
X47750008Y-5500000D03*
D14*
X55650000Y-900164D03*
D16*
X53250000Y-912500D03*
X53250000Y-900164D03*
D13*
X51700000Y-912500D03*
D12*
X53250000Y999836D03*
D13*
X54800000Y-900164D03*
D12*
X53250000Y987500D03*
D13*
X54800000Y-912500D03*
D17*
X49849992Y2887664D03*
D18*
X49849992Y-2012336D03*
%TD*%
D13*
%TO.C,SW12*%
X37050000Y52337500D03*
D15*
X30000008Y47750000D03*
D12*
X35500000Y54237500D03*
D15*
X41000008Y58750000D03*
X40999992Y47737664D03*
D13*
X33950000Y52349836D03*
D12*
X35500000Y54249836D03*
D13*
X33950000Y52337500D03*
D16*
X35500000Y52337500D03*
X35500000Y52349836D03*
D13*
X37050000Y52349836D03*
D12*
X35500000Y50437500D03*
D14*
X33100000Y52349836D03*
X37900000Y52337500D03*
X37900000Y52349836D03*
D12*
X35500000Y50449836D03*
D15*
X29999992Y58737664D03*
D14*
X33100000Y52337500D03*
D17*
X32099992Y56137664D03*
D18*
X32099992Y51237664D03*
%TD*%
D12*
%TO.C,SW15*%
X53250000Y32687500D03*
X53250000Y36487500D03*
D13*
X51700000Y34599836D03*
D14*
X55650000Y34599836D03*
D16*
X53250000Y34599836D03*
D14*
X50850000Y34587500D03*
X55650000Y34587500D03*
D15*
X47750008Y30000000D03*
D12*
X53250000Y36499836D03*
D13*
X51700000Y34587500D03*
X54800000Y34599836D03*
X54800000Y34587500D03*
D15*
X47749992Y40987664D03*
X58750008Y41000000D03*
D12*
X53250000Y32699836D03*
D16*
X53250000Y34587500D03*
D14*
X50850000Y34599836D03*
D15*
X58749992Y29987664D03*
D17*
X49849992Y38387664D03*
D18*
X49849992Y33487664D03*
%TD*%
D12*
%TO.C,SW8*%
X17750000Y54237500D03*
X17750000Y54249836D03*
D15*
X12249992Y58737664D03*
D13*
X16200000Y52337500D03*
X19300000Y52337500D03*
D15*
X23250008Y58750000D03*
D13*
X19300000Y52349836D03*
D16*
X17750000Y52337500D03*
D12*
X17750000Y50449836D03*
D14*
X20150000Y52337500D03*
D12*
X17750000Y50437500D03*
D15*
X12250008Y47750000D03*
D14*
X15350000Y52337500D03*
D15*
X23249992Y47737664D03*
D14*
X20150000Y52349836D03*
X15350000Y52349836D03*
D16*
X17750000Y52349836D03*
D13*
X16200000Y52349836D03*
D17*
X14349992Y56137664D03*
D18*
X14349992Y51237664D03*
%TD*%
D16*
%TO.C,SW1*%
X0Y-900164D03*
D13*
X1550000Y-900164D03*
X-1550000Y-912500D03*
D15*
X-5500008Y5487664D03*
D14*
X-2400000Y-900164D03*
D12*
X0Y999836D03*
D14*
X2400000Y-900164D03*
X2400000Y-912500D03*
D12*
X0Y987500D03*
X0Y-2800164D03*
D14*
X-2400000Y-912500D03*
D13*
X1550000Y-912500D03*
D12*
X0Y-2812500D03*
D15*
X5499992Y-5512336D03*
D16*
X0Y-912500D03*
D13*
X-1550000Y-900164D03*
D15*
X5500008Y5500000D03*
X-5499992Y-5500000D03*
D17*
X-3400008Y2887664D03*
D18*
X-3400008Y-2012336D03*
%TD*%
D15*
%TO.C,SW7*%
X23250008Y41000000D03*
D14*
X20150000Y34587500D03*
X20150000Y34599836D03*
D15*
X23249992Y29987664D03*
D13*
X19300000Y34587500D03*
D15*
X12249992Y40987664D03*
D13*
X16200000Y34587500D03*
X16200000Y34599836D03*
D15*
X12250008Y30000000D03*
D14*
X15350000Y34587500D03*
X15350000Y34599836D03*
D12*
X17750000Y36499836D03*
D16*
X17750000Y34587500D03*
D13*
X19300000Y34599836D03*
D16*
X17750000Y34599836D03*
D12*
X17750000Y32687500D03*
X17750000Y36487500D03*
X17750000Y32699836D03*
D17*
X14349992Y38387664D03*
D18*
X14349992Y33487664D03*
%TD*%
D14*
%TO.C,SW5*%
X20150000Y-900164D03*
X20150000Y-912500D03*
D12*
X17750000Y987500D03*
D15*
X12249992Y5487664D03*
D12*
X17750000Y-2812500D03*
X17750000Y-2800164D03*
D15*
X23249992Y-5512336D03*
D14*
X15350000Y-900164D03*
D16*
X17750000Y-912500D03*
D13*
X16200000Y-900164D03*
D14*
X15350000Y-912500D03*
D15*
X23250008Y5500000D03*
D13*
X19300000Y-900164D03*
X16200000Y-912500D03*
D15*
X12250008Y-5500000D03*
D12*
X17750000Y999836D03*
D13*
X19300000Y-912500D03*
D16*
X17750000Y-900164D03*
D17*
X14349992Y2887664D03*
D18*
X14349992Y-2012336D03*
%TD*%
D15*
%TO.C,SW23*%
X94250008Y41000000D03*
D13*
X90300000Y34599836D03*
D16*
X88750000Y34599836D03*
D13*
X87200000Y34599836D03*
X90300000Y34587500D03*
D14*
X86350000Y34599836D03*
D12*
X88750000Y32687500D03*
D14*
X91150000Y34599836D03*
D15*
X83249992Y40987664D03*
D12*
X88750000Y36487500D03*
X88750000Y36499836D03*
D14*
X86350000Y34587500D03*
X91150000Y34587500D03*
D16*
X88750000Y34587500D03*
D13*
X87200000Y34587500D03*
D15*
X83250008Y30000000D03*
X94249992Y29987664D03*
D12*
X88750000Y32699836D03*
D17*
X85349992Y38387664D03*
D18*
X85349992Y33487664D03*
%TD*%
D13*
%TO.C,SW2*%
X1550000Y16837500D03*
D15*
X-5499992Y12250000D03*
X-5500008Y23237664D03*
D12*
X0Y18749836D03*
D14*
X2400000Y16849836D03*
D12*
X0Y14949836D03*
D14*
X-2400000Y16837500D03*
D12*
X0Y14937500D03*
D14*
X-2400000Y16849836D03*
X2400000Y16837500D03*
D16*
X0Y16849836D03*
X0Y16837500D03*
D15*
X5500008Y23250000D03*
X5499992Y12237664D03*
D13*
X-1550000Y16837500D03*
X1550000Y16849836D03*
D12*
X0Y18737500D03*
D13*
X-1550000Y16849836D03*
D17*
X-3400008Y20637664D03*
D18*
X-3400008Y15737664D03*
%TD*%
D26*
%TO.C,D2*%
X-2100000Y13000000D03*
D27*
X-1650000Y13000000D03*
D26*
X2100000Y13000000D03*
D27*
X1650000Y13000000D03*
%TD*%
D26*
%TO.C,D20*%
X68900000Y48500000D03*
D27*
X69350000Y48500000D03*
D26*
X73100000Y48500000D03*
D27*
X72650000Y48500000D03*
%TD*%
D26*
%TO.C,D6*%
X15650000Y13000000D03*
D27*
X16100000Y13000000D03*
X19400000Y13000000D03*
D26*
X19850000Y13000000D03*
%TD*%
D27*
%TO.C,D7*%
X16100000Y30750000D03*
D26*
X15650000Y30750000D03*
X19850000Y30750000D03*
D27*
X19400000Y30750000D03*
%TD*%
D26*
%TO.C,D4*%
X-2100000Y48500000D03*
D27*
X-1650000Y48500000D03*
D26*
X2100000Y48500000D03*
D27*
X1650000Y48500000D03*
%TD*%
D26*
%TO.C,D14*%
X51150000Y13000000D03*
D27*
X51600000Y13000000D03*
X54900000Y13000000D03*
D26*
X55350000Y13000000D03*
%TD*%
D27*
%TO.C,D10*%
X33850000Y13000000D03*
D26*
X33400000Y13000000D03*
D27*
X37150000Y13000000D03*
D26*
X37600000Y13000000D03*
%TD*%
D27*
%TO.C,D1*%
X-1650000Y-4750000D03*
D26*
X-2100000Y-4750000D03*
X2100000Y-4750000D03*
D27*
X1650000Y-4750000D03*
%TD*%
%TO.C,D15*%
X51600000Y30750000D03*
D26*
X51150000Y30750000D03*
X55350000Y30750000D03*
D27*
X54900000Y30750000D03*
%TD*%
D26*
%TO.C,D17*%
X68900000Y-4750000D03*
D27*
X69350000Y-4750000D03*
X72650000Y-4750000D03*
D26*
X73100000Y-4750000D03*
%TD*%
D27*
%TO.C,D13*%
X51600000Y-4750000D03*
D26*
X51150000Y-4750000D03*
D27*
X54900000Y-4750000D03*
D26*
X55350000Y-4750000D03*
%TD*%
D27*
%TO.C,D11*%
X33850000Y30750000D03*
D26*
X33400000Y30750000D03*
X37600000Y30750000D03*
D27*
X37150000Y30750000D03*
%TD*%
D26*
%TO.C,D23*%
X86650000Y30750000D03*
D27*
X87100000Y30750000D03*
X90400000Y30750000D03*
D26*
X90850000Y30750000D03*
%TD*%
%TO.C,D16*%
X51150000Y48500000D03*
D27*
X51600000Y48500000D03*
D26*
X55350000Y48500000D03*
D27*
X54900000Y48500000D03*
%TD*%
%TO.C,D3*%
X-1650000Y30750000D03*
D26*
X-2100000Y30750000D03*
X2100000Y30750000D03*
D27*
X1650000Y30750000D03*
%TD*%
D26*
%TO.C,D12*%
X33400000Y48500000D03*
D27*
X33850000Y48500000D03*
X37150000Y48500000D03*
D26*
X37600000Y48500000D03*
%TD*%
D27*
%TO.C,D5*%
X16100000Y-4750000D03*
D26*
X15650000Y-4750000D03*
D27*
X19400000Y-4750000D03*
D26*
X19850000Y-4750000D03*
%TD*%
D27*
%TO.C,D21*%
X87100000Y-4750000D03*
D26*
X86650000Y-4750000D03*
D27*
X90400000Y-4750000D03*
D26*
X90850000Y-4750000D03*
%TD*%
D27*
%TO.C,D18*%
X69350000Y13000000D03*
D26*
X68900000Y13000000D03*
D27*
X72650000Y13000000D03*
D26*
X73100000Y13000000D03*
%TD*%
%TO.C,D19*%
X68900000Y30750000D03*
D27*
X69350000Y30750000D03*
X72650000Y30750000D03*
D26*
X73100000Y30750000D03*
%TD*%
%TO.C,D22*%
X86650000Y13000000D03*
D27*
X87100000Y13000000D03*
X90400000Y13000000D03*
D26*
X90850000Y13000000D03*
%TD*%
%TO.C,D9*%
X33400000Y-4750000D03*
D27*
X33850000Y-4750000D03*
X37150000Y-4750000D03*
D26*
X37600000Y-4750000D03*
%TD*%
D27*
%TO.C,D8*%
X16100000Y48500000D03*
D26*
X15650000Y48500000D03*
D27*
X19400000Y48500000D03*
D26*
X19850000Y48500000D03*
%TD*%
%TO.C,D24*%
X86650000Y48500000D03*
D27*
X87100000Y48500000D03*
D26*
X90850000Y48500000D03*
D27*
X90400000Y48500000D03*
%TD*%
M02*
