%TF.GenerationSoftware,KiCad,Pcbnew,(6.0.10)*%
%TF.CreationDate,2023-01-29T20:47:39-05:00*%
%TF.ProjectId,shortstack,73686f72-7473-4746-9163-6b2e6b696361,v1.0.0*%
%TF.SameCoordinates,Original*%
%TF.FileFunction,Drillmap*%
%TF.FilePolarity,Positive*%
%FSLAX45Y45*%
G04 Gerber Fmt 4.5, Leading zero omitted, Abs format (unit mm)*
G04 Created by KiCad (PCBNEW (6.0.10)) date 2023-01-29 20:47:39*
%MOMM*%
%LPD*%
G01*
G04 APERTURE LIST*
%ADD10C,0.150000*%
%ADD11C,0.200000*%
%ADD12C,0.030000*%
%ADD13C,0.040000*%
%ADD14C,0.090000*%
%ADD15C,0.110000*%
G04 APERTURE END LIST*
D10*
X9662500Y-887500D02*
G75*
G03*
X9762500Y-787500I0J100000D01*
G01*
X9762500Y6112500D02*
G75*
G03*
X9662500Y6212500I-100000J0D01*
G01*
X-2762500Y-787500D02*
G75*
G03*
X-2662500Y-887500I100000J0D01*
G01*
X-2662500Y6212500D02*
X9662500Y6212500D01*
X9762500Y6112500D02*
X9762500Y-787500D01*
X9662500Y-887500D02*
X-2662500Y-887500D01*
X-2762500Y-787500D02*
X-2762500Y6112500D01*
X-2662500Y6212500D02*
G75*
G03*
X-2762500Y6112500I0J-100000D01*
G01*
D11*
D12*
X-2676086Y5997804D02*
X-2646086Y5967804D01*
X-2646086Y5997804D02*
X-2676086Y5967804D01*
X-882185Y4257642D02*
X-852185Y4227642D01*
X-852185Y4257642D02*
X-882185Y4227642D01*
X-882104Y3226705D02*
X-852104Y3196705D01*
X-852104Y3226705D02*
X-882104Y3196705D01*
X-881633Y3732604D02*
X-851633Y3702604D01*
X-851633Y3732604D02*
X-881633Y3702604D01*
X-880972Y3482227D02*
X-850972Y3452227D01*
X-850972Y3482227D02*
X-880972Y3452227D01*
X-879422Y3990846D02*
X-849422Y3960846D01*
X-849422Y3990846D02*
X-879422Y3960846D01*
X-819313Y4611450D02*
X-789313Y4581450D01*
X-789313Y4611450D02*
X-819313Y4581450D01*
X-818364Y4537941D02*
X-788364Y4507941D01*
X-788364Y4537941D02*
X-818364Y4507941D01*
X-792135Y2986330D02*
X-762135Y2956330D01*
X-762135Y2986330D02*
X-792135Y2956330D01*
X-791311Y-423716D02*
X-761311Y-453716D01*
X-761311Y-423716D02*
X-791311Y-453716D01*
X-772317Y4481747D02*
X-742317Y4451747D01*
X-742317Y4481747D02*
X-772317Y4451747D01*
X-723961Y4427528D02*
X-693961Y4397528D01*
X-693961Y4427528D02*
X-723961Y4397528D01*
X-696908Y1359720D02*
X-666908Y1329720D01*
X-666908Y1359720D02*
X-696908Y1329720D01*
X-696658Y3278154D02*
X-666658Y3248154D01*
X-666658Y3278154D02*
X-696658Y3248154D01*
X-678651Y3785789D02*
X-648651Y3755789D01*
X-648651Y3785789D02*
X-678651Y3755789D01*
X-671451Y4377158D02*
X-641451Y4347158D01*
X-641451Y4377158D02*
X-671451Y4347158D01*
X-666589Y4897742D02*
X-636589Y4867742D01*
X-636589Y4897742D02*
X-666589Y4867742D01*
X-535458Y3525313D02*
X-505458Y3495313D01*
X-505458Y3525313D02*
X-535458Y3495313D01*
X-534234Y3159390D02*
X-504234Y3129390D01*
X-504234Y3159390D02*
X-534234Y3129390D01*
X-464999Y4663741D02*
X-434999Y4633741D01*
X-434999Y4663741D02*
X-464999Y4633741D01*
X1327299Y4609722D02*
X1357299Y4579722D01*
X1357299Y4609722D02*
X1327299Y4579722D01*
X3102299Y4556975D02*
X3132299Y4526975D01*
X3132299Y4556975D02*
X3102299Y4526975D01*
X4877299Y4498757D02*
X4907299Y4468757D01*
X4907299Y4498757D02*
X4877299Y4468757D01*
X6652299Y4445916D02*
X6682299Y4415916D01*
X6682299Y4445916D02*
X6652299Y4415916D01*
X8427299Y4390228D02*
X8457299Y4360228D01*
X8457299Y4390228D02*
X8427299Y4360228D01*
X-195000Y4850000D02*
G75*
G03*
X-195000Y4850000I-15000J0D01*
G01*
X-195000Y3075000D02*
G75*
G03*
X-195000Y3075000I-15000J0D01*
G01*
X-195000Y1300000D02*
G75*
G03*
X-195000Y1300000I-15000J0D01*
G01*
X-195000Y-475000D02*
G75*
G03*
X-195000Y-475000I-15000J0D01*
G01*
X225000Y4850000D02*
G75*
G03*
X225000Y4850000I-15000J0D01*
G01*
X225000Y3075000D02*
G75*
G03*
X225000Y3075000I-15000J0D01*
G01*
X225000Y1300000D02*
G75*
G03*
X225000Y1300000I-15000J0D01*
G01*
X225000Y-475000D02*
G75*
G03*
X225000Y-475000I-15000J0D01*
G01*
X1580000Y4850000D02*
G75*
G03*
X1580000Y4850000I-15000J0D01*
G01*
X1580000Y3075000D02*
G75*
G03*
X1580000Y3075000I-15000J0D01*
G01*
X1580000Y1300000D02*
G75*
G03*
X1580000Y1300000I-15000J0D01*
G01*
X1580000Y-475000D02*
G75*
G03*
X1580000Y-475000I-15000J0D01*
G01*
X2000000Y4850000D02*
G75*
G03*
X2000000Y4850000I-15000J0D01*
G01*
X2000000Y3075000D02*
G75*
G03*
X2000000Y3075000I-15000J0D01*
G01*
X2000000Y1300000D02*
G75*
G03*
X2000000Y1300000I-15000J0D01*
G01*
X2000000Y-475000D02*
G75*
G03*
X2000000Y-475000I-15000J0D01*
G01*
X3355000Y4850000D02*
G75*
G03*
X3355000Y4850000I-15000J0D01*
G01*
X3355000Y3075000D02*
G75*
G03*
X3355000Y3075000I-15000J0D01*
G01*
X3355000Y1300000D02*
G75*
G03*
X3355000Y1300000I-15000J0D01*
G01*
X3355000Y-475000D02*
G75*
G03*
X3355000Y-475000I-15000J0D01*
G01*
X3775000Y4850000D02*
G75*
G03*
X3775000Y4850000I-15000J0D01*
G01*
X3775000Y3075000D02*
G75*
G03*
X3775000Y3075000I-15000J0D01*
G01*
X3775000Y1300000D02*
G75*
G03*
X3775000Y1300000I-15000J0D01*
G01*
X3775000Y-475000D02*
G75*
G03*
X3775000Y-475000I-15000J0D01*
G01*
X5130000Y4850000D02*
G75*
G03*
X5130000Y4850000I-15000J0D01*
G01*
X5130000Y3075000D02*
G75*
G03*
X5130000Y3075000I-15000J0D01*
G01*
X5130000Y1300000D02*
G75*
G03*
X5130000Y1300000I-15000J0D01*
G01*
X5130000Y-475000D02*
G75*
G03*
X5130000Y-475000I-15000J0D01*
G01*
X5550000Y4850000D02*
G75*
G03*
X5550000Y4850000I-15000J0D01*
G01*
X5550000Y3075000D02*
G75*
G03*
X5550000Y3075000I-15000J0D01*
G01*
X5550000Y1300000D02*
G75*
G03*
X5550000Y1300000I-15000J0D01*
G01*
X5550000Y-475000D02*
G75*
G03*
X5550000Y-475000I-15000J0D01*
G01*
X6905000Y4850000D02*
G75*
G03*
X6905000Y4850000I-15000J0D01*
G01*
X6905000Y3075000D02*
G75*
G03*
X6905000Y3075000I-15000J0D01*
G01*
X6905000Y1300000D02*
G75*
G03*
X6905000Y1300000I-15000J0D01*
G01*
X6905000Y-475000D02*
G75*
G03*
X6905000Y-475000I-15000J0D01*
G01*
X7325000Y4850000D02*
G75*
G03*
X7325000Y4850000I-15000J0D01*
G01*
X7325000Y3075000D02*
G75*
G03*
X7325000Y3075000I-15000J0D01*
G01*
X7325000Y1300000D02*
G75*
G03*
X7325000Y1300000I-15000J0D01*
G01*
X7325000Y-475000D02*
G75*
G03*
X7325000Y-475000I-15000J0D01*
G01*
X8680000Y4850000D02*
G75*
G03*
X8680000Y4850000I-15000J0D01*
G01*
X8680000Y3075000D02*
G75*
G03*
X8680000Y3075000I-15000J0D01*
G01*
X8680000Y1300000D02*
G75*
G03*
X8680000Y1300000I-15000J0D01*
G01*
X8680000Y-475000D02*
G75*
G03*
X8680000Y-475000I-15000J0D01*
G01*
X9100000Y4850000D02*
G75*
G03*
X9100000Y4850000I-15000J0D01*
G01*
X9100000Y3075000D02*
G75*
G03*
X9100000Y3075000I-15000J0D01*
G01*
X9100000Y1300000D02*
G75*
G03*
X9100000Y1300000I-15000J0D01*
G01*
X9100000Y-475000D02*
G75*
G03*
X9100000Y-475000I-15000J0D01*
G01*
D13*
X-1854196Y5898442D02*
X-1854196Y5858442D01*
X-1874196Y5878442D02*
X-1834196Y5878442D01*
X-1854196Y5644442D02*
X-1854196Y5604442D01*
X-1874196Y5624442D02*
X-1834196Y5624442D01*
X-1854196Y5390442D02*
X-1854196Y5350442D01*
X-1874196Y5370442D02*
X-1834196Y5370442D01*
X-1854196Y5136442D02*
X-1854196Y5096442D01*
X-1874196Y5116442D02*
X-1834196Y5116442D01*
X-1854196Y4882442D02*
X-1854196Y4842442D01*
X-1874196Y4862442D02*
X-1834196Y4862442D01*
X-1854196Y4628442D02*
X-1854196Y4588442D01*
X-1874196Y4608442D02*
X-1834196Y4608442D01*
X-1854196Y4374442D02*
X-1854196Y4334442D01*
X-1874196Y4354442D02*
X-1834196Y4354442D01*
X-1854196Y4120442D02*
X-1854196Y4080442D01*
X-1874196Y4100442D02*
X-1834196Y4100442D01*
X-1854196Y3866442D02*
X-1854196Y3826442D01*
X-1874196Y3846442D02*
X-1834196Y3846442D01*
X-1854196Y3612442D02*
X-1854196Y3572442D01*
X-1874196Y3592442D02*
X-1834196Y3592442D01*
X-1854196Y3358442D02*
X-1854196Y3318442D01*
X-1874196Y3338442D02*
X-1834196Y3338442D01*
X-1854196Y3104442D02*
X-1854196Y3064442D01*
X-1874196Y3084442D02*
X-1834196Y3084442D01*
X-1701796Y5898442D02*
X-1701796Y5858442D01*
X-1721796Y5878442D02*
X-1681796Y5878442D01*
X-1701796Y5644442D02*
X-1701796Y5604442D01*
X-1721796Y5624442D02*
X-1681796Y5624442D01*
X-1701796Y5390442D02*
X-1701796Y5350442D01*
X-1721796Y5370442D02*
X-1681796Y5370442D01*
X-1701796Y5136442D02*
X-1701796Y5096442D01*
X-1721796Y5116442D02*
X-1681796Y5116442D01*
X-1701796Y4882442D02*
X-1701796Y4842442D01*
X-1721796Y4862442D02*
X-1681796Y4862442D01*
X-1701796Y4628442D02*
X-1701796Y4588442D01*
X-1721796Y4608442D02*
X-1681796Y4608442D01*
X-1701796Y4374442D02*
X-1701796Y4334442D01*
X-1721796Y4354442D02*
X-1681796Y4354442D01*
X-1701796Y4120442D02*
X-1701796Y4080442D01*
X-1721796Y4100442D02*
X-1681796Y4100442D01*
X-1701796Y3866442D02*
X-1701796Y3826442D01*
X-1721796Y3846442D02*
X-1681796Y3846442D01*
X-1701796Y3612442D02*
X-1701796Y3572442D01*
X-1721796Y3592442D02*
X-1681796Y3592442D01*
X-1701796Y3358442D02*
X-1701796Y3318442D01*
X-1721796Y3338442D02*
X-1681796Y3338442D01*
X-1701796Y3104442D02*
X-1701796Y3064442D01*
X-1721796Y3084442D02*
X-1681796Y3084442D01*
D14*
X-2410069Y2451207D02*
X-2410069Y2514848D01*
X-2473709Y2514848D01*
X-2473709Y2451207D01*
X-2410069Y2451207D01*
D11*
X-2471889Y2438027D02*
X-2411889Y2438027D01*
X-2471889Y2528027D02*
X-2411889Y2528027D01*
X-2411889Y2438027D02*
G75*
G03*
X-2411889Y2528027I0J45000D01*
G01*
X-2471889Y2528027D02*
G75*
G03*
X-2471889Y2438027I0J-45000D01*
G01*
D14*
X-2410069Y1991207D02*
X-2410069Y2054847D01*
X-2473709Y2054847D01*
X-2473709Y1991207D01*
X-2410069Y1991207D01*
D11*
X-2471889Y1978027D02*
X-2411889Y1978027D01*
X-2471889Y2068027D02*
X-2411889Y2068027D01*
X-2411889Y1978027D02*
G75*
G03*
X-2411889Y2068027I0J45000D01*
G01*
X-2471889Y2068027D02*
G75*
G03*
X-2471889Y1978027I0J-45000D01*
G01*
D14*
X-2110069Y2451207D02*
X-2110069Y2514848D01*
X-2173709Y2514848D01*
X-2173709Y2451207D01*
X-2110069Y2451207D01*
D11*
X-2171889Y2438027D02*
X-2111889Y2438027D01*
X-2171889Y2528027D02*
X-2111889Y2528027D01*
X-2111889Y2438027D02*
G75*
G03*
X-2111889Y2528027I0J45000D01*
G01*
X-2171889Y2528027D02*
G75*
G03*
X-2171889Y2438027I0J-45000D01*
G01*
D14*
X-2110069Y1991207D02*
X-2110069Y2054847D01*
X-2173709Y2054847D01*
X-2173709Y1991207D01*
X-2110069Y1991207D01*
D11*
X-2171889Y1978027D02*
X-2111889Y1978027D01*
X-2171889Y2068027D02*
X-2111889Y2068027D01*
X-2111889Y1978027D02*
G75*
G03*
X-2111889Y2068027I0J45000D01*
G01*
X-2171889Y2068027D02*
G75*
G03*
X-2171889Y1978027I0J-45000D01*
G01*
D14*
X-1710069Y2451207D02*
X-1710069Y2514848D01*
X-1773709Y2514848D01*
X-1773709Y2451207D01*
X-1710069Y2451207D01*
D11*
X-1771889Y2438027D02*
X-1711889Y2438027D01*
X-1771889Y2528027D02*
X-1711889Y2528027D01*
X-1711889Y2438027D02*
G75*
G03*
X-1711889Y2528027I0J45000D01*
G01*
X-1771889Y2528027D02*
G75*
G03*
X-1771889Y2438027I0J-45000D01*
G01*
D14*
X-1710069Y1991207D02*
X-1710069Y2054847D01*
X-1773709Y2054847D01*
X-1773709Y1991207D01*
X-1710069Y1991207D01*
D11*
X-1771889Y1978027D02*
X-1711889Y1978027D01*
X-1771889Y2068027D02*
X-1711889Y2068027D01*
X-1711889Y1978027D02*
G75*
G03*
X-1711889Y2068027I0J45000D01*
G01*
X-1771889Y2068027D02*
G75*
G03*
X-1771889Y1978027I0J-45000D01*
G01*
D14*
X-1600069Y2451207D02*
X-1600069Y2514848D01*
X-1663709Y2514848D01*
X-1663709Y2451207D01*
X-1600069Y2451207D01*
D11*
X-1661889Y2438027D02*
X-1601889Y2438027D01*
X-1661889Y2528027D02*
X-1601889Y2528027D01*
X-1601889Y2438027D02*
G75*
G03*
X-1601889Y2528027I0J45000D01*
G01*
X-1661889Y2528027D02*
G75*
G03*
X-1661889Y2438027I0J-45000D01*
G01*
D14*
X-1600069Y1991207D02*
X-1600069Y2054847D01*
X-1663709Y2054847D01*
X-1663709Y1991207D01*
X-1600069Y1991207D01*
D11*
X-1661889Y1978027D02*
X-1601889Y1978027D01*
X-1661889Y2068027D02*
X-1601889Y2068027D01*
X-1601889Y1978027D02*
G75*
G03*
X-1601889Y2068027I0J45000D01*
G01*
X-1661889Y2068027D02*
G75*
G03*
X-1661889Y1978027I0J-45000D01*
G01*
D15*
X-2539997Y5823442D02*
X-2484997Y5878442D01*
X-2539997Y5933442D01*
X-2594997Y5878442D01*
X-2539997Y5823442D01*
X-2539997Y5823442D02*
X-2484997Y5878442D01*
X-2539997Y5933442D01*
X-2594997Y5878442D01*
X-2539997Y5823442D01*
X-2539997Y5569442D02*
X-2484997Y5624442D01*
X-2539997Y5679442D01*
X-2594997Y5624442D01*
X-2539997Y5569442D01*
X-2539997Y5315442D02*
X-2484997Y5370442D01*
X-2539997Y5425442D01*
X-2594997Y5370442D01*
X-2539997Y5315442D01*
X-2539997Y5061442D02*
X-2484997Y5116442D01*
X-2539997Y5171442D01*
X-2594997Y5116442D01*
X-2539997Y5061442D01*
X-2539997Y4807442D02*
X-2484997Y4862442D01*
X-2539997Y4917442D01*
X-2594997Y4862442D01*
X-2539997Y4807442D01*
X-2539997Y4553442D02*
X-2484997Y4608442D01*
X-2539997Y4663442D01*
X-2594997Y4608442D01*
X-2539997Y4553442D01*
X-2539997Y4299442D02*
X-2484997Y4354442D01*
X-2539997Y4409442D01*
X-2594997Y4354442D01*
X-2539997Y4299442D01*
X-2539997Y4045442D02*
X-2484997Y4100442D01*
X-2539997Y4155442D01*
X-2594997Y4100442D01*
X-2539997Y4045442D01*
X-2539997Y3791442D02*
X-2484997Y3846442D01*
X-2539997Y3901442D01*
X-2594997Y3846442D01*
X-2539997Y3791442D01*
X-2539997Y3537442D02*
X-2484997Y3592442D01*
X-2539997Y3647442D01*
X-2594997Y3592442D01*
X-2539997Y3537442D01*
X-2539997Y3283442D02*
X-2484997Y3338442D01*
X-2539997Y3393442D01*
X-2594997Y3338442D01*
X-2539997Y3283442D01*
X-2539997Y3029442D02*
X-2484997Y3084442D01*
X-2539997Y3139442D01*
X-2594997Y3084442D01*
X-2539997Y3029442D01*
X-1015996Y5823442D02*
X-960996Y5878442D01*
X-1015996Y5933442D01*
X-1070997Y5878442D01*
X-1015996Y5823442D01*
X-1015996Y5823442D02*
X-960996Y5878442D01*
X-1015996Y5933442D01*
X-1070997Y5878442D01*
X-1015996Y5823442D01*
X-1015996Y5569442D02*
X-960996Y5624442D01*
X-1015996Y5679442D01*
X-1070997Y5624442D01*
X-1015996Y5569442D01*
X-1015996Y5315442D02*
X-960996Y5370442D01*
X-1015996Y5425442D01*
X-1070997Y5370442D01*
X-1015996Y5315442D01*
X-1015996Y5061442D02*
X-960996Y5116442D01*
X-1015996Y5171442D01*
X-1070997Y5116442D01*
X-1015996Y5061442D01*
X-1015996Y4807442D02*
X-960996Y4862442D01*
X-1015996Y4917442D01*
X-1070997Y4862442D01*
X-1015996Y4807442D01*
X-1015996Y4553442D02*
X-960996Y4608442D01*
X-1015996Y4663442D01*
X-1070997Y4608442D01*
X-1015996Y4553442D01*
X-1015996Y4299442D02*
X-960996Y4354442D01*
X-1015996Y4409442D01*
X-1070997Y4354442D01*
X-1015996Y4299442D01*
X-1015996Y4045442D02*
X-960996Y4100442D01*
X-1015996Y4155442D01*
X-1070997Y4100442D01*
X-1015996Y4045442D01*
X-1015996Y3791442D02*
X-960996Y3846442D01*
X-1015996Y3901442D01*
X-1070997Y3846442D01*
X-1015996Y3791442D01*
X-1015996Y3537442D02*
X-960996Y3592442D01*
X-1015996Y3647442D01*
X-1070997Y3592442D01*
X-1015996Y3537442D01*
X-1015996Y3283442D02*
X-960996Y3338442D01*
X-1015996Y3393442D01*
X-1070997Y3338442D01*
X-1015996Y3283442D01*
X-1015996Y3029442D02*
X-960996Y3084442D01*
X-1015996Y3139442D01*
X-1070997Y3084442D01*
X-1015996Y3029442D01*
X-340001Y5558766D02*
X-285001Y5613766D01*
X-340001Y5668766D01*
X-395001Y5613766D01*
X-340001Y5558766D01*
X-340001Y5068766D02*
X-285001Y5123766D01*
X-340001Y5178766D01*
X-395001Y5123766D01*
X-340001Y5068766D01*
X-340001Y3783766D02*
X-285001Y3838766D01*
X-340001Y3893766D01*
X-395001Y3838766D01*
X-340001Y3783766D01*
X-340001Y3293766D02*
X-285001Y3348766D01*
X-340001Y3403766D01*
X-395001Y3348766D01*
X-340001Y3293766D01*
X-340001Y2008766D02*
X-285001Y2063766D01*
X-340001Y2118766D01*
X-395001Y2063766D01*
X-340001Y2008766D01*
X-340001Y1518766D02*
X-285001Y1573766D01*
X-340001Y1628766D01*
X-395001Y1573766D01*
X-340001Y1518766D01*
X-340001Y233766D02*
X-285001Y288766D01*
X-340001Y343766D01*
X-395001Y288766D01*
X-340001Y233766D01*
X-340001Y-256234D02*
X-285001Y-201234D01*
X-340001Y-146234D01*
X-395001Y-201234D01*
X-340001Y-256234D01*
X340001Y5560000D02*
X395001Y5615000D01*
X340001Y5670000D01*
X285001Y5615000D01*
X340001Y5560000D01*
X340001Y5070000D02*
X395001Y5125000D01*
X340001Y5180000D01*
X285001Y5125000D01*
X340001Y5070000D01*
X340001Y3785000D02*
X395001Y3840000D01*
X340001Y3895000D01*
X285001Y3840000D01*
X340001Y3785000D01*
X340001Y3295000D02*
X395001Y3350000D01*
X340001Y3405000D01*
X285001Y3350000D01*
X340001Y3295000D01*
X340001Y2010000D02*
X395001Y2065000D01*
X340001Y2120000D01*
X285001Y2065000D01*
X340001Y2010000D01*
X340001Y1520000D02*
X395001Y1575000D01*
X340001Y1630000D01*
X285001Y1575000D01*
X340001Y1520000D01*
X340001Y235000D02*
X395001Y290000D01*
X340001Y345000D01*
X285001Y290000D01*
X340001Y235000D01*
X340001Y-255000D02*
X395001Y-200000D01*
X340001Y-145000D01*
X285001Y-200000D01*
X340001Y-255000D01*
X1434999Y5558766D02*
X1489999Y5613766D01*
X1434999Y5668766D01*
X1379999Y5613766D01*
X1434999Y5558766D01*
X1434999Y5068766D02*
X1489999Y5123766D01*
X1434999Y5178766D01*
X1379999Y5123766D01*
X1434999Y5068766D01*
X1434999Y3783766D02*
X1489999Y3838766D01*
X1434999Y3893766D01*
X1379999Y3838766D01*
X1434999Y3783766D01*
X1434999Y3293766D02*
X1489999Y3348766D01*
X1434999Y3403766D01*
X1379999Y3348766D01*
X1434999Y3293766D01*
X1434999Y2008766D02*
X1489999Y2063766D01*
X1434999Y2118766D01*
X1379999Y2063766D01*
X1434999Y2008766D01*
X1434999Y1518766D02*
X1489999Y1573766D01*
X1434999Y1628766D01*
X1379999Y1573766D01*
X1434999Y1518766D01*
X1434999Y233766D02*
X1489999Y288766D01*
X1434999Y343766D01*
X1379999Y288766D01*
X1434999Y233766D01*
X1434999Y-256234D02*
X1489999Y-201234D01*
X1434999Y-146234D01*
X1379999Y-201234D01*
X1434999Y-256234D01*
X2115001Y5560000D02*
X2170001Y5615000D01*
X2115001Y5670000D01*
X2060001Y5615000D01*
X2115001Y5560000D01*
X2115001Y5070000D02*
X2170001Y5125000D01*
X2115001Y5180000D01*
X2060001Y5125000D01*
X2115001Y5070000D01*
X2115001Y3785000D02*
X2170001Y3840000D01*
X2115001Y3895000D01*
X2060001Y3840000D01*
X2115001Y3785000D01*
X2115001Y3295000D02*
X2170001Y3350000D01*
X2115001Y3405000D01*
X2060001Y3350000D01*
X2115001Y3295000D01*
X2115001Y2010000D02*
X2170001Y2065000D01*
X2115001Y2120000D01*
X2060001Y2065000D01*
X2115001Y2010000D01*
X2115001Y1520000D02*
X2170001Y1575000D01*
X2115001Y1630000D01*
X2060001Y1575000D01*
X2115001Y1520000D01*
X2115001Y235000D02*
X2170001Y290000D01*
X2115001Y345000D01*
X2060001Y290000D01*
X2115001Y235000D01*
X2115001Y-255000D02*
X2170001Y-200000D01*
X2115001Y-145000D01*
X2060001Y-200000D01*
X2115001Y-255000D01*
X3209999Y5558766D02*
X3264999Y5613766D01*
X3209999Y5668766D01*
X3154999Y5613766D01*
X3209999Y5558766D01*
X3209999Y5068766D02*
X3264999Y5123766D01*
X3209999Y5178766D01*
X3154999Y5123766D01*
X3209999Y5068766D01*
X3209999Y3783766D02*
X3264999Y3838766D01*
X3209999Y3893766D01*
X3154999Y3838766D01*
X3209999Y3783766D01*
X3209999Y3293766D02*
X3264999Y3348766D01*
X3209999Y3403766D01*
X3154999Y3348766D01*
X3209999Y3293766D01*
X3209999Y2008766D02*
X3264999Y2063766D01*
X3209999Y2118766D01*
X3154999Y2063766D01*
X3209999Y2008766D01*
X3209999Y1518766D02*
X3264999Y1573766D01*
X3209999Y1628766D01*
X3154999Y1573766D01*
X3209999Y1518766D01*
X3209999Y233766D02*
X3264999Y288766D01*
X3209999Y343766D01*
X3154999Y288766D01*
X3209999Y233766D01*
X3209999Y-256234D02*
X3264999Y-201234D01*
X3209999Y-146234D01*
X3154999Y-201234D01*
X3209999Y-256234D01*
X3890001Y5560000D02*
X3945001Y5615000D01*
X3890001Y5670000D01*
X3835001Y5615000D01*
X3890001Y5560000D01*
X3890001Y5070000D02*
X3945001Y5125000D01*
X3890001Y5180000D01*
X3835001Y5125000D01*
X3890001Y5070000D01*
X3890001Y3785000D02*
X3945001Y3840000D01*
X3890001Y3895000D01*
X3835001Y3840000D01*
X3890001Y3785000D01*
X3890001Y3295000D02*
X3945001Y3350000D01*
X3890001Y3405000D01*
X3835001Y3350000D01*
X3890001Y3295000D01*
X3890001Y2010000D02*
X3945001Y2065000D01*
X3890001Y2120000D01*
X3835001Y2065000D01*
X3890001Y2010000D01*
X3890001Y1520000D02*
X3945001Y1575000D01*
X3890001Y1630000D01*
X3835001Y1575000D01*
X3890001Y1520000D01*
X3890001Y235000D02*
X3945001Y290000D01*
X3890001Y345000D01*
X3835001Y290000D01*
X3890001Y235000D01*
X3890001Y-255000D02*
X3945001Y-200000D01*
X3890001Y-145000D01*
X3835001Y-200000D01*
X3890001Y-255000D01*
X4984999Y5558766D02*
X5039999Y5613766D01*
X4984999Y5668766D01*
X4929999Y5613766D01*
X4984999Y5558766D01*
X4984999Y5068766D02*
X5039999Y5123766D01*
X4984999Y5178766D01*
X4929999Y5123766D01*
X4984999Y5068766D01*
X4984999Y3783766D02*
X5039999Y3838766D01*
X4984999Y3893766D01*
X4929999Y3838766D01*
X4984999Y3783766D01*
X4984999Y3293766D02*
X5039999Y3348766D01*
X4984999Y3403766D01*
X4929999Y3348766D01*
X4984999Y3293766D01*
X4984999Y2008766D02*
X5039999Y2063766D01*
X4984999Y2118766D01*
X4929999Y2063766D01*
X4984999Y2008766D01*
X4984999Y1518766D02*
X5039999Y1573766D01*
X4984999Y1628766D01*
X4929999Y1573766D01*
X4984999Y1518766D01*
X4984999Y233766D02*
X5039999Y288766D01*
X4984999Y343766D01*
X4929999Y288766D01*
X4984999Y233766D01*
X4984999Y-256234D02*
X5039999Y-201234D01*
X4984999Y-146234D01*
X4929999Y-201234D01*
X4984999Y-256234D01*
X5665001Y5560000D02*
X5720001Y5615000D01*
X5665001Y5670000D01*
X5610001Y5615000D01*
X5665001Y5560000D01*
X5665001Y5070000D02*
X5720001Y5125000D01*
X5665001Y5180000D01*
X5610001Y5125000D01*
X5665001Y5070000D01*
X5665001Y3785000D02*
X5720001Y3840000D01*
X5665001Y3895000D01*
X5610001Y3840000D01*
X5665001Y3785000D01*
X5665001Y3295000D02*
X5720001Y3350000D01*
X5665001Y3405000D01*
X5610001Y3350000D01*
X5665001Y3295000D01*
X5665001Y2010000D02*
X5720001Y2065000D01*
X5665001Y2120000D01*
X5610001Y2065000D01*
X5665001Y2010000D01*
X5665001Y1520000D02*
X5720001Y1575000D01*
X5665001Y1630000D01*
X5610001Y1575000D01*
X5665001Y1520000D01*
X5665001Y235000D02*
X5720001Y290000D01*
X5665001Y345000D01*
X5610001Y290000D01*
X5665001Y235000D01*
X5665001Y-255000D02*
X5720001Y-200000D01*
X5665001Y-145000D01*
X5610001Y-200000D01*
X5665001Y-255000D01*
X6759999Y5558766D02*
X6814999Y5613766D01*
X6759999Y5668766D01*
X6704999Y5613766D01*
X6759999Y5558766D01*
X6759999Y5068766D02*
X6814999Y5123766D01*
X6759999Y5178766D01*
X6704999Y5123766D01*
X6759999Y5068766D01*
X6759999Y3783766D02*
X6814999Y3838766D01*
X6759999Y3893766D01*
X6704999Y3838766D01*
X6759999Y3783766D01*
X6759999Y3293766D02*
X6814999Y3348766D01*
X6759999Y3403766D01*
X6704999Y3348766D01*
X6759999Y3293766D01*
X6759999Y2008766D02*
X6814999Y2063766D01*
X6759999Y2118766D01*
X6704999Y2063766D01*
X6759999Y2008766D01*
X6759999Y1518766D02*
X6814999Y1573766D01*
X6759999Y1628766D01*
X6704999Y1573766D01*
X6759999Y1518766D01*
X6759999Y233766D02*
X6814999Y288766D01*
X6759999Y343766D01*
X6704999Y288766D01*
X6759999Y233766D01*
X6759999Y-256234D02*
X6814999Y-201234D01*
X6759999Y-146234D01*
X6704999Y-201234D01*
X6759999Y-256234D01*
X7440001Y5560000D02*
X7495001Y5615000D01*
X7440001Y5670000D01*
X7385001Y5615000D01*
X7440001Y5560000D01*
X7440001Y5070000D02*
X7495001Y5125000D01*
X7440001Y5180000D01*
X7385001Y5125000D01*
X7440001Y5070000D01*
X7440001Y3785000D02*
X7495001Y3840000D01*
X7440001Y3895000D01*
X7385001Y3840000D01*
X7440001Y3785000D01*
X7440001Y3295000D02*
X7495001Y3350000D01*
X7440001Y3405000D01*
X7385001Y3350000D01*
X7440001Y3295000D01*
X7440001Y2010000D02*
X7495001Y2065000D01*
X7440001Y2120000D01*
X7385001Y2065000D01*
X7440001Y2010000D01*
X7440001Y1520000D02*
X7495001Y1575000D01*
X7440001Y1630000D01*
X7385001Y1575000D01*
X7440001Y1520000D01*
X7440001Y235000D02*
X7495001Y290000D01*
X7440001Y345000D01*
X7385001Y290000D01*
X7440001Y235000D01*
X7440001Y-255000D02*
X7495001Y-200000D01*
X7440001Y-145000D01*
X7385001Y-200000D01*
X7440001Y-255000D01*
X8534999Y5558766D02*
X8589999Y5613766D01*
X8534999Y5668766D01*
X8479999Y5613766D01*
X8534999Y5558766D01*
X8534999Y5068766D02*
X8589999Y5123766D01*
X8534999Y5178766D01*
X8479999Y5123766D01*
X8534999Y5068766D01*
X8534999Y3783766D02*
X8589999Y3838766D01*
X8534999Y3893766D01*
X8479999Y3838766D01*
X8534999Y3783766D01*
X8534999Y3293766D02*
X8589999Y3348766D01*
X8534999Y3403766D01*
X8479999Y3348766D01*
X8534999Y3293766D01*
X8534999Y2008766D02*
X8589999Y2063766D01*
X8534999Y2118766D01*
X8479999Y2063766D01*
X8534999Y2008766D01*
X8534999Y1518766D02*
X8589999Y1573766D01*
X8534999Y1628766D01*
X8479999Y1573766D01*
X8534999Y1518766D01*
X8534999Y233766D02*
X8589999Y288766D01*
X8534999Y343766D01*
X8479999Y288766D01*
X8534999Y233766D01*
X8534999Y-256234D02*
X8589999Y-201234D01*
X8534999Y-146234D01*
X8479999Y-201234D01*
X8534999Y-256234D01*
X9215001Y5560000D02*
X9270001Y5615000D01*
X9215001Y5670000D01*
X9160001Y5615000D01*
X9215001Y5560000D01*
X9215001Y5070000D02*
X9270001Y5125000D01*
X9215001Y5180000D01*
X9160001Y5125000D01*
X9215001Y5070000D01*
X9215001Y3785000D02*
X9270001Y3840000D01*
X9215001Y3895000D01*
X9160001Y3840000D01*
X9215001Y3785000D01*
X9215001Y3295000D02*
X9270001Y3350000D01*
X9215001Y3405000D01*
X9160001Y3350000D01*
X9215001Y3295000D01*
X9215001Y2010000D02*
X9270001Y2065000D01*
X9215001Y2120000D01*
X9160001Y2065000D01*
X9215001Y2010000D01*
X9215001Y1520000D02*
X9270001Y1575000D01*
X9215001Y1630000D01*
X9160001Y1575000D01*
X9215001Y1520000D01*
X9215001Y235000D02*
X9270001Y290000D01*
X9215001Y345000D01*
X9160001Y290000D01*
X9215001Y235000D01*
X9215001Y-255000D02*
X9270001Y-200000D01*
X9215001Y-145000D01*
X9160001Y-200000D01*
X9215001Y-255000D01*
D11*
X-2512381Y-1205476D02*
X-2512381Y-1005476D01*
X-2464762Y-1005476D01*
X-2436190Y-1015000D01*
X-2417143Y-1034048D01*
X-2407619Y-1053095D01*
X-2398095Y-1091190D01*
X-2398095Y-1119762D01*
X-2407619Y-1157857D01*
X-2417143Y-1176905D01*
X-2436190Y-1195952D01*
X-2464762Y-1205476D01*
X-2512381Y-1205476D01*
X-2312381Y-1205476D02*
X-2312381Y-1072143D01*
X-2312381Y-1110238D02*
X-2302857Y-1091190D01*
X-2293333Y-1081667D01*
X-2274286Y-1072143D01*
X-2255238Y-1072143D01*
X-2188571Y-1205476D02*
X-2188571Y-1072143D01*
X-2188571Y-1005476D02*
X-2198095Y-1015000D01*
X-2188571Y-1024524D01*
X-2179048Y-1015000D01*
X-2188571Y-1005476D01*
X-2188571Y-1024524D01*
X-2064762Y-1205476D02*
X-2083809Y-1195952D01*
X-2093333Y-1176905D01*
X-2093333Y-1005476D01*
X-1960000Y-1205476D02*
X-1979048Y-1195952D01*
X-1988571Y-1176905D01*
X-1988571Y-1005476D01*
X-1731428Y-1205476D02*
X-1731428Y-1005476D01*
X-1664762Y-1148333D01*
X-1598095Y-1005476D01*
X-1598095Y-1205476D01*
X-1417143Y-1205476D02*
X-1417143Y-1100714D01*
X-1426667Y-1081667D01*
X-1445714Y-1072143D01*
X-1483809Y-1072143D01*
X-1502857Y-1081667D01*
X-1417143Y-1195952D02*
X-1436190Y-1205476D01*
X-1483809Y-1205476D01*
X-1502857Y-1195952D01*
X-1512381Y-1176905D01*
X-1512381Y-1157857D01*
X-1502857Y-1138810D01*
X-1483809Y-1129286D01*
X-1436190Y-1129286D01*
X-1417143Y-1119762D01*
X-1321905Y-1072143D02*
X-1321905Y-1272143D01*
X-1321905Y-1081667D02*
X-1302857Y-1072143D01*
X-1264762Y-1072143D01*
X-1245714Y-1081667D01*
X-1236190Y-1091190D01*
X-1226667Y-1110238D01*
X-1226667Y-1167381D01*
X-1236190Y-1186429D01*
X-1245714Y-1195952D01*
X-1264762Y-1205476D01*
X-1302857Y-1205476D01*
X-1321905Y-1195952D01*
X-1140952Y-1186429D02*
X-1131429Y-1195952D01*
X-1140952Y-1205476D01*
X-1150476Y-1195952D01*
X-1140952Y-1186429D01*
X-1140952Y-1205476D01*
X-1140952Y-1081667D02*
X-1131429Y-1091190D01*
X-1140952Y-1100714D01*
X-1150476Y-1091190D01*
X-1140952Y-1081667D01*
X-1140952Y-1100714D01*
D12*
X-2800000Y-1520000D02*
X-2770000Y-1550000D01*
X-2770000Y-1520000D02*
X-2800000Y-1550000D01*
D11*
X-2474286Y-1425476D02*
X-2455238Y-1425476D01*
X-2436190Y-1435000D01*
X-2426667Y-1444524D01*
X-2417143Y-1463571D01*
X-2407619Y-1501667D01*
X-2407619Y-1549286D01*
X-2417143Y-1587381D01*
X-2426667Y-1606428D01*
X-2436190Y-1615952D01*
X-2455238Y-1625476D01*
X-2474286Y-1625476D01*
X-2493333Y-1615952D01*
X-2502857Y-1606428D01*
X-2512381Y-1587381D01*
X-2521905Y-1549286D01*
X-2521905Y-1501667D01*
X-2512381Y-1463571D01*
X-2502857Y-1444524D01*
X-2493333Y-1435000D01*
X-2474286Y-1425476D01*
X-2321905Y-1606428D02*
X-2312381Y-1615952D01*
X-2321905Y-1625476D01*
X-2331429Y-1615952D01*
X-2321905Y-1606428D01*
X-2321905Y-1625476D01*
X-2245714Y-1425476D02*
X-2121905Y-1425476D01*
X-2188571Y-1501667D01*
X-2160000Y-1501667D01*
X-2140952Y-1511190D01*
X-2131429Y-1520714D01*
X-2121905Y-1539762D01*
X-2121905Y-1587381D01*
X-2131429Y-1606428D01*
X-2140952Y-1615952D01*
X-2160000Y-1625476D01*
X-2217143Y-1625476D01*
X-2236190Y-1615952D01*
X-2245714Y-1606428D01*
X-1998095Y-1425476D02*
X-1979048Y-1425476D01*
X-1960000Y-1435000D01*
X-1950476Y-1444524D01*
X-1940952Y-1463571D01*
X-1931428Y-1501667D01*
X-1931428Y-1549286D01*
X-1940952Y-1587381D01*
X-1950476Y-1606428D01*
X-1960000Y-1615952D01*
X-1979048Y-1625476D01*
X-1998095Y-1625476D01*
X-2017143Y-1615952D01*
X-2026667Y-1606428D01*
X-2036190Y-1587381D01*
X-2045714Y-1549286D01*
X-2045714Y-1501667D01*
X-2036190Y-1463571D01*
X-2026667Y-1444524D01*
X-2017143Y-1435000D01*
X-1998095Y-1425476D01*
X-1807619Y-1425476D02*
X-1788571Y-1425476D01*
X-1769524Y-1435000D01*
X-1760000Y-1444524D01*
X-1750476Y-1463571D01*
X-1740952Y-1501667D01*
X-1740952Y-1549286D01*
X-1750476Y-1587381D01*
X-1760000Y-1606428D01*
X-1769524Y-1615952D01*
X-1788571Y-1625476D01*
X-1807619Y-1625476D01*
X-1826667Y-1615952D01*
X-1836190Y-1606428D01*
X-1845714Y-1587381D01*
X-1855238Y-1549286D01*
X-1855238Y-1501667D01*
X-1845714Y-1463571D01*
X-1836190Y-1444524D01*
X-1826667Y-1435000D01*
X-1807619Y-1425476D01*
X-1655238Y-1625476D02*
X-1655238Y-1492143D01*
X-1655238Y-1511190D02*
X-1645714Y-1501667D01*
X-1626667Y-1492143D01*
X-1598095Y-1492143D01*
X-1579048Y-1501667D01*
X-1569524Y-1520714D01*
X-1569524Y-1625476D01*
X-1569524Y-1520714D02*
X-1560000Y-1501667D01*
X-1540952Y-1492143D01*
X-1512381Y-1492143D01*
X-1493333Y-1501667D01*
X-1483809Y-1520714D01*
X-1483809Y-1625476D01*
X-1388571Y-1625476D02*
X-1388571Y-1492143D01*
X-1388571Y-1511190D02*
X-1379048Y-1501667D01*
X-1360000Y-1492143D01*
X-1331429Y-1492143D01*
X-1312381Y-1501667D01*
X-1302857Y-1520714D01*
X-1302857Y-1625476D01*
X-1302857Y-1520714D02*
X-1293333Y-1501667D01*
X-1274286Y-1492143D01*
X-1245714Y-1492143D01*
X-1226667Y-1501667D01*
X-1217143Y-1520714D01*
X-1217143Y-1625476D01*
X-826667Y-1415952D02*
X-998095Y-1673095D01*
X-569524Y-1425476D02*
X-550476Y-1425476D01*
X-531429Y-1435000D01*
X-521905Y-1444524D01*
X-512381Y-1463571D01*
X-502857Y-1501667D01*
X-502857Y-1549286D01*
X-512381Y-1587381D01*
X-521905Y-1606428D01*
X-531429Y-1615952D01*
X-550476Y-1625476D01*
X-569524Y-1625476D01*
X-588571Y-1615952D01*
X-598095Y-1606428D01*
X-607619Y-1587381D01*
X-617143Y-1549286D01*
X-617143Y-1501667D01*
X-607619Y-1463571D01*
X-598095Y-1444524D01*
X-588571Y-1435000D01*
X-569524Y-1425476D01*
X-417143Y-1606428D02*
X-407619Y-1615952D01*
X-417143Y-1625476D01*
X-426667Y-1615952D01*
X-417143Y-1606428D01*
X-417143Y-1625476D01*
X-283810Y-1425476D02*
X-264762Y-1425476D01*
X-245714Y-1435000D01*
X-236190Y-1444524D01*
X-226667Y-1463571D01*
X-217143Y-1501667D01*
X-217143Y-1549286D01*
X-226667Y-1587381D01*
X-236190Y-1606428D01*
X-245714Y-1615952D01*
X-264762Y-1625476D01*
X-283810Y-1625476D01*
X-302857Y-1615952D01*
X-312381Y-1606428D01*
X-321905Y-1587381D01*
X-331429Y-1549286D01*
X-331429Y-1501667D01*
X-321905Y-1463571D01*
X-312381Y-1444524D01*
X-302857Y-1435000D01*
X-283810Y-1425476D01*
X-26667Y-1625476D02*
X-140952Y-1625476D01*
X-83810Y-1625476D02*
X-83810Y-1425476D01*
X-102857Y-1454048D01*
X-121905Y-1473095D01*
X-140952Y-1482619D01*
X163810Y-1625476D02*
X49524Y-1625476D01*
X106667Y-1625476D02*
X106667Y-1425476D01*
X87619Y-1454048D01*
X68571Y-1473095D01*
X49524Y-1482619D01*
X278095Y-1511190D02*
X259048Y-1501667D01*
X249524Y-1492143D01*
X240000Y-1473095D01*
X240000Y-1463571D01*
X249524Y-1444524D01*
X259048Y-1435000D01*
X278095Y-1425476D01*
X316190Y-1425476D01*
X335238Y-1435000D01*
X344762Y-1444524D01*
X354286Y-1463571D01*
X354286Y-1473095D01*
X344762Y-1492143D01*
X335238Y-1501667D01*
X316190Y-1511190D01*
X278095Y-1511190D01*
X259048Y-1520714D01*
X249524Y-1530238D01*
X240000Y-1549286D01*
X240000Y-1587381D01*
X249524Y-1606428D01*
X259048Y-1615952D01*
X278095Y-1625476D01*
X316190Y-1625476D01*
X335238Y-1615952D01*
X344762Y-1606428D01*
X354286Y-1587381D01*
X354286Y-1549286D01*
X344762Y-1530238D01*
X335238Y-1520714D01*
X316190Y-1511190D01*
X430476Y-1425476D02*
X430476Y-1463571D01*
X506667Y-1425476D02*
X506667Y-1463571D01*
X801905Y-1701667D02*
X792381Y-1692143D01*
X773333Y-1663571D01*
X763809Y-1644524D01*
X754286Y-1615952D01*
X744762Y-1568333D01*
X744762Y-1530238D01*
X754286Y-1482619D01*
X763809Y-1454048D01*
X773333Y-1435000D01*
X792381Y-1406428D01*
X801905Y-1396905D01*
X868571Y-1444524D02*
X878095Y-1435000D01*
X897143Y-1425476D01*
X944762Y-1425476D01*
X963809Y-1435000D01*
X973333Y-1444524D01*
X982857Y-1463571D01*
X982857Y-1482619D01*
X973333Y-1511190D01*
X859048Y-1625476D01*
X982857Y-1625476D01*
X1163810Y-1425476D02*
X1068571Y-1425476D01*
X1059048Y-1520714D01*
X1068571Y-1511190D01*
X1087619Y-1501667D01*
X1135238Y-1501667D01*
X1154286Y-1511190D01*
X1163810Y-1520714D01*
X1173333Y-1539762D01*
X1173333Y-1587381D01*
X1163810Y-1606428D01*
X1154286Y-1615952D01*
X1135238Y-1625476D01*
X1087619Y-1625476D01*
X1068571Y-1615952D01*
X1059048Y-1606428D01*
X1411428Y-1625476D02*
X1411428Y-1425476D01*
X1497143Y-1625476D02*
X1497143Y-1520714D01*
X1487619Y-1501667D01*
X1468571Y-1492143D01*
X1440000Y-1492143D01*
X1420952Y-1501667D01*
X1411428Y-1511190D01*
X1620952Y-1625476D02*
X1601905Y-1615952D01*
X1592381Y-1606428D01*
X1582857Y-1587381D01*
X1582857Y-1530238D01*
X1592381Y-1511190D01*
X1601905Y-1501667D01*
X1620952Y-1492143D01*
X1649524Y-1492143D01*
X1668571Y-1501667D01*
X1678095Y-1511190D01*
X1687619Y-1530238D01*
X1687619Y-1587381D01*
X1678095Y-1606428D01*
X1668571Y-1615952D01*
X1649524Y-1625476D01*
X1620952Y-1625476D01*
X1801905Y-1625476D02*
X1782857Y-1615952D01*
X1773333Y-1596905D01*
X1773333Y-1425476D01*
X1954286Y-1615952D02*
X1935238Y-1625476D01*
X1897143Y-1625476D01*
X1878095Y-1615952D01*
X1868571Y-1596905D01*
X1868571Y-1520714D01*
X1878095Y-1501667D01*
X1897143Y-1492143D01*
X1935238Y-1492143D01*
X1954286Y-1501667D01*
X1963809Y-1520714D01*
X1963809Y-1539762D01*
X1868571Y-1558809D01*
X2040000Y-1615952D02*
X2059048Y-1625476D01*
X2097143Y-1625476D01*
X2116190Y-1615952D01*
X2125714Y-1596905D01*
X2125714Y-1587381D01*
X2116190Y-1568333D01*
X2097143Y-1558809D01*
X2068571Y-1558809D01*
X2049524Y-1549286D01*
X2040000Y-1530238D01*
X2040000Y-1520714D01*
X2049524Y-1501667D01*
X2068571Y-1492143D01*
X2097143Y-1492143D01*
X2116190Y-1501667D01*
X2192381Y-1701667D02*
X2201905Y-1692143D01*
X2220952Y-1663571D01*
X2230476Y-1644524D01*
X2240000Y-1615952D01*
X2249524Y-1568333D01*
X2249524Y-1530238D01*
X2240000Y-1482619D01*
X2230476Y-1454048D01*
X2220952Y-1435000D01*
X2201905Y-1406428D01*
X2192381Y-1396905D01*
D12*
X-2770000Y-1799000D02*
G75*
G03*
X-2770000Y-1799000I-15000J0D01*
G01*
D11*
X-2474286Y-1689476D02*
X-2455238Y-1689476D01*
X-2436190Y-1699000D01*
X-2426667Y-1708524D01*
X-2417143Y-1727571D01*
X-2407619Y-1765667D01*
X-2407619Y-1813286D01*
X-2417143Y-1851381D01*
X-2426667Y-1870428D01*
X-2436190Y-1879952D01*
X-2455238Y-1889476D01*
X-2474286Y-1889476D01*
X-2493333Y-1879952D01*
X-2502857Y-1870428D01*
X-2512381Y-1851381D01*
X-2521905Y-1813286D01*
X-2521905Y-1765667D01*
X-2512381Y-1727571D01*
X-2502857Y-1708524D01*
X-2493333Y-1699000D01*
X-2474286Y-1689476D01*
X-2321905Y-1870428D02*
X-2312381Y-1879952D01*
X-2321905Y-1889476D01*
X-2331429Y-1879952D01*
X-2321905Y-1870428D01*
X-2321905Y-1889476D01*
X-2245714Y-1689476D02*
X-2121905Y-1689476D01*
X-2188571Y-1765667D01*
X-2160000Y-1765667D01*
X-2140952Y-1775190D01*
X-2131429Y-1784714D01*
X-2121905Y-1803762D01*
X-2121905Y-1851381D01*
X-2131429Y-1870428D01*
X-2140952Y-1879952D01*
X-2160000Y-1889476D01*
X-2217143Y-1889476D01*
X-2236190Y-1879952D01*
X-2245714Y-1870428D01*
X-1998095Y-1689476D02*
X-1979048Y-1689476D01*
X-1960000Y-1699000D01*
X-1950476Y-1708524D01*
X-1940952Y-1727571D01*
X-1931428Y-1765667D01*
X-1931428Y-1813286D01*
X-1940952Y-1851381D01*
X-1950476Y-1870428D01*
X-1960000Y-1879952D01*
X-1979048Y-1889476D01*
X-1998095Y-1889476D01*
X-2017143Y-1879952D01*
X-2026667Y-1870428D01*
X-2036190Y-1851381D01*
X-2045714Y-1813286D01*
X-2045714Y-1765667D01*
X-2036190Y-1727571D01*
X-2026667Y-1708524D01*
X-2017143Y-1699000D01*
X-1998095Y-1689476D01*
X-1807619Y-1689476D02*
X-1788571Y-1689476D01*
X-1769524Y-1699000D01*
X-1760000Y-1708524D01*
X-1750476Y-1727571D01*
X-1740952Y-1765667D01*
X-1740952Y-1813286D01*
X-1750476Y-1851381D01*
X-1760000Y-1870428D01*
X-1769524Y-1879952D01*
X-1788571Y-1889476D01*
X-1807619Y-1889476D01*
X-1826667Y-1879952D01*
X-1836190Y-1870428D01*
X-1845714Y-1851381D01*
X-1855238Y-1813286D01*
X-1855238Y-1765667D01*
X-1845714Y-1727571D01*
X-1836190Y-1708524D01*
X-1826667Y-1699000D01*
X-1807619Y-1689476D01*
X-1655238Y-1889476D02*
X-1655238Y-1756143D01*
X-1655238Y-1775190D02*
X-1645714Y-1765667D01*
X-1626667Y-1756143D01*
X-1598095Y-1756143D01*
X-1579048Y-1765667D01*
X-1569524Y-1784714D01*
X-1569524Y-1889476D01*
X-1569524Y-1784714D02*
X-1560000Y-1765667D01*
X-1540952Y-1756143D01*
X-1512381Y-1756143D01*
X-1493333Y-1765667D01*
X-1483809Y-1784714D01*
X-1483809Y-1889476D01*
X-1388571Y-1889476D02*
X-1388571Y-1756143D01*
X-1388571Y-1775190D02*
X-1379048Y-1765667D01*
X-1360000Y-1756143D01*
X-1331429Y-1756143D01*
X-1312381Y-1765667D01*
X-1302857Y-1784714D01*
X-1302857Y-1889476D01*
X-1302857Y-1784714D02*
X-1293333Y-1765667D01*
X-1274286Y-1756143D01*
X-1245714Y-1756143D01*
X-1226667Y-1765667D01*
X-1217143Y-1784714D01*
X-1217143Y-1889476D01*
X-826667Y-1679952D02*
X-998095Y-1937095D01*
X-569524Y-1689476D02*
X-550476Y-1689476D01*
X-531429Y-1699000D01*
X-521905Y-1708524D01*
X-512381Y-1727571D01*
X-502857Y-1765667D01*
X-502857Y-1813286D01*
X-512381Y-1851381D01*
X-521905Y-1870428D01*
X-531429Y-1879952D01*
X-550476Y-1889476D01*
X-569524Y-1889476D01*
X-588571Y-1879952D01*
X-598095Y-1870428D01*
X-607619Y-1851381D01*
X-617143Y-1813286D01*
X-617143Y-1765667D01*
X-607619Y-1727571D01*
X-598095Y-1708524D01*
X-588571Y-1699000D01*
X-569524Y-1689476D01*
X-417143Y-1870428D02*
X-407619Y-1879952D01*
X-417143Y-1889476D01*
X-426667Y-1879952D01*
X-417143Y-1870428D01*
X-417143Y-1889476D01*
X-283810Y-1689476D02*
X-264762Y-1689476D01*
X-245714Y-1699000D01*
X-236190Y-1708524D01*
X-226667Y-1727571D01*
X-217143Y-1765667D01*
X-217143Y-1813286D01*
X-226667Y-1851381D01*
X-236190Y-1870428D01*
X-245714Y-1879952D01*
X-264762Y-1889476D01*
X-283810Y-1889476D01*
X-302857Y-1879952D01*
X-312381Y-1870428D01*
X-321905Y-1851381D01*
X-331429Y-1813286D01*
X-331429Y-1765667D01*
X-321905Y-1727571D01*
X-312381Y-1708524D01*
X-302857Y-1699000D01*
X-283810Y-1689476D01*
X-26667Y-1889476D02*
X-140952Y-1889476D01*
X-83810Y-1889476D02*
X-83810Y-1689476D01*
X-102857Y-1718048D01*
X-121905Y-1737095D01*
X-140952Y-1746619D01*
X163810Y-1889476D02*
X49524Y-1889476D01*
X106667Y-1889476D02*
X106667Y-1689476D01*
X87619Y-1718048D01*
X68571Y-1737095D01*
X49524Y-1746619D01*
X278095Y-1775190D02*
X259048Y-1765667D01*
X249524Y-1756143D01*
X240000Y-1737095D01*
X240000Y-1727571D01*
X249524Y-1708524D01*
X259048Y-1699000D01*
X278095Y-1689476D01*
X316190Y-1689476D01*
X335238Y-1699000D01*
X344762Y-1708524D01*
X354286Y-1727571D01*
X354286Y-1737095D01*
X344762Y-1756143D01*
X335238Y-1765667D01*
X316190Y-1775190D01*
X278095Y-1775190D01*
X259048Y-1784714D01*
X249524Y-1794238D01*
X240000Y-1813286D01*
X240000Y-1851381D01*
X249524Y-1870428D01*
X259048Y-1879952D01*
X278095Y-1889476D01*
X316190Y-1889476D01*
X335238Y-1879952D01*
X344762Y-1870428D01*
X354286Y-1851381D01*
X354286Y-1813286D01*
X344762Y-1794238D01*
X335238Y-1784714D01*
X316190Y-1775190D01*
X430476Y-1689476D02*
X430476Y-1727571D01*
X506667Y-1689476D02*
X506667Y-1727571D01*
X801905Y-1965667D02*
X792381Y-1956143D01*
X773333Y-1927571D01*
X763809Y-1908524D01*
X754286Y-1879952D01*
X744762Y-1832333D01*
X744762Y-1794238D01*
X754286Y-1746619D01*
X763809Y-1718048D01*
X773333Y-1699000D01*
X792381Y-1670428D01*
X801905Y-1660905D01*
X963809Y-1756143D02*
X963809Y-1889476D01*
X916190Y-1679952D02*
X868571Y-1822809D01*
X992381Y-1822809D01*
X1097143Y-1775190D02*
X1078095Y-1765667D01*
X1068571Y-1756143D01*
X1059048Y-1737095D01*
X1059048Y-1727571D01*
X1068571Y-1708524D01*
X1078095Y-1699000D01*
X1097143Y-1689476D01*
X1135238Y-1689476D01*
X1154286Y-1699000D01*
X1163810Y-1708524D01*
X1173333Y-1727571D01*
X1173333Y-1737095D01*
X1163810Y-1756143D01*
X1154286Y-1765667D01*
X1135238Y-1775190D01*
X1097143Y-1775190D01*
X1078095Y-1784714D01*
X1068571Y-1794238D01*
X1059048Y-1813286D01*
X1059048Y-1851381D01*
X1068571Y-1870428D01*
X1078095Y-1879952D01*
X1097143Y-1889476D01*
X1135238Y-1889476D01*
X1154286Y-1879952D01*
X1163810Y-1870428D01*
X1173333Y-1851381D01*
X1173333Y-1813286D01*
X1163810Y-1794238D01*
X1154286Y-1784714D01*
X1135238Y-1775190D01*
X1411428Y-1889476D02*
X1411428Y-1689476D01*
X1497143Y-1889476D02*
X1497143Y-1784714D01*
X1487619Y-1765667D01*
X1468571Y-1756143D01*
X1440000Y-1756143D01*
X1420952Y-1765667D01*
X1411428Y-1775190D01*
X1620952Y-1889476D02*
X1601905Y-1879952D01*
X1592381Y-1870428D01*
X1582857Y-1851381D01*
X1582857Y-1794238D01*
X1592381Y-1775190D01*
X1601905Y-1765667D01*
X1620952Y-1756143D01*
X1649524Y-1756143D01*
X1668571Y-1765667D01*
X1678095Y-1775190D01*
X1687619Y-1794238D01*
X1687619Y-1851381D01*
X1678095Y-1870428D01*
X1668571Y-1879952D01*
X1649524Y-1889476D01*
X1620952Y-1889476D01*
X1801905Y-1889476D02*
X1782857Y-1879952D01*
X1773333Y-1860905D01*
X1773333Y-1689476D01*
X1954286Y-1879952D02*
X1935238Y-1889476D01*
X1897143Y-1889476D01*
X1878095Y-1879952D01*
X1868571Y-1860905D01*
X1868571Y-1784714D01*
X1878095Y-1765667D01*
X1897143Y-1756143D01*
X1935238Y-1756143D01*
X1954286Y-1765667D01*
X1963809Y-1784714D01*
X1963809Y-1803762D01*
X1868571Y-1822809D01*
X2040000Y-1879952D02*
X2059048Y-1889476D01*
X2097143Y-1889476D01*
X2116190Y-1879952D01*
X2125714Y-1860905D01*
X2125714Y-1851381D01*
X2116190Y-1832333D01*
X2097143Y-1822809D01*
X2068571Y-1822809D01*
X2049524Y-1813286D01*
X2040000Y-1794238D01*
X2040000Y-1784714D01*
X2049524Y-1765667D01*
X2068571Y-1756143D01*
X2097143Y-1756143D01*
X2116190Y-1765667D01*
X2192381Y-1965667D02*
X2201905Y-1956143D01*
X2220952Y-1927571D01*
X2230476Y-1908524D01*
X2240000Y-1879952D01*
X2249524Y-1832333D01*
X2249524Y-1794238D01*
X2240000Y-1746619D01*
X2230476Y-1718048D01*
X2220952Y-1699000D01*
X2201905Y-1670428D01*
X2192381Y-1660905D01*
D13*
X-2790000Y-2043000D02*
X-2790000Y-2083000D01*
X-2810000Y-2063000D02*
X-2770000Y-2063000D01*
D11*
X-2474286Y-1953476D02*
X-2455238Y-1953476D01*
X-2436190Y-1963000D01*
X-2426667Y-1972524D01*
X-2417143Y-1991571D01*
X-2407619Y-2029667D01*
X-2407619Y-2077286D01*
X-2417143Y-2115381D01*
X-2426667Y-2134429D01*
X-2436190Y-2143952D01*
X-2455238Y-2153476D01*
X-2474286Y-2153476D01*
X-2493333Y-2143952D01*
X-2502857Y-2134429D01*
X-2512381Y-2115381D01*
X-2521905Y-2077286D01*
X-2521905Y-2029667D01*
X-2512381Y-1991571D01*
X-2502857Y-1972524D01*
X-2493333Y-1963000D01*
X-2474286Y-1953476D01*
X-2321905Y-2134429D02*
X-2312381Y-2143952D01*
X-2321905Y-2153476D01*
X-2331429Y-2143952D01*
X-2321905Y-2134429D01*
X-2321905Y-2153476D01*
X-2140952Y-2020143D02*
X-2140952Y-2153476D01*
X-2188571Y-1943952D02*
X-2236190Y-2086809D01*
X-2112381Y-2086809D01*
X-1998095Y-1953476D02*
X-1979048Y-1953476D01*
X-1960000Y-1963000D01*
X-1950476Y-1972524D01*
X-1940952Y-1991571D01*
X-1931428Y-2029667D01*
X-1931428Y-2077286D01*
X-1940952Y-2115381D01*
X-1950476Y-2134429D01*
X-1960000Y-2143952D01*
X-1979048Y-2153476D01*
X-1998095Y-2153476D01*
X-2017143Y-2143952D01*
X-2026667Y-2134429D01*
X-2036190Y-2115381D01*
X-2045714Y-2077286D01*
X-2045714Y-2029667D01*
X-2036190Y-1991571D01*
X-2026667Y-1972524D01*
X-2017143Y-1963000D01*
X-1998095Y-1953476D01*
X-1807619Y-1953476D02*
X-1788571Y-1953476D01*
X-1769524Y-1963000D01*
X-1760000Y-1972524D01*
X-1750476Y-1991571D01*
X-1740952Y-2029667D01*
X-1740952Y-2077286D01*
X-1750476Y-2115381D01*
X-1760000Y-2134429D01*
X-1769524Y-2143952D01*
X-1788571Y-2153476D01*
X-1807619Y-2153476D01*
X-1826667Y-2143952D01*
X-1836190Y-2134429D01*
X-1845714Y-2115381D01*
X-1855238Y-2077286D01*
X-1855238Y-2029667D01*
X-1845714Y-1991571D01*
X-1836190Y-1972524D01*
X-1826667Y-1963000D01*
X-1807619Y-1953476D01*
X-1655238Y-2153476D02*
X-1655238Y-2020143D01*
X-1655238Y-2039190D02*
X-1645714Y-2029667D01*
X-1626667Y-2020143D01*
X-1598095Y-2020143D01*
X-1579048Y-2029667D01*
X-1569524Y-2048714D01*
X-1569524Y-2153476D01*
X-1569524Y-2048714D02*
X-1560000Y-2029667D01*
X-1540952Y-2020143D01*
X-1512381Y-2020143D01*
X-1493333Y-2029667D01*
X-1483809Y-2048714D01*
X-1483809Y-2153476D01*
X-1388571Y-2153476D02*
X-1388571Y-2020143D01*
X-1388571Y-2039190D02*
X-1379048Y-2029667D01*
X-1360000Y-2020143D01*
X-1331429Y-2020143D01*
X-1312381Y-2029667D01*
X-1302857Y-2048714D01*
X-1302857Y-2153476D01*
X-1302857Y-2048714D02*
X-1293333Y-2029667D01*
X-1274286Y-2020143D01*
X-1245714Y-2020143D01*
X-1226667Y-2029667D01*
X-1217143Y-2048714D01*
X-1217143Y-2153476D01*
X-826667Y-1943952D02*
X-998095Y-2201095D01*
X-569524Y-1953476D02*
X-550476Y-1953476D01*
X-531429Y-1963000D01*
X-521905Y-1972524D01*
X-512381Y-1991571D01*
X-502857Y-2029667D01*
X-502857Y-2077286D01*
X-512381Y-2115381D01*
X-521905Y-2134429D01*
X-531429Y-2143952D01*
X-550476Y-2153476D01*
X-569524Y-2153476D01*
X-588571Y-2143952D01*
X-598095Y-2134429D01*
X-607619Y-2115381D01*
X-617143Y-2077286D01*
X-617143Y-2029667D01*
X-607619Y-1991571D01*
X-598095Y-1972524D01*
X-588571Y-1963000D01*
X-569524Y-1953476D01*
X-417143Y-2134429D02*
X-407619Y-2143952D01*
X-417143Y-2153476D01*
X-426667Y-2143952D01*
X-417143Y-2134429D01*
X-417143Y-2153476D01*
X-283810Y-1953476D02*
X-264762Y-1953476D01*
X-245714Y-1963000D01*
X-236190Y-1972524D01*
X-226667Y-1991571D01*
X-217143Y-2029667D01*
X-217143Y-2077286D01*
X-226667Y-2115381D01*
X-236190Y-2134429D01*
X-245714Y-2143952D01*
X-264762Y-2153476D01*
X-283810Y-2153476D01*
X-302857Y-2143952D01*
X-312381Y-2134429D01*
X-321905Y-2115381D01*
X-331429Y-2077286D01*
X-331429Y-2029667D01*
X-321905Y-1991571D01*
X-312381Y-1972524D01*
X-302857Y-1963000D01*
X-283810Y-1953476D01*
X-26667Y-2153476D02*
X-140952Y-2153476D01*
X-83810Y-2153476D02*
X-83810Y-1953476D01*
X-102857Y-1982048D01*
X-121905Y-2001095D01*
X-140952Y-2010619D01*
X154286Y-1953476D02*
X59048Y-1953476D01*
X49524Y-2048714D01*
X59048Y-2039190D01*
X78095Y-2029667D01*
X125714Y-2029667D01*
X144762Y-2039190D01*
X154286Y-2048714D01*
X163810Y-2067762D01*
X163810Y-2115381D01*
X154286Y-2134429D01*
X144762Y-2143952D01*
X125714Y-2153476D01*
X78095Y-2153476D01*
X59048Y-2143952D01*
X49524Y-2134429D01*
X230476Y-1953476D02*
X363809Y-1953476D01*
X278095Y-2153476D01*
X430476Y-1953476D02*
X430476Y-1991571D01*
X506667Y-1953476D02*
X506667Y-1991571D01*
X801905Y-2229667D02*
X792381Y-2220143D01*
X773333Y-2191571D01*
X763809Y-2172524D01*
X754286Y-2143952D01*
X744762Y-2096333D01*
X744762Y-2058238D01*
X754286Y-2010619D01*
X763809Y-1982048D01*
X773333Y-1963000D01*
X792381Y-1934428D01*
X801905Y-1924905D01*
X868571Y-1972524D02*
X878095Y-1963000D01*
X897143Y-1953476D01*
X944762Y-1953476D01*
X963809Y-1963000D01*
X973333Y-1972524D01*
X982857Y-1991571D01*
X982857Y-2010619D01*
X973333Y-2039190D01*
X859048Y-2153476D01*
X982857Y-2153476D01*
X1154286Y-2020143D02*
X1154286Y-2153476D01*
X1106667Y-1943952D02*
X1059048Y-2086809D01*
X1182857Y-2086809D01*
X1411428Y-2153476D02*
X1411428Y-1953476D01*
X1497143Y-2153476D02*
X1497143Y-2048714D01*
X1487619Y-2029667D01*
X1468571Y-2020143D01*
X1440000Y-2020143D01*
X1420952Y-2029667D01*
X1411428Y-2039190D01*
X1620952Y-2153476D02*
X1601905Y-2143952D01*
X1592381Y-2134429D01*
X1582857Y-2115381D01*
X1582857Y-2058238D01*
X1592381Y-2039190D01*
X1601905Y-2029667D01*
X1620952Y-2020143D01*
X1649524Y-2020143D01*
X1668571Y-2029667D01*
X1678095Y-2039190D01*
X1687619Y-2058238D01*
X1687619Y-2115381D01*
X1678095Y-2134429D01*
X1668571Y-2143952D01*
X1649524Y-2153476D01*
X1620952Y-2153476D01*
X1801905Y-2153476D02*
X1782857Y-2143952D01*
X1773333Y-2124905D01*
X1773333Y-1953476D01*
X1954286Y-2143952D02*
X1935238Y-2153476D01*
X1897143Y-2153476D01*
X1878095Y-2143952D01*
X1868571Y-2124905D01*
X1868571Y-2048714D01*
X1878095Y-2029667D01*
X1897143Y-2020143D01*
X1935238Y-2020143D01*
X1954286Y-2029667D01*
X1963809Y-2048714D01*
X1963809Y-2067762D01*
X1868571Y-2086809D01*
X2040000Y-2143952D02*
X2059048Y-2153476D01*
X2097143Y-2153476D01*
X2116190Y-2143952D01*
X2125714Y-2124905D01*
X2125714Y-2115381D01*
X2116190Y-2096333D01*
X2097143Y-2086809D01*
X2068571Y-2086809D01*
X2049524Y-2077286D01*
X2040000Y-2058238D01*
X2040000Y-2048714D01*
X2049524Y-2029667D01*
X2068571Y-2020143D01*
X2097143Y-2020143D01*
X2116190Y-2029667D01*
X2192381Y-2229667D02*
X2201905Y-2220143D01*
X2220952Y-2191571D01*
X2230476Y-2172524D01*
X2240000Y-2143952D01*
X2249524Y-2096333D01*
X2249524Y-2058238D01*
X2240000Y-2010619D01*
X2230476Y-1982048D01*
X2220952Y-1963000D01*
X2201905Y-1934428D01*
X2192381Y-1924905D01*
D14*
X-2783180Y-2358820D02*
X-2783180Y-2295180D01*
X-2846820Y-2295180D01*
X-2846820Y-2358820D01*
X-2783180Y-2358820D01*
D11*
X-2474286Y-2217476D02*
X-2455238Y-2217476D01*
X-2436190Y-2227000D01*
X-2426667Y-2236524D01*
X-2417143Y-2255571D01*
X-2407619Y-2293667D01*
X-2407619Y-2341286D01*
X-2417143Y-2379381D01*
X-2426667Y-2398429D01*
X-2436190Y-2407952D01*
X-2455238Y-2417476D01*
X-2474286Y-2417476D01*
X-2493333Y-2407952D01*
X-2502857Y-2398429D01*
X-2512381Y-2379381D01*
X-2521905Y-2341286D01*
X-2521905Y-2293667D01*
X-2512381Y-2255571D01*
X-2502857Y-2236524D01*
X-2493333Y-2227000D01*
X-2474286Y-2217476D01*
X-2321905Y-2398429D02*
X-2312381Y-2407952D01*
X-2321905Y-2417476D01*
X-2331429Y-2407952D01*
X-2321905Y-2398429D01*
X-2321905Y-2417476D01*
X-2217143Y-2417476D02*
X-2179048Y-2417476D01*
X-2160000Y-2407952D01*
X-2150476Y-2398429D01*
X-2131429Y-2369857D01*
X-2121905Y-2331762D01*
X-2121905Y-2255571D01*
X-2131429Y-2236524D01*
X-2140952Y-2227000D01*
X-2160000Y-2217476D01*
X-2198095Y-2217476D01*
X-2217143Y-2227000D01*
X-2226667Y-2236524D01*
X-2236190Y-2255571D01*
X-2236190Y-2303190D01*
X-2226667Y-2322238D01*
X-2217143Y-2331762D01*
X-2198095Y-2341286D01*
X-2160000Y-2341286D01*
X-2140952Y-2331762D01*
X-2131429Y-2322238D01*
X-2121905Y-2303190D01*
X-1998095Y-2217476D02*
X-1979048Y-2217476D01*
X-1960000Y-2227000D01*
X-1950476Y-2236524D01*
X-1940952Y-2255571D01*
X-1931428Y-2293667D01*
X-1931428Y-2341286D01*
X-1940952Y-2379381D01*
X-1950476Y-2398429D01*
X-1960000Y-2407952D01*
X-1979048Y-2417476D01*
X-1998095Y-2417476D01*
X-2017143Y-2407952D01*
X-2026667Y-2398429D01*
X-2036190Y-2379381D01*
X-2045714Y-2341286D01*
X-2045714Y-2293667D01*
X-2036190Y-2255571D01*
X-2026667Y-2236524D01*
X-2017143Y-2227000D01*
X-1998095Y-2217476D01*
X-1807619Y-2217476D02*
X-1788571Y-2217476D01*
X-1769524Y-2227000D01*
X-1760000Y-2236524D01*
X-1750476Y-2255571D01*
X-1740952Y-2293667D01*
X-1740952Y-2341286D01*
X-1750476Y-2379381D01*
X-1760000Y-2398429D01*
X-1769524Y-2407952D01*
X-1788571Y-2417476D01*
X-1807619Y-2417476D01*
X-1826667Y-2407952D01*
X-1836190Y-2398429D01*
X-1845714Y-2379381D01*
X-1855238Y-2341286D01*
X-1855238Y-2293667D01*
X-1845714Y-2255571D01*
X-1836190Y-2236524D01*
X-1826667Y-2227000D01*
X-1807619Y-2217476D01*
X-1655238Y-2417476D02*
X-1655238Y-2284143D01*
X-1655238Y-2303190D02*
X-1645714Y-2293667D01*
X-1626667Y-2284143D01*
X-1598095Y-2284143D01*
X-1579048Y-2293667D01*
X-1569524Y-2312714D01*
X-1569524Y-2417476D01*
X-1569524Y-2312714D02*
X-1560000Y-2293667D01*
X-1540952Y-2284143D01*
X-1512381Y-2284143D01*
X-1493333Y-2293667D01*
X-1483809Y-2312714D01*
X-1483809Y-2417476D01*
X-1388571Y-2417476D02*
X-1388571Y-2284143D01*
X-1388571Y-2303190D02*
X-1379048Y-2293667D01*
X-1360000Y-2284143D01*
X-1331429Y-2284143D01*
X-1312381Y-2293667D01*
X-1302857Y-2312714D01*
X-1302857Y-2417476D01*
X-1302857Y-2312714D02*
X-1293333Y-2293667D01*
X-1274286Y-2284143D01*
X-1245714Y-2284143D01*
X-1226667Y-2293667D01*
X-1217143Y-2312714D01*
X-1217143Y-2417476D01*
X-826667Y-2207952D02*
X-998095Y-2465095D01*
X-569524Y-2217476D02*
X-550476Y-2217476D01*
X-531429Y-2227000D01*
X-521905Y-2236524D01*
X-512381Y-2255571D01*
X-502857Y-2293667D01*
X-502857Y-2341286D01*
X-512381Y-2379381D01*
X-521905Y-2398429D01*
X-531429Y-2407952D01*
X-550476Y-2417476D01*
X-569524Y-2417476D01*
X-588571Y-2407952D01*
X-598095Y-2398429D01*
X-607619Y-2379381D01*
X-617143Y-2341286D01*
X-617143Y-2293667D01*
X-607619Y-2255571D01*
X-598095Y-2236524D01*
X-588571Y-2227000D01*
X-569524Y-2217476D01*
X-417143Y-2398429D02*
X-407619Y-2407952D01*
X-417143Y-2417476D01*
X-426667Y-2407952D01*
X-417143Y-2398429D01*
X-417143Y-2417476D01*
X-283810Y-2217476D02*
X-264762Y-2217476D01*
X-245714Y-2227000D01*
X-236190Y-2236524D01*
X-226667Y-2255571D01*
X-217143Y-2293667D01*
X-217143Y-2341286D01*
X-226667Y-2379381D01*
X-236190Y-2398429D01*
X-245714Y-2407952D01*
X-264762Y-2417476D01*
X-283810Y-2417476D01*
X-302857Y-2407952D01*
X-312381Y-2398429D01*
X-321905Y-2379381D01*
X-331429Y-2341286D01*
X-331429Y-2293667D01*
X-321905Y-2255571D01*
X-312381Y-2236524D01*
X-302857Y-2227000D01*
X-283810Y-2217476D01*
X-150476Y-2217476D02*
X-26667Y-2217476D01*
X-93333Y-2293667D01*
X-64762Y-2293667D01*
X-45714Y-2303190D01*
X-36190Y-2312714D01*
X-26667Y-2331762D01*
X-26667Y-2379381D01*
X-36190Y-2398429D01*
X-45714Y-2407952D01*
X-64762Y-2417476D01*
X-121905Y-2417476D01*
X-140952Y-2407952D01*
X-150476Y-2398429D01*
X154286Y-2217476D02*
X59048Y-2217476D01*
X49524Y-2312714D01*
X59048Y-2303190D01*
X78095Y-2293667D01*
X125714Y-2293667D01*
X144762Y-2303190D01*
X154286Y-2312714D01*
X163810Y-2331762D01*
X163810Y-2379381D01*
X154286Y-2398429D01*
X144762Y-2407952D01*
X125714Y-2417476D01*
X78095Y-2417476D01*
X59048Y-2407952D01*
X49524Y-2398429D01*
X335238Y-2284143D02*
X335238Y-2417476D01*
X287619Y-2207952D02*
X240000Y-2350810D01*
X363809Y-2350810D01*
X430476Y-2217476D02*
X430476Y-2255571D01*
X506667Y-2217476D02*
X506667Y-2255571D01*
X801905Y-2493667D02*
X792381Y-2484143D01*
X773333Y-2455571D01*
X763809Y-2436524D01*
X754286Y-2407952D01*
X744762Y-2360333D01*
X744762Y-2322238D01*
X754286Y-2274619D01*
X763809Y-2246048D01*
X773333Y-2227000D01*
X792381Y-2198429D01*
X801905Y-2188905D01*
X916190Y-2217476D02*
X935238Y-2217476D01*
X954286Y-2227000D01*
X963809Y-2236524D01*
X973333Y-2255571D01*
X982857Y-2293667D01*
X982857Y-2341286D01*
X973333Y-2379381D01*
X963809Y-2398429D01*
X954286Y-2407952D01*
X935238Y-2417476D01*
X916190Y-2417476D01*
X897143Y-2407952D01*
X887619Y-2398429D01*
X878095Y-2379381D01*
X868571Y-2341286D01*
X868571Y-2293667D01*
X878095Y-2255571D01*
X887619Y-2236524D01*
X897143Y-2227000D01*
X916190Y-2217476D01*
X1220952Y-2417476D02*
X1220952Y-2217476D01*
X1306667Y-2417476D02*
X1306667Y-2312714D01*
X1297143Y-2293667D01*
X1278095Y-2284143D01*
X1249524Y-2284143D01*
X1230476Y-2293667D01*
X1220952Y-2303190D01*
X1430476Y-2417476D02*
X1411428Y-2407952D01*
X1401905Y-2398429D01*
X1392381Y-2379381D01*
X1392381Y-2322238D01*
X1401905Y-2303190D01*
X1411428Y-2293667D01*
X1430476Y-2284143D01*
X1459048Y-2284143D01*
X1478095Y-2293667D01*
X1487619Y-2303190D01*
X1497143Y-2322238D01*
X1497143Y-2379381D01*
X1487619Y-2398429D01*
X1478095Y-2407952D01*
X1459048Y-2417476D01*
X1430476Y-2417476D01*
X1611428Y-2417476D02*
X1592381Y-2407952D01*
X1582857Y-2388905D01*
X1582857Y-2217476D01*
X1763809Y-2407952D02*
X1744762Y-2417476D01*
X1706667Y-2417476D01*
X1687619Y-2407952D01*
X1678095Y-2388905D01*
X1678095Y-2312714D01*
X1687619Y-2293667D01*
X1706667Y-2284143D01*
X1744762Y-2284143D01*
X1763809Y-2293667D01*
X1773333Y-2312714D01*
X1773333Y-2331762D01*
X1678095Y-2350810D01*
X1849524Y-2407952D02*
X1868571Y-2417476D01*
X1906667Y-2417476D01*
X1925714Y-2407952D01*
X1935238Y-2388905D01*
X1935238Y-2379381D01*
X1925714Y-2360333D01*
X1906667Y-2350810D01*
X1878095Y-2350810D01*
X1859048Y-2341286D01*
X1849524Y-2322238D01*
X1849524Y-2312714D01*
X1859048Y-2293667D01*
X1878095Y-2284143D01*
X1906667Y-2284143D01*
X1925714Y-2293667D01*
X2173333Y-2341286D02*
X2325714Y-2341286D01*
X2249524Y-2417476D02*
X2249524Y-2265095D01*
X2601905Y-2303190D02*
X2582857Y-2293667D01*
X2573333Y-2284143D01*
X2563810Y-2265095D01*
X2563810Y-2255571D01*
X2573333Y-2236524D01*
X2582857Y-2227000D01*
X2601905Y-2217476D01*
X2640000Y-2217476D01*
X2659048Y-2227000D01*
X2668571Y-2236524D01*
X2678095Y-2255571D01*
X2678095Y-2265095D01*
X2668571Y-2284143D01*
X2659048Y-2293667D01*
X2640000Y-2303190D01*
X2601905Y-2303190D01*
X2582857Y-2312714D01*
X2573333Y-2322238D01*
X2563810Y-2341286D01*
X2563810Y-2379381D01*
X2573333Y-2398429D01*
X2582857Y-2407952D01*
X2601905Y-2417476D01*
X2640000Y-2417476D01*
X2659048Y-2407952D01*
X2668571Y-2398429D01*
X2678095Y-2379381D01*
X2678095Y-2341286D01*
X2668571Y-2322238D01*
X2659048Y-2312714D01*
X2640000Y-2303190D01*
X2906667Y-2407952D02*
X2925714Y-2417476D01*
X2963809Y-2417476D01*
X2982857Y-2407952D01*
X2992381Y-2388905D01*
X2992381Y-2379381D01*
X2982857Y-2360333D01*
X2963809Y-2350810D01*
X2935238Y-2350810D01*
X2916190Y-2341286D01*
X2906667Y-2322238D01*
X2906667Y-2312714D01*
X2916190Y-2293667D01*
X2935238Y-2284143D01*
X2963809Y-2284143D01*
X2982857Y-2293667D01*
X3106667Y-2417476D02*
X3087619Y-2407952D01*
X3078095Y-2388905D01*
X3078095Y-2217476D01*
X3211428Y-2417476D02*
X3192381Y-2407952D01*
X3182857Y-2398429D01*
X3173333Y-2379381D01*
X3173333Y-2322238D01*
X3182857Y-2303190D01*
X3192381Y-2293667D01*
X3211428Y-2284143D01*
X3240000Y-2284143D01*
X3259048Y-2293667D01*
X3268571Y-2303190D01*
X3278095Y-2322238D01*
X3278095Y-2379381D01*
X3268571Y-2398429D01*
X3259048Y-2407952D01*
X3240000Y-2417476D01*
X3211428Y-2417476D01*
X3335238Y-2284143D02*
X3411428Y-2284143D01*
X3363809Y-2217476D02*
X3363809Y-2388905D01*
X3373333Y-2407952D01*
X3392381Y-2417476D01*
X3411428Y-2417476D01*
X3468571Y-2407952D02*
X3487619Y-2417476D01*
X3525714Y-2417476D01*
X3544762Y-2407952D01*
X3554286Y-2388905D01*
X3554286Y-2379381D01*
X3544762Y-2360333D01*
X3525714Y-2350810D01*
X3497143Y-2350810D01*
X3478095Y-2341286D01*
X3468571Y-2322238D01*
X3468571Y-2312714D01*
X3478095Y-2293667D01*
X3497143Y-2284143D01*
X3525714Y-2284143D01*
X3544762Y-2293667D01*
X3620952Y-2493667D02*
X3630476Y-2484143D01*
X3649524Y-2455571D01*
X3659048Y-2436524D01*
X3668571Y-2407952D01*
X3678095Y-2360333D01*
X3678095Y-2322238D01*
X3668571Y-2274619D01*
X3659048Y-2246048D01*
X3649524Y-2227000D01*
X3630476Y-2198429D01*
X3620952Y-2188905D01*
D15*
X-2825000Y-2646000D02*
X-2770000Y-2591000D01*
X-2825000Y-2536000D01*
X-2880000Y-2591000D01*
X-2825000Y-2646000D01*
D11*
X-2407619Y-2681476D02*
X-2521905Y-2681476D01*
X-2464762Y-2681476D02*
X-2464762Y-2481476D01*
X-2483810Y-2510048D01*
X-2502857Y-2529095D01*
X-2521905Y-2538619D01*
X-2321905Y-2662429D02*
X-2312381Y-2671952D01*
X-2321905Y-2681476D01*
X-2331429Y-2671952D01*
X-2321905Y-2662429D01*
X-2321905Y-2681476D01*
X-2121905Y-2681476D02*
X-2236190Y-2681476D01*
X-2179048Y-2681476D02*
X-2179048Y-2481476D01*
X-2198095Y-2510048D01*
X-2217143Y-2529095D01*
X-2236190Y-2538619D01*
X-1998095Y-2481476D02*
X-1979048Y-2481476D01*
X-1960000Y-2491000D01*
X-1950476Y-2500524D01*
X-1940952Y-2519571D01*
X-1931428Y-2557667D01*
X-1931428Y-2605286D01*
X-1940952Y-2643381D01*
X-1950476Y-2662429D01*
X-1960000Y-2671952D01*
X-1979048Y-2681476D01*
X-1998095Y-2681476D01*
X-2017143Y-2671952D01*
X-2026667Y-2662429D01*
X-2036190Y-2643381D01*
X-2045714Y-2605286D01*
X-2045714Y-2557667D01*
X-2036190Y-2519571D01*
X-2026667Y-2500524D01*
X-2017143Y-2491000D01*
X-1998095Y-2481476D01*
X-1807619Y-2481476D02*
X-1788571Y-2481476D01*
X-1769524Y-2491000D01*
X-1760000Y-2500524D01*
X-1750476Y-2519571D01*
X-1740952Y-2557667D01*
X-1740952Y-2605286D01*
X-1750476Y-2643381D01*
X-1760000Y-2662429D01*
X-1769524Y-2671952D01*
X-1788571Y-2681476D01*
X-1807619Y-2681476D01*
X-1826667Y-2671952D01*
X-1836190Y-2662429D01*
X-1845714Y-2643381D01*
X-1855238Y-2605286D01*
X-1855238Y-2557667D01*
X-1845714Y-2519571D01*
X-1836190Y-2500524D01*
X-1826667Y-2491000D01*
X-1807619Y-2481476D01*
X-1655238Y-2681476D02*
X-1655238Y-2548143D01*
X-1655238Y-2567190D02*
X-1645714Y-2557667D01*
X-1626667Y-2548143D01*
X-1598095Y-2548143D01*
X-1579048Y-2557667D01*
X-1569524Y-2576714D01*
X-1569524Y-2681476D01*
X-1569524Y-2576714D02*
X-1560000Y-2557667D01*
X-1540952Y-2548143D01*
X-1512381Y-2548143D01*
X-1493333Y-2557667D01*
X-1483809Y-2576714D01*
X-1483809Y-2681476D01*
X-1388571Y-2681476D02*
X-1388571Y-2548143D01*
X-1388571Y-2567190D02*
X-1379048Y-2557667D01*
X-1360000Y-2548143D01*
X-1331429Y-2548143D01*
X-1312381Y-2557667D01*
X-1302857Y-2576714D01*
X-1302857Y-2681476D01*
X-1302857Y-2576714D02*
X-1293333Y-2557667D01*
X-1274286Y-2548143D01*
X-1245714Y-2548143D01*
X-1226667Y-2557667D01*
X-1217143Y-2576714D01*
X-1217143Y-2681476D01*
X-826667Y-2471952D02*
X-998095Y-2729095D01*
X-569524Y-2481476D02*
X-550476Y-2481476D01*
X-531429Y-2491000D01*
X-521905Y-2500524D01*
X-512381Y-2519571D01*
X-502857Y-2557667D01*
X-502857Y-2605286D01*
X-512381Y-2643381D01*
X-521905Y-2662429D01*
X-531429Y-2671952D01*
X-550476Y-2681476D01*
X-569524Y-2681476D01*
X-588571Y-2671952D01*
X-598095Y-2662429D01*
X-607619Y-2643381D01*
X-617143Y-2605286D01*
X-617143Y-2557667D01*
X-607619Y-2519571D01*
X-598095Y-2500524D01*
X-588571Y-2491000D01*
X-569524Y-2481476D01*
X-417143Y-2662429D02*
X-407619Y-2671952D01*
X-417143Y-2681476D01*
X-426667Y-2671952D01*
X-417143Y-2662429D01*
X-417143Y-2681476D01*
X-283810Y-2481476D02*
X-264762Y-2481476D01*
X-245714Y-2491000D01*
X-236190Y-2500524D01*
X-226667Y-2519571D01*
X-217143Y-2557667D01*
X-217143Y-2605286D01*
X-226667Y-2643381D01*
X-236190Y-2662429D01*
X-245714Y-2671952D01*
X-264762Y-2681476D01*
X-283810Y-2681476D01*
X-302857Y-2671952D01*
X-312381Y-2662429D01*
X-321905Y-2643381D01*
X-331429Y-2605286D01*
X-331429Y-2557667D01*
X-321905Y-2519571D01*
X-312381Y-2500524D01*
X-302857Y-2491000D01*
X-283810Y-2481476D01*
X-45714Y-2548143D02*
X-45714Y-2681476D01*
X-93333Y-2471952D02*
X-140952Y-2614810D01*
X-17143Y-2614810D01*
X40000Y-2481476D02*
X163810Y-2481476D01*
X97143Y-2557667D01*
X125714Y-2557667D01*
X144762Y-2567190D01*
X154286Y-2576714D01*
X163810Y-2595762D01*
X163810Y-2643381D01*
X154286Y-2662429D01*
X144762Y-2671952D01*
X125714Y-2681476D01*
X68571Y-2681476D01*
X49524Y-2671952D01*
X40000Y-2662429D01*
X230476Y-2481476D02*
X354286Y-2481476D01*
X287619Y-2557667D01*
X316190Y-2557667D01*
X335238Y-2567190D01*
X344762Y-2576714D01*
X354286Y-2595762D01*
X354286Y-2643381D01*
X344762Y-2662429D01*
X335238Y-2671952D01*
X316190Y-2681476D01*
X259048Y-2681476D01*
X240000Y-2671952D01*
X230476Y-2662429D01*
X430476Y-2481476D02*
X430476Y-2519571D01*
X506667Y-2481476D02*
X506667Y-2519571D01*
X801905Y-2757667D02*
X792381Y-2748143D01*
X773333Y-2719571D01*
X763809Y-2700524D01*
X754286Y-2671952D01*
X744762Y-2624333D01*
X744762Y-2586238D01*
X754286Y-2538619D01*
X763809Y-2510048D01*
X773333Y-2491000D01*
X792381Y-2462429D01*
X801905Y-2452905D01*
X982857Y-2681476D02*
X868571Y-2681476D01*
X925714Y-2681476D02*
X925714Y-2481476D01*
X906667Y-2510048D01*
X887619Y-2529095D01*
X868571Y-2538619D01*
X1059048Y-2500524D02*
X1068571Y-2491000D01*
X1087619Y-2481476D01*
X1135238Y-2481476D01*
X1154286Y-2491000D01*
X1163810Y-2500524D01*
X1173333Y-2519571D01*
X1173333Y-2538619D01*
X1163810Y-2567190D01*
X1049524Y-2681476D01*
X1173333Y-2681476D01*
X1249524Y-2500524D02*
X1259048Y-2491000D01*
X1278095Y-2481476D01*
X1325714Y-2481476D01*
X1344762Y-2491000D01*
X1354286Y-2500524D01*
X1363810Y-2519571D01*
X1363810Y-2538619D01*
X1354286Y-2567190D01*
X1240000Y-2681476D01*
X1363810Y-2681476D01*
X1601905Y-2681476D02*
X1601905Y-2481476D01*
X1687619Y-2681476D02*
X1687619Y-2576714D01*
X1678095Y-2557667D01*
X1659048Y-2548143D01*
X1630476Y-2548143D01*
X1611428Y-2557667D01*
X1601905Y-2567190D01*
X1811428Y-2681476D02*
X1792381Y-2671952D01*
X1782857Y-2662429D01*
X1773333Y-2643381D01*
X1773333Y-2586238D01*
X1782857Y-2567190D01*
X1792381Y-2557667D01*
X1811428Y-2548143D01*
X1840000Y-2548143D01*
X1859048Y-2557667D01*
X1868571Y-2567190D01*
X1878095Y-2586238D01*
X1878095Y-2643381D01*
X1868571Y-2662429D01*
X1859048Y-2671952D01*
X1840000Y-2681476D01*
X1811428Y-2681476D01*
X1992381Y-2681476D02*
X1973333Y-2671952D01*
X1963809Y-2652905D01*
X1963809Y-2481476D01*
X2144762Y-2671952D02*
X2125714Y-2681476D01*
X2087619Y-2681476D01*
X2068571Y-2671952D01*
X2059048Y-2652905D01*
X2059048Y-2576714D01*
X2068571Y-2557667D01*
X2087619Y-2548143D01*
X2125714Y-2548143D01*
X2144762Y-2557667D01*
X2154286Y-2576714D01*
X2154286Y-2595762D01*
X2059048Y-2614810D01*
X2230476Y-2671952D02*
X2249524Y-2681476D01*
X2287619Y-2681476D01*
X2306667Y-2671952D01*
X2316190Y-2652905D01*
X2316190Y-2643381D01*
X2306667Y-2624333D01*
X2287619Y-2614810D01*
X2259048Y-2614810D01*
X2240000Y-2605286D01*
X2230476Y-2586238D01*
X2230476Y-2576714D01*
X2240000Y-2557667D01*
X2259048Y-2548143D01*
X2287619Y-2548143D01*
X2306667Y-2557667D01*
X2382857Y-2757667D02*
X2392381Y-2748143D01*
X2411429Y-2719571D01*
X2420952Y-2700524D01*
X2430476Y-2671952D01*
X2440000Y-2624333D01*
X2440000Y-2586238D01*
X2430476Y-2538619D01*
X2420952Y-2510048D01*
X2411429Y-2491000D01*
X2392381Y-2462429D01*
X2382857Y-2452905D01*
M02*
