%TF.GenerationSoftware,KiCad,Pcbnew,(6.0.10)*%
%TF.CreationDate,2023-01-29T20:47:48-05:00*%
%TF.ProjectId,shortstack,73686f72-7473-4746-9163-6b2e6b696361,v1.0.0*%
%TF.SameCoordinates,Original*%
%TF.FileFunction,Paste,Top*%
%TF.FilePolarity,Positive*%
%FSLAX46Y46*%
G04 Gerber Fmt 4.6, Leading zero omitted, Abs format (unit mm)*
G04 Created by KiCad (PCBNEW (6.0.10)) date 2023-01-29 20:47:48*
%MOMM*%
%LPD*%
G01*
G04 APERTURE LIST*
%ADD10R,0.900000X1.200000*%
G04 APERTURE END LIST*
D10*
%TO.C,D2*%
X-1650000Y13000000D03*
X1650000Y13000000D03*
%TD*%
%TO.C,D20*%
X69350000Y48500000D03*
X72650000Y48500000D03*
%TD*%
%TO.C,D6*%
X16100000Y13000000D03*
X19400000Y13000000D03*
%TD*%
%TO.C,D7*%
X16100000Y30750000D03*
X19400000Y30750000D03*
%TD*%
%TO.C,D4*%
X-1650000Y48500000D03*
X1650000Y48500000D03*
%TD*%
%TO.C,D14*%
X51600000Y13000000D03*
X54900000Y13000000D03*
%TD*%
%TO.C,D10*%
X33850000Y13000000D03*
X37150000Y13000000D03*
%TD*%
%TO.C,D1*%
X-1650000Y-4750000D03*
X1650000Y-4750000D03*
%TD*%
%TO.C,D15*%
X51600000Y30750000D03*
X54900000Y30750000D03*
%TD*%
%TO.C,D17*%
X69350000Y-4750000D03*
X72650000Y-4750000D03*
%TD*%
%TO.C,D13*%
X51600000Y-4750000D03*
X54900000Y-4750000D03*
%TD*%
%TO.C,D11*%
X33850000Y30750000D03*
X37150000Y30750000D03*
%TD*%
%TO.C,D23*%
X87100000Y30750000D03*
X90400000Y30750000D03*
%TD*%
%TO.C,D16*%
X51600000Y48500000D03*
X54900000Y48500000D03*
%TD*%
%TO.C,D3*%
X-1650000Y30750000D03*
X1650000Y30750000D03*
%TD*%
%TO.C,D12*%
X33850000Y48500000D03*
X37150000Y48500000D03*
%TD*%
%TO.C,D5*%
X16100000Y-4750000D03*
X19400000Y-4750000D03*
%TD*%
%TO.C,D21*%
X87100000Y-4750000D03*
X90400000Y-4750000D03*
%TD*%
%TO.C,D18*%
X69350000Y13000000D03*
X72650000Y13000000D03*
%TD*%
%TO.C,D19*%
X69350000Y30750000D03*
X72650000Y30750000D03*
%TD*%
%TO.C,D22*%
X87100000Y13000000D03*
X90400000Y13000000D03*
%TD*%
%TO.C,D9*%
X33850000Y-4750000D03*
X37150000Y-4750000D03*
%TD*%
%TO.C,D8*%
X16100000Y48500000D03*
X19400000Y48500000D03*
%TD*%
%TO.C,D24*%
X87100000Y48500000D03*
X90400000Y48500000D03*
%TD*%
M02*
